<?xml version="1.0" encoding="UTF-8"?>
<svg xmlns="http://www.w3.org/2000/svg" style="stroke-dasharray:none; shape-rendering:auto; font-family:'Arial'; text-rendering:auto; fill-opacity:1; color-interpolation:auto; color-rendering:auto; font-size:12; fill:black; stroke:black; image-rendering:auto; stroke-miterlimit:10; stroke-linecap:square; stroke-linejoin:miter; font-style:normal; stroke-width:1; stroke-dashoffset:0; font-weight:normal; stroke-opacity:1;" contentScriptType="text/ecmascript" preserveAspectRatio="xMidYMid meet" zoomAndPan="magnify" version="1.0" contentStyleType="text/css" xml:xlink="http://www.w3.org/1999/xlink" width="1028" height="599"><rect x="0" y="3" width="700" height="150" ry="0" rx="0" style="stroke:#000000; fill:#9FC1C6" /><rect x="0" y="153" width="700" height="150" ry="0" rx="0" style="stroke:#000000; fill:#82B0B7" /><rect x="0" y="301" width="700" height="150" ry="0" rx="0" style="stroke:#000000; fill:#ADC9AC" /><g componentSequence="3"><text x="-376" y="7" transform="rotate(270)" text-anchor="middle" style="font-weight:bold;font-size:10px;stroke:none; fill:#434343"><tspan dy="14" x="-376">Recebimento</tspan></text></g><g sequence="4"><ellipse cx="166" cy="84" rx="17" ry="17" stroke-width="1" style="fill:url(#linearGradient66FF6696FF96B6FFB6_2128071744);" stroke="336633" /></g><g sequence="5"><rect x="170" y="201" width="106" height="70" ry="5" rx="5" style="fill:url(#linearGradientF8FBFEEDF5FCDEEDFAD4E7F8E2E5E9_1880108522);" stroke="191970" /></g><g componentSequence="5"><text x="223" y="216" text-anchor="middle" style="font-weight:bold;font-size:10px;stroke:none; fill:#333399"><tspan dy="14" x="223">Análise</tspan><tspan dy="14" x="223">Financeira</tspan></text></g><g sequence="7"><rect x="178" y="346" width="106" height="70" ry="5" rx="5" style="fill:url(#linearGradientF8FBFEEDF5FCDEEDFAD4E7F8E2E5E9_1949280048);" stroke="191970" /></g><g componentSequence="7"><text x="231" y="361" text-anchor="middle" style="font-weight:bold;font-size:10px;stroke:none; fill:#333399"><tspan dy="14" x="231">Aprovação</tspan><tspan dy="14" x="231">diretor</tspan></text></g><g sequence="8"><polygon points=" 353 232 383 202 413 232 383 262 353 232" style="fill:url(#linearGradientFAFBFCFFFFCC_825042897);" stroke="000000" /></g><g componentSequence="8"><text x="383" y="272" text-anchor="middle" style="font-weight:bold;font-size:10px;stroke:none; fill:#333399"><tspan dy="14" x="383">Financeir</tspan><tspan dy="14" x="383">o</tspan><tspan dy="14" x="383">apro...</tspan></text></g><g sequence="11"><polygon points=" 520 378 550 348 580 378 550 408 520 378" style="fill:url(#linearGradientFAFBFCFFFFCC_1910003832);" stroke="000000" /></g><g componentSequence="11"><text x="550" y="418" text-anchor="middle" style="font-weight:bold;font-size:10px;stroke:none; fill:#333399"><tspan dy="14" x="550">Diretoria</tspan><tspan dy="14" x="550">aprovou</tspan><tspan dy="14" x="550">?</tspan></text></g><g sequence="17"><rect x="488" y="225" width="106" height="84" ry="5" rx="5" style="fill:url(#linearGradientF8FBFEEDF5FCDEEDFAD4E7F8E2E5E9_5657812);" stroke="191970" /></g><g componentSequence="17"><text x="541" y="240" text-anchor="middle" style="font-weight:bold;font-size:10px;stroke:none; fill:#333399"><tspan dy="14" x="541">Alterar</tspan><tspan dy="14" x="541">vencimento do</tspan><tspan dy="14" x="541">título</tspan></text></g><g sequence="24"><rect x="739" y="53" width="106" height="70" ry="5" rx="5" style="fill:url(#linearGradientF8FBFEEDF5FCDEEDFAD4E7F8E2E5E9_155809225);" stroke="191970" /></g><g componentSequence="24"><text x="792" y="68" text-anchor="middle" style="font-weight:bold;font-size:10px;stroke:none; fill:#333399"><tspan dy="14" x="792">Informar</tspan><tspan dy="14" x="792">vendedor</tspan></text></g><g sequence="26"><polygon points=" 343 85 373 55 403 85 373 115 343 85" style="fill:url(#linearGradientFAFBFCFFFFCC_1359141022);" stroke="000000" /></g><g componentSequence="26"><text x="373" y="125" text-anchor="middle" style="font-weight:bold;font-size:10px;stroke:none; fill:#333399"><tspan dy="14" x="373">Tentar</tspan><tspan dy="14" x="373">com</tspan><tspan dy="14" x="373">me...</tspan></text></g><g sequence="29"><ellipse cx="251" cy="80" rx="17" ry="17" stroke-width="3" style="fill:url(#linearGradientFF6666FF9696FFB6B6_1655325022);" stroke="993333" /></g><g sequence="33"><ellipse cx="629" cy="194" rx="17" ry="17" stroke-width="3" style="fill:url(#linearGradientFF6666FF9696FFB6B6_1349011755);" stroke="993333" /></g><g componentSequence="14"><text x="808" y="466" style="font-size:10px;font-weight:none;stroke:none; fill:#333399" text-anchor="left"><tspan dy="14" x="808">Não</tspan></text></g><g componentSequence="15"><text x="548" y="306" style="font-size:10px;font-weight:none;stroke:none; fill:#333399" text-anchor="left" /></g><g componentSequence="17"><text x="970" y="526" style="font-size:10px;font-weight:none;stroke:none; fill:#333399" text-anchor="left" /></g><g componentSequence="18"><text x="833" y="312" style="font-size:10px;font-weight:none;stroke:none; fill:#333399" text-anchor="left" /></g><g componentSequence="19"><text x="186" y="144" style="font-size:10px;font-weight:none;stroke:none; fill:#333399" text-anchor="left" /></g><g componentSequence="20"><text x="272" y="243" style="font-size:10px;font-weight:none;stroke:none; fill:#333399" text-anchor="left" /></g><g componentSequence="21"><text x="688" y="393" style="font-size:10px;font-weight:none;stroke:none; fill:#333399" text-anchor="left" /></g><g componentSequence="22"><text x="253" y="152" style="font-size:10px;font-weight:none;stroke:none; fill:#333399" text-anchor="left"><tspan dy="14" x="253">Não</tspan></text></g><g componentSequence="23"><text x="394" y="243" style="font-size:10px;font-weight:none;stroke:none; fill:#333399" text-anchor="left"><tspan dy="14" x="394">Sim</tspan></text></g><g componentSequence="25"><text x="682" y="235" style="font-size:10px;font-weight:none;stroke:none; fill:#333399" text-anchor="left"><tspan dy="14" x="682">Sim</tspan></text></g><path style="fill:none; stroke:#000000;stroke-width:1" d="M176.0 89.0 L176.0 197.0" /><polygon style="fill:#000000; stroke:#000000;" points=" 181 187 176 197 171 187 176 189" /><path style="fill:none; stroke:#000000;stroke-width:1" d="M294.0 214.0 L187.0 85.0" /><polygon style="fill:#000000; stroke:#000000;" points=" 190 96 187 85 197 90 192 91" /><path style="fill:none; stroke:#000000;stroke-width:1" d="M230.0 239.0 L294.0 247.0" /><polygon style="fill:#000000; stroke:#000000;" points=" 285 241 294 247 283 251 286 246" /><path style="fill:none; stroke:#000000;stroke-width:1" d="M355.0 247.0 L413.0 239.0" /><polygon style="fill:#000000; stroke:#000000;" points=" 402 235 413 239 404 245 405 240" /><path style="fill:none; stroke:#000000;stroke-width:1" d="M501.0 267.0 L575.0 345.0" /><polygon style="fill:#000000; stroke:#000000;" points=" 572 334 575 345 564 341 569 339" /><path style="fill:none; stroke:#000000;stroke-width:1" d="M928.0 529.0 L993.0 522.0" /><polygon style="fill:#000000; stroke:#000000;" points=" 983 518 993 522 984 528 985 523" /><path style="fill:none; stroke:#000000;stroke-width:1" d="M761.0 433.0 L834.0 498.0" /><polygon style="fill:#000000; stroke:#000000;" points=" 830 488 834 498 823 495 828 493" /><path style="fill:none; stroke:#000000;stroke-width:1" d="M652.0 121.0 L999.0 508.0" /><polygon style="fill:#000000; stroke:#000000;" points=" 996 497 999 508 989 504 994 502" /><path style="fill:none; stroke:#000000;stroke-width:1" d="M711.0 348.0 L633.0 121.0" /><polygon style="fill:#000000; stroke:#000000;" points=" 632 132 633 121 641 129 636 129" /><path style="fill:none; stroke:#000000;stroke-width:1" d="M656.0 387.0 L700.0 399.0" /><polygon style="fill:#000000; stroke:#000000;" points=" 692 392 700 399 689 401 692 397" /><defs><linearGradient xmlns:xlink="http://www.w3.org/1999/xlink" xlink:href="#linearGradient66FF6696FF96B6FFB6" id="linearGradient66FF6696FF96B6FFB6_2128071744" x1="0" y1="67.0" x2="0" y2="102.0" gradientUnits="userSpaceOnUse" xlink:type="simple" xlink:actuate="onLoad" xlink:show="other" /><linearGradient id="linearGradient66FF6696FF96B6FFB6"><stop style="stop-color:#66FF66;stop-opacity:1;" offset="0.0" id="stop66FF66" /><stop style="stop-color:#96FF96;stop-opacity:1;" offset="0.5" id="stop96FF96" /><stop style="stop-color:#B6FFB6;stop-opacity:1;" offset="1.0" id="stopB6FFB6" /></linearGradient><linearGradient xmlns:xlink="http://www.w3.org/1999/xlink" xlink:href="#linearGradientF8FBFEEDF5FCDEEDFAD4E7F8E2E5E9" id="linearGradientF8FBFEEDF5FCDEEDFAD4E7F8E2E5E9_1880108522" x1="0" y1="201.0" x2="0" y2="307.0" gradientUnits="userSpaceOnUse" xlink:type="simple" xlink:actuate="onLoad" xlink:show="other" /><linearGradient id="linearGradientF8FBFEEDF5FCDEEDFAD4E7F8E2E5E9"><stop style="stop-color:#F8FBFE;stop-opacity:1;" offset="0.0" id="stopF8FBFE" /><stop style="stop-color:#EDF5FC;stop-opacity:1;" offset="0.25" id="stopEDF5FC" /><stop style="stop-color:#DEEDFA;stop-opacity:1;" offset="0.5" id="stopDEEDFA" /><stop style="stop-color:#D4E7F8;stop-opacity:1;" offset="0.75" id="stopD4E7F8" /><stop style="stop-color:#E2E5E9;stop-opacity:1;" offset="1.0" id="stopE2E5E9" /></linearGradient><linearGradient xmlns:xlink="http://www.w3.org/1999/xlink" xlink:href="#linearGradientF8FBFEEDF5FCDEEDFAD4E7F8E2E5E9" id="linearGradientF8FBFEEDF5FCDEEDFAD4E7F8E2E5E9_1949280048" x1="0" y1="346.0" x2="0" y2="452.0" gradientUnits="userSpaceOnUse" xlink:type="simple" xlink:actuate="onLoad" xlink:show="other" /><linearGradient xmlns:xlink="http://www.w3.org/1999/xlink" xlink:href="#linearGradientFAFBFCFFFFCC" id="linearGradientFAFBFCFFFFCC_825042897" x1="0" y1="202.0" x2="0" y2="262.0" gradientUnits="userSpaceOnUse" xlink:type="simple" xlink:actuate="onLoad" xlink:show="other" /><linearGradient id="linearGradientFAFBFCFFFFCC"><stop style="stop-color:#FAFBFC;stop-opacity:1;" offset="0.0" id="stopFAFBFC" /><stop style="stop-color:#FFFFCC;stop-opacity:1;" offset="1.0" id="stopFFFFCC" /></linearGradient><linearGradient xmlns:xlink="http://www.w3.org/1999/xlink" xlink:href="#linearGradientFAFBFCFFFFCC" id="linearGradientFAFBFCFFFFCC_1910003832" x1="0" y1="348.0" x2="0" y2="408.0" gradientUnits="userSpaceOnUse" xlink:type="simple" xlink:actuate="onLoad" xlink:show="other" /><linearGradient xmlns:xlink="http://www.w3.org/1999/xlink" xlink:href="#linearGradientF8FBFEEDF5FCDEEDFAD4E7F8E2E5E9" id="linearGradientF8FBFEEDF5FCDEEDFAD4E7F8E2E5E9_5657812" x1="0" y1="225.0" x2="0" y2="331.0" gradientUnits="userSpaceOnUse" xlink:type="simple" xlink:actuate="onLoad" xlink:show="other" /><linearGradient xmlns:xlink="http://www.w3.org/1999/xlink" xlink:href="#linearGradientF8FBFEEDF5FCDEEDFAD4E7F8E2E5E9" id="linearGradientF8FBFEEDF5FCDEEDFAD4E7F8E2E5E9_155809225" x1="0" y1="53.0" x2="0" y2="159.0" gradientUnits="userSpaceOnUse" xlink:type="simple" xlink:actuate="onLoad" xlink:show="other" /><linearGradient xmlns:xlink="http://www.w3.org/1999/xlink" xlink:href="#linearGradientFAFBFCFFFFCC" id="linearGradientFAFBFCFFFFCC_1359141022" x1="0" y1="55.0" x2="0" y2="115.0" gradientUnits="userSpaceOnUse" xlink:type="simple" xlink:actuate="onLoad" xlink:show="other" /><linearGradient xmlns:xlink="http://www.w3.org/1999/xlink" xlink:href="#linearGradientFF6666FF9696FFB6B6" id="linearGradientFF6666FF9696FFB6B6_1655325022" x1="0" y1="63.0" x2="0" y2="98.0" gradientUnits="userSpaceOnUse" xlink:type="simple" xlink:actuate="onLoad" xlink:show="other" /><linearGradient id="linearGradientFF6666FF9696FFB6B6"><stop style="stop-color:#FF6666;stop-opacity:1;" offset="0.0" id="stopFF6666" /><stop style="stop-color:#FF9696;stop-opacity:1;" offset="0.5" id="stopFF9696" /><stop style="stop-color:#FFB6B6;stop-opacity:1;" offset="1.0" id="stopFFB6B6" /></linearGradient><linearGradient xmlns:xlink="http://www.w3.org/1999/xlink" xlink:href="#linearGradientFF6666FF9696FFB6B6" id="linearGradientFF6666FF9696FFB6B6_1349011755" x1="0" y1="177.0" x2="0" y2="212.0" gradientUnits="userSpaceOnUse" xlink:type="simple" xlink:actuate="onLoad" xlink:show="other" /></defs></svg>
