<?xml version="1.0" encoding="UTF-8"?>
<svg xmlns="http://www.w3.org/2000/svg" style="stroke-dasharray:none; shape-rendering:auto; font-family:'Arial'; text-rendering:auto; fill-opacity:1; color-interpolation:auto; color-rendering:auto; font-size:12; fill:black; stroke:black; image-rendering:auto; stroke-miterlimit:10; stroke-linecap:square; stroke-linejoin:miter; font-style:normal; stroke-width:1; stroke-dashoffset:0; font-weight:normal; stroke-opacity:1;" contentScriptType="text/ecmascript" preserveAspectRatio="xMidYMid meet" zoomAndPan="magnify" version="1.0" contentStyleType="text/css" xml:xlink="http://www.w3.org/1999/xlink" width="700" height="601"><rect x="0" y="380" width="700" height="221" ry="0" rx="0" style="stroke:#000000; fill:#ADC9AC" /><g componentSequence="19"><text x="-490" y="6" transform="rotate(270)" text-anchor="middle" style="font-weight:bold;font-size:10px;stroke:none; fill:#434343"><tspan dy="14" x="-490">Supervisor</tspan></text></g><rect x="0" y="160" width="700" height="221" ry="0" rx="0" style="stroke:#000000; fill:#82B0B7" /><g componentSequence="2"><text x="-270" y="6" transform="rotate(270)" text-anchor="middle" style="font-weight:bold;font-size:10px;stroke:none; fill:#434343"><tspan dy="14" x="-270">Processo</tspan></text></g><rect x="0" y="0" width="700" height="161" ry="0" rx="0" style="stroke:#000000; fill:#9FC1C6" /><g componentSequence="1"><text x="-80" y="6" transform="rotate(270)" text-anchor="middle" style="font-weight:bold;font-size:10px;stroke:none; fill:#434343"><tspan dy="14" x="-80">Solicitante</tspan></text></g><g sequence="3"><ellipse cx="127" cy="100" rx="17" ry="17" stroke-width="1" style="fill:url(#linearGradient66FF6696FF96B6FFB6_26056780);" stroke="336633" /></g><g sequence="4"><rect x="330" y="300" width="106" height="67" ry="5" rx="5" style="fill:url(#linearGradientF8FBFEEDF5FCDEEDFAD4E7F8E2E5E9_256538125);" stroke="191970" /></g><g componentSequence="4"><text x="383" y="315" text-anchor="middle" style="font-weight:bold;font-size:10px;stroke:none; fill:#333399"><tspan dy="14" x="383">Analisar</tspan><tspan dy="14" x="383">solicitação</tspan></text></g><g sequence="5"><rect x="330" y="29" width="106" height="54" ry="5" rx="5" style="fill:url(#linearGradientF8FBFEEDF5FCDEEDFAD4E7F8E2E5E9_192279356);" stroke="191970" /></g><g componentSequence="5"><text x="383" y="45" text-anchor="middle" style="font-weight:bold;font-size:10px;stroke:none; fill:#333399"><tspan dy="14" x="383">Validar solução</tspan></text></g><g sequence="11"><polygon points=" 520 40 550 10 580 40 550 70 520 40" style="fill:url(#linearGradientFAFBFCFFFFCC_1316453430);" stroke="000000" /></g><g componentSequence="11"><text x="550" y="80" text-anchor="middle" style="font-weight:bold;font-size:10px;stroke:none; fill:#333399"><tspan dy="14" x="550">Finalizar</tspan><tspan dy="14" x="550">?</tspan></text></g><g sequence="13"><ellipse cx="647" cy="57" rx="17" ry="17" stroke-width="3" style="fill:url(#linearGradientFF6666FF9696FFB6B6_601211468);" stroke="993333" /></g><g sequence="17"><rect x="80" y="413" width="106" height="80" ry="5" rx="5" style="fill:url(#linearGradientF8FBFEEDF5FCDEEDFAD4E7F8E2E5E9_2138255909);" stroke="191970" /></g><g componentSequence="17"><text x="133" y="428" text-anchor="middle" style="font-weight:bold;font-size:10px;stroke:none; fill:#333399"><tspan dy="14" x="133">Analisar</tspan><tspan dy="14" x="133">melhoria do</tspan><tspan dy="14" x="133">solicitante</tspan></text></g><g sequence="20"><polygon points=" 260 430 290 400 320 430 290 460 260 430" style="fill:url(#linearGradientFAFBFCFFFFCC_1530647268);" stroke="000000" /></g><g componentSequence="20"><text x="290" y="470" text-anchor="middle" style="font-weight:bold;font-size:10px;stroke:none; fill:#333399"><tspan dy="14" x="290">Solicitaç</tspan><tspan dy="14" x="290">ão</tspan><tspan dy="14" x="290">apro...</tspan></text></g><g sequence="23"><ellipse cx="287" cy="567" rx="17" ry="17" stroke-width="3" style="fill:url(#linearGradientFF6666FF9696FFB6B6_777552761);" stroke="993333" /></g><g sequence="28"><polygon points=" 350 190 380 160 410 190 380 220 350 190" style="fill:url(#linearGradientFAFBFCFFFFCC_596833116);" stroke="000000" /></g><g componentSequence="28"><text x="380" y="230" text-anchor="middle" style="font-weight:bold;font-size:10px;stroke:none; fill:#333399"><tspan dy="14" x="380">Devolver</tspan><tspan dy="14" x="380">para o</tspan><tspan dy="14" x="380">super...</tspan></text></g><g componentSequence="12"><text x="488" y="58" style="font-size:10px;font-weight:none;stroke:none; fill:#333399" text-anchor="left" /></g><g componentSequence="14"><text x="615" y="58" style="font-size:10px;font-weight:none;stroke:none; fill:#333399" text-anchor="left" /></g><g componentSequence="21"><text x="233" y="455" style="font-size:10px;font-weight:none;stroke:none; fill:#333399" text-anchor="left" /></g><g componentSequence="22"><text x="392" y="443" style="font-size:10px;font-weight:none;stroke:none; fill:#333399" text-anchor="left" /></g><g componentSequence="26"><text x="53" y="263" style="font-size:10px;font-weight:none;stroke:none; fill:#333399" text-anchor="left" /></g><g componentSequence="27"><text x="559" y="278" style="font-size:10px;font-weight:none;stroke:none; fill:#333399" text-anchor="left" /></g><g componentSequence="30"><text x="298" y="531" style="font-size:10px;font-weight:none;stroke:none; fill:#333399" text-anchor="left" /></g><g componentSequence="31"><text x="392" y="286" style="font-size:10px;font-weight:none;stroke:none; fill:#333399" text-anchor="left" /></g><g componentSequence="32"><text x="153" y="216" style="font-size:10px;font-weight:none;stroke:none; fill:#333399" text-anchor="left" /></g><g componentSequence="33"><text x="392" y="121" style="font-size:10px;font-weight:none;stroke:none; fill:#333399" text-anchor="left" /></g><path style="fill:none; stroke:#000000;stroke-width:1" d="M109.0 100.0 L43.0 100.0 L43.0 456.0 L64.0 456.0 L79.0 455.0" /><polygon style="fill:#000000; stroke:#000000;" points=" 69 451 79 455 69 461 71 456" /><path style="fill:none; stroke:#000000;stroke-width:1" d="M382.0 299.0 L381.0 272.0" /><polygon style="fill:#000000; stroke:#000000;" points=" 376 282 381 272 386 282 381 280" /><path style="fill:none; stroke:#000000;stroke-width:1" d="M320.0 456.0 L382.0 456.0 L382.0 367.0" /><polygon style="fill:#000000; stroke:#000000;" points=" 377 377 382 367 387 377 382 375" /><path style="fill:none; stroke:#000000;stroke-width:1" d="M549.0 109.0 L549.0 333.0 L436.0 333.0" /><polygon style="fill:#000000; stroke:#000000;" points=" 446 338 436 333 446 328 444 333" /><path style="fill:none; stroke:#000000;stroke-width:1" d="M436.0 57.0 L519.0 58.0" /><polygon style="fill:#000000; stroke:#000000;" points=" 509 53 519 58 509 63 511 58" /><path style="fill:none; stroke:#000000;stroke-width:1" d="M381.0 159.0 L382.0 83.0" /><polygon style="fill:#000000; stroke:#000000;" points=" 377 93 382 83 387 93 382 91" /><path style="fill:none; stroke:#000000;stroke-width:1" d="M580.0 58.0 L630.0 57.0" /><polygon style="fill:#000000; stroke:#000000;" points=" 620 52 630 57 620 62 622 57" /><path style="fill:none; stroke:#000000;stroke-width:1" d="M186.0 454.0 L259.0 455.0" /><polygon style="fill:#000000; stroke:#000000;" points=" 249 450 259 455 249 460 251 455" /><path style="fill:none; stroke:#000000;stroke-width:1" d="M349.0 216.0 L133.0 216.0 L133.0 412.0" /><polygon style="fill:#000000; stroke:#000000;" points=" 138 402 133 412 128 402 133 404" /><path style="fill:none; stroke:#000000;stroke-width:1" d="M288.0 512.0 L287.0 550.0" /><polygon style="fill:#000000; stroke:#000000;" points=" 292 540 287 550 282 540 287 542" /><defs><linearGradient xmlns:xlink="http://www.w3.org/1999/xlink" xlink:href="#linearGradient66FF6696FF96B6FFB6" id="linearGradient66FF6696FF96B6FFB6_26056780" x1="0" y1="83.0" x2="0" y2="118.0" gradientUnits="userSpaceOnUse" xlink:type="simple" xlink:actuate="onLoad" xlink:show="other" /><linearGradient id="linearGradient66FF6696FF96B6FFB6"><stop style="stop-color:#66FF66;stop-opacity:1;" offset="0.0" id="stop66FF66" /><stop style="stop-color:#96FF96;stop-opacity:1;" offset="0.5" id="stop96FF96" /><stop style="stop-color:#B6FFB6;stop-opacity:1;" offset="1.0" id="stopB6FFB6" /></linearGradient><linearGradient xmlns:xlink="http://www.w3.org/1999/xlink" xlink:href="#linearGradientF8FBFEEDF5FCDEEDFAD4E7F8E2E5E9" id="linearGradientF8FBFEEDF5FCDEEDFAD4E7F8E2E5E9_256538125" x1="0" y1="300.0" x2="0" y2="406.0" gradientUnits="userSpaceOnUse" xlink:type="simple" xlink:actuate="onLoad" xlink:show="other" /><linearGradient id="linearGradientF8FBFEEDF5FCDEEDFAD4E7F8E2E5E9"><stop style="stop-color:#F8FBFE;stop-opacity:1;" offset="0.0" id="stopF8FBFE" /><stop style="stop-color:#EDF5FC;stop-opacity:1;" offset="0.25" id="stopEDF5FC" /><stop style="stop-color:#DEEDFA;stop-opacity:1;" offset="0.5" id="stopDEEDFA" /><stop style="stop-color:#D4E7F8;stop-opacity:1;" offset="0.75" id="stopD4E7F8" /><stop style="stop-color:#E2E5E9;stop-opacity:1;" offset="1.0" id="stopE2E5E9" /></linearGradient><linearGradient xmlns:xlink="http://www.w3.org/1999/xlink" xlink:href="#linearGradientF8FBFEEDF5FCDEEDFAD4E7F8E2E5E9" id="linearGradientF8FBFEEDF5FCDEEDFAD4E7F8E2E5E9_192279356" x1="0" y1="29.0" x2="0" y2="135.0" gradientUnits="userSpaceOnUse" xlink:type="simple" xlink:actuate="onLoad" xlink:show="other" /><linearGradient xmlns:xlink="http://www.w3.org/1999/xlink" xlink:href="#linearGradientFAFBFCFFFFCC" id="linearGradientFAFBFCFFFFCC_1316453430" x1="0" y1="10.0" x2="0" y2="70.0" gradientUnits="userSpaceOnUse" xlink:type="simple" xlink:actuate="onLoad" xlink:show="other" /><linearGradient id="linearGradientFAFBFCFFFFCC"><stop style="stop-color:#FAFBFC;stop-opacity:1;" offset="0.0" id="stopFAFBFC" /><stop style="stop-color:#FFFFCC;stop-opacity:1;" offset="1.0" id="stopFFFFCC" /></linearGradient><linearGradient xmlns:xlink="http://www.w3.org/1999/xlink" xlink:href="#linearGradientFF6666FF9696FFB6B6" id="linearGradientFF6666FF9696FFB6B6_601211468" x1="0" y1="40.0" x2="0" y2="75.0" gradientUnits="userSpaceOnUse" xlink:type="simple" xlink:actuate="onLoad" xlink:show="other" /><linearGradient id="linearGradientFF6666FF9696FFB6B6"><stop style="stop-color:#FF6666;stop-opacity:1;" offset="0.0" id="stopFF6666" /><stop style="stop-color:#FF9696;stop-opacity:1;" offset="0.5" id="stopFF9696" /><stop style="stop-color:#FFB6B6;stop-opacity:1;" offset="1.0" id="stopFFB6B6" /></linearGradient><linearGradient xmlns:xlink="http://www.w3.org/1999/xlink" xlink:href="#linearGradientF8FBFEEDF5FCDEEDFAD4E7F8E2E5E9" id="linearGradientF8FBFEEDF5FCDEEDFAD4E7F8E2E5E9_2138255909" x1="0" y1="413.0" x2="0" y2="519.0" gradientUnits="userSpaceOnUse" xlink:type="simple" xlink:actuate="onLoad" xlink:show="other" /><linearGradient xmlns:xlink="http://www.w3.org/1999/xlink" xlink:href="#linearGradientFAFBFCFFFFCC" id="linearGradientFAFBFCFFFFCC_1530647268" x1="0" y1="400.0" x2="0" y2="460.0" gradientUnits="userSpaceOnUse" xlink:type="simple" xlink:actuate="onLoad" xlink:show="other" /><linearGradient xmlns:xlink="http://www.w3.org/1999/xlink" xlink:href="#linearGradientFF6666FF9696FFB6B6" id="linearGradientFF6666FF9696FFB6B6_777552761" x1="0" y1="550.0" x2="0" y2="585.0" gradientUnits="userSpaceOnUse" xlink:type="simple" xlink:actuate="onLoad" xlink:show="other" /><linearGradient xmlns:xlink="http://www.w3.org/1999/xlink" xlink:href="#linearGradientFAFBFCFFFFCC" id="linearGradientFAFBFCFFFFCC_596833116" x1="0" y1="160.0" x2="0" y2="220.0" gradientUnits="userSpaceOnUse" xlink:type="simple" xlink:actuate="onLoad" xlink:show="other" /></defs></svg>
