<?xml version="1.0" encoding="UTF-8"?>
<svg xmlns="http://www.w3.org/2000/svg" style="stroke-dasharray:none; shape-rendering:auto; font-family:'Arial'; text-rendering:auto; fill-opacity:1; color-interpolation:auto; color-rendering:auto; font-size:12; fill:black; stroke:black; image-rendering:auto; stroke-miterlimit:10; stroke-linecap:square; stroke-linejoin:miter; font-style:normal; stroke-width:1; stroke-dashoffset:0; font-weight:normal; stroke-opacity:1;" contentScriptType="text/ecmascript" preserveAspectRatio="xMidYMid meet" zoomAndPan="magnify" version="1.0" contentStyleType="text/css" xml:xlink="http://www.w3.org/1999/xlink" width="2621" height="969"><rect x="0" y="655" width="2621" height="114" ry="0" rx="0" style="stroke:#000000; fill:#C9C3AC" /><g componentSequence="5"><text x="-712" y="7" transform="rotate(270)" text-anchor="middle" style="font-weight:bold;font-size:10px;stroke:none; fill:#434343"><tspan dy="14" x="-712">RECEBIMENTO</tspan></text></g><rect x="0" y="439" width="2621" height="108" ry="0" rx="0" style="stroke:#000000; fill:#D0DAAE" /><g componentSequence="4"><text x="-493" y="7" transform="rotate(270)" text-anchor="middle" style="font-weight:bold;font-size:10px;stroke:none; fill:#434343"><tspan dy="14" x="-493">COBRANÇA</tspan></text></g><rect x="0" y="309" width="2621" height="129" ry="0" rx="0" style="stroke:#000000; fill:#ADC9AC" /><g componentSequence="8"><text x="-373" y="7" transform="rotate(270)" text-anchor="middle" style="font-weight:bold;font-size:10px;stroke:none; fill:#434343"><tspan dy="14" x="-373">GERENTE</tspan></text></g><rect x="0" y="160" width="2621" height="150" ry="0" rx="0" style="stroke:#000000; fill:#82B0B7" /><g componentSequence="7"><text x="-235" y="7" transform="rotate(270)" text-anchor="middle" style="font-weight:bold;font-size:10px;stroke:none; fill:#434343"><tspan dy="14" x="-235">SUPERVISOR</tspan></text></g><rect x="0" y="770" width="2621" height="103" ry="0" rx="0" style="stroke:#000000; fill:#9FC1C6" /><g componentSequence="1"><text x="-821" y="7" transform="rotate(270)" text-anchor="middle" style="font-weight:bold;font-size:10px;stroke:none; fill:#434343"><tspan dy="14" x="-821">COMPRAS</tspan></text></g><rect x="0" y="544" width="2621" height="110" ry="0" rx="0" style="stroke:#000000; fill:#D6E0D0" /><g componentSequence="6"><text x="-599" y="7" transform="rotate(270)" text-anchor="middle" style="font-weight:bold;font-size:10px;stroke:none; fill:#434343"><tspan dy="14" x="-599">LOGÍSTICA</tspan></text></g><rect x="0" y="874" width="2621" height="95" ry="0" rx="0" style="stroke:#000000; fill:#82B0B7" /><g componentSequence="3"><text x="-921" y="7" transform="rotate(270)" text-anchor="middle" style="font-weight:bold;font-size:10px;stroke:none; fill:#434343"><tspan dy="14" x="-921">D.P</tspan></text></g><rect x="0" y="9" width="2621" height="150" ry="0" rx="0" style="stroke:#000000; fill:#82B0B7" /><g componentSequence="2"><text x="-84" y="7" transform="rotate(270)" text-anchor="middle" style="font-weight:bold;font-size:10px;stroke:none; fill:#434343"><tspan dy="14" x="-84">VENDEDOR</tspan></text></g><g sequence="9"><ellipse cx="238" cy="61" rx="17" ry="17" stroke-width="1" style="fill:url(#linearGradient66FF6696FF96B6FFB6_700081949);" stroke="336633" /></g><g sequence="13"><rect x="519" y="167" width="106" height="70" ry="5" rx="5" style="fill:url(#linearGradientF8FBFEEDF5FCDEEDFAD4E7F8E2E5E9_662543450);" stroke="191970" /></g><g componentSequence="13"><text x="572" y="182" text-anchor="middle" style="font-weight:bold;font-size:10px;stroke:none; fill:#333399"><tspan dy="14" x="572">Aprovação</tspan><tspan dy="14" x="572">Supervisor</tspan></text></g><g sequence="18"><polygon points=" 720 220 750 190 780 220 750 250 720 220" style="fill:url(#linearGradientFAFBFCFFFFCC_591531117);" stroke="000000" /></g><g componentSequence="18"><text x="750" y="260" text-anchor="middle" style="font-weight:bold;font-size:10px;stroke:none; fill:#333399"><tspan dy="14" x="750">Produto</tspan><tspan dy="14" x="750">Especial</tspan><tspan dy="14" x="750">?</tspan></text></g><g sequence="20"><rect x="810" y="333" width="106" height="84" ry="5" rx="5" style="fill:url(#linearGradientF8FBFEEDF5FCDEEDFAD4E7F8E2E5E9_1715508833);" stroke="191970" /></g><g componentSequence="20"><text x="863" y="348" text-anchor="middle" style="font-weight:bold;font-size:10px;stroke:none; fill:#333399"><tspan dy="14" x="863">Aprovação</tspan><tspan dy="14" x="863">Gerente de</tspan><tspan dy="14" x="863">Vendas</tspan></text></g><g sequence="23"><polygon points=" 720 40 750 10 780 40 750 70 720 40" style="fill:url(#linearGradientFAFBFCFFFFCC_473466683);" stroke="000000" /></g><g componentSequence="23"><text x="750" y="80" text-anchor="middle" style="font-weight:bold;font-size:10px;stroke:none; fill:#333399"><tspan dy="14" x="750">Solicitant</tspan><tspan dy="14" x="750">e?</tspan></text></g><g sequence="27"><polygon points=" 1053 220 1083 190 1113 220 1083 250 1053 220" style="fill:url(#linearGradientFAFBFCFFFFCC_1475106730);" stroke="000000" /></g><path style="fill:none; stroke-width:6; stroke:#000000;" d="M1073.0 220.0 L1093.0 220.0" /><path style="fill:none; stroke-width:6; stroke:#000000;" d="M1083.0 210.0 L1083.0 230.0" /><g componentSequence="27"><text x="1083" y="260" text-anchor="middle" style="font-weight:bold;font-size:10px;stroke:none; fill:#333399"><tspan dy="14" x="1083">Inicio de</tspan><tspan dy="14" x="1083">Atividad.</tspan><tspan dy="14" x="1083">..</tspan></text></g><g sequence="29"><rect x="1030" y="460" width="106" height="70" ry="5" rx="5" style="fill:url(#linearGradientF8FBFEEDF5FCDEEDFAD4E7F8E2E5E9_1685985374);" stroke="191970" /></g><g componentSequence="29"><text x="1083" y="475" text-anchor="middle" style="font-weight:bold;font-size:10px;stroke:none; fill:#333399"><tspan dy="14" x="1083">Alteração da</tspan><tspan dy="14" x="1083">Cobrança</tspan></text></g><g sequence="31"><polygon points=" 1719 222 1749 192 1779 222 1749 252 1719 222" style="fill:url(#linearGradientFAFBFCFFFFCC_107964718);" stroke="000000" /></g><g componentSequence="31"><text x="1749" y="262" text-anchor="middle" style="font-weight:bold;font-size:10px;stroke:none; fill:#333399"><tspan dy="14" x="1749">Possui</tspan><tspan dy="14" x="1749">Coleta?</tspan></text></g><g sequence="33"><rect x="1440" y="580" width="106" height="56" ry="5" rx="5" style="fill:url(#linearGradientF8FBFEEDF5FCDEEDFAD4E7F8E2E5E9_1589000071);" stroke="191970" /></g><g componentSequence="33"><text x="1493" y="597" text-anchor="middle" style="font-weight:bold;font-size:10px;stroke:none; fill:#333399"><tspan dy="14" x="1493">Realizar Coleta</tspan></text></g><g sequence="35"><rect x="1410" y="690" width="106" height="70" ry="5" rx="5" style="fill:url(#linearGradientF8FBFEEDF5FCDEEDFAD4E7F8E2E5E9_1808956156);" stroke="191970" /></g><g componentSequence="35"><text x="1463" y="705" text-anchor="middle" style="font-weight:bold;font-size:10px;stroke:none; fill:#333399"><tspan dy="14" x="1463">Realizar</tspan><tspan dy="14" x="1463">Recebimento</tspan></text></g><g sequence="38"><polygon points=" 1220 474 1250 444 1280 474 1250 504 1220 474" style="fill:url(#linearGradientFAFBFCFFFFCC_2138714928);" stroke="000000" /></g><path style="fill:none; stroke-width:6; stroke:#000000;" d="M1240.0 474.0 L1260.0 474.0" /><path style="fill:none; stroke-width:6; stroke:#000000;" d="M1250.0 464.0 L1250.0 484.0" /><g componentSequence="38"><text x="1250" y="514" text-anchor="middle" style="font-weight:bold;font-size:10px;stroke:none; fill:#333399"><tspan dy="14" x="1250">Finaliza</tspan><tspan dy="14" x="1250">Ativida...</tspan></text></g><g sequence="41"><polygon points=" 1810 467 1840 437 1870 467 1840 497 1810 467" style="fill:url(#linearGradientFAFBFCFFFFCC_35722216);" stroke="000000" /></g><g componentSequence="41"><text x="1840" y="507" text-anchor="middle" style="font-weight:bold;font-size:10px;stroke:none; fill:#333399"><tspan dy="14" x="1840">Recebim</tspan><tspan dy="14" x="1840">ento</tspan><tspan dy="14" x="1840">OK?</tspan></text></g><g sequence="43"><rect x="2060" y="460" width="106" height="70" ry="5" rx="5" style="fill:url(#linearGradientF8FBFEEDF5FCDEEDFAD4E7F8E2E5E9_1833174564);" stroke="191970" /></g><g componentSequence="43"><text x="2113" y="475" text-anchor="middle" style="font-weight:bold;font-size:10px;stroke:none; fill:#333399"><tspan dy="14" x="2113">Acerto de</tspan><tspan dy="14" x="2113">Crédito</tspan></text></g><g sequence="45"><rect x="1780" y="51" width="106" height="70" ry="5" rx="5" style="fill:url(#linearGradientF8FBFEEDF5FCDEEDFAD4E7F8E2E5E9_356091114);" stroke="191970" /></g><g componentSequence="45"><text x="1833" y="66" text-anchor="middle" style="font-weight:bold;font-size:10px;stroke:none; fill:#333399"><tspan dy="14" x="1833">Revisar</tspan><tspan dy="14" x="1833">Devolução</tspan></text></g><g sequence="47"><polygon points=" 1950 58 1980 28 2010 58 1980 88 1950 58" style="fill:url(#linearGradientFAFBFCFFFFCC_1005897422);" stroke="000000" /></g><g componentSequence="47"><text x="1980" y="98" text-anchor="middle" style="font-weight:bold;font-size:10px;stroke:none; fill:#333399"><tspan dy="14" x="1980">Devoluç</tspan><tspan dy="14" x="1980">ão</tspan><tspan dy="14" x="1980">Revi...</tspan></text></g><g sequence="49"><ellipse cx="2207" cy="85" rx="17" ry="17" stroke-width="3" style="fill:url(#linearGradientFF6666FF9696FFB6B6_834681867);" stroke="993333" /></g><g sequence="54"><polygon points=" 346 246 376 216 406 246 376 276 346 246" style="fill:url(#linearGradientFAFBFCFFFFCC_2088266033);" stroke="000000" /></g><g componentSequence="54"><text x="376" y="279" text-anchor="middle" style="font-weight:bold;font-size:10px;stroke:none; fill:#333399"><tspan dy="14" x="376">Aprova?</tspan></text></g><g sequence="57"><rect x="250" y="84" width="106" height="70" ry="5" rx="5" style="fill:url(#linearGradientF8FBFEEDF5FCDEEDFAD4E7F8E2E5E9_624934016);" stroke="191970" /></g><g componentSequence="57"><text x="303" y="99" text-anchor="middle" style="font-weight:bold;font-size:10px;stroke:none; fill:#333399"><tspan dy="14" x="303">Ajustar</tspan><tspan dy="14" x="303">Devolução</tspan></text></g><g sequence="60"><ellipse cx="542" cy="287" rx="17" ry="17" stroke-width="3" style="fill:url(#linearGradientFF6666FF9696FFB6B6_954260575);" stroke="993333" /></g><g sequence="62"><polygon points=" 950 361 980 331 1010 361 980 391 950 361" style="fill:url(#linearGradientFAFBFCFFFFCC_149983020);" stroke="000000" /></g><g componentSequence="62"><text x="980" y="394" text-anchor="middle" style="font-weight:bold;font-size:10px;stroke:none; fill:#333399"><tspan dy="14" x="980">Aprova?</tspan></text></g><g sequence="65"><polygon points=" 2280 466 2310 436 2340 466 2310 496 2280 466" style="fill:url(#linearGradientFAFBFCFFFFCC_939413218);" stroke="000000" /></g><g componentSequence="65"><text x="2310" y="506" text-anchor="middle" style="font-weight:bold;font-size:10px;stroke:none; fill:#333399"><tspan dy="14" x="2310">Aplicar</tspan><tspan dy="14" x="2310">Penalida</tspan><tspan dy="14" x="2310">de?</tspan></text></g><g sequence="67"><rect x="2490" y="881" width="106" height="84" ry="5" rx="5" style="fill:url(#linearGradientF8FBFEEDF5FCDEEDFAD4E7F8E2E5E9_1870479137);" stroke="191970" /></g><g componentSequence="67"><text x="2543" y="896" text-anchor="middle" style="font-weight:bold;font-size:10px;stroke:none; fill:#333399"><tspan dy="14" x="2543">Aplicar Ação</tspan><tspan dy="14" x="2543">comportamental</tspan></text></g><g sequence="69"><rect x="2370" y="51" width="106" height="70" ry="5" rx="5" style="fill:url(#linearGradientF8FBFEEDF5FCDEEDFAD4E7F8E2E5E9_1371604149);" stroke="191970" /></g><g componentSequence="69"><text x="2423" y="66" text-anchor="middle" style="font-weight:bold;font-size:10px;stroke:none; fill:#333399"><tspan dy="14" x="2423">Confirmar</tspan><tspan dy="14" x="2423">Devolução</tspan></text></g><g sequence="71"><ellipse cx="2537" cy="85" rx="17" ry="17" stroke-width="3" style="fill:url(#linearGradientFF6666FF9696FFB6B6_1564764238);" stroke="993333" /></g><g sequence="75"><ellipse cx="897" cy="507" rx="17" ry="17" stroke-width="3" style="fill:url(#linearGradientFF6666FF9696FFB6B6_411612250);" stroke="993333" /></g><g sequence="85"><polygon points=" 1290 590 1320 560 1350 590 1320 620 1290 590" style="fill:url(#linearGradientFAFBFCFFFFCC_503972957);" stroke="000000" /></g><g componentSequence="85"><text x="1320" y="630" text-anchor="middle" style="font-weight:bold;font-size:10px;stroke:none; fill:#333399"><tspan dy="14" x="1320">Material</tspan><tspan dy="14" x="1320">ok?</tspan></text></g><g sequence="88"><rect x="1290" y="51" width="106" height="70" ry="5" rx="5" style="fill:url(#linearGradientF8FBFEEDF5FCDEEDFAD4E7F8E2E5E9_1203195781);" stroke="191970" /></g><g componentSequence="88"><text x="1343" y="75" text-anchor="middle" style="font-weight:bold;font-size:10px;stroke:none; fill:#333399"><tspan dy="14" x="1343">Confirmar coleta</tspan></text></g><g sequence="91"><polygon points=" 1460 60 1490 30 1520 60 1490 90 1460 60" style="fill:url(#linearGradientFAFBFCFFFFCC_969890085);" stroke="000000" /></g><g componentSequence="91"><text x="1490" y="100" text-anchor="middle" style="font-weight:bold;font-size:10px;stroke:none; fill:#333399"><tspan dy="14" x="1490">Coletar</tspan><tspan dy="14" x="1490">mesmo</tspan><tspan dy="14" x="1490">assim?</tspan></text></g><g sequence="97"><polygon points=" 1530 474 1560 444 1590 474 1560 504 1530 474" style="fill:url(#linearGradientFAFBFCFFFFCC_1689784354);" stroke="000000" /></g><g componentSequence="97"><text x="1560" y="514" text-anchor="middle" style="font-weight:bold;font-size:10px;stroke:none; fill:#333399"><tspan dy="14" x="1560">Realizar</tspan><tspan dy="14" x="1560">Coleta?</tspan></text></g><g sequence="98"><ellipse cx="1537" cy="377" rx="17" ry="17" stroke-width="3" style="fill:url(#linearGradientFF6666FF9696FFB6B6_719247364);" stroke="993333" /></g><g sequence="106"><rect x="2070" y="788" width="106" height="70" ry="5" rx="5" style="fill:url(#linearGradientF8FBFEEDF5FCDEEDFAD4E7F8E2E5E9_1474851261);" stroke="191970" /></g><g componentSequence="106"><text x="2123" y="803" text-anchor="middle" style="font-weight:bold;font-size:10px;stroke:none; fill:#333399"><tspan dy="14" x="2123">Analisar</tspan><tspan dy="14" x="2123">Devolução</tspan></text></g><g sequence="108"><rect x="2390" y="340" width="106" height="70" ry="5" rx="5" style="fill:url(#linearGradientF8FBFEEDF5FCDEEDFAD4E7F8E2E5E9_346889236);" stroke="191970" /></g><g componentSequence="108"><text x="2443" y="364" text-anchor="middle" style="font-weight:bold;font-size:10px;stroke:none; fill:#333399"><tspan dy="14" x="2443">Decisão Gerente</tspan></text></g><g sequence="111"><rect x="1690" y="580" width="106" height="56" ry="5" rx="5" style="fill:url(#linearGradientF8FBFEEDF5FCDEEDFAD4E7F8E2E5E9_808466339);" stroke="191970" /></g><g componentSequence="111"><text x="1743" y="597" text-anchor="middle" style="font-weight:bold;font-size:10px;stroke:none; fill:#333399"><tspan dy="14" x="1743">Criar roteiro</tspan></text></g><g sequence="114"><rect x="1590" y="340" width="106" height="84" ry="5" rx="5" style="fill:url(#linearGradientF8FBFEEDF5FCDEEDFAD4E7F8E2E5E9_1827854169);" stroke="191970" /></g><g componentSequence="114"><text x="1643" y="355" text-anchor="middle" style="font-weight:bold;font-size:10px;stroke:none; fill:#333399"><tspan dy="14" x="1643">Desfazer</tspan><tspan dy="14" x="1643">alteração da</tspan><tspan dy="14" x="1643">cobrança</tspan></text></g><g sequence="117"><rect x="2060" y="44" width="106" height="84" ry="5" rx="5" style="fill:url(#linearGradientF8FBFEEDF5FCDEEDFAD4E7F8E2E5E9_2013476579);" stroke="191970" /></g><g componentSequence="117"><text x="2113" y="59" text-anchor="middle" style="font-weight:bold;font-size:10px;stroke:none; fill:#333399"><tspan dy="14" x="2113">Desfazer</tspan><tspan dy="14" x="2113">alteração da</tspan><tspan dy="14" x="2113">cobrança</tspan></text></g><g sequence="120"><polygon points=" 410 114 440 84 470 114 440 144 410 114" style="fill:url(#linearGradientFAFBFCFFFFCC_78825547);" stroke="000000" /></g><g componentSequence="120"><text x="440" y="154" text-anchor="middle" style="font-weight:bold;font-size:10px;stroke:none; fill:#333399"><tspan dy="14" x="440">Continua</tspan><tspan dy="14" x="440">r</tspan><tspan dy="14" x="440">devol...</tspan></text></g><g sequence="124"><rect x="680" y="788" width="106" height="70" ry="5" rx="5" style="fill:url(#linearGradientF8FBFEEDF5FCDEEDFAD4E7F8E2E5E9_898529873);" stroke="191970" /></g><g componentSequence="124"><text x="733" y="803" text-anchor="middle" style="font-weight:bold;font-size:10px;stroke:none; fill:#333399"><tspan dy="14" x="733">Avaliação</tspan><tspan dy="14" x="733">Compras</tspan></text></g><g sequence="129"><rect x="560" y="333" width="106" height="84" ry="5" rx="5" style="fill:url(#linearGradientF8FBFEEDF5FCDEEDFAD4E7F8E2E5E9_1337732006);" stroke="191970" /></g><g componentSequence="129"><text x="613" y="348" text-anchor="middle" style="font-weight:bold;font-size:10px;stroke:none; fill:#333399"><tspan dy="14" x="613">Avaliação</tspan><tspan dy="14" x="613">Gerente de</tspan><tspan dy="14" x="613">Vendas</tspan></text></g><g sequence="131"><polygon points=" 700 360 730 330 760 360 730 390 700 360" style="fill:url(#linearGradientFAFBFCFFFFCC_778680476);" stroke="000000" /></g><g componentSequence="131"><text x="730" y="400" text-anchor="middle" style="font-weight:bold;font-size:10px;stroke:none; fill:#333399"><tspan dy="14" x="730">Necessit</tspan><tspan dy="14" x="730">a</tspan><tspan dy="14" x="730">avali...</tspan></text></g><g sequence="136"><polygon points=" 1590 590 1620 560 1650 590 1620 620 1590 590" style="fill:url(#linearGradientFAFBFCFFFFCC_1015799178);" stroke="000000" /></g><g componentSequence="136"><text x="1620" y="630" text-anchor="middle" style="font-weight:bold;font-size:10px;stroke:none; fill:#333399"><tspan dy="14" x="1620">Treiname</tspan><tspan dy="14" x="1620">nto</tspan></text></g><rect x="105" y="11" width="105" height="69" ry="5" rx="5" style="stroke:none; fill:#FFFFE0" /><g componentSequence="10"><text x="115" y="34" text-anchor="left" style="font-weight:bold;font-size:10px;stroke:none; fill:#000000"><tspan dy="14" x="115">Registro de</tspan><tspan dy="14" x="115">Devolução de</tspan><tspan dy="14" x="115">Clientes</tspan></text></g><path style="fill:none; stroke-width:1; stroke:#000000;" d="M125.0 11.0 L105.0 11.0 L105.0 80.0 L125.0 80.0" /><g componentSequence="24"><text x="498" y="61" style="font-size:10px;font-weight:none;stroke:none; fill:#333399" text-anchor="left" /></g><g componentSequence="25"><text x="678" y="126" style="font-size:10px;font-weight:none;stroke:none; fill:#333399" text-anchor="left"><tspan dy="14" x="678">Sou Vendedor</tspan></text></g><g componentSequence="26"><text x="760" y="151" style="font-size:10px;font-weight:none;stroke:none; fill:#333399" text-anchor="left"><tspan dy="14" x="760">Sou Supervisor</tspan></text></g><g componentSequence="28"><text x="926" y="248" style="font-size:10px;font-weight:none;stroke:none; fill:#333399" text-anchor="left" /></g><g componentSequence="30"><text x="1093" y="383" style="font-size:10px;font-weight:none;stroke:none; fill:#333399" text-anchor="left" /></g><g componentSequence="32"><text x="1426" y="245" style="font-size:10px;font-weight:none;stroke:none; fill:#333399" text-anchor="left" /></g><g componentSequence="37"><text x="1759" y="630" style="font-size:10px;font-weight:none;stroke:none; fill:#333399" text-anchor="left" /></g><g componentSequence="40"><text x="1188" y="495" style="font-size:10px;font-weight:none;stroke:none; fill:#333399" text-anchor="left" /></g><g componentSequence="44"><text x="1975" y="495" style="font-size:10px;font-weight:none;stroke:none; fill:#333399" text-anchor="left"><tspan dy="14" x="1975">Sim</tspan></text></g><g componentSequence="46"><text x="1846" y="279" style="font-size:10px;font-weight:none;stroke:none; fill:#333399" text-anchor="left"><tspan dy="14" x="1846">Não</tspan></text></g><g componentSequence="48"><text x="1928" y="86" style="font-size:10px;font-weight:none;stroke:none; fill:#333399" text-anchor="left" /></g><g componentSequence="55"><text x="472" y="235" style="font-size:10px;font-weight:none;stroke:none; fill:#333399" text-anchor="left" /></g><g componentSequence="56"><text x="573" y="254" style="font-size:10px;font-weight:none;stroke:none; fill:#333399" text-anchor="left"><tspan dy="14" x="573">Aprovado</tspan></text></g><g componentSequence="58"><text x="347" y="185" style="font-size:10px;font-weight:none;stroke:none; fill:#333399" text-anchor="left"><tspan dy="14" x="347">Ajustar</tspan></text></g><g componentSequence="61"><text x="475" y="275" style="font-size:10px;font-weight:none;stroke:none; fill:#333399" text-anchor="left"><tspan dy="14" x="475">Reprovado</tspan></text></g><g componentSequence="63"><text x="943" y="375" style="font-size:10px;font-weight:none;stroke:none; fill:#333399" text-anchor="left" /></g><g componentSequence="72"><text x="2508" y="85" style="font-size:10px;font-weight:none;stroke:none; fill:#333399" text-anchor="left" /></g><g componentSequence="74"><text x="2508" y="85" style="font-size:10px;font-weight:none;stroke:none; fill:#333399" text-anchor="left" /></g><g componentSequence="76"><text x="940" y="454" style="font-size:10px;font-weight:none;stroke:none; fill:#333399" text-anchor="left"><tspan dy="14" x="940">Não</tspan></text></g><g componentSequence="86"><text x="1405" y="610" style="font-size:10px;font-weight:none;stroke:none; fill:#333399" text-anchor="left" /></g><g componentSequence="94"><text x="1260" y="715" style="font-size:10px;font-weight:none;stroke:none; fill:#333399" text-anchor="left" /></g><g componentSequence="96"><text x="1380" y="291" style="font-size:10px;font-weight:none;stroke:none; fill:#333399" text-anchor="left" /></g><g componentSequence="100"><text x="1710" y="495" style="font-size:10px;font-weight:none;stroke:none; fill:#333399" text-anchor="left" /></g><g componentSequence="101"><text x="1415" y="495" style="font-size:10px;font-weight:none;stroke:none; fill:#333399" text-anchor="left" /></g><g componentSequence="102"><text x="1342" y="340" style="font-size:10px;font-weight:none;stroke:none; fill:#333399" text-anchor="left" /></g><g componentSequence="103"><text x="1486" y="418" style="font-size:10px;font-weight:none;stroke:none; fill:#333399" text-anchor="left" /></g><g componentSequence="104"><text x="1438" y="87" style="font-size:10px;font-weight:none;stroke:none; fill:#333399" text-anchor="left" /></g><g componentSequence="105"><text x="1394" y="662" style="font-size:10px;font-weight:none;stroke:none; fill:#333399" text-anchor="left" /></g><g componentSequence="107"><text x="2128" y="659" style="font-size:10px;font-weight:none;stroke:none; fill:#333399" text-anchor="left" /></g><g componentSequence="109"><text x="2241" y="663" style="font-size:10px;font-weight:none;stroke:none; fill:#333399" text-anchor="left" /></g><g componentSequence="112"><text x="1756" y="437" style="font-size:10px;font-weight:none;stroke:none; fill:#333399" text-anchor="left" /></g><g componentSequence="115"><text x="1611" y="439" style="font-size:10px;font-weight:none;stroke:none; fill:#333399" text-anchor="left" /></g><g componentSequence="116"><text x="1582" y="379" style="font-size:10px;font-weight:none;stroke:none; fill:#333399" text-anchor="left" /></g><g componentSequence="118"><text x="2045" y="86" style="font-size:10px;font-weight:none;stroke:none; fill:#333399" text-anchor="left" /></g><g componentSequence="119"><text x="2188" y="85" style="font-size:10px;font-weight:none;stroke:none; fill:#333399" text-anchor="left" /></g><g componentSequence="121"><text x="393" y="133" style="font-size:10px;font-weight:none;stroke:none; fill:#333399" text-anchor="left" /></g><g componentSequence="122"><text x="504" y="166" style="font-size:10px;font-weight:none;stroke:none; fill:#333399" text-anchor="left"><tspan dy="14" x="504">Sim</tspan></text></g><g componentSequence="123"><text x="510" y="227" style="font-size:10px;font-weight:none;stroke:none; fill:#333399" text-anchor="left" /></g><g componentSequence="128"><text x="1041" y="311" style="font-size:10px;font-weight:none;stroke:none; fill:#333399" text-anchor="left"><tspan dy="14" x="1041">Sim</tspan></text></g><g componentSequence="130"><text x="699" y="304" style="font-size:10px;font-weight:none;stroke:none; fill:#333399" text-anchor="left" /></g><g componentSequence="132"><text x="693" y="383" style="font-size:10px;font-weight:none;stroke:none; fill:#333399" text-anchor="left" /></g><g componentSequence="133"><text x="741" y="617" style="font-size:10px;font-weight:none;stroke:none; fill:#333399" text-anchor="left" /></g><g componentSequence="134"><text x="807" y="602" style="font-size:10px;font-weight:none;stroke:none; fill:#333399" text-anchor="left" /></g><g componentSequence="135"><text x="865" y="381" style="font-size:10px;font-weight:none;stroke:none; fill:#333399" text-anchor="left" /></g><g componentSequence="137"><text x="1680" y="610" style="font-size:10px;font-weight:none;stroke:none; fill:#333399" text-anchor="left" /></g><g componentSequence="138"><text x="1561" y="661" style="font-size:10px;font-weight:none;stroke:none; fill:#333399" text-anchor="left" /></g><g componentSequence="139"><text x="1578" y="610" style="font-size:10px;font-weight:none;stroke:none; fill:#333399" text-anchor="left" /></g><g componentSequence="10"><text x="225" y="56" style="font-size:10px;font-weight:none;stroke:none; fill:#333399" text-anchor="left" /></g><g componentSequence="140"><text x="2368" y="395" style="font-size:10px;font-weight:none;stroke:none; fill:#333399" text-anchor="left" /></g><g componentSequence="141"><text x="2318" y="229" style="font-size:10px;font-weight:none;stroke:none; fill:#333399" text-anchor="left" /></g><g componentSequence="142"><text x="2451" y="690" style="font-size:10px;font-weight:none;stroke:none; fill:#333399" text-anchor="left" /></g><g componentSequence="143"><text x="2550" y="442" style="font-size:10px;font-weight:none;stroke:none; fill:#333399" text-anchor="left" /></g><g componentSequence="144"><text x="1990" y="666" style="font-size:10px;font-weight:none;stroke:none; fill:#333399" text-anchor="left" /></g><path style="fill:none; stroke:#000000;stroke-width:1" d="M256.0 61.0 L719.0 61.0" /><polygon style="fill:#000000; stroke:#000000;" points=" 709 56 719 61 709 66 711 61" /><path style="fill:none; stroke:#000000;stroke-dasharray:2" d="M210.0 55.0 L221.0 58.0" /><path style="fill:none; stroke:#000000;stroke-width:1" d="M518.0 218.0 L406.0 251.0" /><polygon style="fill:#000000; stroke:#000000;" points=" 417 253 406 251 414 243 414 249" /><path style="fill:none; stroke:#000000;stroke-width:1" d="M719.0 85.0 L617.0 166.0" /><polygon style="fill:#000000; stroke:#000000;" points=" 628 164 617 166 622 156 623 161" /><path style="fill:none; stroke:#000000;stroke-width:1" d="M470.0 155.0 L518.0 177.0" /><polygon style="fill:#000000; stroke:#000000;" points=" 511 168 518 177 507 177 511 174" /><path style="fill:none; stroke:#000000;stroke-width:1" d="M780.0 248.0 L1052.0 248.0" /><polygon style="fill:#000000; stroke:#000000;" points=" 1042 243 1052 248 1042 253 1044 248" /><path style="fill:none; stroke:#000000;stroke-width:1" d="M719.0 276.0 L659.0 332.0" /><polygon style="fill:#000000; stroke:#000000;" points=" 670 329 659 332 663 322 665 327" /><path style="fill:none; stroke:#000000;stroke-width:1" d="M750.0 112.0 L750.0 189.0" /><polygon style="fill:#000000; stroke:#000000;" points=" 755 179 750 189 745 179 750 181" /><path style="fill:none; stroke:#000000;stroke-width:1" d="M406.0 259.0 L719.0 249.0" /><polygon style="fill:#000000; stroke:#000000;" points=" 709 244 719 249 709 254 711 249" /><path style="fill:none; stroke:#000000;stroke-width:1" d="M916.0 375.0 L949.0 375.0" /><polygon style="fill:#000000; stroke:#000000;" points=" 939 370 949 375 939 380 941 375" /><path style="fill:none; stroke:#000000;stroke-width:1" d="M743.0 787.0 L850.0 417.0" /><polygon style="fill:#000000; stroke:#000000;" points=" 842 425 850 417 852 428 848 425" /><path style="fill:none; stroke:#000000;stroke-width:1" d="M1083.0 306.0 L1083.0 459.0" /><polygon style="fill:#000000; stroke:#000000;" points=" 1088 449 1083 459 1078 449 1083 451" /><path style="fill:none; stroke:#000000;stroke-width:1" d="M1113.0 247.0 L1718.0 243.0" /><polygon style="fill:#000000; stroke:#000000;" points=" 1708 238 1718 243 1708 248 1710 243" /><path style="fill:none; stroke:#000000;stroke-width:1" d="M1010.0 337.0 L1052.0 285.0" /><polygon style="fill:#000000; stroke:#000000;" points=" 1042 290 1052 285 1050 296 1047 291" /><path style="fill:none; stroke:#000000;stroke-width:1" d="M1136.0 495.0 L1219.0 495.0" /><polygon style="fill:#000000; stroke:#000000;" points=" 1209 490 1219 495 1209 500 1211 495" /><path style="fill:none; stroke:#000000;stroke-width:1" d="M1749.0 294.0 L1749.0 732.0 L1516.0 726.0" /><polygon style="fill:#000000; stroke:#000000;" points=" 1526 731 1516 726 1526 721 1524 726" /><path style="fill:none; stroke:#000000;stroke-width:1" d="M1748.0 294.0 L1743.0 579.0" /><polygon style="fill:#000000; stroke:#000000;" points=" 1748 569 1743 579 1738 569 1743 571" /><path style="fill:none; stroke:#000000;stroke-width:1" d="M1439.0 609.0 L1350.0 610.0" /><polygon style="fill:#000000; stroke:#000000;" points=" 1360 615 1350 610 1360 605 1358 610" /><path style="fill:none; stroke:#000000;stroke-width:1" d="M1589.0 610.0 L1546.0 609.0" /><polygon style="fill:#000000; stroke:#000000;" points=" 1556 614 1546 609 1556 604 1554 609" /><path style="fill:none; stroke:#000000;stroke-width:1" d="M1409.0 724.0 L1250.0 724.0 L1250.0 546.0" /><polygon style="fill:#000000; stroke:#000000;" points=" 1245 556 1250 546 1255 556 1250 554" /><path style="fill:none; stroke:#000000;stroke-width:1" d="M1487.0 146.0 L1464.0 689.0" /><polygon style="fill:#000000; stroke:#000000;" points=" 1469 679 1464 689 1459 679 1464 681" /><path style="fill:none; stroke:#000000;stroke-width:1" d="M1350.0 635.0 L1418.0 689.0" /><polygon style="fill:#000000; stroke:#000000;" points=" 1413 679 1418 689 1407 687 1412 684" /><path style="fill:none; stroke:#000000;stroke-width:1" d="M1589.0 633.0 L1512.0 689.0" /><polygon style="fill:#000000; stroke:#000000;" points=" 1523 687 1512 689 1517 679 1518 684" /><path style="fill:none; stroke:#000000;stroke-width:1" d="M1980.0 144.0 L1980.0 724.0 L1516.0 724.0" /><polygon style="fill:#000000; stroke:#000000;" points=" 1526 729 1516 724 1526 719 1524 724" /><path style="fill:none; stroke:#000000;stroke-width:1" d="M1280.0 495.0 L1529.0 495.0" /><polygon style="fill:#000000; stroke:#000000;" points=" 1519 490 1529 495 1519 500 1521 495" /><path style="fill:none; stroke:#000000;stroke-width:1" d="M1459.0 139.0 L1280.0 443.0" /><polygon style="fill:#000000; stroke:#000000;" points=" 1289 437 1280 443 1281 432 1284 436" /><path style="fill:none; stroke:#000000;stroke-width:1" d="M1870.0 495.0 L2059.0 495.0" /><polygon style="fill:#000000; stroke:#000000;" points=" 2049 490 2059 495 2049 500 2051 495" /><path style="fill:none; stroke:#000000;stroke-width:1" d="M1839.0 436.0 L1833.0 121.0" /><polygon style="fill:#000000; stroke:#000000;" points=" 1828 131 1833 121 1838 131 1833 129" /><path style="fill:none; stroke:#000000;stroke-width:1" d="M1590.0 495.0 L1809.0 495.0" /><polygon style="fill:#000000; stroke:#000000;" points=" 1799 490 1809 495 1799 500 1801 495" /><path style="fill:none; stroke:#000000;stroke-width:1" d="M2114.0 530.0 L2121.0 787.0" /><polygon style="fill:#000000; stroke:#000000;" points=" 2126 777 2121 787 2116 777 2121 779" /><path style="fill:none; stroke:#000000;stroke-width:1" d="M1886.0 86.0 L1949.0 86.0" /><polygon style="fill:#000000; stroke:#000000;" points=" 1939 81 1949 86 1939 91 1941 86" /><path style="fill:none; stroke:#000000;stroke-width:1" d="M2010.0 86.0 L2059.0 86.0" /><polygon style="fill:#000000; stroke:#000000;" points=" 2049 81 2059 86 2049 91 2051 86" /><path style="fill:none; stroke:#000000;stroke-width:1" d="M2166.0 85.0 L2190.0 85.0" /><polygon style="fill:#000000; stroke:#000000;" points=" 2180 80 2190 85 2180 90 2182 85" /><path style="fill:none; stroke:#000000;stroke-width:1" d="M353.0 215.0 L321.0 154.0" /><polygon style="fill:#000000; stroke:#000000;" points=" 321 165 321 154 330 161 325 161" /><path style="fill:none; stroke:#000000;stroke-width:1" d="M406.0 265.0 L525.0 285.0" /><polygon style="fill:#000000; stroke:#000000;" points=" 516 278 525 285 514 288 517 284" /><path style="fill:none; stroke:#000000;stroke-width:1" d="M356.0 128.0 L409.0 136.0" /><polygon style="fill:#000000; stroke:#000000;" points=" 400 130 409 136 398 139 401 135" /><path style="fill:none; stroke:#000000;stroke-width:1" d="M470.0 185.0 L532.0 273.0" /><polygon style="fill:#000000; stroke:#000000;" points=" 530 262 532 273 522 268 527 266" /><path style="fill:none; stroke:#000000;stroke-width:1" d="M952.0 419.0 L906.0 492.0" /><polygon style="fill:#000000; stroke:#000000;" points=" 916 486 906 492 907 481 910 485" /><path style="fill:none; stroke:#000000;stroke-width:1" d="M760.0 386.0 L949.0 376.0" /><polygon style="fill:#000000; stroke:#000000;" points=" 939 372 949 376 939 382 941 376" /><path style="fill:none; stroke:#000000;stroke-width:1" d="M2338.0 435.0 L2369.0 372.0 L2389.0 373.0" /><polygon style="fill:#000000; stroke:#000000;" points=" 2379 368 2389 373 2379 377 2381 373" /><path style="fill:none; stroke:#000000;stroke-width:1" d="M2309.0 435.0 L2308.0 84.0 L2336.0 84.0 L2369.0 85.0" /><polygon style="fill:#000000; stroke:#000000;" points=" 2359 80 2369 85 2359 90 2361 85" /><path style="fill:none; stroke:#000000;stroke-width:1" d="M2176.0 823.0 L2231.0 823.0 L2231.0 496.0 L2279.0 494.0" /><polygon style="fill:#000000; stroke:#000000;" points=" 2269 489 2279 494 2269 499 2271 494" /><path style="fill:none; stroke:#000000;stroke-width:1" d="M2542.0 880.0 L2540.0 382.0 L2540.0 244.0 L2425.0 245.0 L2423.0 121.0" /><polygon style="fill:#000000; stroke:#000000;" points=" 2418 131 2423 121 2428 131 2423 129" /><path style="fill:none; stroke:#000000;stroke-width:1" d="M2442.0 410.0 L2440.0 920.0 L2489.0 921.0" /><polygon style="fill:#000000; stroke:#000000;" points=" 2479 916 2489 921 2479 926 2481 921" /><path style="fill:none; stroke:#009600;stroke-width:1" d="M2476.0 85.0 L2520.0 85.0" /><polygon style="fill:#009600; stroke:#009600;" points=" 2510 80 2520 85 2510 90 2512 85" /><path style="fill:none; stroke:#000000;stroke-width:1" d="M2476.0 85.0 L2520.0 85.0" /><polygon style="fill:#000000; stroke:#000000;" points=" 2510 80 2520 85 2510 90 2512 85" /><path style="fill:none; stroke:#000000;stroke-width:1" d="M1322.0 559.0 L1341.0 121.0" /><polygon style="fill:#000000; stroke:#000000;" points=" 1336 131 1341 121 1346 131 1341 129" /><path style="fill:none; stroke:#000000;stroke-width:1" d="M1396.0 86.0 L1459.0 87.0" /><polygon style="fill:#000000; stroke:#000000;" points=" 1449 82 1459 87 1449 92 1451 87" /><path style="fill:none; stroke:#000000;stroke-width:1" d="M1590.0 453.0 L1612.0 424.0" /><polygon style="fill:#000000; stroke:#000000;" points=" 1602 429 1612 424 1610 435 1607 430" /><path style="fill:none; stroke:#000000;stroke-width:1" d="M1589.0 379.0 L1554.0 377.0" /><polygon style="fill:#000000; stroke:#000000;" points=" 1564 383 1554 377 1564 373 1562 377" /><path style="fill:none; stroke:#000000;stroke-width:1" d="M1689.0 609.0 L1650.0 610.0" /><polygon style="fill:#000000; stroke:#000000;" points=" 1660 615 1650 610 1660 605 1658 610" /><path style="fill:none; stroke:#000000;stroke-width:1" d="M730.0 446.0 L732.0 787.0" /><polygon style="fill:#000000; stroke:#000000;" points=" 737 777 732 787 727 777 732 779" /><path style="fill:none; stroke:#000000;stroke-width:1" d="M666.0 381.0 L699.0 384.0" /><polygon style="fill:#000000; stroke:#000000;" points=" 689 378 699 384 689 388 691 383" /><defs><linearGradient xmlns:xlink="http://www.w3.org/1999/xlink" xlink:href="#linearGradient66FF6696FF96B6FFB6" id="linearGradient66FF6696FF96B6FFB6_700081949" x1="0" y1="44.0" x2="0" y2="79.0" gradientUnits="userSpaceOnUse" xlink:type="simple" xlink:actuate="onLoad" xlink:show="other" /><linearGradient id="linearGradient66FF6696FF96B6FFB6"><stop style="stop-color:#66FF66;stop-opacity:1;" offset="0.0" id="stop66FF66" /><stop style="stop-color:#96FF96;stop-opacity:1;" offset="0.5" id="stop96FF96" /><stop style="stop-color:#B6FFB6;stop-opacity:1;" offset="1.0" id="stopB6FFB6" /></linearGradient><linearGradient xmlns:xlink="http://www.w3.org/1999/xlink" xlink:href="#linearGradientF8FBFEEDF5FCDEEDFAD4E7F8E2E5E9" id="linearGradientF8FBFEEDF5FCDEEDFAD4E7F8E2E5E9_662543450" x1="0" y1="167.0" x2="0" y2="273.0" gradientUnits="userSpaceOnUse" xlink:type="simple" xlink:actuate="onLoad" xlink:show="other" /><linearGradient id="linearGradientF8FBFEEDF5FCDEEDFAD4E7F8E2E5E9"><stop style="stop-color:#F8FBFE;stop-opacity:1;" offset="0.0" id="stopF8FBFE" /><stop style="stop-color:#EDF5FC;stop-opacity:1;" offset="0.25" id="stopEDF5FC" /><stop style="stop-color:#DEEDFA;stop-opacity:1;" offset="0.5" id="stopDEEDFA" /><stop style="stop-color:#D4E7F8;stop-opacity:1;" offset="0.75" id="stopD4E7F8" /><stop style="stop-color:#E2E5E9;stop-opacity:1;" offset="1.0" id="stopE2E5E9" /></linearGradient><linearGradient xmlns:xlink="http://www.w3.org/1999/xlink" xlink:href="#linearGradientFAFBFCFFFFCC" id="linearGradientFAFBFCFFFFCC_591531117" x1="0" y1="190.0" x2="0" y2="250.0" gradientUnits="userSpaceOnUse" xlink:type="simple" xlink:actuate="onLoad" xlink:show="other" /><linearGradient id="linearGradientFAFBFCFFFFCC"><stop style="stop-color:#FAFBFC;stop-opacity:1;" offset="0.0" id="stopFAFBFC" /><stop style="stop-color:#FFFFCC;stop-opacity:1;" offset="1.0" id="stopFFFFCC" /></linearGradient><linearGradient xmlns:xlink="http://www.w3.org/1999/xlink" xlink:href="#linearGradientF8FBFEEDF5FCDEEDFAD4E7F8E2E5E9" id="linearGradientF8FBFEEDF5FCDEEDFAD4E7F8E2E5E9_1715508833" x1="0" y1="333.0" x2="0" y2="439.0" gradientUnits="userSpaceOnUse" xlink:type="simple" xlink:actuate="onLoad" xlink:show="other" /><linearGradient xmlns:xlink="http://www.w3.org/1999/xlink" xlink:href="#linearGradientFAFBFCFFFFCC" id="linearGradientFAFBFCFFFFCC_473466683" x1="0" y1="10.0" x2="0" y2="70.0" gradientUnits="userSpaceOnUse" xlink:type="simple" xlink:actuate="onLoad" xlink:show="other" /><linearGradient xmlns:xlink="http://www.w3.org/1999/xlink" xlink:href="#linearGradientFAFBFCFFFFCC" id="linearGradientFAFBFCFFFFCC_1475106730" x1="0" y1="190.0" x2="0" y2="250.0" gradientUnits="userSpaceOnUse" xlink:type="simple" xlink:actuate="onLoad" xlink:show="other" /><linearGradient xmlns:xlink="http://www.w3.org/1999/xlink" xlink:href="#linearGradientF8FBFEEDF5FCDEEDFAD4E7F8E2E5E9" id="linearGradientF8FBFEEDF5FCDEEDFAD4E7F8E2E5E9_1685985374" x1="0" y1="460.0" x2="0" y2="566.0" gradientUnits="userSpaceOnUse" xlink:type="simple" xlink:actuate="onLoad" xlink:show="other" /><linearGradient xmlns:xlink="http://www.w3.org/1999/xlink" xlink:href="#linearGradientFAFBFCFFFFCC" id="linearGradientFAFBFCFFFFCC_107964718" x1="0" y1="192.0" x2="0" y2="252.0" gradientUnits="userSpaceOnUse" xlink:type="simple" xlink:actuate="onLoad" xlink:show="other" /><linearGradient xmlns:xlink="http://www.w3.org/1999/xlink" xlink:href="#linearGradientF8FBFEEDF5FCDEEDFAD4E7F8E2E5E9" id="linearGradientF8FBFEEDF5FCDEEDFAD4E7F8E2E5E9_1589000071" x1="0" y1="580.0" x2="0" y2="686.0" gradientUnits="userSpaceOnUse" xlink:type="simple" xlink:actuate="onLoad" xlink:show="other" /><linearGradient xmlns:xlink="http://www.w3.org/1999/xlink" xlink:href="#linearGradientF8FBFEEDF5FCDEEDFAD4E7F8E2E5E9" id="linearGradientF8FBFEEDF5FCDEEDFAD4E7F8E2E5E9_1808956156" x1="0" y1="690.0" x2="0" y2="796.0" gradientUnits="userSpaceOnUse" xlink:type="simple" xlink:actuate="onLoad" xlink:show="other" /><linearGradient xmlns:xlink="http://www.w3.org/1999/xlink" xlink:href="#linearGradientFAFBFCFFFFCC" id="linearGradientFAFBFCFFFFCC_2138714928" x1="0" y1="444.0" x2="0" y2="504.0" gradientUnits="userSpaceOnUse" xlink:type="simple" xlink:actuate="onLoad" xlink:show="other" /><linearGradient xmlns:xlink="http://www.w3.org/1999/xlink" xlink:href="#linearGradientFAFBFCFFFFCC" id="linearGradientFAFBFCFFFFCC_35722216" x1="0" y1="437.0" x2="0" y2="497.0" gradientUnits="userSpaceOnUse" xlink:type="simple" xlink:actuate="onLoad" xlink:show="other" /><linearGradient xmlns:xlink="http://www.w3.org/1999/xlink" xlink:href="#linearGradientF8FBFEEDF5FCDEEDFAD4E7F8E2E5E9" id="linearGradientF8FBFEEDF5FCDEEDFAD4E7F8E2E5E9_1833174564" x1="0" y1="460.0" x2="0" y2="566.0" gradientUnits="userSpaceOnUse" xlink:type="simple" xlink:actuate="onLoad" xlink:show="other" /><linearGradient xmlns:xlink="http://www.w3.org/1999/xlink" xlink:href="#linearGradientF8FBFEEDF5FCDEEDFAD4E7F8E2E5E9" id="linearGradientF8FBFEEDF5FCDEEDFAD4E7F8E2E5E9_356091114" x1="0" y1="51.0" x2="0" y2="157.0" gradientUnits="userSpaceOnUse" xlink:type="simple" xlink:actuate="onLoad" xlink:show="other" /><linearGradient xmlns:xlink="http://www.w3.org/1999/xlink" xlink:href="#linearGradientFAFBFCFFFFCC" id="linearGradientFAFBFCFFFFCC_1005897422" x1="0" y1="28.0" x2="0" y2="88.0" gradientUnits="userSpaceOnUse" xlink:type="simple" xlink:actuate="onLoad" xlink:show="other" /><linearGradient xmlns:xlink="http://www.w3.org/1999/xlink" xlink:href="#linearGradientFF6666FF9696FFB6B6" id="linearGradientFF6666FF9696FFB6B6_834681867" x1="0" y1="68.0" x2="0" y2="103.0" gradientUnits="userSpaceOnUse" xlink:type="simple" xlink:actuate="onLoad" xlink:show="other" /><linearGradient id="linearGradientFF6666FF9696FFB6B6"><stop style="stop-color:#FF6666;stop-opacity:1;" offset="0.0" id="stopFF6666" /><stop style="stop-color:#FF9696;stop-opacity:1;" offset="0.5" id="stopFF9696" /><stop style="stop-color:#FFB6B6;stop-opacity:1;" offset="1.0" id="stopFFB6B6" /></linearGradient><linearGradient xmlns:xlink="http://www.w3.org/1999/xlink" xlink:href="#linearGradientFAFBFCFFFFCC" id="linearGradientFAFBFCFFFFCC_2088266033" x1="0" y1="216.0" x2="0" y2="276.0" gradientUnits="userSpaceOnUse" xlink:type="simple" xlink:actuate="onLoad" xlink:show="other" /><linearGradient xmlns:xlink="http://www.w3.org/1999/xlink" xlink:href="#linearGradientF8FBFEEDF5FCDEEDFAD4E7F8E2E5E9" id="linearGradientF8FBFEEDF5FCDEEDFAD4E7F8E2E5E9_624934016" x1="0" y1="84.0" x2="0" y2="190.0" gradientUnits="userSpaceOnUse" xlink:type="simple" xlink:actuate="onLoad" xlink:show="other" /><linearGradient xmlns:xlink="http://www.w3.org/1999/xlink" xlink:href="#linearGradientFF6666FF9696FFB6B6" id="linearGradientFF6666FF9696FFB6B6_954260575" x1="0" y1="270.0" x2="0" y2="305.0" gradientUnits="userSpaceOnUse" xlink:type="simple" xlink:actuate="onLoad" xlink:show="other" /><linearGradient xmlns:xlink="http://www.w3.org/1999/xlink" xlink:href="#linearGradientFAFBFCFFFFCC" id="linearGradientFAFBFCFFFFCC_149983020" x1="0" y1="331.0" x2="0" y2="391.0" gradientUnits="userSpaceOnUse" xlink:type="simple" xlink:actuate="onLoad" xlink:show="other" /><linearGradient xmlns:xlink="http://www.w3.org/1999/xlink" xlink:href="#linearGradientFAFBFCFFFFCC" id="linearGradientFAFBFCFFFFCC_939413218" x1="0" y1="436.0" x2="0" y2="496.0" gradientUnits="userSpaceOnUse" xlink:type="simple" xlink:actuate="onLoad" xlink:show="other" /><linearGradient xmlns:xlink="http://www.w3.org/1999/xlink" xlink:href="#linearGradientF8FBFEEDF5FCDEEDFAD4E7F8E2E5E9" id="linearGradientF8FBFEEDF5FCDEEDFAD4E7F8E2E5E9_1870479137" x1="0" y1="881.0" x2="0" y2="987.0" gradientUnits="userSpaceOnUse" xlink:type="simple" xlink:actuate="onLoad" xlink:show="other" /><linearGradient xmlns:xlink="http://www.w3.org/1999/xlink" xlink:href="#linearGradientF8FBFEEDF5FCDEEDFAD4E7F8E2E5E9" id="linearGradientF8FBFEEDF5FCDEEDFAD4E7F8E2E5E9_1371604149" x1="0" y1="51.0" x2="0" y2="157.0" gradientUnits="userSpaceOnUse" xlink:type="simple" xlink:actuate="onLoad" xlink:show="other" /><linearGradient xmlns:xlink="http://www.w3.org/1999/xlink" xlink:href="#linearGradientFF6666FF9696FFB6B6" id="linearGradientFF6666FF9696FFB6B6_1564764238" x1="0" y1="68.0" x2="0" y2="103.0" gradientUnits="userSpaceOnUse" xlink:type="simple" xlink:actuate="onLoad" xlink:show="other" /><linearGradient xmlns:xlink="http://www.w3.org/1999/xlink" xlink:href="#linearGradientFF6666FF9696FFB6B6" id="linearGradientFF6666FF9696FFB6B6_411612250" x1="0" y1="490.0" x2="0" y2="525.0" gradientUnits="userSpaceOnUse" xlink:type="simple" xlink:actuate="onLoad" xlink:show="other" /><linearGradient xmlns:xlink="http://www.w3.org/1999/xlink" xlink:href="#linearGradientFAFBFCFFFFCC" id="linearGradientFAFBFCFFFFCC_503972957" x1="0" y1="560.0" x2="0" y2="620.0" gradientUnits="userSpaceOnUse" xlink:type="simple" xlink:actuate="onLoad" xlink:show="other" /><linearGradient xmlns:xlink="http://www.w3.org/1999/xlink" xlink:href="#linearGradientF8FBFEEDF5FCDEEDFAD4E7F8E2E5E9" id="linearGradientF8FBFEEDF5FCDEEDFAD4E7F8E2E5E9_1203195781" x1="0" y1="51.0" x2="0" y2="157.0" gradientUnits="userSpaceOnUse" xlink:type="simple" xlink:actuate="onLoad" xlink:show="other" /><linearGradient xmlns:xlink="http://www.w3.org/1999/xlink" xlink:href="#linearGradientFAFBFCFFFFCC" id="linearGradientFAFBFCFFFFCC_969890085" x1="0" y1="30.0" x2="0" y2="90.0" gradientUnits="userSpaceOnUse" xlink:type="simple" xlink:actuate="onLoad" xlink:show="other" /><linearGradient xmlns:xlink="http://www.w3.org/1999/xlink" xlink:href="#linearGradientFAFBFCFFFFCC" id="linearGradientFAFBFCFFFFCC_1689784354" x1="0" y1="444.0" x2="0" y2="504.0" gradientUnits="userSpaceOnUse" xlink:type="simple" xlink:actuate="onLoad" xlink:show="other" /><linearGradient xmlns:xlink="http://www.w3.org/1999/xlink" xlink:href="#linearGradientFF6666FF9696FFB6B6" id="linearGradientFF6666FF9696FFB6B6_719247364" x1="0" y1="360.0" x2="0" y2="395.0" gradientUnits="userSpaceOnUse" xlink:type="simple" xlink:actuate="onLoad" xlink:show="other" /><linearGradient xmlns:xlink="http://www.w3.org/1999/xlink" xlink:href="#linearGradientF8FBFEEDF5FCDEEDFAD4E7F8E2E5E9" id="linearGradientF8FBFEEDF5FCDEEDFAD4E7F8E2E5E9_1474851261" x1="0" y1="788.0" x2="0" y2="894.0" gradientUnits="userSpaceOnUse" xlink:type="simple" xlink:actuate="onLoad" xlink:show="other" /><linearGradient xmlns:xlink="http://www.w3.org/1999/xlink" xlink:href="#linearGradientF8FBFEEDF5FCDEEDFAD4E7F8E2E5E9" id="linearGradientF8FBFEEDF5FCDEEDFAD4E7F8E2E5E9_346889236" x1="0" y1="340.0" x2="0" y2="446.0" gradientUnits="userSpaceOnUse" xlink:type="simple" xlink:actuate="onLoad" xlink:show="other" /><linearGradient xmlns:xlink="http://www.w3.org/1999/xlink" xlink:href="#linearGradientF8FBFEEDF5FCDEEDFAD4E7F8E2E5E9" id="linearGradientF8FBFEEDF5FCDEEDFAD4E7F8E2E5E9_808466339" x1="0" y1="580.0" x2="0" y2="686.0" gradientUnits="userSpaceOnUse" xlink:type="simple" xlink:actuate="onLoad" xlink:show="other" /><linearGradient xmlns:xlink="http://www.w3.org/1999/xlink" xlink:href="#linearGradientF8FBFEEDF5FCDEEDFAD4E7F8E2E5E9" id="linearGradientF8FBFEEDF5FCDEEDFAD4E7F8E2E5E9_1827854169" x1="0" y1="340.0" x2="0" y2="446.0" gradientUnits="userSpaceOnUse" xlink:type="simple" xlink:actuate="onLoad" xlink:show="other" /><linearGradient xmlns:xlink="http://www.w3.org/1999/xlink" xlink:href="#linearGradientF8FBFEEDF5FCDEEDFAD4E7F8E2E5E9" id="linearGradientF8FBFEEDF5FCDEEDFAD4E7F8E2E5E9_2013476579" x1="0" y1="44.0" x2="0" y2="150.0" gradientUnits="userSpaceOnUse" xlink:type="simple" xlink:actuate="onLoad" xlink:show="other" /><linearGradient xmlns:xlink="http://www.w3.org/1999/xlink" xlink:href="#linearGradientFAFBFCFFFFCC" id="linearGradientFAFBFCFFFFCC_78825547" x1="0" y1="84.0" x2="0" y2="144.0" gradientUnits="userSpaceOnUse" xlink:type="simple" xlink:actuate="onLoad" xlink:show="other" /><linearGradient xmlns:xlink="http://www.w3.org/1999/xlink" xlink:href="#linearGradientF8FBFEEDF5FCDEEDFAD4E7F8E2E5E9" id="linearGradientF8FBFEEDF5FCDEEDFAD4E7F8E2E5E9_898529873" x1="0" y1="788.0" x2="0" y2="894.0" gradientUnits="userSpaceOnUse" xlink:type="simple" xlink:actuate="onLoad" xlink:show="other" /><linearGradient xmlns:xlink="http://www.w3.org/1999/xlink" xlink:href="#linearGradientF8FBFEEDF5FCDEEDFAD4E7F8E2E5E9" id="linearGradientF8FBFEEDF5FCDEEDFAD4E7F8E2E5E9_1337732006" x1="0" y1="333.0" x2="0" y2="439.0" gradientUnits="userSpaceOnUse" xlink:type="simple" xlink:actuate="onLoad" xlink:show="other" /><linearGradient xmlns:xlink="http://www.w3.org/1999/xlink" xlink:href="#linearGradientFAFBFCFFFFCC" id="linearGradientFAFBFCFFFFCC_778680476" x1="0" y1="330.0" x2="0" y2="390.0" gradientUnits="userSpaceOnUse" xlink:type="simple" xlink:actuate="onLoad" xlink:show="other" /><linearGradient xmlns:xlink="http://www.w3.org/1999/xlink" xlink:href="#linearGradientFAFBFCFFFFCC" id="linearGradientFAFBFCFFFFCC_1015799178" x1="0" y1="560.0" x2="0" y2="620.0" gradientUnits="userSpaceOnUse" xlink:type="simple" xlink:actuate="onLoad" xlink:show="other" /></defs></svg>
