<?xml version="1.0" encoding="UTF-8"?>
<svg xmlns="http://www.w3.org/2000/svg" style="stroke-dasharray:none; shape-rendering:auto; font-family:'Arial'; text-rendering:auto; fill-opacity:1; color-interpolation:auto; color-rendering:auto; font-size:12; fill:black; stroke:black; image-rendering:auto; stroke-miterlimit:10; stroke-linecap:square; stroke-linejoin:miter; font-style:normal; stroke-width:1; stroke-dashoffset:0; font-weight:normal; stroke-opacity:1;" contentScriptType="text/ecmascript" preserveAspectRatio="xMidYMid meet" zoomAndPan="magnify" version="1.0" contentStyleType="text/css" xml:xlink="http://www.w3.org/1999/xlink" width="700" height="481"><rect x="0" y="158" width="700" height="150" ry="0" rx="0" style="stroke:#000000; fill:#82B0B7" /><g componentSequence="2"><text x="-233" y="7" transform="rotate(270)" text-anchor="middle" style="font-weight:bold;font-size:10px;stroke:none; fill:#434343"><tspan dy="14" x="-233">Logística</tspan></text></g><rect x="0" y="306" width="700" height="175" ry="0" rx="0" style="stroke:#000000; fill:#ADC9AC" /><g componentSequence="3"><text x="-393" y="7" transform="rotate(270)" text-anchor="middle" style="font-weight:bold;font-size:10px;stroke:none; fill:#434343"><tspan dy="14" x="-393">Transporte</tspan></text></g><rect x="0" y="9" width="700" height="150" ry="0" rx="0" style="stroke:#000000; fill:#9FC1C6" /><g componentSequence="1"><text x="-84" y="7" transform="rotate(270)" text-anchor="middle" style="font-weight:bold;font-size:10px;stroke:none; fill:#434343"><tspan dy="14" x="-84">Solicitante</tspan></text></g><g sequence="4"><ellipse cx="222" cy="77" rx="17" ry="17" stroke-width="1" style="fill:url(#linearGradient66FF6696FF96B6FFB6_804481599);" stroke="336633" /></g><g sequence="5"><rect x="170" y="193" width="106" height="84" ry="5" rx="5" style="fill:url(#linearGradientF8FBFEEDF5FCDEEDFAD4E7F8E2E5E9_557089201);" stroke="191970" /></g><g componentSequence="5"><text x="223" y="208" text-anchor="middle" style="font-weight:bold;font-size:10px;stroke:none; fill:#333399"><tspan dy="14" x="223">Aprovação</tspan><tspan dy="14" x="223">Analista de</tspan><tspan dy="14" x="223">Transportes</tspan></text></g><g sequence="6"><rect x="174" y="370" width="106" height="56" ry="5" rx="5" style="fill:url(#linearGradientF8FBFEEDF5FCDEEDFAD4E7F8E2E5E9_621478223);" stroke="191970" /></g><g componentSequence="6"><text x="227" y="387" text-anchor="middle" style="font-weight:bold;font-size:10px;stroke:none; fill:#333399"><tspan dy="14" x="227">Transporte</tspan></text></g><g sequence="7"><polygon points=" 337 205 367 175 397 205 367 235 337 205" style="fill:url(#linearGradientFAFBFCFFFFCC_1611238282);" stroke="000000" /></g><g componentSequence="7"><text x="367" y="245" text-anchor="middle" style="font-weight:bold;font-size:10px;stroke:none; fill:#333399"><tspan dy="14" x="367">Aprovaç</tspan><tspan dy="14" x="367">ão da</tspan><tspan dy="14" x="367">gerência</tspan></text></g><g sequence="11"><ellipse cx="467" cy="233" rx="17" ry="17" stroke-width="3" style="fill:url(#linearGradientFF6666FF9696FFB6B6_1419753254);" stroke="993333" /></g><g sequence="14"><rect x="490" y="56" width="106" height="56" ry="5" rx="5" style="fill:url(#linearGradientF8FBFEEDF5FCDEEDFAD4E7F8E2E5E9_1361284365);" stroke="191970" /></g><g componentSequence="14"><text x="543" y="73" text-anchor="middle" style="font-weight:bold;font-size:10px;stroke:none; fill:#333399"><tspan dy="14" x="543">Confirmação</tspan></text></g><g sequence="15"><polygon points=" 410 370 440 340 470 370 440 400 410 370" style="fill:url(#linearGradientFAFBFCFFFFCC_744484639);" stroke="000000" /></g><g componentSequence="15"><text x="440" y="410" text-anchor="middle" style="font-weight:bold;font-size:10px;stroke:none; fill:#333399"><tspan dy="14" x="440">Obter</tspan><tspan dy="14" x="440">esclareci</tspan><tspan dy="14" x="440">mento</tspan></text></g><g sequence="19"><ellipse cx="597" cy="427" rx="17" ry="17" stroke-width="3" style="fill:url(#linearGradientFF6666FF9696FFB6B6_2520261);" stroke="993333" /></g><g componentSequence="8"><text x="232" y="144" style="font-size:10px;font-weight:none;stroke:none; fill:#333399" text-anchor="left" /></g><g componentSequence="9"><text x="316" y="234" style="font-size:10px;font-weight:none;stroke:none; fill:#333399" text-anchor="left" /></g><g componentSequence="10"><text x="284" y="307" style="font-size:10px;font-weight:none;stroke:none; fill:#333399" text-anchor="left"><tspan dy="14" x="284">Sim</tspan></text></g><g componentSequence="12"><text x="433" y="233" style="font-size:10px;font-weight:none;stroke:none; fill:#333399" text-anchor="left" /></g><g componentSequence="16"><text x="355" y="398" style="font-size:10px;font-weight:none;stroke:none; fill:#333399" text-anchor="left" /></g><g componentSequence="17"><text x="552" y="291" style="font-size:10px;font-weight:none;stroke:none; fill:#333399" text-anchor="left" /></g><g componentSequence="18"><text x="640" y="465" style="font-size:10px;font-weight:none;stroke:none; fill:#333399" text-anchor="left" /></g><g componentSequence="20"><text x="533" y="427" style="font-size:10px;font-weight:none;stroke:none; fill:#333399" text-anchor="left" /></g><path style="fill:none; stroke:#F00000;stroke-width:1" d="M222.0 94.0 L222.0 192.0" /><polygon style="fill:#F00000; stroke:#F00000;" points=" 227 182 222 192 217 182 222 184" /><polygon style="fill:#F00000; stroke:#F00000;" points=" 217 104 222 94 227 104 222 102" /><path style="fill:none; stroke:#000000;stroke-width:1" d="M276.0 234.0 L336.0 233.0" /><polygon style="fill:#000000; stroke:#000000;" points=" 326 228 336 233 326 238 328 233" /><path style="fill:none; stroke:#000000;stroke-width:1" d="M280.0 398.0 L409.0 398.0" /><polygon style="fill:#000000; stroke:#000000;" points=" 399 393 409 398 399 403 401 398" /><path style="fill:none; stroke:#000000;stroke-width:1" d="M366.0 291.0 L366.0 307.0 L228.0 307.0 L227.0 369.0" /><polygon style="fill:#000000; stroke:#000000;" points=" 232 359 227 369 222 359 227 361" /><path style="fill:none; stroke:#000000;stroke-width:1" d="M596.0 84.0 L643.0 84.0 L643.0 465.0 L227.0 465.0 L227.0 426.0" /><polygon style="fill:#000000; stroke:#000000;" points=" 222 436 227 426 232 436 227 434" /><path style="fill:none; stroke:#000000;stroke-width:1" d="M397.0 233.0 L449.0 233.0" /><polygon style="fill:#000000; stroke:#000000;" points=" 439 228 449 233 439 238 441 233" /><path style="fill:none; stroke:#000000;stroke-width:1" d="M470.0 397.0 L542.0 397.0 L542.0 112.0" /><polygon style="fill:#000000; stroke:#000000;" points=" 537 122 542 112 547 122 542 120" /><path style="fill:none; stroke:#000000;stroke-width:1" d="M470.0 411.0 L506.0 427.0 L579.0 427.0" /><polygon style="fill:#000000; stroke:#000000;" points=" 569 422 579 427 569 432 571 427" /><defs><linearGradient xmlns:xlink="http://www.w3.org/1999/xlink" xlink:href="#linearGradient66FF6696FF96B6FFB6" id="linearGradient66FF6696FF96B6FFB6_804481599" x1="0" y1="60.0" x2="0" y2="95.0" gradientUnits="userSpaceOnUse" xlink:type="simple" xlink:actuate="onLoad" xlink:show="other" /><linearGradient id="linearGradient66FF6696FF96B6FFB6"><stop style="stop-color:#66FF66;stop-opacity:1;" offset="0.0" id="stop66FF66" /><stop style="stop-color:#96FF96;stop-opacity:1;" offset="0.5" id="stop96FF96" /><stop style="stop-color:#B6FFB6;stop-opacity:1;" offset="1.0" id="stopB6FFB6" /></linearGradient><linearGradient xmlns:xlink="http://www.w3.org/1999/xlink" xlink:href="#linearGradientF8FBFEEDF5FCDEEDFAD4E7F8E2E5E9" id="linearGradientF8FBFEEDF5FCDEEDFAD4E7F8E2E5E9_557089201" x1="0" y1="193.0" x2="0" y2="299.0" gradientUnits="userSpaceOnUse" xlink:type="simple" xlink:actuate="onLoad" xlink:show="other" /><linearGradient id="linearGradientF8FBFEEDF5FCDEEDFAD4E7F8E2E5E9"><stop style="stop-color:#F8FBFE;stop-opacity:1;" offset="0.0" id="stopF8FBFE" /><stop style="stop-color:#EDF5FC;stop-opacity:1;" offset="0.25" id="stopEDF5FC" /><stop style="stop-color:#DEEDFA;stop-opacity:1;" offset="0.5" id="stopDEEDFA" /><stop style="stop-color:#D4E7F8;stop-opacity:1;" offset="0.75" id="stopD4E7F8" /><stop style="stop-color:#E2E5E9;stop-opacity:1;" offset="1.0" id="stopE2E5E9" /></linearGradient><linearGradient xmlns:xlink="http://www.w3.org/1999/xlink" xlink:href="#linearGradientF8FBFEEDF5FCDEEDFAD4E7F8E2E5E9" id="linearGradientF8FBFEEDF5FCDEEDFAD4E7F8E2E5E9_621478223" x1="0" y1="370.0" x2="0" y2="476.0" gradientUnits="userSpaceOnUse" xlink:type="simple" xlink:actuate="onLoad" xlink:show="other" /><linearGradient xmlns:xlink="http://www.w3.org/1999/xlink" xlink:href="#linearGradientFAFBFCFFFFCC" id="linearGradientFAFBFCFFFFCC_1611238282" x1="0" y1="175.0" x2="0" y2="235.0" gradientUnits="userSpaceOnUse" xlink:type="simple" xlink:actuate="onLoad" xlink:show="other" /><linearGradient id="linearGradientFAFBFCFFFFCC"><stop style="stop-color:#FAFBFC;stop-opacity:1;" offset="0.0" id="stopFAFBFC" /><stop style="stop-color:#FFFFCC;stop-opacity:1;" offset="1.0" id="stopFFFFCC" /></linearGradient><linearGradient xmlns:xlink="http://www.w3.org/1999/xlink" xlink:href="#linearGradientFF6666FF9696FFB6B6" id="linearGradientFF6666FF9696FFB6B6_1419753254" x1="0" y1="216.0" x2="0" y2="251.0" gradientUnits="userSpaceOnUse" xlink:type="simple" xlink:actuate="onLoad" xlink:show="other" /><linearGradient id="linearGradientFF6666FF9696FFB6B6"><stop style="stop-color:#FF6666;stop-opacity:1;" offset="0.0" id="stopFF6666" /><stop style="stop-color:#FF9696;stop-opacity:1;" offset="0.5" id="stopFF9696" /><stop style="stop-color:#FFB6B6;stop-opacity:1;" offset="1.0" id="stopFFB6B6" /></linearGradient><linearGradient xmlns:xlink="http://www.w3.org/1999/xlink" xlink:href="#linearGradientF8FBFEEDF5FCDEEDFAD4E7F8E2E5E9" id="linearGradientF8FBFEEDF5FCDEEDFAD4E7F8E2E5E9_1361284365" x1="0" y1="56.0" x2="0" y2="162.0" gradientUnits="userSpaceOnUse" xlink:type="simple" xlink:actuate="onLoad" xlink:show="other" /><linearGradient xmlns:xlink="http://www.w3.org/1999/xlink" xlink:href="#linearGradientFAFBFCFFFFCC" id="linearGradientFAFBFCFFFFCC_744484639" x1="0" y1="340.0" x2="0" y2="400.0" gradientUnits="userSpaceOnUse" xlink:type="simple" xlink:actuate="onLoad" xlink:show="other" /><linearGradient xmlns:xlink="http://www.w3.org/1999/xlink" xlink:href="#linearGradientFF6666FF9696FFB6B6" id="linearGradientFF6666FF9696FFB6B6_2520261" x1="0" y1="410.0" x2="0" y2="445.0" gradientUnits="userSpaceOnUse" xlink:type="simple" xlink:actuate="onLoad" xlink:show="other" /></defs></svg>
