<?xml version="1.0" encoding="UTF-8"?>
<svg xmlns="http://www.w3.org/2000/svg" style="stroke-dasharray:none; shape-rendering:auto; font-family:'Arial'; text-rendering:auto; fill-opacity:1; color-interpolation:auto; color-rendering:auto; font-size:12; fill:black; stroke:black; image-rendering:auto; stroke-miterlimit:10; stroke-linecap:square; stroke-linejoin:miter; font-style:normal; stroke-width:1; stroke-dashoffset:0; font-weight:normal; stroke-opacity:1;" contentScriptType="text/ecmascript" preserveAspectRatio="xMidYMid meet" zoomAndPan="magnify" version="1.0" contentStyleType="text/css" xml:xlink="http://www.w3.org/1999/xlink" width="898" height="440"><rect x="0" y="152" width="700" height="97" ry="0" rx="0" style="stroke:#000000; fill:#82B0B7" /><g componentSequence="2"><text x="-200" y="7" transform="rotate(270)" text-anchor="middle" style="font-weight:bold;font-size:10px;stroke:none; fill:#434343"><tspan dy="14" x="-200">Sistema</tspan></text></g><rect x="0" y="340" width="700" height="100" ry="0" rx="0" style="stroke:#000000; fill:#D0DAAE" /><g componentSequence="3"><text x="-390" y="7" transform="rotate(270)" text-anchor="middle" style="font-weight:bold;font-size:10px;stroke:none; fill:#434343"><tspan dy="14" x="-390">Processo</tspan></text></g><rect x="0" y="1" width="700" height="150" ry="0" rx="0" style="stroke:#000000; fill:#9FC1C6" /><g componentSequence="4"><text x="-76" y="7" transform="rotate(270)" text-anchor="middle" style="font-weight:bold;font-size:10px;stroke:none; fill:#434343"><tspan dy="14" x="-76">Solicitante</tspan></text></g><rect x="0" y="246" width="700" height="94" ry="0" rx="0" style="stroke:#000000; fill:#ADC9AC" /><g componentSequence="1"><text x="-293" y="7" transform="rotate(270)" text-anchor="middle" style="font-weight:bold;font-size:10px;stroke:none; fill:#434343"><tspan dy="14" x="-293">Infraestrutura</tspan></text></g><g sequence="5"><ellipse cx="93" cy="75" rx="17" ry="17" stroke-width="1" style="fill:url(#linearGradient66FF6696FF96B6FFB6_1501025186);" stroke="336633" /></g><g sequence="6"><polygon points=" 191 80 221 50 251 80 221 110 191 80" style="fill:url(#linearGradientFAFBFCFFFFCC_1471166204);" stroke="000000" /></g><g componentSequence="6"><text x="221" y="120" text-anchor="middle" style="font-weight:bold;font-size:10px;stroke:none; fill:#333399"><tspan dy="14" x="221">Direcion</tspan><tspan dy="14" x="221">amento</tspan></text></g><g sequence="7"><rect x="345" y="171" width="106" height="56" ry="5" rx="5" style="fill:url(#linearGradientF8FBFEEDF5FCDEEDFAD4E7F8E2E5E9_1401927890);" stroke="191970" /></g><g componentSequence="7"><text x="398" y="188" text-anchor="middle" style="font-weight:bold;font-size:10px;stroke:none; fill:#333399"><tspan dy="14" x="398">Sistema</tspan></text></g><g sequence="8"><rect x="323" y="263" width="106" height="56" ry="5" rx="5" style="fill:url(#linearGradientF8FBFEEDF5FCDEEDFAD4E7F8E2E5E9_378354887);" stroke="191970" /></g><g componentSequence="8"><text x="376" y="280" text-anchor="middle" style="font-weight:bold;font-size:10px;stroke:none; fill:#333399"><tspan dy="14" x="376">Infraestrutura</tspan></text></g><g sequence="9"><rect x="303" y="367" width="106" height="56" ry="5" rx="5" style="fill:url(#linearGradientF8FBFEEDF5FCDEEDFAD4E7F8E2E5E9_1895831415);" stroke="191970" /></g><g componentSequence="9"><text x="356" y="384" text-anchor="middle" style="font-weight:bold;font-size:10px;stroke:none; fill:#333399"><tspan dy="14" x="356">Processo</tspan></text></g><g sequence="14"><rect x="385" y="47" width="106" height="70" ry="5" rx="5" style="fill:url(#linearGradientF8FBFEEDF5FCDEEDFAD4E7F8E2E5E9_668059773);" stroke="191970" /></g><g componentSequence="14"><text x="438" y="62" text-anchor="middle" style="font-weight:bold;font-size:10px;stroke:none; fill:#333399"><tspan dy="14" x="438">Esclarecimento</tspan><tspan dy="14" x="438">do solicitante</tspan></text></g><g sequence="15"><polygon points=" 625 79 655 49 685 79 655 109 625 79" style="fill:url(#linearGradientFAFBFCFFFFCC_162971005);" stroke="000000" /></g><g componentSequence="15"><text x="655" y="119" text-anchor="middle" style="font-weight:bold;font-size:10px;stroke:none; fill:#333399"><tspan dy="14" x="655">Descriçã</tspan><tspan dy="14" x="655">o está</tspan><tspan dy="14" x="655">clara?</tspan></text></g><g sequence="16"><rect x="718" y="46" width="106" height="70" ry="5" rx="5" style="fill:url(#linearGradientF8FBFEEDF5FCDEEDFAD4E7F8E2E5E9_1990378376);" stroke="191970" /></g><g componentSequence="16"><text x="771" y="61" text-anchor="middle" style="font-weight:bold;font-size:10px;stroke:none; fill:#333399"><tspan dy="14" x="771">Finalização do</tspan><tspan dy="14" x="771">solicitante</tspan></text></g><g sequence="17"><ellipse cx="880" cy="72" rx="17" ry="17" stroke-width="3" style="fill:url(#linearGradientFF6666FF9696FFB6B6_124307844);" stroke="993333" /></g><g componentSequence="10"><text x="309" y="144" style="font-size:10px;font-weight:none;stroke:none; fill:#333399" text-anchor="left" /></g><g componentSequence="11"><text x="312" y="200" style="font-size:10px;font-weight:none;stroke:none; fill:#333399" text-anchor="left" /></g><g componentSequence="12"><text x="303" y="259" style="font-size:10px;font-weight:none;stroke:none; fill:#333399" text-anchor="left" /></g><g componentSequence="13"><text x="161" y="87" style="font-size:10px;font-weight:none;stroke:none; fill:#333399" text-anchor="left" /></g><g componentSequence="18"><text x="548" y="148" style="font-size:10px;font-weight:none;stroke:none; fill:#333399" text-anchor="left" /></g><g componentSequence="19"><text x="532" y="195" style="font-size:10px;font-weight:none;stroke:none; fill:#333399" text-anchor="left" /></g><g componentSequence="20"><text x="515" y="251" style="font-size:10px;font-weight:none;stroke:none; fill:#333399" text-anchor="left" /></g><g componentSequence="21"><text x="568" y="96" style="font-size:10px;font-weight:none;stroke:none; fill:#333399" text-anchor="left" /></g><g componentSequence="22"><text x="328" y="92" style="font-size:10px;font-weight:none;stroke:none; fill:#333399" text-anchor="left" /></g><g componentSequence="23"><text x="711" y="97" style="font-size:10px;font-weight:none;stroke:none; fill:#333399" text-anchor="left" /></g><g componentSequence="24"><text x="853" y="75" style="font-size:10px;font-weight:none;stroke:none; fill:#333399" text-anchor="left" /></g><g componentSequence="25"><text x="853" y="75" style="font-size:10px;font-weight:none;stroke:none; fill:#333399" text-anchor="left" /></g><path style="fill:none; stroke:#000000;stroke-width:1" d="M110.0 78.0 L190.0 94.0" /><polygon style="fill:#000000; stroke:#000000;" points=" 181 87 190 94 179 97 182 92" /><path style="fill:none; stroke:#000000;stroke-width:1" d="M251.0 117.0 L346.0 170.0" /><polygon style="fill:#000000; stroke:#000000;" points=" 340 161 346 170 335 169 339 166" /><path style="fill:none; stroke:#000000;stroke-width:1" d="M251.0 138.0 L352.0 262.0" /><polygon style="fill:#000000; stroke:#000000;" points=" 350 251 352 262 342 257 347 256" /><path style="fill:none; stroke:#000000;stroke-width:1" d="M244.0 152.0 L342.0 366.0" /><polygon style="fill:#000000; stroke:#000000;" points=" 342 355 342 366 333 359 339 359" /><path style="fill:none; stroke:#000000;stroke-width:1" d="M384.0 86.0 L251.0 98.0" /><polygon style="fill:#000000; stroke:#000000;" points=" 261 102 251 98 261 92 259 97" /><path style="fill:none; stroke:#000000;stroke-width:1" d="M451.0 179.0 L624.0 117.0" /><polygon style="fill:#000000; stroke:#000000;" points=" 613 116 624 117 616 125 616 120" /><path style="fill:none; stroke:#000000;stroke-width:1" d="M419.0 262.0 L624.0 127.0" /><polygon style="fill:#000000; stroke:#000000;" points=" 613 128 624 127 618 137 617 131" /><path style="fill:none; stroke:#000000;stroke-width:1" d="M385.0 366.0 L624.0 136.0" /><polygon style="fill:#000000; stroke:#000000;" points=" 613 139 624 136 620 147 618 142" /><path style="fill:none; stroke:#000000;stroke-width:1" d="M624.0 103.0 L491.0 88.0" /><polygon style="fill:#000000; stroke:#000000;" points=" 500 94 491 88 501 84 499 89" /><path style="fill:none; stroke:#000000;stroke-width:1" d="M685.0 100.0 L717.0 93.0" /><polygon style="fill:#000000; stroke:#000000;" points=" 706 90 717 93 708 100 709 95" /><path style="fill:none; stroke:#009600;stroke-width:1" d="M824.0 76.0 L863.0 73.0" /><polygon style="fill:#009600; stroke:#009600;" points=" 853 69 863 73 853 79 855 74" /><path style="fill:none; stroke:#000000;stroke-width:1" d="M824.0 76.0 L863.0 73.0" /><polygon style="fill:#000000; stroke:#000000;" points=" 853 69 863 73 853 79 855 74" /><defs><linearGradient xmlns:xlink="http://www.w3.org/1999/xlink" xlink:href="#linearGradient66FF6696FF96B6FFB6" id="linearGradient66FF6696FF96B6FFB6_1501025186" x1="0" y1="58.0" x2="0" y2="93.0" gradientUnits="userSpaceOnUse" xlink:type="simple" xlink:actuate="onLoad" xlink:show="other" /><linearGradient id="linearGradient66FF6696FF96B6FFB6"><stop style="stop-color:#66FF66;stop-opacity:1;" offset="0.0" id="stop66FF66" /><stop style="stop-color:#96FF96;stop-opacity:1;" offset="0.5" id="stop96FF96" /><stop style="stop-color:#B6FFB6;stop-opacity:1;" offset="1.0" id="stopB6FFB6" /></linearGradient><linearGradient xmlns:xlink="http://www.w3.org/1999/xlink" xlink:href="#linearGradientFAFBFCFFFFCC" id="linearGradientFAFBFCFFFFCC_1471166204" x1="0" y1="50.0" x2="0" y2="110.0" gradientUnits="userSpaceOnUse" xlink:type="simple" xlink:actuate="onLoad" xlink:show="other" /><linearGradient id="linearGradientFAFBFCFFFFCC"><stop style="stop-color:#FAFBFC;stop-opacity:1;" offset="0.0" id="stopFAFBFC" /><stop style="stop-color:#FFFFCC;stop-opacity:1;" offset="1.0" id="stopFFFFCC" /></linearGradient><linearGradient xmlns:xlink="http://www.w3.org/1999/xlink" xlink:href="#linearGradientF8FBFEEDF5FCDEEDFAD4E7F8E2E5E9" id="linearGradientF8FBFEEDF5FCDEEDFAD4E7F8E2E5E9_1401927890" x1="0" y1="171.0" x2="0" y2="277.0" gradientUnits="userSpaceOnUse" xlink:type="simple" xlink:actuate="onLoad" xlink:show="other" /><linearGradient id="linearGradientF8FBFEEDF5FCDEEDFAD4E7F8E2E5E9"><stop style="stop-color:#F8FBFE;stop-opacity:1;" offset="0.0" id="stopF8FBFE" /><stop style="stop-color:#EDF5FC;stop-opacity:1;" offset="0.25" id="stopEDF5FC" /><stop style="stop-color:#DEEDFA;stop-opacity:1;" offset="0.5" id="stopDEEDFA" /><stop style="stop-color:#D4E7F8;stop-opacity:1;" offset="0.75" id="stopD4E7F8" /><stop style="stop-color:#E2E5E9;stop-opacity:1;" offset="1.0" id="stopE2E5E9" /></linearGradient><linearGradient xmlns:xlink="http://www.w3.org/1999/xlink" xlink:href="#linearGradientF8FBFEEDF5FCDEEDFAD4E7F8E2E5E9" id="linearGradientF8FBFEEDF5FCDEEDFAD4E7F8E2E5E9_378354887" x1="0" y1="263.0" x2="0" y2="369.0" gradientUnits="userSpaceOnUse" xlink:type="simple" xlink:actuate="onLoad" xlink:show="other" /><linearGradient xmlns:xlink="http://www.w3.org/1999/xlink" xlink:href="#linearGradientF8FBFEEDF5FCDEEDFAD4E7F8E2E5E9" id="linearGradientF8FBFEEDF5FCDEEDFAD4E7F8E2E5E9_1895831415" x1="0" y1="367.0" x2="0" y2="473.0" gradientUnits="userSpaceOnUse" xlink:type="simple" xlink:actuate="onLoad" xlink:show="other" /><linearGradient xmlns:xlink="http://www.w3.org/1999/xlink" xlink:href="#linearGradientF8FBFEEDF5FCDEEDFAD4E7F8E2E5E9" id="linearGradientF8FBFEEDF5FCDEEDFAD4E7F8E2E5E9_668059773" x1="0" y1="47.0" x2="0" y2="153.0" gradientUnits="userSpaceOnUse" xlink:type="simple" xlink:actuate="onLoad" xlink:show="other" /><linearGradient xmlns:xlink="http://www.w3.org/1999/xlink" xlink:href="#linearGradientFAFBFCFFFFCC" id="linearGradientFAFBFCFFFFCC_162971005" x1="0" y1="49.0" x2="0" y2="109.0" gradientUnits="userSpaceOnUse" xlink:type="simple" xlink:actuate="onLoad" xlink:show="other" /><linearGradient xmlns:xlink="http://www.w3.org/1999/xlink" xlink:href="#linearGradientF8FBFEEDF5FCDEEDFAD4E7F8E2E5E9" id="linearGradientF8FBFEEDF5FCDEEDFAD4E7F8E2E5E9_1990378376" x1="0" y1="46.0" x2="0" y2="152.0" gradientUnits="userSpaceOnUse" xlink:type="simple" xlink:actuate="onLoad" xlink:show="other" /><linearGradient xmlns:xlink="http://www.w3.org/1999/xlink" xlink:href="#linearGradientFF6666FF9696FFB6B6" id="linearGradientFF6666FF9696FFB6B6_124307844" x1="0" y1="55.0" x2="0" y2="90.0" gradientUnits="userSpaceOnUse" xlink:type="simple" xlink:actuate="onLoad" xlink:show="other" /><linearGradient id="linearGradientFF6666FF9696FFB6B6"><stop style="stop-color:#FF6666;stop-opacity:1;" offset="0.0" id="stopFF6666" /><stop style="stop-color:#FF9696;stop-opacity:1;" offset="0.5" id="stopFF9696" /><stop style="stop-color:#FFB6B6;stop-opacity:1;" offset="1.0" id="stopFFB6B6" /></linearGradient></defs></svg>
