<?xml version="1.0" encoding="UTF-8"?>
<svg xmlns="http://www.w3.org/2000/svg" style="stroke-dasharray:none; shape-rendering:auto; font-family:'Arial'; text-rendering:auto; fill-opacity:1; color-interpolation:auto; color-rendering:auto; font-size:12; fill:black; stroke:black; image-rendering:auto; stroke-miterlimit:10; stroke-linecap:square; stroke-linejoin:miter; font-style:normal; stroke-width:1; stroke-dashoffset:0; font-weight:normal; stroke-opacity:1;" contentScriptType="text/ecmascript" preserveAspectRatio="xMidYMid meet" zoomAndPan="magnify" version="1.0" contentStyleType="text/css" xml:xlink="http://www.w3.org/1999/xlink" width="741" height="501"><rect x="30" y="310" width="711" height="191" ry="0" rx="0" style="stroke:#000000; fill:#ADC9AC" /><g componentSequence="3"><text x="-405" y="36" transform="rotate(270)" text-anchor="middle" style="font-weight:bold;font-size:10px;stroke:none; fill:#434343"><tspan dy="14" x="-405">Devolução</tspan></text></g><rect x="30" y="26" width="711" height="145" ry="0" rx="0" style="stroke:#000000; fill:#82B0B7" /><g componentSequence="2"><text x="-98" y="36" transform="rotate(270)" text-anchor="middle" style="font-weight:bold;font-size:10px;stroke:none; fill:#434343"><tspan dy="14" x="-98">Vendedor</tspan></text></g><rect x="30" y="166" width="711" height="149" ry="0" rx="0" style="stroke:#000000; fill:#82B0B7" /><g componentSequence="1"><text x="-240" y="36" transform="rotate(270)" text-anchor="middle" style="font-weight:bold;font-size:10px;stroke:none; fill:#434343"><tspan dy="14" x="-240">Pós venda</tspan></text></g><g sequence="4"><ellipse cx="97" cy="99" rx="17" ry="17" stroke-width="1" style="fill:url(#linearGradient66FF6696FF96B6FFB6_1245553271);" stroke="336633" /></g><g sequence="7"><polygon points=" 190 80 220 50 250 80 220 110 190 80" style="fill:url(#linearGradientFAFBFCFFFFCC_1157256512);" stroke="000000" /></g><g componentSequence="7"><text x="220" y="120" text-anchor="middle" style="font-weight:bold;font-size:10px;stroke:none; fill:#333399"><tspan dy="14" x="220">Especial/</tspan><tspan dy="14" x="220">+30?</tspan></text></g><g sequence="9"><rect x="310" y="66" width="106" height="67" ry="5" rx="5" style="fill:url(#linearGradientF8FBFEEDF5FCDEEDFAD4E7F8E2E5E9_1086703879);" stroke="191970" /></g><g componentSequence="9"><text x="363" y="81" text-anchor="middle" style="font-weight:bold;font-size:10px;stroke:none; fill:#333399"><tspan dy="14" x="363">Aprovação</tspan><tspan dy="14" x="363">supervisor</tspan></text></g><g sequence="11"><rect x="310" y="208" width="106" height="67" ry="5" rx="5" style="fill:url(#linearGradientF8FBFEEDF5FCDEEDFAD4E7F8E2E5E9_96952187);" stroke="191970" /></g><g componentSequence="11"><text x="363" y="223" text-anchor="middle" style="font-weight:bold;font-size:10px;stroke:none; fill:#333399"><tspan dy="14" x="363">Validação e</tspan><tspan dy="14" x="363">aprovação</tspan></text></g><g sequence="13"><polygon points=" 460 86 490 56 520 86 490 116 460 86" style="fill:url(#linearGradientFAFBFCFFFFCC_575568814);" stroke="000000" /></g><g componentSequence="13"><text x="490" y="118" text-anchor="middle" style="font-weight:bold;font-size:10px;stroke:none; fill:#333399"><tspan dy="14" x="490">Aprova?</tspan></text></g><g sequence="16"><ellipse cx="597" cy="99" rx="17" ry="17" stroke-width="3" style="fill:url(#linearGradientFF6666FF9696FFB6B6_872970994);" stroke="993333" /></g><g sequence="18"><rect x="470" y="354" width="106" height="54" ry="5" rx="5" style="fill:url(#linearGradientF8FBFEEDF5FCDEEDFAD4E7F8E2E5E9_1516961925);" stroke="191970" /></g><g componentSequence="18"><text x="523" y="370" text-anchor="middle" style="font-weight:bold;font-size:10px;stroke:none; fill:#333399"><tspan dy="14" x="523">Conferência</tspan></text></g><g sequence="21"><rect x="550" y="208" width="106" height="67" ry="5" rx="5" style="fill:url(#linearGradientF8FBFEEDF5FCDEEDFAD4E7F8E2E5E9_1709744180);" stroke="191970" /></g><g componentSequence="21"><text x="603" y="223" text-anchor="middle" style="font-weight:bold;font-size:10px;stroke:none; fill:#333399"><tspan dy="14" x="603">Finalização e</tspan><tspan dy="14" x="603">Avaliação</tspan></text></g><g sequence="23"><ellipse cx="707" cy="241" rx="17" ry="17" stroke-width="3" style="fill:url(#linearGradientFF6666FF9696FFB6B6_875181100);" stroke="993333" /></g><g sequence="25"><polygon points=" 333 357 363 327 393 357 363 387 333 357" style="fill:url(#linearGradientFAFBFCFFFFCC_1132595121);" stroke="000000" /></g><g componentSequence="25"><text x="363" y="397" text-anchor="middle" style="font-weight:bold;font-size:10px;stroke:none; fill:#333399"><tspan dy="14" x="363">Aprova</tspan><tspan dy="14" x="363">solicitaçã</tspan><tspan dy="14" x="363">o?</tspan></text></g><g sequence="28"><ellipse cx="367" cy="467" rx="17" ry="17" stroke-width="3" style="fill:url(#linearGradientFF6666FF9696FFB6B6_1097812076);" stroke="993333" /></g><g componentSequence="10"><text x="265" y="86" style="font-size:10px;font-weight:none;stroke:none; fill:#333399" text-anchor="left"><tspan dy="14" x="265">Sim</tspan></text></g><g componentSequence="12"><text x="231" y="220" style="font-size:10px;font-weight:none;stroke:none; fill:#333399" text-anchor="left"><tspan dy="14" x="231">Não</tspan></text></g><g componentSequence="14"><text x="448" y="99" style="font-size:10px;font-weight:none;stroke:none; fill:#333399" text-anchor="left" /></g><g componentSequence="15"><text x="460" y="216" style="font-size:10px;font-weight:none;stroke:none; fill:#333399" text-anchor="left"><tspan dy="14" x="460">Sim</tspan></text></g><g componentSequence="17"><text x="540" y="86" style="font-size:10px;font-weight:none;stroke:none; fill:#333399" text-anchor="left"><tspan dy="14" x="540">Não</tspan></text></g><g componentSequence="20"><text x="162" y="99" style="font-size:10px;font-weight:none;stroke:none; fill:#333399" text-anchor="left" /></g><g componentSequence="22"><text x="612" y="340" style="font-size:10px;font-weight:none;stroke:none; fill:#333399" text-anchor="left" /></g><g componentSequence="24"><text x="683" y="241" style="font-size:10px;font-weight:none;stroke:none; fill:#333399" text-anchor="left" /></g><g componentSequence="26"><text x="373" y="301" style="font-size:10px;font-weight:none;stroke:none; fill:#333399" text-anchor="left" /></g><g componentSequence="27"><text x="441" y="382" style="font-size:10px;font-weight:none;stroke:none; fill:#333399" text-anchor="left" /></g><g componentSequence="29"><text x="376" y="444" style="font-size:10px;font-weight:none;stroke:none; fill:#333399" text-anchor="left" /></g><path style="fill:none; stroke:#000000;stroke-width:1" d="M115.0 99.0 L189.0 99.0" /><polygon style="fill:#000000; stroke:#000000;" points=" 179 94 189 99 179 104 181 99" /><path style="fill:none; stroke:#000000;stroke-width:1" d="M250.0 99.0 L309.0 99.0" /><polygon style="fill:#000000; stroke:#000000;" points=" 299 94 309 99 299 104 301 99" /><path style="fill:none; stroke:#000000;stroke-width:1" d="M219.0 149.0 L219.0 241.0 L309.0 241.0" /><polygon style="fill:#000000; stroke:#000000;" points=" 299 236 309 241 299 246 301 241" /><path style="fill:none; stroke:#000000;stroke-width:1" d="M416.0 99.0 L459.0 99.0" /><polygon style="fill:#000000; stroke:#000000;" points=" 449 94 459 99 449 104 451 99" /><path style="fill:none; stroke:#000000;stroke-width:1" d="M363.0 275.0 L363.0 326.0" /><polygon style="fill:#000000; stroke:#000000;" points=" 368 316 363 326 358 316 363 318" /><path style="fill:none; stroke:#000000;stroke-width:1" d="M489.0 142.0 L489.0 241.0 L416.0 241.0" /><polygon style="fill:#000000; stroke:#000000;" points=" 426 246 416 241 426 236 424 241" /><path style="fill:none; stroke:#000000;stroke-width:1" d="M520.0 99.0 L579.0 99.0" /><polygon style="fill:#000000; stroke:#000000;" points=" 569 94 579 99 569 104 571 99" /><path style="fill:none; stroke:#000000;stroke-width:1" d="M576.0 379.0 L602.0 379.0 L602.0 275.0" /><polygon style="fill:#000000; stroke:#000000;" points=" 597 285 602 275 607 285 602 283" /><path style="fill:none; stroke:#000000;stroke-width:1" d="M393.0 382.0 L469.0 381.0" /><polygon style="fill:#000000; stroke:#000000;" points=" 459 376 469 381 459 386 461 381" /><path style="fill:none; stroke:#000000;stroke-width:1" d="M656.0 241.0 L689.0 241.0" /><polygon style="fill:#000000; stroke:#000000;" points=" 679 236 689 241 679 246 681 241" /><path style="fill:none; stroke:#000000;stroke-width:1" d="M366.0 439.0 L367.0 450.0" /><polygon style="fill:#000000; stroke:#000000;" points=" 371 440 367 450 361 440 366 442" /><defs><linearGradient xmlns:xlink="http://www.w3.org/1999/xlink" xlink:href="#linearGradient66FF6696FF96B6FFB6" id="linearGradient66FF6696FF96B6FFB6_1245553271" x1="0" y1="82.0" x2="0" y2="117.0" gradientUnits="userSpaceOnUse" xlink:type="simple" xlink:actuate="onLoad" xlink:show="other" /><linearGradient id="linearGradient66FF6696FF96B6FFB6"><stop style="stop-color:#66FF66;stop-opacity:1;" offset="0.0" id="stop66FF66" /><stop style="stop-color:#96FF96;stop-opacity:1;" offset="0.5" id="stop96FF96" /><stop style="stop-color:#B6FFB6;stop-opacity:1;" offset="1.0" id="stopB6FFB6" /></linearGradient><linearGradient xmlns:xlink="http://www.w3.org/1999/xlink" xlink:href="#linearGradientFAFBFCFFFFCC" id="linearGradientFAFBFCFFFFCC_1157256512" x1="0" y1="50.0" x2="0" y2="110.0" gradientUnits="userSpaceOnUse" xlink:type="simple" xlink:actuate="onLoad" xlink:show="other" /><linearGradient id="linearGradientFAFBFCFFFFCC"><stop style="stop-color:#FAFBFC;stop-opacity:1;" offset="0.0" id="stopFAFBFC" /><stop style="stop-color:#FFFFCC;stop-opacity:1;" offset="1.0" id="stopFFFFCC" /></linearGradient><linearGradient xmlns:xlink="http://www.w3.org/1999/xlink" xlink:href="#linearGradientF8FBFEEDF5FCDEEDFAD4E7F8E2E5E9" id="linearGradientF8FBFEEDF5FCDEEDFAD4E7F8E2E5E9_1086703879" x1="0" y1="66.0" x2="0" y2="172.0" gradientUnits="userSpaceOnUse" xlink:type="simple" xlink:actuate="onLoad" xlink:show="other" /><linearGradient id="linearGradientF8FBFEEDF5FCDEEDFAD4E7F8E2E5E9"><stop style="stop-color:#F8FBFE;stop-opacity:1;" offset="0.0" id="stopF8FBFE" /><stop style="stop-color:#EDF5FC;stop-opacity:1;" offset="0.25" id="stopEDF5FC" /><stop style="stop-color:#DEEDFA;stop-opacity:1;" offset="0.5" id="stopDEEDFA" /><stop style="stop-color:#D4E7F8;stop-opacity:1;" offset="0.75" id="stopD4E7F8" /><stop style="stop-color:#E2E5E9;stop-opacity:1;" offset="1.0" id="stopE2E5E9" /></linearGradient><linearGradient xmlns:xlink="http://www.w3.org/1999/xlink" xlink:href="#linearGradientF8FBFEEDF5FCDEEDFAD4E7F8E2E5E9" id="linearGradientF8FBFEEDF5FCDEEDFAD4E7F8E2E5E9_96952187" x1="0" y1="208.0" x2="0" y2="314.0" gradientUnits="userSpaceOnUse" xlink:type="simple" xlink:actuate="onLoad" xlink:show="other" /><linearGradient xmlns:xlink="http://www.w3.org/1999/xlink" xlink:href="#linearGradientFAFBFCFFFFCC" id="linearGradientFAFBFCFFFFCC_575568814" x1="0" y1="56.0" x2="0" y2="116.0" gradientUnits="userSpaceOnUse" xlink:type="simple" xlink:actuate="onLoad" xlink:show="other" /><linearGradient xmlns:xlink="http://www.w3.org/1999/xlink" xlink:href="#linearGradientFF6666FF9696FFB6B6" id="linearGradientFF6666FF9696FFB6B6_872970994" x1="0" y1="82.0" x2="0" y2="117.0" gradientUnits="userSpaceOnUse" xlink:type="simple" xlink:actuate="onLoad" xlink:show="other" /><linearGradient id="linearGradientFF6666FF9696FFB6B6"><stop style="stop-color:#FF6666;stop-opacity:1;" offset="0.0" id="stopFF6666" /><stop style="stop-color:#FF9696;stop-opacity:1;" offset="0.5" id="stopFF9696" /><stop style="stop-color:#FFB6B6;stop-opacity:1;" offset="1.0" id="stopFFB6B6" /></linearGradient><linearGradient xmlns:xlink="http://www.w3.org/1999/xlink" xlink:href="#linearGradientF8FBFEEDF5FCDEEDFAD4E7F8E2E5E9" id="linearGradientF8FBFEEDF5FCDEEDFAD4E7F8E2E5E9_1516961925" x1="0" y1="354.0" x2="0" y2="460.0" gradientUnits="userSpaceOnUse" xlink:type="simple" xlink:actuate="onLoad" xlink:show="other" /><linearGradient xmlns:xlink="http://www.w3.org/1999/xlink" xlink:href="#linearGradientF8FBFEEDF5FCDEEDFAD4E7F8E2E5E9" id="linearGradientF8FBFEEDF5FCDEEDFAD4E7F8E2E5E9_1709744180" x1="0" y1="208.0" x2="0" y2="314.0" gradientUnits="userSpaceOnUse" xlink:type="simple" xlink:actuate="onLoad" xlink:show="other" /><linearGradient xmlns:xlink="http://www.w3.org/1999/xlink" xlink:href="#linearGradientFF6666FF9696FFB6B6" id="linearGradientFF6666FF9696FFB6B6_875181100" x1="0" y1="224.0" x2="0" y2="259.0" gradientUnits="userSpaceOnUse" xlink:type="simple" xlink:actuate="onLoad" xlink:show="other" /><linearGradient xmlns:xlink="http://www.w3.org/1999/xlink" xlink:href="#linearGradientFAFBFCFFFFCC" id="linearGradientFAFBFCFFFFCC_1132595121" x1="0" y1="327.0" x2="0" y2="387.0" gradientUnits="userSpaceOnUse" xlink:type="simple" xlink:actuate="onLoad" xlink:show="other" /><linearGradient xmlns:xlink="http://www.w3.org/1999/xlink" xlink:href="#linearGradientFF6666FF9696FFB6B6" id="linearGradientFF6666FF9696FFB6B6_1097812076" x1="0" y1="450.0" x2="0" y2="485.0" gradientUnits="userSpaceOnUse" xlink:type="simple" xlink:actuate="onLoad" xlink:show="other" /></defs></svg>
