<?xml version="1.0" encoding="UTF-8"?>
<svg xmlns="http://www.w3.org/2000/svg" style="stroke-dasharray:none; shape-rendering:auto; font-family:'Arial'; text-rendering:auto; fill-opacity:1; color-interpolation:auto; color-rendering:auto; font-size:12; fill:black; stroke:black; image-rendering:auto; stroke-miterlimit:10; stroke-linecap:square; stroke-linejoin:miter; font-style:normal; stroke-width:1; stroke-dashoffset:0; font-weight:normal; stroke-opacity:1;" contentScriptType="text/ecmascript" preserveAspectRatio="xMidYMid meet" zoomAndPan="magnify" version="1.0" contentStyleType="text/css" xml:xlink="http://www.w3.org/1999/xlink" width="791" height="616"><rect x="0" y="150" width="791" height="161" ry="0" rx="0" style="stroke:#000000; fill:#34A0A8" /><g componentSequence="2"><text x="-230" y="7" transform="rotate(270)" text-anchor="middle" style="font-weight:bold;font-size:10px;stroke:none; fill:#434343"><tspan dy="14" x="-230">Ocorrências</tspan></text></g><rect x="0" y="471" width="791" height="145" ry="0" rx="0" style="stroke:#000000; fill:#D0DAAE" /><g componentSequence="4"><text x="-543" y="7" transform="rotate(270)" text-anchor="middle" style="font-weight:bold;font-size:10px;stroke:none; fill:#434343"><tspan dy="14" x="-543">SwimLane</tspan></text></g><rect x="0" y="10" width="791" height="142" ry="0" rx="0" style="stroke:#000000; fill:#9FC1C6" /><g componentSequence="1"><text x="-81" y="7" transform="rotate(270)" text-anchor="middle" style="font-weight:bold;font-size:10px;stroke:none; fill:#434343"><tspan dy="14" x="-81">Solicitante</tspan></text></g><rect x="0" y="310" width="791" height="161" ry="0" rx="0" style="stroke:#000000; fill:#ADC9AC" /><g componentSequence="3"><text x="-390" y="7" transform="rotate(270)" text-anchor="middle" style="font-weight:bold;font-size:10px;stroke:none; fill:#434343" /></g><g sequence="7"><ellipse cx="97" cy="99" rx="17" ry="17" stroke-width="1" style="fill:url(#linearGradient66FF6696FF96B6FFB6_269962338);" stroke="336633" /></g><g sequence="9"><rect x="40" y="205" width="106" height="56" ry="5" rx="5" style="fill:url(#linearGradientF8FBFEEDF5FCDEEDFAD4E7F8E2E5E9_516993040);" stroke="191970" /></g><g componentSequence="9"><text x="93" y="222" text-anchor="middle" style="font-weight:bold;font-size:10px;stroke:none; fill:#333399"><tspan dy="14" x="93">1ª tratativa</tspan></text></g><g sequence="20"><ellipse cx="67" cy="544" rx="17" ry="17" stroke-width="3" style="fill:url(#linearGradientFF6666FF9696FFB6B6_451880722);" stroke="993333" /></g><g sequence="22"><rect x="180" y="510" width="106" height="70" ry="5" rx="5" style="fill:url(#linearGradientF8FBFEEDF5FCDEEDFAD4E7F8E2E5E9_1609415211);" stroke="191970" /></g><g componentSequence="22"><text x="233" y="525" text-anchor="middle" style="font-weight:bold;font-size:10px;stroke:none; fill:#333399"><tspan dy="14" x="233">Resposta</tspan><tspan dy="14" x="233">Gerência</tspan></text></g><g sequence="41"><rect x="390" y="370" width="106" height="56" ry="5" rx="5" style="fill:url(#linearGradientF8FBFEEDF5FCDEEDFAD4E7F8E2E5E9_1966311912);" stroke="191970" /></g><g componentSequence="41"><text x="443" y="387" text-anchor="middle" style="font-weight:bold;font-size:10px;stroke:none; fill:#333399"><tspan dy="14" x="443">2ª tratativa</tspan></text></g><g sequence="44"><polygon points=" 330 205 360 175 390 205 360 235 330 205" style="fill:url(#linearGradientFAFBFCFFFFCC_1853417326);" stroke="000000" /></g><g componentSequence="44"><text x="360" y="245" text-anchor="middle" style="font-weight:bold;font-size:10px;stroke:none; fill:#333399"><tspan dy="14" x="360">Ocorrên</tspan><tspan dy="14" x="360">cias</tspan><tspan dy="14" x="360">aprova?</tspan></text></g><g sequence="45"><rect x="500" y="200" width="106" height="70" ry="5" rx="5" style="fill:url(#linearGradientF8FBFEEDF5FCDEEDFAD4E7F8E2E5E9_223119876);" stroke="191970" /></g><g componentSequence="45"><text x="553" y="215" text-anchor="middle" style="font-weight:bold;font-size:10px;stroke:none; fill:#333399"><tspan dy="14" x="553">Aprovação do</tspan><tspan dy="14" x="553">ocorrências</tspan></text></g><g sequence="47"><polygon points=" 60 372 90 342 120 372 90 402 60 372" style="fill:url(#linearGradientFAFBFCFFFFCC_1069696356);" stroke="000000" /></g><g componentSequence="47"><text x="90" y="412" text-anchor="middle" style="font-weight:bold;font-size:10px;stroke:none; fill:#333399"><tspan dy="14" x="90">Precisa</tspan><tspan dy="14" x="90">da ção</tspan><tspan dy="14" x="90">de ou...</tspan></text></g><g sequence="54"><rect x="310" y="66" width="106" height="70" ry="5" rx="5" style="fill:url(#linearGradientF8FBFEEDF5FCDEEDFAD4E7F8E2E5E9_1448605629);" stroke="191970" /></g><g componentSequence="54"><text x="363" y="81" text-anchor="middle" style="font-weight:bold;font-size:10px;stroke:none; fill:#333399"><tspan dy="14" x="363">Aprovação</tspan><tspan dy="14" x="363">iniciador</tspan></text></g><g sequence="59"><polygon points=" 510 70 540 40 570 70 540 100 510 70" style="fill:url(#linearGradientFAFBFCFFFFCC_2143107470);" stroke="000000" /></g><g componentSequence="59"><text x="540" y="110" text-anchor="middle" style="font-weight:bold;font-size:10px;stroke:none; fill:#333399"><tspan dy="14" x="540">Iniciador</tspan><tspan dy="14" x="540">aprova</tspan><tspan dy="14" x="540">solução?</tspan></text></g><g sequence="62"><rect x="650" y="198" width="106" height="70" ry="5" rx="5" style="fill:url(#linearGradientF8FBFEEDF5FCDEEDFAD4E7F8E2E5E9_373850327);" stroke="191970" /></g><g componentSequence="62"><text x="703" y="213" text-anchor="middle" style="font-weight:bold;font-size:10px;stroke:none; fill:#333399"><tspan dy="14" x="703">Resolução de</tspan><tspan dy="14" x="703">problemas</tspan></text></g><g sequence="66"><polygon points=" 330 517 360 487 390 517 360 547 330 517" style="fill:url(#linearGradientFAFBFCFFFFCC_999038495);" stroke="000000" /></g><g componentSequence="66"><text x="360" y="557" text-anchor="middle" style="font-weight:bold;font-size:10px;stroke:none; fill:#333399"><tspan dy="14" x="360">Usuário</tspan><tspan dy="14" x="360">é</tspan><tspan dy="14" x="360">gerente?</tspan></text></g><g componentSequence="42"><text x="105" y="161" style="font-size:10px;font-weight:none;stroke:none; fill:#333399" text-anchor="left" /></g><g componentSequence="46"><text x="455" y="234" style="font-size:10px;font-weight:none;stroke:none; fill:#333399" text-anchor="left" /></g><g componentSequence="51"><text x="506" y="320" style="font-size:10px;font-weight:none;stroke:none; fill:#333399" text-anchor="left" /></g><g componentSequence="53"><text x="419" y="330" style="font-size:10px;font-weight:none;stroke:none; fill:#333399" text-anchor="left" /></g><g componentSequence="55"><text x="372" y="155" style="font-size:10px;font-weight:none;stroke:none; fill:#333399" text-anchor="left" /></g><g componentSequence="56"><text x="265" y="399" style="font-size:10px;font-weight:none;stroke:none; fill:#333399" text-anchor="left" /></g><g componentSequence="57"><text x="224" y="250" style="font-size:10px;font-weight:none;stroke:none; fill:#333399" text-anchor="left" /></g><g componentSequence="58"><text x="102" y="301" style="font-size:10px;font-weight:none;stroke:none; fill:#333399" text-anchor="left" /></g><g componentSequence="60"><text x="262" y="49" style="font-size:10px;font-weight:none;stroke:none; fill:#333399" text-anchor="left" /></g><g componentSequence="61"><text x="473" y="99" style="font-size:10px;font-weight:none;stroke:none; fill:#333399" text-anchor="left" /></g><g componentSequence="63"><text x="697" y="97" style="font-size:10px;font-weight:none;stroke:none; fill:#333399" text-anchor="left" /></g><g componentSequence="67"><text x="318" y="545" style="font-size:10px;font-weight:none;stroke:none; fill:#333399" text-anchor="left" /></g><g componentSequence="68"><text x="200" y="603" style="font-size:10px;font-weight:none;stroke:none; fill:#333399" text-anchor="left" /></g><g componentSequence="64"><text x="694" y="545" style="font-size:10px;font-weight:none;stroke:none; fill:#333399" text-anchor="left" /></g><g componentSequence="69"><text x="142" y="544" style="font-size:10px;font-weight:none;stroke:none; fill:#333399" text-anchor="left" /></g><g componentSequence="65"><text x="142" y="544" style="font-size:10px;font-weight:none;stroke:none; fill:#333399" text-anchor="left" /></g><path style="fill:none; stroke:#F00000;stroke-width:1" d="M97.0 116.0 L93.0 204.0" /><polygon style="fill:#F00000; stroke:#F00000;" points=" 98 194 93 204 88 194 93 196" /><polygon style="fill:#F00000; stroke:#F00000;" points=" 92 126 97 116 102 126 97 124" /><path style="fill:none; stroke:#000000;stroke-width:1" d="M92.0 261.0 L91.0 341.0" /><polygon style="fill:#000000; stroke:#000000;" points=" 96 331 91 341 86 331 91 333" /><path style="fill:none; stroke:#000000;stroke-width:1" d="M509.0 66.0 L517.0 74.0 L467.0 49.0 L192.0 49.0 L192.0 226.0 L146.0 229.0" /><polygon style="fill:#000000; stroke:#000000;" points=" 156 233 146 229 156 223 154 228" /><path style="fill:none; stroke:#009600;stroke-width:1" d="M179.0 544.0 L84.0 544.0" /><polygon style="fill:#009600; stroke:#009600;" points=" 94 549 84 544 94 539 92 544" /><path style="fill:none; stroke:#000000;stroke-width:1" d="M702.0 268.0 L701.0 545.0 L390.0 545.0" /><polygon style="fill:#000000; stroke:#000000;" points=" 400 550 390 545 400 540 398 545" /><path style="fill:none; stroke:#000000;stroke-width:1" d="M462.0 369.0 L529.0 270.0" /><polygon style="fill:#000000; stroke:#000000;" points=" 519 275 529 270 528 281 525 277" /><path style="fill:none; stroke:#000000;stroke-width:1" d="M389.0 291.0 L428.0 369.0" /><polygon style="fill:#000000; stroke:#000000;" points=" 428 358 428 369 419 362 424 362" /><path style="fill:none; stroke:#000000;stroke-width:1" d="M120.0 399.0 L389.0 398.0" /><polygon style="fill:#000000; stroke:#000000;" points=" 379 393 389 398 379 403 381 398" /><path style="fill:none; stroke:#000000;stroke-width:1" d="M361.0 174.0 L362.0 136.0" /><polygon style="fill:#000000; stroke:#000000;" points=" 357 146 362 136 367 146 362 144" /><path style="fill:none; stroke:#000000;stroke-width:1" d="M499.0 234.0 L390.0 233.0" /><polygon style="fill:#000000; stroke:#000000;" points=" 400 238 390 233 400 228 398 233" /><path style="fill:none; stroke:#000000;stroke-width:1" d="M120.0 399.0 L214.0 399.0 L214.0 103.0 L309.0 101.0" /><polygon style="fill:#000000; stroke:#000000;" points=" 299 96 309 101 299 106 301 101" /><path style="fill:none; stroke:#000000;stroke-width:1" d="M416.0 100.0 L509.0 98.0" /><polygon style="fill:#000000; stroke:#000000;" points=" 499 93 509 98 499 103 501 98" /><path style="fill:none; stroke:#000000;stroke-width:1" d="M570.0 97.0 L704.0 97.0 L703.0 197.0" /><polygon style="fill:#000000; stroke:#000000;" points=" 708 187 703 197 698 187 703 189" /><path style="fill:none; stroke:#000000;stroke-width:1" d="M329.0 545.0 L286.0 545.0" /><polygon style="fill:#000000; stroke:#000000;" points=" 296 550 286 545 296 540 294 545" /><path style="fill:none; stroke:#000000;stroke-width:1" d="M354.0 603.0 L354.0 603.0 L67.0 603.0 L67.0 562.0" /><polygon style="fill:#000000; stroke:#000000;" points=" 62 572 67 562 72 572 67 570" /><path style="fill:none; stroke:#000000;stroke-width:1" d="M179.0 544.0 L84.0 544.0" /><polygon style="fill:#000000; stroke:#000000;" points=" 94 549 84 544 94 539 92 544" /><defs><linearGradient xmlns:xlink="http://www.w3.org/1999/xlink" xlink:href="#linearGradient66FF6696FF96B6FFB6" id="linearGradient66FF6696FF96B6FFB6_269962338" x1="0" y1="82.0" x2="0" y2="117.0" gradientUnits="userSpaceOnUse" xlink:type="simple" xlink:actuate="onLoad" xlink:show="other" /><linearGradient id="linearGradient66FF6696FF96B6FFB6"><stop style="stop-color:#66FF66;stop-opacity:1;" offset="0.0" id="stop66FF66" /><stop style="stop-color:#96FF96;stop-opacity:1;" offset="0.5" id="stop96FF96" /><stop style="stop-color:#B6FFB6;stop-opacity:1;" offset="1.0" id="stopB6FFB6" /></linearGradient><linearGradient xmlns:xlink="http://www.w3.org/1999/xlink" xlink:href="#linearGradientF8FBFEEDF5FCDEEDFAD4E7F8E2E5E9" id="linearGradientF8FBFEEDF5FCDEEDFAD4E7F8E2E5E9_516993040" x1="0" y1="205.0" x2="0" y2="311.0" gradientUnits="userSpaceOnUse" xlink:type="simple" xlink:actuate="onLoad" xlink:show="other" /><linearGradient id="linearGradientF8FBFEEDF5FCDEEDFAD4E7F8E2E5E9"><stop style="stop-color:#F8FBFE;stop-opacity:1;" offset="0.0" id="stopF8FBFE" /><stop style="stop-color:#EDF5FC;stop-opacity:1;" offset="0.25" id="stopEDF5FC" /><stop style="stop-color:#DEEDFA;stop-opacity:1;" offset="0.5" id="stopDEEDFA" /><stop style="stop-color:#D4E7F8;stop-opacity:1;" offset="0.75" id="stopD4E7F8" /><stop style="stop-color:#E2E5E9;stop-opacity:1;" offset="1.0" id="stopE2E5E9" /></linearGradient><linearGradient xmlns:xlink="http://www.w3.org/1999/xlink" xlink:href="#linearGradientFF6666FF9696FFB6B6" id="linearGradientFF6666FF9696FFB6B6_451880722" x1="0" y1="527.0" x2="0" y2="562.0" gradientUnits="userSpaceOnUse" xlink:type="simple" xlink:actuate="onLoad" xlink:show="other" /><linearGradient id="linearGradientFF6666FF9696FFB6B6"><stop style="stop-color:#FF6666;stop-opacity:1;" offset="0.0" id="stopFF6666" /><stop style="stop-color:#FF9696;stop-opacity:1;" offset="0.5" id="stopFF9696" /><stop style="stop-color:#FFB6B6;stop-opacity:1;" offset="1.0" id="stopFFB6B6" /></linearGradient><linearGradient xmlns:xlink="http://www.w3.org/1999/xlink" xlink:href="#linearGradientF8FBFEEDF5FCDEEDFAD4E7F8E2E5E9" id="linearGradientF8FBFEEDF5FCDEEDFAD4E7F8E2E5E9_1609415211" x1="0" y1="510.0" x2="0" y2="616.0" gradientUnits="userSpaceOnUse" xlink:type="simple" xlink:actuate="onLoad" xlink:show="other" /><linearGradient xmlns:xlink="http://www.w3.org/1999/xlink" xlink:href="#linearGradientF8FBFEEDF5FCDEEDFAD4E7F8E2E5E9" id="linearGradientF8FBFEEDF5FCDEEDFAD4E7F8E2E5E9_1966311912" x1="0" y1="370.0" x2="0" y2="476.0" gradientUnits="userSpaceOnUse" xlink:type="simple" xlink:actuate="onLoad" xlink:show="other" /><linearGradient xmlns:xlink="http://www.w3.org/1999/xlink" xlink:href="#linearGradientFAFBFCFFFFCC" id="linearGradientFAFBFCFFFFCC_1853417326" x1="0" y1="175.0" x2="0" y2="235.0" gradientUnits="userSpaceOnUse" xlink:type="simple" xlink:actuate="onLoad" xlink:show="other" /><linearGradient id="linearGradientFAFBFCFFFFCC"><stop style="stop-color:#FAFBFC;stop-opacity:1;" offset="0.0" id="stopFAFBFC" /><stop style="stop-color:#FFFFCC;stop-opacity:1;" offset="1.0" id="stopFFFFCC" /></linearGradient><linearGradient xmlns:xlink="http://www.w3.org/1999/xlink" xlink:href="#linearGradientF8FBFEEDF5FCDEEDFAD4E7F8E2E5E9" id="linearGradientF8FBFEEDF5FCDEEDFAD4E7F8E2E5E9_223119876" x1="0" y1="200.0" x2="0" y2="306.0" gradientUnits="userSpaceOnUse" xlink:type="simple" xlink:actuate="onLoad" xlink:show="other" /><linearGradient xmlns:xlink="http://www.w3.org/1999/xlink" xlink:href="#linearGradientFAFBFCFFFFCC" id="linearGradientFAFBFCFFFFCC_1069696356" x1="0" y1="342.0" x2="0" y2="402.0" gradientUnits="userSpaceOnUse" xlink:type="simple" xlink:actuate="onLoad" xlink:show="other" /><linearGradient xmlns:xlink="http://www.w3.org/1999/xlink" xlink:href="#linearGradientF8FBFEEDF5FCDEEDFAD4E7F8E2E5E9" id="linearGradientF8FBFEEDF5FCDEEDFAD4E7F8E2E5E9_1448605629" x1="0" y1="66.0" x2="0" y2="172.0" gradientUnits="userSpaceOnUse" xlink:type="simple" xlink:actuate="onLoad" xlink:show="other" /><linearGradient xmlns:xlink="http://www.w3.org/1999/xlink" xlink:href="#linearGradientFAFBFCFFFFCC" id="linearGradientFAFBFCFFFFCC_2143107470" x1="0" y1="40.0" x2="0" y2="100.0" gradientUnits="userSpaceOnUse" xlink:type="simple" xlink:actuate="onLoad" xlink:show="other" /><linearGradient xmlns:xlink="http://www.w3.org/1999/xlink" xlink:href="#linearGradientF8FBFEEDF5FCDEEDFAD4E7F8E2E5E9" id="linearGradientF8FBFEEDF5FCDEEDFAD4E7F8E2E5E9_373850327" x1="0" y1="198.0" x2="0" y2="304.0" gradientUnits="userSpaceOnUse" xlink:type="simple" xlink:actuate="onLoad" xlink:show="other" /><linearGradient xmlns:xlink="http://www.w3.org/1999/xlink" xlink:href="#linearGradientFAFBFCFFFFCC" id="linearGradientFAFBFCFFFFCC_999038495" x1="0" y1="487.0" x2="0" y2="547.0" gradientUnits="userSpaceOnUse" xlink:type="simple" xlink:actuate="onLoad" xlink:show="other" /></defs></svg>
