<?xml version="1.0" encoding="UTF-8"?>
<svg xmlns="http://www.w3.org/2000/svg" style="stroke-dasharray:none; shape-rendering:auto; font-family:'Arial'; text-rendering:auto; fill-opacity:1; color-interpolation:auto; color-rendering:auto; font-size:12; fill:black; stroke:black; image-rendering:auto; stroke-miterlimit:10; stroke-linecap:square; stroke-linejoin:miter; font-style:normal; stroke-width:1; stroke-dashoffset:0; font-weight:normal; stroke-opacity:1;" contentScriptType="text/ecmascript" preserveAspectRatio="xMidYMid meet" zoomAndPan="magnify" version="1.0" contentStyleType="text/css" xml:xlink="http://www.w3.org/1999/xlink" width="801" height="292"><rect x="0" y="0" width="801" height="152" ry="0" rx="0" style="stroke:#000000; fill:#9FC1C6" /><g componentSequence="3"><text x="-76" y="7" transform="rotate(270)" text-anchor="middle" style="font-weight:bold;font-size:10px;stroke:none; fill:#434343"><tspan dy="14" x="-76">Comercial</tspan></text></g><rect x="0" y="142" width="801" height="150" ry="0" rx="0" style="stroke:#000000; fill:#82B0B7" /><g componentSequence="2"><text x="-217" y="7" transform="rotate(270)" text-anchor="middle" style="font-weight:bold;font-size:10px;stroke:none; fill:#434343"><tspan dy="14" x="-217">Financeiro</tspan></text></g><g sequence="4"><ellipse cx="57" cy="68" rx="17" ry="17" stroke-width="1" style="fill:url(#linearGradient66FF6696FF96B6FFB6_1515429594);" stroke="336633" /></g><g sequence="5"><rect x="177" y="171" width="106" height="70" ry="5" rx="5" style="fill:url(#linearGradientF8FBFEEDF5FCDEEDFAD4E7F8E2E5E9_1419013088);" stroke="191970" /></g><g componentSequence="5"><text x="230" y="186" text-anchor="middle" style="font-weight:bold;font-size:10px;stroke:none; fill:#333399"><tspan dy="14" x="230">Cadastro</tspan><tspan dy="14" x="230">Compras</tspan></text></g><g sequence="8"><polygon points=" 353 185 383 155 413 185 383 215 353 185" style="fill:url(#linearGradientFAFBFCFFFFCC_1353446826);" stroke="000000" /></g><g componentSequence="8"><text x="383" y="225" text-anchor="middle" style="font-weight:bold;font-size:10px;stroke:none; fill:#333399"><tspan dy="14" x="383">Dados</tspan><tspan dy="14" x="383">estão</tspan><tspan dy="14" x="383">corre...</tspan></text></g><g sequence="17"><rect x="500" y="48" width="106" height="56" ry="5" rx="5" style="fill:url(#linearGradientF8FBFEEDF5FCDEEDFAD4E7F8E2E5E9_363422171);" stroke="191970" /></g><g componentSequence="17"><text x="553" y="65" text-anchor="middle" style="font-weight:bold;font-size:10px;stroke:none; fill:#333399"><tspan dy="14" x="553">Finalização</tspan></text></g><g sequence="24"><rect x="330" y="41" width="106" height="70" ry="5" rx="5" style="fill:url(#linearGradientF8FBFEEDF5FCDEEDFAD4E7F8E2E5E9_1405786362);" stroke="191970" /></g><g componentSequence="24"><text x="383" y="56" text-anchor="middle" style="font-weight:bold;font-size:10px;stroke:none; fill:#333399"><tspan dy="14" x="383">Correção dos</tspan><tspan dy="14" x="383">dados</tspan></text></g><g sequence="26"><polygon points=" 200 55 230 25 260 55 230 85 200 55" style="fill:url(#linearGradientFAFBFCFFFFCC_611725832);" stroke="000000" /></g><g componentSequence="26"><text x="230" y="95" text-anchor="middle" style="font-weight:bold;font-size:10px;stroke:none; fill:#333399"><tspan dy="14" x="230">Enviar</tspan><tspan dy="14" x="230">solicitaç..</tspan><tspan dy="14" x="230">.</tspan></text></g><g sequence="29"><ellipse cx="137" cy="75" rx="17" ry="17" stroke-width="3" style="fill:url(#linearGradientFF6666FF9696FFB6B6_738170249);" stroke="993333" /></g><g sequence="33"><ellipse cx="697" cy="206" rx="17" ry="17" stroke-width="3" style="fill:url(#linearGradientFF6666FF9696FFB6B6_1971756692);" stroke="993333" /></g><g sequence="38"><polygon points=" 523 185 553 155 583 185 553 215 523 185" style="fill:url(#linearGradientFAFBFCFFFFCC_1921832342);" stroke="000000" /></g><g componentSequence="38"><text x="553" y="225" text-anchor="middle" style="font-weight:bold;font-size:10px;stroke:none; fill:#333399"><tspan dy="14" x="553">Demand</tspan><tspan dy="14" x="553">a</tspan><tspan dy="14" x="553">atend...</tspan></text></g><g componentSequence="9"><text x="328" y="206" style="font-size:10px;font-weight:none;stroke:none; fill:#333399" text-anchor="left" /></g><g componentSequence="19"><text x="448" y="150" style="font-size:10px;font-weight:none;stroke:none; fill:#333399" text-anchor="left"><tspan dy="14" x="448">Sim</tspan></text></g><g componentSequence="27"><text x="305" y="76" style="font-size:10px;font-weight:none;stroke:none; fill:#333399" text-anchor="left" /></g><g componentSequence="30"><text x="187" y="75" style="font-size:10px;font-weight:none;stroke:none; fill:#333399" text-anchor="left"><tspan dy="14" x="187">Não</tspan></text></g><g componentSequence="35"><text x="390" y="120" style="font-size:10px;font-weight:none;stroke:none; fill:#333399" text-anchor="left"><tspan dy="14" x="390">Não</tspan></text></g><g componentSequence="36"><text x="240" y="149" style="font-size:10px;font-weight:none;stroke:none; fill:#333399" text-anchor="left" /></g><g componentSequence="37"><text x="67" y="206" style="font-size:10px;font-weight:none;stroke:none; fill:#333399" text-anchor="left" /></g><g componentSequence="39"><text x="563" y="129" style="font-size:10px;font-weight:none;stroke:none; fill:#333399" text-anchor="left" /></g><g componentSequence="40"><text x="641" y="206" style="font-size:10px;font-weight:none;stroke:none; fill:#333399" text-anchor="left" /></g><g componentSequence="41"><text x="390" y="282" style="font-size:10px;font-weight:none;stroke:none; fill:#333399" text-anchor="left" /></g><path style="fill:none; stroke:#000000;stroke-width:1" d="M57.0 86.0 L57.0 206.0 L176.0 206.0" /><polygon style="fill:#000000; stroke:#000000;" points=" 166 201 176 206 166 211 168 206" /><path style="fill:none; stroke:#000000;stroke-width:1" d="M283.0 206.0 L352.0 206.0" /><polygon style="fill:#000000; stroke:#000000;" points=" 342 201 352 206 342 211 344 206" /><path style="fill:none; stroke:#000000;stroke-width:1" d="M230.0 127.0 L230.0 170.0" /><polygon style="fill:#000000; stroke:#000000;" points=" 235 160 230 170 225 160 230 162" /><path style="fill:none; stroke:#000000;stroke-width:1" d="M549.0 257.0 L548.0 282.0 L228.0 282.0 L229.0 241.0" /><polygon style="fill:#000000; stroke:#000000;" points=" 224 251 229 241 234 251 229 249" /><path style="fill:none; stroke:#000000;stroke-width:1" d="M413.0 206.0 L465.0 206.0 L465.0 77.0 L499.0 76.0" /><polygon style="fill:#000000; stroke:#000000;" points=" 489 71 499 76 489 81 491 76" /><path style="fill:none; stroke:#000000;stroke-width:1" d="M383.0 154.0 L383.0 111.0" /><polygon style="fill:#000000; stroke:#000000;" points=" 378 121 383 111 388 121 383 119" /><path style="fill:none; stroke:#000000;stroke-width:1" d="M553.0 104.0 L553.0 154.0" /><polygon style="fill:#000000; stroke:#000000;" points=" 558 144 553 154 548 144 553 146" /><path style="fill:none; stroke:#000000;stroke-width:1" d="M329.0 76.0 L260.0 76.0" /><polygon style="fill:#000000; stroke:#000000;" points=" 270 81 260 76 270 71 268 76" /><path style="fill:none; stroke:#000000;stroke-width:1" d="M199.0 75.0 L154.0 75.0" /><polygon style="fill:#000000; stroke:#000000;" points=" 164 80 154 75 164 70 162 75" /><path style="fill:none; stroke:#000000;stroke-width:1" d="M583.0 206.0 L679.0 206.0" /><polygon style="fill:#000000; stroke:#000000;" points=" 669 201 679 206 669 211 671 206" /><defs><linearGradient xmlns:xlink="http://www.w3.org/1999/xlink" xlink:href="#linearGradient66FF6696FF96B6FFB6" id="linearGradient66FF6696FF96B6FFB6_1515429594" x1="0" y1="51.0" x2="0" y2="86.0" gradientUnits="userSpaceOnUse" xlink:type="simple" xlink:actuate="onLoad" xlink:show="other" /><linearGradient id="linearGradient66FF6696FF96B6FFB6"><stop style="stop-color:#66FF66;stop-opacity:1;" offset="0.0" id="stop66FF66" /><stop style="stop-color:#96FF96;stop-opacity:1;" offset="0.5" id="stop96FF96" /><stop style="stop-color:#B6FFB6;stop-opacity:1;" offset="1.0" id="stopB6FFB6" /></linearGradient><linearGradient xmlns:xlink="http://www.w3.org/1999/xlink" xlink:href="#linearGradientF8FBFEEDF5FCDEEDFAD4E7F8E2E5E9" id="linearGradientF8FBFEEDF5FCDEEDFAD4E7F8E2E5E9_1419013088" x1="0" y1="171.0" x2="0" y2="277.0" gradientUnits="userSpaceOnUse" xlink:type="simple" xlink:actuate="onLoad" xlink:show="other" /><linearGradient id="linearGradientF8FBFEEDF5FCDEEDFAD4E7F8E2E5E9"><stop style="stop-color:#F8FBFE;stop-opacity:1;" offset="0.0" id="stopF8FBFE" /><stop style="stop-color:#EDF5FC;stop-opacity:1;" offset="0.25" id="stopEDF5FC" /><stop style="stop-color:#DEEDFA;stop-opacity:1;" offset="0.5" id="stopDEEDFA" /><stop style="stop-color:#D4E7F8;stop-opacity:1;" offset="0.75" id="stopD4E7F8" /><stop style="stop-color:#E2E5E9;stop-opacity:1;" offset="1.0" id="stopE2E5E9" /></linearGradient><linearGradient xmlns:xlink="http://www.w3.org/1999/xlink" xlink:href="#linearGradientFAFBFCFFFFCC" id="linearGradientFAFBFCFFFFCC_1353446826" x1="0" y1="155.0" x2="0" y2="215.0" gradientUnits="userSpaceOnUse" xlink:type="simple" xlink:actuate="onLoad" xlink:show="other" /><linearGradient id="linearGradientFAFBFCFFFFCC"><stop style="stop-color:#FAFBFC;stop-opacity:1;" offset="0.0" id="stopFAFBFC" /><stop style="stop-color:#FFFFCC;stop-opacity:1;" offset="1.0" id="stopFFFFCC" /></linearGradient><linearGradient xmlns:xlink="http://www.w3.org/1999/xlink" xlink:href="#linearGradientF8FBFEEDF5FCDEEDFAD4E7F8E2E5E9" id="linearGradientF8FBFEEDF5FCDEEDFAD4E7F8E2E5E9_363422171" x1="0" y1="48.0" x2="0" y2="154.0" gradientUnits="userSpaceOnUse" xlink:type="simple" xlink:actuate="onLoad" xlink:show="other" /><linearGradient xmlns:xlink="http://www.w3.org/1999/xlink" xlink:href="#linearGradientF8FBFEEDF5FCDEEDFAD4E7F8E2E5E9" id="linearGradientF8FBFEEDF5FCDEEDFAD4E7F8E2E5E9_1405786362" x1="0" y1="41.0" x2="0" y2="147.0" gradientUnits="userSpaceOnUse" xlink:type="simple" xlink:actuate="onLoad" xlink:show="other" /><linearGradient xmlns:xlink="http://www.w3.org/1999/xlink" xlink:href="#linearGradientFAFBFCFFFFCC" id="linearGradientFAFBFCFFFFCC_611725832" x1="0" y1="25.0" x2="0" y2="85.0" gradientUnits="userSpaceOnUse" xlink:type="simple" xlink:actuate="onLoad" xlink:show="other" /><linearGradient xmlns:xlink="http://www.w3.org/1999/xlink" xlink:href="#linearGradientFF6666FF9696FFB6B6" id="linearGradientFF6666FF9696FFB6B6_738170249" x1="0" y1="58.0" x2="0" y2="93.0" gradientUnits="userSpaceOnUse" xlink:type="simple" xlink:actuate="onLoad" xlink:show="other" /><linearGradient id="linearGradientFF6666FF9696FFB6B6"><stop style="stop-color:#FF6666;stop-opacity:1;" offset="0.0" id="stopFF6666" /><stop style="stop-color:#FF9696;stop-opacity:1;" offset="0.5" id="stopFF9696" /><stop style="stop-color:#FFB6B6;stop-opacity:1;" offset="1.0" id="stopFFB6B6" /></linearGradient><linearGradient xmlns:xlink="http://www.w3.org/1999/xlink" xlink:href="#linearGradientFF6666FF9696FFB6B6" id="linearGradientFF6666FF9696FFB6B6_1971756692" x1="0" y1="189.0" x2="0" y2="224.0" gradientUnits="userSpaceOnUse" xlink:type="simple" xlink:actuate="onLoad" xlink:show="other" /><linearGradient xmlns:xlink="http://www.w3.org/1999/xlink" xlink:href="#linearGradientFAFBFCFFFFCC" id="linearGradientFAFBFCFFFFCC_1921832342" x1="0" y1="155.0" x2="0" y2="215.0" gradientUnits="userSpaceOnUse" xlink:type="simple" xlink:actuate="onLoad" xlink:show="other" /></defs></svg>
