<?xml version="1.0" encoding="UTF-8"?>
<svg xmlns="http://www.w3.org/2000/svg" style="stroke-dasharray:none; shape-rendering:auto; font-family:'Arial'; text-rendering:auto; fill-opacity:1; color-interpolation:auto; color-rendering:auto; font-size:12; fill:black; stroke:black; image-rendering:auto; stroke-miterlimit:10; stroke-linecap:square; stroke-linejoin:miter; font-style:normal; stroke-width:1; stroke-dashoffset:0; font-weight:normal; stroke-opacity:1;" contentScriptType="text/ecmascript" preserveAspectRatio="xMidYMid meet" zoomAndPan="magnify" version="1.0" contentStyleType="text/css" xml:xlink="http://www.w3.org/1999/xlink" width="641" height="433"><rect x="0" y="288" width="641" height="145" ry="0" rx="0" style="stroke:#000000; fill:#D0DAAE" /><g componentSequence="13"><text x="-360" y="7" transform="rotate(270)" text-anchor="middle" style="font-weight:bold;font-size:10px;stroke:none; fill:#434343"><tspan dy="14" x="-360">TI</tspan></text></g><rect x="0" y="144" width="641" height="145" ry="0" rx="0" style="stroke:#000000; fill:#ADC9AC" /><g componentSequence="9"><text x="-216" y="7" transform="rotate(270)" text-anchor="middle" style="font-weight:bold;font-size:10px;stroke:none; fill:#434343"><tspan dy="14" x="-216">Aprovação</tspan></text></g><rect x="0" y="0" width="641" height="145" ry="0" rx="0" style="stroke:#000000; fill:#82B0B7" /><g componentSequence="7"><text x="-72" y="7" transform="rotate(270)" text-anchor="middle" style="font-weight:bold;font-size:10px;stroke:none; fill:#434343"><tspan dy="14" x="-72">Solicitante</tspan></text></g><g sequence="4"><ellipse cx="157" cy="73" rx="17" ry="17" stroke-width="1" style="fill:url(#linearGradient66FF6696FF96B6FFB6_167160416);" stroke="336633" /></g><g sequence="5"><rect x="160" y="183" width="106" height="70" ry="5" rx="5" style="fill:url(#linearGradientF8FBFEEDF5FCDEEDFAD4E7F8E2E5E9_120673582);" stroke="191970" /></g><g componentSequence="5"><text x="213" y="198" text-anchor="middle" style="font-weight:bold;font-size:10px;stroke:none; fill:#333399"><tspan dy="14" x="213">Aprovação</tspan><tspan dy="14" x="213">supervisor</tspan></text></g><g sequence="10"><polygon points=" 70 204 100 174 130 204 100 234 70 204" style="fill:url(#linearGradientFAFBFCFFFFCC_51298576);" stroke="000000" /></g><g componentSequence="10"><text x="100" y="237" text-anchor="middle" style="font-weight:bold;font-size:10px;stroke:none; fill:#333399"><tspan dy="14" x="100">Superv.?</tspan></text></g><g sequence="14"><rect x="160" y="327" width="106" height="70" ry="5" rx="5" style="fill:url(#linearGradientF8FBFEEDF5FCDEEDFAD4E7F8E2E5E9_1175215893);" stroke="191970" /></g><g componentSequence="14"><text x="213" y="342" text-anchor="middle" style="font-weight:bold;font-size:10px;stroke:none; fill:#333399"><tspan dy="14" x="213">Revisão de</tspan><tspan dy="14" x="213">entrega</tspan></text></g><g sequence="19"><rect x="290" y="327" width="106" height="70" ry="5" rx="5" style="fill:url(#linearGradientF8FBFEEDF5FCDEEDFAD4E7F8E2E5E9_2048215070);" stroke="191970" /></g><g componentSequence="19"><text x="343" y="342" text-anchor="middle" style="font-weight:bold;font-size:10px;stroke:none; fill:#333399"><tspan dy="14" x="343">Revisão de</tspan><tspan dy="14" x="343">recebimento</tspan></text></g><g sequence="20"><ellipse cx="437" cy="217" rx="17" ry="17" stroke-width="3" style="fill:url(#linearGradientFF6666FF9696FFB6B6_2004941399);" stroke="993333" /></g><g sequence="21"><polygon points=" 320 204 350 174 380 204 350 234 320 204" style="fill:url(#linearGradientFAFBFCFFFFCC_41137142);" stroke="000000" /></g><g componentSequence="21"><text x="350" y="237" text-anchor="middle" style="font-weight:bold;font-size:10px;stroke:none; fill:#333399"><tspan dy="14" x="350">Aprova?</tspan></text></g><g sequence="26"><ellipse cx="437" cy="361" rx="17" ry="17" stroke-width="3" style="fill:url(#linearGradientFF6666FF9696FFB6B6_639869018);" stroke="993333" /></g><g componentSequence="11"><text x="110" y="104" style="font-size:10px;font-weight:none;stroke:none; fill:#333399" text-anchor="left" /></g><g componentSequence="12"><text x="155" y="218" style="font-size:10px;font-weight:none;stroke:none; fill:#333399" text-anchor="left" /></g><g componentSequence="16"><text x="109" y="342" style="font-size:10px;font-weight:none;stroke:none; fill:#333399" text-anchor="left" /></g><g componentSequence="22"><text x="410" y="217" style="font-size:10px;font-weight:none;stroke:none; fill:#333399" text-anchor="left" /></g><g componentSequence="23"><text x="303" y="218" style="font-size:10px;font-weight:none;stroke:none; fill:#333399" text-anchor="left" /></g><g componentSequence="24"><text x="282" y="286" style="font-size:10px;font-weight:none;stroke:none; fill:#333399" text-anchor="left" /></g><g componentSequence="25"><text x="288" y="362" style="font-size:10px;font-weight:none;stroke:none; fill:#333399" text-anchor="left" /></g><g componentSequence="27"><text x="418" y="361" style="font-size:10px;font-weight:none;stroke:none; fill:#333399" text-anchor="left" /></g><path style="fill:none; stroke:#000000;stroke-width:1" d="M140.0 73.0 L100.0 74.0 L100.0 173.0" /><polygon style="fill:#000000; stroke:#000000;" points=" 105 163 100 173 95 163 100 165" /><path style="fill:none; stroke:#000000;stroke-width:1" d="M266.0 218.0 L319.0 218.0" /><polygon style="fill:#000000; stroke:#000000;" points=" 309 213 319 218 309 223 311 218" /><path style="fill:none; stroke:#000000;stroke-width:1" d="M130.0 218.0 L159.0 218.0" /><polygon style="fill:#000000; stroke:#000000;" points=" 149 213 159 218 149 223 151 218" /><path style="fill:none; stroke:#000000;stroke-width:1" d="M99.0 262.0 L99.0 362.0 L159.0 362.0" /><polygon style="fill:#000000; stroke:#000000;" points=" 149 357 159 362 149 367 151 362" /><path style="fill:none; stroke:#000000;stroke-width:1" d="M266.0 362.0 L289.0 362.0" /><polygon style="fill:#000000; stroke:#000000;" points=" 279 357 289 362 279 367 281 362" /><path style="fill:none; stroke:#000000;stroke-width:1" d="M348.0 262.0 L348.0 262.0 L348.0 286.0 L312.0 286.0 L212.0 286.0 L212.0 326.0" /><polygon style="fill:#000000; stroke:#000000;" points=" 217 316 212 326 207 316 212 318" /><path style="fill:none; stroke:#000000;stroke-width:1" d="M396.0 361.0 L420.0 361.0" /><polygon style="fill:#000000; stroke:#000000;" points=" 410 356 420 361 410 366 412 361" /><path style="fill:none; stroke:#000000;stroke-width:1" d="M380.0 217.0 L420.0 217.0" /><polygon style="fill:#000000; stroke:#000000;" points=" 410 212 420 217 410 222 412 217" /><defs><linearGradient xmlns:xlink="http://www.w3.org/1999/xlink" xlink:href="#linearGradient66FF6696FF96B6FFB6" id="linearGradient66FF6696FF96B6FFB6_167160416" x1="0" y1="56.0" x2="0" y2="91.0" gradientUnits="userSpaceOnUse" xlink:type="simple" xlink:actuate="onLoad" xlink:show="other" /><linearGradient id="linearGradient66FF6696FF96B6FFB6"><stop style="stop-color:#66FF66;stop-opacity:1;" offset="0.0" id="stop66FF66" /><stop style="stop-color:#96FF96;stop-opacity:1;" offset="0.5" id="stop96FF96" /><stop style="stop-color:#B6FFB6;stop-opacity:1;" offset="1.0" id="stopB6FFB6" /></linearGradient><linearGradient xmlns:xlink="http://www.w3.org/1999/xlink" xlink:href="#linearGradientF8FBFEEDF5FCDEEDFAD4E7F8E2E5E9" id="linearGradientF8FBFEEDF5FCDEEDFAD4E7F8E2E5E9_120673582" x1="0" y1="183.0" x2="0" y2="289.0" gradientUnits="userSpaceOnUse" xlink:type="simple" xlink:actuate="onLoad" xlink:show="other" /><linearGradient id="linearGradientF8FBFEEDF5FCDEEDFAD4E7F8E2E5E9"><stop style="stop-color:#F8FBFE;stop-opacity:1;" offset="0.0" id="stopF8FBFE" /><stop style="stop-color:#EDF5FC;stop-opacity:1;" offset="0.25" id="stopEDF5FC" /><stop style="stop-color:#DEEDFA;stop-opacity:1;" offset="0.5" id="stopDEEDFA" /><stop style="stop-color:#D4E7F8;stop-opacity:1;" offset="0.75" id="stopD4E7F8" /><stop style="stop-color:#E2E5E9;stop-opacity:1;" offset="1.0" id="stopE2E5E9" /></linearGradient><linearGradient xmlns:xlink="http://www.w3.org/1999/xlink" xlink:href="#linearGradientFAFBFCFFFFCC" id="linearGradientFAFBFCFFFFCC_51298576" x1="0" y1="174.0" x2="0" y2="234.0" gradientUnits="userSpaceOnUse" xlink:type="simple" xlink:actuate="onLoad" xlink:show="other" /><linearGradient id="linearGradientFAFBFCFFFFCC"><stop style="stop-color:#FAFBFC;stop-opacity:1;" offset="0.0" id="stopFAFBFC" /><stop style="stop-color:#FFFFCC;stop-opacity:1;" offset="1.0" id="stopFFFFCC" /></linearGradient><linearGradient xmlns:xlink="http://www.w3.org/1999/xlink" xlink:href="#linearGradientF8FBFEEDF5FCDEEDFAD4E7F8E2E5E9" id="linearGradientF8FBFEEDF5FCDEEDFAD4E7F8E2E5E9_1175215893" x1="0" y1="327.0" x2="0" y2="433.0" gradientUnits="userSpaceOnUse" xlink:type="simple" xlink:actuate="onLoad" xlink:show="other" /><linearGradient xmlns:xlink="http://www.w3.org/1999/xlink" xlink:href="#linearGradientF8FBFEEDF5FCDEEDFAD4E7F8E2E5E9" id="linearGradientF8FBFEEDF5FCDEEDFAD4E7F8E2E5E9_2048215070" x1="0" y1="327.0" x2="0" y2="433.0" gradientUnits="userSpaceOnUse" xlink:type="simple" xlink:actuate="onLoad" xlink:show="other" /><linearGradient xmlns:xlink="http://www.w3.org/1999/xlink" xlink:href="#linearGradientFF6666FF9696FFB6B6" id="linearGradientFF6666FF9696FFB6B6_2004941399" x1="0" y1="200.0" x2="0" y2="235.0" gradientUnits="userSpaceOnUse" xlink:type="simple" xlink:actuate="onLoad" xlink:show="other" /><linearGradient id="linearGradientFF6666FF9696FFB6B6"><stop style="stop-color:#FF6666;stop-opacity:1;" offset="0.0" id="stopFF6666" /><stop style="stop-color:#FF9696;stop-opacity:1;" offset="0.5" id="stopFF9696" /><stop style="stop-color:#FFB6B6;stop-opacity:1;" offset="1.0" id="stopFFB6B6" /></linearGradient><linearGradient xmlns:xlink="http://www.w3.org/1999/xlink" xlink:href="#linearGradientFAFBFCFFFFCC" id="linearGradientFAFBFCFFFFCC_41137142" x1="0" y1="174.0" x2="0" y2="234.0" gradientUnits="userSpaceOnUse" xlink:type="simple" xlink:actuate="onLoad" xlink:show="other" /><linearGradient xmlns:xlink="http://www.w3.org/1999/xlink" xlink:href="#linearGradientFF6666FF9696FFB6B6" id="linearGradientFF6666FF9696FFB6B6_639869018" x1="0" y1="344.0" x2="0" y2="379.0" gradientUnits="userSpaceOnUse" xlink:type="simple" xlink:actuate="onLoad" xlink:show="other" /></defs></svg>
