<?xml version="1.0" encoding="UTF-8"?>
<svg xmlns="http://www.w3.org/2000/svg" style="stroke-dasharray:none; shape-rendering:auto; font-family:'Arial'; text-rendering:auto; fill-opacity:1; color-interpolation:auto; color-rendering:auto; font-size:12; fill:black; stroke:black; image-rendering:auto; stroke-miterlimit:10; stroke-linecap:square; stroke-linejoin:miter; font-style:normal; stroke-width:1; stroke-dashoffset:0; font-weight:normal; stroke-opacity:1;" contentScriptType="text/ecmascript" preserveAspectRatio="xMidYMid meet" zoomAndPan="magnify" version="1.0" contentStyleType="text/css" xml:xlink="http://www.w3.org/1999/xlink" width="921" height="446"><rect x="0" y="148" width="921" height="150" ry="0" rx="0" style="stroke:#000000; fill:#82B0B7" /><g componentSequence="2"><text x="-223" y="6" transform="rotate(270)" text-anchor="middle" style="font-weight:bold;font-size:10px;stroke:none; fill:#434343"><tspan dy="14" x="-223">Gerente Vendas</tspan></text></g><rect x="0" y="0" width="921" height="150" ry="0" rx="0" style="stroke:#000000; fill:#9FC1C6" /><g componentSequence="1"><text x="-75" y="6" transform="rotate(270)" text-anchor="middle" style="font-weight:bold;font-size:10px;stroke:none; fill:#434343"><tspan dy="14" x="-75">Solicitante</tspan></text></g><rect x="0" y="296" width="921" height="150" ry="0" rx="0" style="stroke:#000000; fill:#ADC9AC" /><g componentSequence="3"><text x="-371" y="6" transform="rotate(270)" text-anchor="middle" style="font-weight:bold;font-size:10px;stroke:none; fill:#434343"><tspan dy="14" x="-371">Contas a pagar</tspan></text></g><g sequence="4"><ellipse cx="224" cy="71" rx="17" ry="17" stroke-width="1" style="fill:url(#linearGradient66FF6696FF96B6FFB6_798541007);" stroke="336633" /></g><g sequence="5"><rect x="173" y="197" width="106" height="54" ry="5" rx="5" style="fill:url(#linearGradientF8FBFEEDF5FCDEEDFAD4E7F8E2E5E9_559886156);" stroke="191970" /></g><g componentSequence="5"><text x="226" y="213" text-anchor="middle" style="font-weight:bold;font-size:10px;stroke:none; fill:#333399"><tspan dy="14" x="226">Aprovação</tspan></text></g><g sequence="6"><rect x="428" y="47" width="106" height="67" ry="5" rx="5" style="fill:url(#linearGradientF8FBFEEDF5FCDEEDFAD4E7F8E2E5E9_627093439);" stroke="191970" /></g><g componentSequence="6"><text x="481" y="62" text-anchor="middle" style="font-weight:bold;font-size:10px;stroke:none; fill:#333399"><tspan dy="14" x="481">Anexar NF</tspan><tspan dy="14" x="481">despesa</tspan></text></g><g sequence="7"><rect x="428" y="339" width="106" height="54" ry="5" rx="5" style="fill:url(#linearGradientF8FBFEEDF5FCDEEDFAD4E7F8E2E5E9_1617044855);" stroke="191970" /></g><g componentSequence="7"><text x="481" y="355" text-anchor="middle" style="font-weight:bold;font-size:10px;stroke:none; fill:#333399"><tspan dy="14" x="481">Baixa despesa</tspan></text></g><g sequence="9"><polygon points=" 334 211 364 181 394 211 364 241 334 211" style="fill:url(#linearGradientFAFBFCFFFFCC_162867976);" stroke="000000" /></g><g componentSequence="9"><text x="364" y="243" text-anchor="middle" style="font-weight:bold;font-size:10px;stroke:none; fill:#333399"><tspan dy="14" x="364">Aprova</tspan></text></g><g sequence="11"><ellipse cx="448" cy="224" rx="17" ry="17" stroke-width="3" style="fill:url(#linearGradientFF6666FF9696FFB6B6_1363689533);" stroke="993333" /></g><g sequence="16"><polygon points=" 713 346 743 316 773 346 743 376 713 346" style="fill:url(#linearGradientFAFBFCFFFFCC_1903497468);" stroke="000000" /></g><g componentSequence="16"><text x="743" y="386" text-anchor="middle" style="font-weight:bold;font-size:10px;stroke:none; fill:#333399"><tspan dy="14" x="743">Valor</tspan><tspan dy="14" x="743">ok?</tspan></text></g><g sequence="18"><rect x="690" y="197" width="106" height="54" ry="5" rx="5" style="fill:url(#linearGradientF8FBFEEDF5FCDEEDFAD4E7F8E2E5E9_5102136);" stroke="191970" /></g><g componentSequence="18"><text x="743" y="213" text-anchor="middle" style="font-weight:bold;font-size:10px;stroke:none; fill:#333399"><tspan dy="14" x="743">Reavaliação</tspan></text></g><g sequence="20"><ellipse cx="857" cy="367" rx="17" ry="17" stroke-width="3" style="fill:url(#linearGradientFF6666FF9696FFB6B6_536890450);" stroke="993333" /></g><g sequence="26"><polygon points=" 590 197 620 167 650 197 620 227 590 197" style="fill:url(#linearGradientFAFBFCFFFFCC_869968327);" stroke="000000" /></g><g componentSequence="26"><text x="620" y="237" text-anchor="middle" style="font-weight:bold;font-size:10px;stroke:none; fill:#333399"><tspan dy="14" x="620">Gerente</tspan><tspan dy="14" x="620">aprova</tspan><tspan dy="14" x="620">diver...</tspan></text></g><g componentSequence="8"><text x="491" y="226" style="font-size:10px;font-weight:none;stroke:none; fill:#333399" text-anchor="left" /></g><g componentSequence="10"><text x="373" y="98" style="font-size:10px;font-weight:none;stroke:none; fill:#333399" text-anchor="left"><tspan dy="14" x="373">Aprovado</tspan></text></g><g componentSequence="12"><text x="390" y="193" style="font-size:10px;font-weight:none;stroke:none; fill:#333399" text-anchor="left"><tspan dy="14" x="390">Reprovado</tspan></text></g><g componentSequence="13"><text x="316" y="224" style="font-size:10px;font-weight:none;stroke:none; fill:#333399" text-anchor="left" /></g><g componentSequence="14"><text x="235" y="143" style="font-size:10px;font-weight:none;stroke:none; fill:#333399" text-anchor="left" /></g><g componentSequence="17"><text x="633" y="365" style="font-size:10px;font-weight:none;stroke:none; fill:#333399" text-anchor="left" /></g><g componentSequence="21"><text x="816" y="367" style="font-size:10px;font-weight:none;stroke:none; fill:#333399" text-anchor="left" /></g><g componentSequence="25"><text x="753" y="283" style="font-size:10px;font-weight:none;stroke:none; fill:#333399" text-anchor="left" /></g><g componentSequence="27"><text x="680" y="223" style="font-size:10px;font-weight:none;stroke:none; fill:#333399" text-anchor="left" /></g><g componentSequence="28"><text x="558" y="296" style="font-size:10px;font-weight:none;stroke:none; fill:#333399" text-anchor="left" /></g><g componentSequence="29"><text x="538" y="224" style="font-size:10px;font-weight:none;stroke:none; fill:#333399" text-anchor="left" /></g><path style="fill:none; stroke:#F00000;stroke-width:1" d="M224.0 88.0 L225.0 196.0" /><polygon style="fill:#F00000; stroke:#F00000;" points=" 230 186 225 196 220 186 225 188" /><polygon style="fill:#F00000; stroke:#F00000;" points=" 219 98 224 88 229 98 224 96" /><path style="fill:none; stroke:#000000;stroke-width:1" d="M279.0 224.0 L333.0 224.0" /><polygon style="fill:#000000; stroke:#000000;" points=" 323 219 333 224 323 229 325 224" /><path style="fill:none; stroke:#F00000;stroke-width:1" d="M481.0 114.0 L481.0 338.0" /><polygon style="fill:#F00000; stroke:#F00000;" points=" 486 328 481 338 476 328 481 330" /><polygon style="fill:#F00000; stroke:#F00000;" points=" 476 124 481 114 486 124 481 122" /><path style="fill:none; stroke:#000000;stroke-width:1" d="M363.0 180.0 L363.0 81.0 L427.0 80.0" /><polygon style="fill:#000000; stroke:#000000;" points=" 417 75 427 80 417 85 419 80" /><path style="fill:none; stroke:#000000;stroke-width:1" d="M534.0 365.0 L712.0 365.0" /><polygon style="fill:#000000; stroke:#000000;" points=" 702 360 712 365 702 370 704 365" /><path style="fill:none; stroke:#000000;stroke-width:1" d="M589.0 254.0 L507.0 338.0" /><polygon style="fill:#000000; stroke:#000000;" points=" 518 334 507 338 510 327 513 332" /><path style="fill:none; stroke:#000000;stroke-width:1" d="M394.0 224.0 L430.0 224.0" /><polygon style="fill:#000000; stroke:#000000;" points=" 420 219 430 224 420 229 422 224" /><path style="fill:none; stroke:#000000;stroke-width:1" d="M589.0 223.0 L465.0 224.0" /><polygon style="fill:#000000; stroke:#000000;" points=" 475 229 465 224 475 219 473 224" /><path style="fill:none; stroke:#000000;stroke-width:1" d="M773.0 366.0 L840.0 367.0" /><polygon style="fill:#000000; stroke:#000000;" points=" 830 362 840 367 830 372 832 367" /><path style="fill:none; stroke:#000000;stroke-width:1" d="M743.0 315.0 L743.0 251.0" /><polygon style="fill:#000000; stroke:#000000;" points=" 738 261 743 251 748 261 743 259" /><path style="fill:none; stroke:#000000;stroke-width:1" d="M689.0 223.0 L650.0 223.0" /><polygon style="fill:#000000; stroke:#000000;" points=" 660 228 650 223 660 218 658 223" /><defs><linearGradient xmlns:xlink="http://www.w3.org/1999/xlink" xlink:href="#linearGradient66FF6696FF96B6FFB6" id="linearGradient66FF6696FF96B6FFB6_798541007" x1="0" y1="54.0" x2="0" y2="89.0" gradientUnits="userSpaceOnUse" xlink:type="simple" xlink:actuate="onLoad" xlink:show="other" /><linearGradient id="linearGradient66FF6696FF96B6FFB6"><stop style="stop-color:#66FF66;stop-opacity:1;" offset="0.0" id="stop66FF66" /><stop style="stop-color:#96FF96;stop-opacity:1;" offset="0.5" id="stop96FF96" /><stop style="stop-color:#B6FFB6;stop-opacity:1;" offset="1.0" id="stopB6FFB6" /></linearGradient><linearGradient xmlns:xlink="http://www.w3.org/1999/xlink" xlink:href="#linearGradientF8FBFEEDF5FCDEEDFAD4E7F8E2E5E9" id="linearGradientF8FBFEEDF5FCDEEDFAD4E7F8E2E5E9_559886156" x1="0" y1="197.0" x2="0" y2="303.0" gradientUnits="userSpaceOnUse" xlink:type="simple" xlink:actuate="onLoad" xlink:show="other" /><linearGradient id="linearGradientF8FBFEEDF5FCDEEDFAD4E7F8E2E5E9"><stop style="stop-color:#F8FBFE;stop-opacity:1;" offset="0.0" id="stopF8FBFE" /><stop style="stop-color:#EDF5FC;stop-opacity:1;" offset="0.25" id="stopEDF5FC" /><stop style="stop-color:#DEEDFA;stop-opacity:1;" offset="0.5" id="stopDEEDFA" /><stop style="stop-color:#D4E7F8;stop-opacity:1;" offset="0.75" id="stopD4E7F8" /><stop style="stop-color:#E2E5E9;stop-opacity:1;" offset="1.0" id="stopE2E5E9" /></linearGradient><linearGradient xmlns:xlink="http://www.w3.org/1999/xlink" xlink:href="#linearGradientF8FBFEEDF5FCDEEDFAD4E7F8E2E5E9" id="linearGradientF8FBFEEDF5FCDEEDFAD4E7F8E2E5E9_627093439" x1="0" y1="47.0" x2="0" y2="153.0" gradientUnits="userSpaceOnUse" xlink:type="simple" xlink:actuate="onLoad" xlink:show="other" /><linearGradient xmlns:xlink="http://www.w3.org/1999/xlink" xlink:href="#linearGradientF8FBFEEDF5FCDEEDFAD4E7F8E2E5E9" id="linearGradientF8FBFEEDF5FCDEEDFAD4E7F8E2E5E9_1617044855" x1="0" y1="339.0" x2="0" y2="445.0" gradientUnits="userSpaceOnUse" xlink:type="simple" xlink:actuate="onLoad" xlink:show="other" /><linearGradient xmlns:xlink="http://www.w3.org/1999/xlink" xlink:href="#linearGradientFAFBFCFFFFCC" id="linearGradientFAFBFCFFFFCC_162867976" x1="0" y1="181.0" x2="0" y2="241.0" gradientUnits="userSpaceOnUse" xlink:type="simple" xlink:actuate="onLoad" xlink:show="other" /><linearGradient id="linearGradientFAFBFCFFFFCC"><stop style="stop-color:#FAFBFC;stop-opacity:1;" offset="0.0" id="stopFAFBFC" /><stop style="stop-color:#FFFFCC;stop-opacity:1;" offset="1.0" id="stopFFFFCC" /></linearGradient><linearGradient xmlns:xlink="http://www.w3.org/1999/xlink" xlink:href="#linearGradientFF6666FF9696FFB6B6" id="linearGradientFF6666FF9696FFB6B6_1363689533" x1="0" y1="207.0" x2="0" y2="242.0" gradientUnits="userSpaceOnUse" xlink:type="simple" xlink:actuate="onLoad" xlink:show="other" /><linearGradient id="linearGradientFF6666FF9696FFB6B6"><stop style="stop-color:#FF6666;stop-opacity:1;" offset="0.0" id="stopFF6666" /><stop style="stop-color:#FF9696;stop-opacity:1;" offset="0.5" id="stopFF9696" /><stop style="stop-color:#FFB6B6;stop-opacity:1;" offset="1.0" id="stopFFB6B6" /></linearGradient><linearGradient xmlns:xlink="http://www.w3.org/1999/xlink" xlink:href="#linearGradientFAFBFCFFFFCC" id="linearGradientFAFBFCFFFFCC_1903497468" x1="0" y1="316.0" x2="0" y2="376.0" gradientUnits="userSpaceOnUse" xlink:type="simple" xlink:actuate="onLoad" xlink:show="other" /><linearGradient xmlns:xlink="http://www.w3.org/1999/xlink" xlink:href="#linearGradientF8FBFEEDF5FCDEEDFAD4E7F8E2E5E9" id="linearGradientF8FBFEEDF5FCDEEDFAD4E7F8E2E5E9_5102136" x1="0" y1="197.0" x2="0" y2="303.0" gradientUnits="userSpaceOnUse" xlink:type="simple" xlink:actuate="onLoad" xlink:show="other" /><linearGradient xmlns:xlink="http://www.w3.org/1999/xlink" xlink:href="#linearGradientFF6666FF9696FFB6B6" id="linearGradientFF6666FF9696FFB6B6_536890450" x1="0" y1="350.0" x2="0" y2="385.0" gradientUnits="userSpaceOnUse" xlink:type="simple" xlink:actuate="onLoad" xlink:show="other" /><linearGradient xmlns:xlink="http://www.w3.org/1999/xlink" xlink:href="#linearGradientFAFBFCFFFFCC" id="linearGradientFAFBFCFFFFCC_869968327" x1="0" y1="167.0" x2="0" y2="227.0" gradientUnits="userSpaceOnUse" xlink:type="simple" xlink:actuate="onLoad" xlink:show="other" /></defs></svg>
