<?xml version="1.0" encoding="UTF-8"?>
<svg xmlns="http://www.w3.org/2000/svg" style="stroke-dasharray:none; shape-rendering:auto; font-family:'Arial'; text-rendering:auto; fill-opacity:1; color-interpolation:auto; color-rendering:auto; font-size:12; fill:black; stroke:black; image-rendering:auto; stroke-miterlimit:10; stroke-linecap:square; stroke-linejoin:miter; font-style:normal; stroke-width:1; stroke-dashoffset:0; font-weight:normal; stroke-opacity:1;" contentScriptType="text/ecmascript" preserveAspectRatio="xMidYMid meet" zoomAndPan="magnify" version="1.0" contentStyleType="text/css" xml:xlink="http://www.w3.org/1999/xlink" width="700" height="439"><rect x="0" y="289" width="700" height="150" ry="0" rx="0" style="stroke:#000000; fill:#ADC9AC" /><g componentSequence="3"><text x="-364" y="6" transform="rotate(270)" text-anchor="middle" style="font-weight:bold;font-size:10px;stroke:none; fill:#434343"><tspan dy="14" x="-364">TI</tspan></text></g><rect x="0" y="140" width="700" height="150" ry="0" rx="0" style="stroke:#000000; fill:#82B0B7" /><g componentSequence="2"><text x="-215" y="6" transform="rotate(270)" text-anchor="middle" style="font-weight:bold;font-size:10px;stroke:none; fill:#434343"><tspan dy="14" x="-215">RH</tspan></text></g><rect x="0" y="1" width="700" height="150" ry="0" rx="0" style="stroke:#000000; fill:#9FC1C6" /><g componentSequence="1"><text x="-76" y="6" transform="rotate(270)" text-anchor="middle" style="font-weight:bold;font-size:10px;stroke:none; fill:#434343"><tspan dy="14" x="-76">Solicitante</tspan></text></g><g sequence="4"><ellipse cx="127" cy="93" rx="17" ry="17" stroke-width="1" style="fill:url(#linearGradient66FF6696FF96B6FFB6_1221174627);" stroke="336633" /></g><g sequence="5"><rect x="190" y="185" width="106" height="80" ry="5" rx="5" style="fill:url(#linearGradientF8FBFEEDF5FCDEEDFAD4E7F8E2E5E9_1175339530);" stroke="191970" /></g><g componentSequence="5"><text x="243" y="200" text-anchor="middle" style="font-weight:bold;font-size:10px;stroke:none; fill:#333399"><tspan dy="14" x="243">Agendamento</tspan><tspan dy="14" x="243">do exame e</tspan><tspan dy="14" x="243">troca da função</tspan></text></g><g sequence="6"><rect x="190" y="355" width="106" height="54" ry="5" rx="5" style="fill:url(#linearGradientF8FBFEEDF5FCDEEDFAD4E7F8E2E5E9_1110560275);" stroke="191970" /></g><g componentSequence="6"><text x="243" y="371" text-anchor="middle" style="font-weight:bold;font-size:10px;stroke:none; fill:#333399"><tspan dy="14" x="243">Tratativa TI</tspan></text></g><g sequence="9"><ellipse cx="557" cy="97" rx="17" ry="17" stroke-width="3" style="fill:url(#linearGradientFF6666FF9696FFB6B6_120801329);" stroke="993333" /></g><g sequence="12"><rect x="380" y="70" width="106" height="54" ry="5" rx="5" style="fill:url(#linearGradientF8FBFEEDF5FCDEEDFAD4E7F8E2E5E9_39065353);" stroke="191970" /></g><g componentSequence="12"><text x="433" y="86" text-anchor="middle" style="font-weight:bold;font-size:10px;stroke:none; fill:#333399"><tspan dy="14" x="433">Finalizaçao</tspan></text></g><g sequence="17"><polygon points=" 340 206 370 176 400 206 370 236 340 206" style="fill:url(#linearGradientFAFBFCFFFFCC_914230107);" stroke="000000" /></g><g componentSequence="17"><text x="370" y="246" text-anchor="middle" style="font-weight:bold;font-size:10px;stroke:none; fill:#333399"><tspan dy="14" x="370">Envolve</tspan><tspan dy="14" x="370">TI?</tspan></text></g><g componentSequence="7"><text x="137" y="201" style="font-size:10px;font-weight:none;stroke:none; fill:#333399" text-anchor="left" /></g><g componentSequence="15"><text x="523" y="97" style="font-size:10px;font-weight:none;stroke:none; fill:#333399" text-anchor="left" /></g><g componentSequence="16"><text x="523" y="97" style="font-size:10px;font-weight:none;stroke:none; fill:#333399" text-anchor="left" /></g><g componentSequence="18"><text x="328" y="225" style="font-size:10px;font-weight:none;stroke:none; fill:#333399" text-anchor="left" /></g><g componentSequence="19"><text x="303" y="301" style="font-size:10px;font-weight:none;stroke:none; fill:#333399" text-anchor="left" /></g><g componentSequence="20"><text x="443" y="322" style="font-size:10px;font-weight:none;stroke:none; fill:#333399" text-anchor="left" /></g><g componentSequence="21"><text x="379" y="132" style="font-size:10px;font-weight:none;stroke:none; fill:#333399" text-anchor="left" /></g><g componentSequence="22"><text x="290" y="53" style="font-size:10px;font-weight:none;stroke:none; fill:#333399" text-anchor="left" /></g><path style="fill:none; stroke:#F00000;stroke-width:1" d="M127.0 111.0 L127.0 229.0 L189.0 227.0" /><polygon style="fill:#F00000; stroke:#F00000;" points=" 179 222 189 227 179 232 181 227" /><polygon style="fill:#F00000; stroke:#F00000;" points=" 122 121 127 111 132 121 127 119" /><path style="fill:none; stroke:#000000;stroke-width:1" d="M296.0 225.0 L339.0 225.0" /><polygon style="fill:#000000; stroke:#000000;" points=" 329 220 339 225 329 230 331 225" /><path style="fill:none; stroke:#000000;stroke-width:1" d="M432.0 69.0 L432.0 53.0 L243.0 53.0 L243.0 184.0" /><polygon style="fill:#000000; stroke:#000000;" points=" 248 174 243 184 238 174 243 176" /><path style="fill:none; stroke:#000000;stroke-width:1" d="M296.0 382.0 L433.0 382.0 L433.0 124.0" /><polygon style="fill:#000000; stroke:#000000;" points=" 428 134 433 124 438 134 433 132" /><path style="fill:none; stroke:#000000;stroke-width:1" d="M370.0 275.0 L371.0 301.0 L242.0 301.0 L242.0 354.0" /><polygon style="fill:#000000; stroke:#000000;" points=" 247 344 242 354 237 344 242 346" /><path style="fill:none; stroke:#009600;stroke-width:1" d="M486.0 97.0 L539.0 97.0" /><polygon style="fill:#009600; stroke:#009600;" points=" 529 92 539 97 529 102 531 97" /><path style="fill:none; stroke:#000000;stroke-width:1" d="M486.0 97.0 L539.0 97.0" /><polygon style="fill:#000000; stroke:#000000;" points=" 529 92 539 97 529 102 531 97" /><path style="fill:none; stroke:#000000;stroke-width:1" d="M369.0 175.0 L369.0 99.0 L379.0 99.0" /><polygon style="fill:#000000; stroke:#000000;" points=" 369 94 379 99 369 104 371 99" /><defs><linearGradient xmlns:xlink="http://www.w3.org/1999/xlink" xlink:href="#linearGradient66FF6696FF96B6FFB6" id="linearGradient66FF6696FF96B6FFB6_1221174627" x1="0" y1="76.0" x2="0" y2="111.0" gradientUnits="userSpaceOnUse" xlink:type="simple" xlink:actuate="onLoad" xlink:show="other" /><linearGradient id="linearGradient66FF6696FF96B6FFB6"><stop style="stop-color:#66FF66;stop-opacity:1;" offset="0.0" id="stop66FF66" /><stop style="stop-color:#96FF96;stop-opacity:1;" offset="0.5" id="stop96FF96" /><stop style="stop-color:#B6FFB6;stop-opacity:1;" offset="1.0" id="stopB6FFB6" /></linearGradient><linearGradient xmlns:xlink="http://www.w3.org/1999/xlink" xlink:href="#linearGradientF8FBFEEDF5FCDEEDFAD4E7F8E2E5E9" id="linearGradientF8FBFEEDF5FCDEEDFAD4E7F8E2E5E9_1175339530" x1="0" y1="185.0" x2="0" y2="291.0" gradientUnits="userSpaceOnUse" xlink:type="simple" xlink:actuate="onLoad" xlink:show="other" /><linearGradient id="linearGradientF8FBFEEDF5FCDEEDFAD4E7F8E2E5E9"><stop style="stop-color:#F8FBFE;stop-opacity:1;" offset="0.0" id="stopF8FBFE" /><stop style="stop-color:#EDF5FC;stop-opacity:1;" offset="0.25" id="stopEDF5FC" /><stop style="stop-color:#DEEDFA;stop-opacity:1;" offset="0.5" id="stopDEEDFA" /><stop style="stop-color:#D4E7F8;stop-opacity:1;" offset="0.75" id="stopD4E7F8" /><stop style="stop-color:#E2E5E9;stop-opacity:1;" offset="1.0" id="stopE2E5E9" /></linearGradient><linearGradient xmlns:xlink="http://www.w3.org/1999/xlink" xlink:href="#linearGradientF8FBFEEDF5FCDEEDFAD4E7F8E2E5E9" id="linearGradientF8FBFEEDF5FCDEEDFAD4E7F8E2E5E9_1110560275" x1="0" y1="355.0" x2="0" y2="461.0" gradientUnits="userSpaceOnUse" xlink:type="simple" xlink:actuate="onLoad" xlink:show="other" /><linearGradient xmlns:xlink="http://www.w3.org/1999/xlink" xlink:href="#linearGradientFF6666FF9696FFB6B6" id="linearGradientFF6666FF9696FFB6B6_120801329" x1="0" y1="80.0" x2="0" y2="115.0" gradientUnits="userSpaceOnUse" xlink:type="simple" xlink:actuate="onLoad" xlink:show="other" /><linearGradient id="linearGradientFF6666FF9696FFB6B6"><stop style="stop-color:#FF6666;stop-opacity:1;" offset="0.0" id="stopFF6666" /><stop style="stop-color:#FF9696;stop-opacity:1;" offset="0.5" id="stopFF9696" /><stop style="stop-color:#FFB6B6;stop-opacity:1;" offset="1.0" id="stopFFB6B6" /></linearGradient><linearGradient xmlns:xlink="http://www.w3.org/1999/xlink" xlink:href="#linearGradientF8FBFEEDF5FCDEEDFAD4E7F8E2E5E9" id="linearGradientF8FBFEEDF5FCDEEDFAD4E7F8E2E5E9_39065353" x1="0" y1="70.0" x2="0" y2="176.0" gradientUnits="userSpaceOnUse" xlink:type="simple" xlink:actuate="onLoad" xlink:show="other" /><linearGradient xmlns:xlink="http://www.w3.org/1999/xlink" xlink:href="#linearGradientFAFBFCFFFFCC" id="linearGradientFAFBFCFFFFCC_914230107" x1="0" y1="176.0" x2="0" y2="236.0" gradientUnits="userSpaceOnUse" xlink:type="simple" xlink:actuate="onLoad" xlink:show="other" /><linearGradient id="linearGradientFAFBFCFFFFCC"><stop style="stop-color:#FAFBFC;stop-opacity:1;" offset="0.0" id="stopFAFBFC" /><stop style="stop-color:#FFFFCC;stop-opacity:1;" offset="1.0" id="stopFFFFCC" /></linearGradient></defs></svg>
