<?xml version="1.0" encoding="UTF-8"?>
<svg xmlns="http://www.w3.org/2000/svg" style="stroke-dasharray:none; shape-rendering:auto; font-family:'Arial'; text-rendering:auto; fill-opacity:1; color-interpolation:auto; color-rendering:auto; font-size:12; fill:black; stroke:black; image-rendering:auto; stroke-miterlimit:10; stroke-linecap:square; stroke-linejoin:miter; font-style:normal; stroke-width:1; stroke-dashoffset:0; font-weight:normal; stroke-opacity:1;" contentScriptType="text/ecmascript" preserveAspectRatio="xMidYMid meet" zoomAndPan="magnify" version="1.0" contentStyleType="text/css" xml:xlink="http://www.w3.org/1999/xlink" width="1820" height="947"><rect x="10" y="0" width="1810" height="134" ry="0" rx="0" style="stroke:#000000; fill:#ADC9AC" /><g componentSequence="8"><text x="-67" y="17" transform="rotate(270)" text-anchor="middle" style="font-weight:bold;font-size:10px;stroke:none; fill:#434343"><tspan dy="14" x="-67">GERENTE</tspan></text></g><rect x="10" y="275" width="1810" height="148" ry="0" rx="0" style="stroke:#000000; fill:#82B0B7" /><g componentSequence="2"><text x="-349" y="17" transform="rotate(270)" text-anchor="middle" style="font-weight:bold;font-size:10px;stroke:none; fill:#434343"><tspan dy="14" x="-349">VENDEDOR</tspan></text></g><rect x="10" y="422" width="1810" height="121" ry="0" rx="0" style="stroke:#000000; fill:#D0DAAE" /><g componentSequence="4"><text x="-482" y="17" transform="rotate(270)" text-anchor="middle" style="font-weight:bold;font-size:10px;stroke:none; fill:#434343"><tspan dy="14" x="-482">LOG. ROTEIRO</tspan></text></g><rect x="10" y="133" width="1810" height="143" ry="0" rx="0" style="stroke:#000000; fill:#82B0B7" /><g componentSequence="7"><text x="-204" y="17" transform="rotate(270)" text-anchor="middle" style="font-weight:bold;font-size:10px;stroke:none; fill:#434343"><tspan dy="14" x="-204">SUPERVISOR</tspan></text></g><rect x="10" y="660" width="1810" height="138" ry="0" rx="0" style="stroke:#000000; fill:#ADC9AC" /><g componentSequence="160"><text x="-729" y="17" transform="rotate(270)" text-anchor="middle" style="font-weight:bold;font-size:10px;stroke:none; fill:#434343"><tspan dy="14" x="-729">LOG. DEVOLUÇÃO</tspan></text></g><rect x="10" y="542" width="1810" height="119" ry="0" rx="0" style="stroke:#000000; fill:#D6E0D0" /><g componentSequence="6"><text x="-601" y="17" transform="rotate(270)" text-anchor="middle" style="font-weight:bold;font-size:10px;stroke:none; fill:#434343"><tspan dy="14" x="-601">LOG. RECEBIMENTO</tspan></text></g><rect x="10" y="797" width="1810" height="150" ry="0" rx="0" style="stroke:#000000; fill:#C9C3AC" /><g componentSequence="5"><text x="-872" y="17" transform="rotate(270)" text-anchor="middle" style="font-weight:bold;font-size:10px;stroke:none; fill:#434343"><tspan dy="14" x="-872">COBRANÇA</tspan></text></g><g sequence="9"><ellipse cx="127" cy="370" rx="17" ry="17" stroke-width="1" style="fill:url(#linearGradient66FF6696FF96B6FFB6_139859544);" stroke="336633" /></g><g sequence="13"><rect x="160" y="171" width="106" height="70" ry="5" rx="5" style="fill:url(#linearGradientF8FBFEEDF5FCDEEDFAD4E7F8E2E5E9_110225698);" stroke="191970" /></g><g componentSequence="13"><text x="213" y="186" text-anchor="middle" style="font-weight:bold;font-size:10px;stroke:none; fill:#333399"><tspan dy="14" x="213">Aprovação</tspan><tspan dy="14" x="213">Supervisor</tspan></text></g><g sequence="20"><rect x="490" y="42" width="106" height="70" ry="5" rx="5" style="fill:url(#linearGradientF8FBFEEDF5FCDEEDFAD4E7F8E2E5E9_44989736);" stroke="191970" /></g><g componentSequence="20"><text x="543" y="57" text-anchor="middle" style="font-weight:bold;font-size:10px;stroke:none; fill:#333399"><tspan dy="14" x="543">Aprovação</tspan><tspan dy="14" x="543">Compras</tspan></text></g><g sequence="23"><polygon points=" 180 350 210 320 240 350 210 380 180 350" style="fill:url(#linearGradientFAFBFCFFFFCC_1202512665);" stroke="000000" /></g><g componentSequence="23"><text x="210" y="390" text-anchor="middle" style="font-weight:bold;font-size:10px;stroke:none; fill:#333399"><tspan dy="14" x="210">Solicitant</tspan><tspan dy="14" x="210">e?</tspan></text></g><g sequence="31"><polygon points=" 1050 456 1080 426 1110 456 1080 486 1050 456" style="fill:url(#linearGradientFAFBFCFFFFCC_2146486626);" stroke="000000" /></g><g componentSequence="31"><text x="1080" y="496" text-anchor="middle" style="font-weight:bold;font-size:10px;stroke:none; fill:#333399"><tspan dy="14" x="1080">Possui</tspan><tspan dy="14" x="1080">Coleta?</tspan></text></g><g sequence="33"><rect x="780" y="568" width="106" height="70" ry="5" rx="5" style="fill:url(#linearGradientF8FBFEEDF5FCDEEDFAD4E7F8E2E5E9_1981933383);" stroke="191970" /></g><g componentSequence="33"><text x="833" y="583" text-anchor="middle" style="font-weight:bold;font-size:10px;stroke:none; fill:#333399"><tspan dy="14" x="833">Aguardando</tspan><tspan dy="14" x="833">material</tspan></text></g><g sequence="35"><rect x="780" y="696" width="106" height="70" ry="5" rx="5" style="fill:url(#linearGradientF8FBFEEDF5FCDEEDFAD4E7F8E2E5E9_127374230);" stroke="191970" /></g><g componentSequence="35"><text x="833" y="711" text-anchor="middle" style="font-weight:bold;font-size:10px;stroke:none; fill:#333399"><tspan dy="14" x="833">Realizar</tspan><tspan dy="14" x="833">Devolução</tspan></text></g><g sequence="41"><polygon points=" 1180 853 1210 823 1240 853 1210 883 1180 853" style="fill:url(#linearGradientFAFBFCFFFFCC_662903894);" stroke="000000" /></g><g componentSequence="41"><text x="1210" y="893" text-anchor="middle" style="font-weight:bold;font-size:10px;stroke:none; fill:#333399"><tspan dy="14" x="1210">Devoluç</tspan><tspan dy="14" x="1210">ão OK?</tspan></text></g><g sequence="43"><rect x="1330" y="839" width="106" height="70" ry="5" rx="5" style="fill:url(#linearGradientF8FBFEEDF5FCDEEDFAD4E7F8E2E5E9_1589738013);" stroke="191970" /></g><g componentSequence="43"><text x="1383" y="854" text-anchor="middle" style="font-weight:bold;font-size:10px;stroke:none; fill:#333399"><tspan dy="14" x="1383">Acerto de</tspan><tspan dy="14" x="1383">Crédito</tspan></text></g><g sequence="45"><rect x="1160" y="302" width="106" height="98" ry="5" rx="5" style="fill:url(#linearGradientF8FBFEEDF5FCDEEDFAD4E7F8E2E5E9_665036125);" stroke="191970" /></g><g componentSequence="45"><text x="1213" y="317" text-anchor="middle" style="font-weight:bold;font-size:10px;stroke:none; fill:#333399"><tspan dy="14" x="1213">Revisar</tspan><tspan dy="14" x="1213">Devolução</tspan><tspan dy="14" x="1213">devido a</tspan><tspan dy="14" x="1213">divergência</tspan></text></g><g sequence="47"><polygon points=" 1310 323 1340 293 1370 323 1340 353 1310 323" style="fill:url(#linearGradientFAFBFCFFFFCC_479435036);" stroke="000000" /></g><g componentSequence="47"><text x="1340" y="363" text-anchor="middle" style="font-weight:bold;font-size:10px;stroke:none; fill:#333399"><tspan dy="14" x="1340">Devoluç</tspan><tspan dy="14" x="1340">ão</tspan><tspan dy="14" x="1340">Revi...</tspan></text></g><g sequence="49"><ellipse cx="1417" cy="350" rx="17" ry="17" stroke-width="3" style="fill:url(#linearGradientFF6666FF9696FFB6B6_600655732);" stroke="993333" /></g><g sequence="54"><polygon points=" 320 192 350 162 380 192 350 222 320 192" style="fill:url(#linearGradientFAFBFCFFFFCC_1980354690);" stroke="000000" /></g><g componentSequence="54"><text x="350" y="225" text-anchor="middle" style="font-weight:bold;font-size:10px;stroke:none; fill:#333399"><tspan dy="14" x="350">Aprova?</tspan></text></g><g sequence="60"><ellipse cx="477" cy="205" rx="17" ry="17" stroke-width="3" style="fill:url(#linearGradientFF6666FF9696FFB6B6_1278876243);" stroke="993333" /></g><g sequence="62"><polygon points=" 687 63 717 33 747 63 717 93 687 63" style="fill:url(#linearGradientFAFBFCFFFFCC_1281434033);" stroke="000000" /></g><g componentSequence="62"><text x="717" y="96" text-anchor="middle" style="font-weight:bold;font-size:10px;stroke:none; fill:#333399"><tspan dy="14" x="717">Aprova?</tspan></text></g><g sequence="69"><rect x="1520" y="316" width="106" height="70" ry="5" rx="5" style="fill:url(#linearGradientF8FBFEEDF5FCDEEDFAD4E7F8E2E5E9_90057134);" stroke="191970" /></g><g componentSequence="69"><text x="1573" y="331" text-anchor="middle" style="font-weight:bold;font-size:10px;stroke:none; fill:#333399"><tspan dy="14" x="1573">Devolução</tspan><tspan dy="14" x="1573">finalizada</tspan></text></g><g sequence="71"><ellipse cx="1707" cy="351" rx="17" ry="17" stroke-width="3" style="fill:url(#linearGradientFF6666FF9696FFB6B6_1038836807);" stroke="993333" /></g><g sequence="75"><ellipse cx="837" cy="77" rx="17" ry="17" stroke-width="3" style="fill:url(#linearGradientFF6666FF9696FFB6B6_555682091);" stroke="993333" /></g><g sequence="85"><polygon points=" 660 582 690 552 720 582 690 612 660 582" style="fill:url(#linearGradientFAFBFCFFFFCC_1689700368);" stroke="000000" /></g><g componentSequence="85"><text x="690" y="622" text-anchor="middle" style="font-weight:bold;font-size:10px;stroke:none; fill:#333399"><tspan dy="14" x="690">Material</tspan><tspan dy="14" x="690">chegou?</tspan></text></g><g sequence="88"><rect x="650" y="290" width="106" height="98" ry="5" rx="5" style="fill:url(#linearGradientF8FBFEEDF5FCDEEDFAD4E7F8E2E5E9_273784433);" stroke="191970" /></g><g componentSequence="88"><text x="703" y="305" text-anchor="middle" style="font-weight:bold;font-size:10px;stroke:none; fill:#333399"><tspan dy="14" x="703">Falar com cliente</tspan><tspan dy="14" x="703">sobre envio do</tspan><tspan dy="14" x="703">material</tspan></text></g><g sequence="91"><polygon points=" 800 318 830 288 860 318 830 348 800 318" style="fill:url(#linearGradientFAFBFCFFFFCC_1996360032);" stroke="000000" /></g><g componentSequence="91"><text x="830" y="358" text-anchor="middle" style="font-weight:bold;font-size:10px;stroke:none; fill:#333399"><tspan dy="14" x="830">Material</tspan><tspan dy="14" x="830">chegou?</tspan></text></g><g sequence="111"><rect x="890" y="449" width="106" height="56" ry="5" rx="5" style="fill:url(#linearGradientF8FBFEEDF5FCDEEDFAD4E7F8E2E5E9_795934917);" stroke="191970" /></g><g componentSequence="111"><text x="943" y="466" text-anchor="middle" style="font-weight:bold;font-size:10px;stroke:none; fill:#333399"><tspan dy="14" x="943">Criar roteiro</tspan></text></g><g sequence="173"><ellipse cx="717" cy="177" rx="17" ry="17" stroke-width="1" style="fill:url(#linearGradientFFFF66FFFF96FFFFB6_2111155059);" stroke="999900" /></g><g sequence="173"><polygon points=" 703 170 718 170 718 163 733 178 718 193 718 186 703 186" style="stroke:none; fill:#999900" /></g><g sequence="174"><ellipse cx="1037" cy="377" rx="17" ry="17" stroke-width="1" style="fill:url(#linearGradientFFFF66FFFF96FFFFB6_1642791086);" stroke="999900" /></g><g sequence="174"><polygon points=" 1023 370 1038 370 1038 363 1053 378 1038 393 1038 386 1023 386" style="stroke:#999900; fill:none" /></g><g sequence="181"><ellipse cx="927" cy="335" rx="17" ry="17" stroke-width="3" style="fill:url(#linearGradientFF6666FF9696FFB6B6_1742254330);" stroke="993333" /></g><g sequence="186"><polygon points=" 660 454 690 424 720 454 690 484 660 454" style="fill:url(#linearGradientFAFBFCFFFFCC_1082717164);" stroke="000000" /></g><g componentSequence="186"><text x="690" y="494" text-anchor="middle" style="font-weight:bold;font-size:10px;stroke:none; fill:#333399"><tspan dy="14" x="690">Destino</tspan><tspan dy="14" x="690">da</tspan><tspan dy="14" x="690">solici...</tspan></text></g><g componentSequence="24"><text x="172" y="370" style="font-size:10px;font-weight:none;stroke:none; fill:#333399" text-anchor="left" /></g><g componentSequence="25"><text x="130" y="305" style="font-size:10px;font-weight:none;stroke:none; fill:#333399" text-anchor="left"><tspan dy="14" x="130">Sou Vendedor</tspan></text></g><g componentSequence="44"><text x="1295" y="874" style="font-size:10px;font-weight:none;stroke:none; fill:#333399" text-anchor="left"><tspan dy="14" x="1295">Sim</tspan></text></g><g componentSequence="46"><text x="1221" y="611" style="font-size:10px;font-weight:none;stroke:none; fill:#333399" text-anchor="left"><tspan dy="14" x="1221">Não</tspan></text></g><g componentSequence="48"><text x="1298" y="351" style="font-size:10px;font-weight:none;stroke:none; fill:#333399" text-anchor="left" /></g><g componentSequence="55"><text x="303" y="206" style="font-size:10px;font-weight:none;stroke:none; fill:#333399" text-anchor="left" /></g><g componentSequence="61"><text x="393" y="188" style="font-size:10px;font-weight:none;stroke:none; fill:#333399" text-anchor="left"><tspan dy="14" x="393">Reprovado</tspan></text></g><g componentSequence="72"><text x="1668" y="351" style="font-size:10px;font-weight:none;stroke:none; fill:#333399" text-anchor="left" /></g><g componentSequence="74"><text x="1668" y="351" style="font-size:10px;font-weight:none;stroke:none; fill:#333399" text-anchor="left" /></g><g componentSequence="76"><text x="778" y="82" style="font-size:10px;font-weight:none;stroke:none; fill:#333399" text-anchor="left"><tspan dy="14" x="778">Não</tspan></text></g><g componentSequence="103"><text x="841" y="479" style="font-size:10px;font-weight:none;stroke:none; fill:#333399" text-anchor="left" /></g><g componentSequence="104"><text x="788" y="339" style="font-size:10px;font-weight:none;stroke:none; fill:#333399" text-anchor="left" /></g><g componentSequence="105"><text x="707" y="728" style="font-size:10px;font-weight:none;stroke:none; fill:#333399" text-anchor="left"><tspan dy="14" x="707">Sim</tspan></text></g><g componentSequence="112"><text x="1033" y="477" style="font-size:10px;font-weight:none;stroke:none; fill:#333399" text-anchor="left"><tspan dy="14" x="1033">Sim</tspan></text></g><g componentSequence="143"><text x="1283" y="729" style="font-size:10px;font-weight:none;stroke:none; fill:#333399" text-anchor="left" /></g><g componentSequence="151"><text x="760" y="603" style="font-size:10px;font-weight:none;stroke:none; fill:#333399" text-anchor="left" /></g><g componentSequence="165"><text x="760" y="603" style="font-size:10px;font-weight:none;stroke:none; fill:#333399" text-anchor="left" /></g><g componentSequence="166"><text x="788" y="339" style="font-size:10px;font-weight:none;stroke:none; fill:#333399" text-anchor="left" /></g><g componentSequence="168"><text x="843" y="667" style="font-size:10px;font-weight:none;stroke:none; fill:#333399" text-anchor="left" /></g><g componentSequence="169"><text x="1298" y="351" style="font-size:10px;font-weight:none;stroke:none; fill:#333399" text-anchor="left" /></g><g componentSequence="172"><text x="950" y="578" style="font-size:10px;font-weight:none;stroke:none; fill:#333399" text-anchor="left" /></g><g componentSequence="176"><text x="727" y="140" style="font-size:10px;font-weight:none;stroke:none; fill:#333399" text-anchor="left" /></g><g componentSequence="177"><text x="1090" y="388" style="font-size:10px;font-weight:none;stroke:none; fill:#333399" text-anchor="left" /></g><g componentSequence="178"><text x="530" y="370" style="font-size:10px;font-weight:none;stroke:none; fill:#333399" text-anchor="left" /></g><g componentSequence="179"><text x="387" y="76" style="font-size:10px;font-weight:none;stroke:none; fill:#333399" text-anchor="left" /></g><g componentSequence="180"><text x="651" y="77" style="font-size:10px;font-weight:none;stroke:none; fill:#333399" text-anchor="left" /></g><g componentSequence="182"><text x="895" y="337" style="font-size:10px;font-weight:none;stroke:none; fill:#333399" text-anchor="left" /></g><g componentSequence="183"><text x="963" y="872" style="font-size:10px;font-weight:none;stroke:none; fill:#333399" text-anchor="left" /></g><g componentSequence="184"><text x="1395" y="350" style="font-size:10px;font-weight:none;stroke:none; fill:#333399" text-anchor="left" /></g><g componentSequence="185"><text x="1582" y="697" style="font-size:10px;font-weight:none;stroke:none; fill:#333399" text-anchor="left" /></g><g componentSequence="187"><text x="700" y="546" style="font-size:10px;font-weight:none;stroke:none; fill:#333399" text-anchor="left" /></g><g componentSequence="188"><text x="707" y="406" style="font-size:10px;font-weight:none;stroke:none; fill:#333399" text-anchor="left" /></g><g componentSequence="189"><text x="815" y="480" style="font-size:10px;font-weight:none;stroke:none; fill:#333399" text-anchor="left" /></g><g componentSequence="190"><text x="1027" y="248" style="font-size:10px;font-weight:none;stroke:none; fill:#333399" text-anchor="left" /></g><path style="fill:none; stroke:#000000;stroke-width:1" d="M144.0 370.0 L179.0 370.0" /><polygon style="fill:#000000; stroke:#000000;" points=" 169 365 179 370 169 375 171 370" /><path style="fill:none; stroke:#000000;stroke-width:1" d="M266.0 206.0 L319.0 206.0" /><polygon style="fill:#000000; stroke:#000000;" points=" 309 201 319 206 309 211 311 206" /><path style="fill:none; stroke:#000000;stroke-width:1" d="M211.0 319.0 L212.0 241.0" /><polygon style="fill:#000000; stroke:#000000;" points=" 207 251 212 241 217 251 212 249" /><path style="fill:none; stroke:#000000;stroke-width:1" d="M596.0 77.0 L686.0 77.0" /><polygon style="fill:#000000; stroke:#000000;" points=" 676 72 686 77 676 82 678 77" /><path style="fill:none; stroke:#000000;stroke-width:1" d="M240.0 370.0 L541.0 370.0 L542.0 112.0" /><polygon style="fill:#000000; stroke:#000000;" points=" 537 122 542 112 547 122 542 120" /><path style="fill:none; stroke:#000000;stroke-width:1" d="M349.0 161.0 L349.0 76.0 L489.0 76.0" /><polygon style="fill:#000000; stroke:#000000;" points=" 479 71 489 76 479 81 481 76" /><path style="fill:none; stroke:#000000;stroke-width:1" d="M1049.0 477.0 L996.0 477.0" /><polygon style="fill:#000000; stroke:#000000;" points=" 1006 482 996 477 1006 472 1004 477" /><path style="fill:none; stroke:#000000;stroke-width:1" d="M1110.0 476.0 L1128.0 476.0 L1129.0 366.0 L1130.0 248.0 L700.0 248.0 L701.0 289.0" /><polygon style="fill:#000000; stroke:#000000;" points=" 706 279 701 289 696 279 701 281" /><path style="fill:none; stroke:#000000;stroke-width:1" d="M1054.0 377.0 L1080.0 376.0 L1080.0 425.0" /><polygon style="fill:#000000; stroke:#000000;" points=" 1085 415 1080 425 1075 415 1080 417" /><path style="fill:none; stroke:#009600;stroke-width:1" d="M779.0 603.0 L720.0 603.0" /><polygon style="fill:#009600; stroke:#009600;" points=" 730 608 720 603 730 598 728 603" /><path style="fill:none; stroke:#000000;stroke-width:1" d="M779.0 603.0 L720.0 603.0" /><polygon style="fill:#000000; stroke:#000000;" points=" 730 608 720 603 730 598 728 603" /><path style="fill:none; stroke:#000000;stroke-width:1" d="M830.0 390.0 L832.0 567.0" /><polygon style="fill:#000000; stroke:#000000;" points=" 837 557 832 567 827 557 832 559" /><path style="fill:none; stroke:#000000;stroke-width:1" d="M833.0 695.0 L833.0 638.0" /><polygon style="fill:#000000; stroke:#000000;" points=" 828 648 833 638 838 648 833 646" /><path style="fill:none; stroke:#000000;stroke-width:1" d="M942.0 505.0 L940.0 597.0 L886.0 600.0" /><polygon style="fill:#000000; stroke:#000000;" points=" 896 604 886 600 896 594 894 600" /><path style="fill:none; stroke:#000000;stroke-width:1" d="M832.0 766.0 L832.0 872.0 L1179.0 873.0" /><polygon style="fill:#000000; stroke:#000000;" points=" 1169 868 1179 873 1169 878 1171 873" /><path style="fill:none; stroke:#000000;stroke-width:1" d="M689.0 654.0 L688.0 728.0 L779.0 730.0" /><polygon style="fill:#000000; stroke:#000000;" points=" 769 725 779 730 769 735 771 730" /><path style="fill:none; stroke:#000000;stroke-width:1" d="M1340.0 409.0 L1340.0 729.0 L886.0 730.0" /><polygon style="fill:#000000; stroke:#000000;" points=" 896 735 886 730 896 725 894 730" /><path style="fill:none; stroke:#000000;stroke-width:1" d="M1240.0 874.0 L1329.0 874.0" /><polygon style="fill:#000000; stroke:#000000;" points=" 1319 869 1329 874 1319 879 1321 874" /><path style="fill:none; stroke:#000000;stroke-width:1" d="M1210.0 822.0 L1212.0 400.0" /><polygon style="fill:#000000; stroke:#000000;" points=" 1207 410 1212 400 1217 410 1212 408" /><path style="fill:none; stroke:#000000;stroke-width:1" d="M1436.0 873.0 L1572.0 872.0 L1572.0 386.0" /><polygon style="fill:#000000; stroke:#000000;" points=" 1567 396 1572 386 1577 396 1572 394" /><path style="fill:none; stroke:#009600;stroke-width:1" d="M1266.0 351.0 L1309.0 351.0" /><polygon style="fill:#009600; stroke:#009600;" points=" 1299 346 1309 351 1299 356 1301 351" /><path style="fill:none; stroke:#000000;stroke-width:1" d="M1266.0 351.0 L1309.0 351.0" /><polygon style="fill:#000000; stroke:#000000;" points=" 1299 346 1309 351 1299 356 1301 351" /><path style="fill:none; stroke:#000000;stroke-width:1" d="M1370.0 350.0 L1400.0 350.0" /><polygon style="fill:#000000; stroke:#000000;" points=" 1390 345 1400 350 1390 355 1392 350" /><path style="fill:none; stroke:#000000;stroke-width:1" d="M380.0 205.0 L460.0 205.0" /><polygon style="fill:#000000; stroke:#000000;" points=" 450 200 460 205 450 210 452 205" /><path style="fill:none; stroke:#000000;stroke-width:1" d="M747.0 77.0 L819.0 77.0" /><polygon style="fill:#000000; stroke:#000000;" points=" 809 72 819 77 809 82 811 77" /><path style="fill:none; stroke:#000000;stroke-width:1" d="M717.0 121.0 L717.0 159.0" /><polygon style="fill:#000000; stroke:#000000;" points=" 722 149 717 159 712 149 717 151" /><path style="fill:none; stroke:#009600;stroke-width:1" d="M1626.0 351.0 L1689.0 351.0" /><polygon style="fill:#009600; stroke:#009600;" points=" 1679 346 1689 351 1679 356 1681 351" /><path style="fill:none; stroke:#000000;stroke-width:1" d="M1626.0 351.0 L1689.0 351.0" /><polygon style="fill:#000000; stroke:#000000;" points=" 1679 346 1689 351 1679 356 1681 351" /><path style="fill:none; stroke:#000000;stroke-width:1" d="M690.0 551.0 L690.0 540.0" /><polygon style="fill:#000000; stroke:#000000;" points=" 685 550 690 540 695 550 690 548" /><path style="fill:none; stroke:#009600;stroke-width:1" d="M756.0 339.0 L799.0 339.0" /><polygon style="fill:#009600; stroke:#009600;" points=" 789 334 799 339 789 344 791 339" /><path style="fill:none; stroke:#000000;stroke-width:1" d="M756.0 339.0 L799.0 339.0" /><polygon style="fill:#000000; stroke:#000000;" points=" 789 334 799 339 789 344 791 339" /><path style="fill:none; stroke:#000000;stroke-width:1" d="M695.0 423.0 L698.0 388.0" /><polygon style="fill:#000000; stroke:#000000;" points=" 692 398 698 388 702 398 697 396" /><path style="fill:none; stroke:#000000;stroke-width:1" d="M860.0 337.0 L910.0 335.0" /><polygon style="fill:#000000; stroke:#000000;" points=" 900 330 910 335 900 340 902 335" /><path style="fill:none; stroke:#000000;stroke-width:1" d="M720.0 481.0 L889.0 478.0" /><polygon style="fill:#000000; stroke:#000000;" points=" 879 473 889 478 879 483 881 478" /><defs><linearGradient xmlns:xlink="http://www.w3.org/1999/xlink" xlink:href="#linearGradient66FF6696FF96B6FFB6" id="linearGradient66FF6696FF96B6FFB6_139859544" x1="0" y1="353.0" x2="0" y2="388.0" gradientUnits="userSpaceOnUse" xlink:type="simple" xlink:actuate="onLoad" xlink:show="other" /><linearGradient id="linearGradient66FF6696FF96B6FFB6"><stop style="stop-color:#66FF66;stop-opacity:1;" offset="0.0" id="stop66FF66" /><stop style="stop-color:#96FF96;stop-opacity:1;" offset="0.5" id="stop96FF96" /><stop style="stop-color:#B6FFB6;stop-opacity:1;" offset="1.0" id="stopB6FFB6" /></linearGradient><linearGradient xmlns:xlink="http://www.w3.org/1999/xlink" xlink:href="#linearGradientF8FBFEEDF5FCDEEDFAD4E7F8E2E5E9" id="linearGradientF8FBFEEDF5FCDEEDFAD4E7F8E2E5E9_110225698" x1="0" y1="171.0" x2="0" y2="277.0" gradientUnits="userSpaceOnUse" xlink:type="simple" xlink:actuate="onLoad" xlink:show="other" /><linearGradient id="linearGradientF8FBFEEDF5FCDEEDFAD4E7F8E2E5E9"><stop style="stop-color:#F8FBFE;stop-opacity:1;" offset="0.0" id="stopF8FBFE" /><stop style="stop-color:#EDF5FC;stop-opacity:1;" offset="0.25" id="stopEDF5FC" /><stop style="stop-color:#DEEDFA;stop-opacity:1;" offset="0.5" id="stopDEEDFA" /><stop style="stop-color:#D4E7F8;stop-opacity:1;" offset="0.75" id="stopD4E7F8" /><stop style="stop-color:#E2E5E9;stop-opacity:1;" offset="1.0" id="stopE2E5E9" /></linearGradient><linearGradient xmlns:xlink="http://www.w3.org/1999/xlink" xlink:href="#linearGradientF8FBFEEDF5FCDEEDFAD4E7F8E2E5E9" id="linearGradientF8FBFEEDF5FCDEEDFAD4E7F8E2E5E9_44989736" x1="0" y1="42.0" x2="0" y2="148.0" gradientUnits="userSpaceOnUse" xlink:type="simple" xlink:actuate="onLoad" xlink:show="other" /><linearGradient xmlns:xlink="http://www.w3.org/1999/xlink" xlink:href="#linearGradientFAFBFCFFFFCC" id="linearGradientFAFBFCFFFFCC_1202512665" x1="0" y1="320.0" x2="0" y2="380.0" gradientUnits="userSpaceOnUse" xlink:type="simple" xlink:actuate="onLoad" xlink:show="other" /><linearGradient id="linearGradientFAFBFCFFFFCC"><stop style="stop-color:#FAFBFC;stop-opacity:1;" offset="0.0" id="stopFAFBFC" /><stop style="stop-color:#FFFFCC;stop-opacity:1;" offset="1.0" id="stopFFFFCC" /></linearGradient><linearGradient xmlns:xlink="http://www.w3.org/1999/xlink" xlink:href="#linearGradientFAFBFCFFFFCC" id="linearGradientFAFBFCFFFFCC_2146486626" x1="0" y1="426.0" x2="0" y2="486.0" gradientUnits="userSpaceOnUse" xlink:type="simple" xlink:actuate="onLoad" xlink:show="other" /><linearGradient xmlns:xlink="http://www.w3.org/1999/xlink" xlink:href="#linearGradientF8FBFEEDF5FCDEEDFAD4E7F8E2E5E9" id="linearGradientF8FBFEEDF5FCDEEDFAD4E7F8E2E5E9_1981933383" x1="0" y1="568.0" x2="0" y2="674.0" gradientUnits="userSpaceOnUse" xlink:type="simple" xlink:actuate="onLoad" xlink:show="other" /><linearGradient xmlns:xlink="http://www.w3.org/1999/xlink" xlink:href="#linearGradientF8FBFEEDF5FCDEEDFAD4E7F8E2E5E9" id="linearGradientF8FBFEEDF5FCDEEDFAD4E7F8E2E5E9_127374230" x1="0" y1="696.0" x2="0" y2="802.0" gradientUnits="userSpaceOnUse" xlink:type="simple" xlink:actuate="onLoad" xlink:show="other" /><linearGradient xmlns:xlink="http://www.w3.org/1999/xlink" xlink:href="#linearGradientFAFBFCFFFFCC" id="linearGradientFAFBFCFFFFCC_662903894" x1="0" y1="823.0" x2="0" y2="883.0" gradientUnits="userSpaceOnUse" xlink:type="simple" xlink:actuate="onLoad" xlink:show="other" /><linearGradient xmlns:xlink="http://www.w3.org/1999/xlink" xlink:href="#linearGradientF8FBFEEDF5FCDEEDFAD4E7F8E2E5E9" id="linearGradientF8FBFEEDF5FCDEEDFAD4E7F8E2E5E9_1589738013" x1="0" y1="839.0" x2="0" y2="945.0" gradientUnits="userSpaceOnUse" xlink:type="simple" xlink:actuate="onLoad" xlink:show="other" /><linearGradient xmlns:xlink="http://www.w3.org/1999/xlink" xlink:href="#linearGradientF8FBFEEDF5FCDEEDFAD4E7F8E2E5E9" id="linearGradientF8FBFEEDF5FCDEEDFAD4E7F8E2E5E9_665036125" x1="0" y1="302.0" x2="0" y2="408.0" gradientUnits="userSpaceOnUse" xlink:type="simple" xlink:actuate="onLoad" xlink:show="other" /><linearGradient xmlns:xlink="http://www.w3.org/1999/xlink" xlink:href="#linearGradientFAFBFCFFFFCC" id="linearGradientFAFBFCFFFFCC_479435036" x1="0" y1="293.0" x2="0" y2="353.0" gradientUnits="userSpaceOnUse" xlink:type="simple" xlink:actuate="onLoad" xlink:show="other" /><linearGradient xmlns:xlink="http://www.w3.org/1999/xlink" xlink:href="#linearGradientFF6666FF9696FFB6B6" id="linearGradientFF6666FF9696FFB6B6_600655732" x1="0" y1="333.0" x2="0" y2="368.0" gradientUnits="userSpaceOnUse" xlink:type="simple" xlink:actuate="onLoad" xlink:show="other" /><linearGradient id="linearGradientFF6666FF9696FFB6B6"><stop style="stop-color:#FF6666;stop-opacity:1;" offset="0.0" id="stopFF6666" /><stop style="stop-color:#FF9696;stop-opacity:1;" offset="0.5" id="stopFF9696" /><stop style="stop-color:#FFB6B6;stop-opacity:1;" offset="1.0" id="stopFFB6B6" /></linearGradient><linearGradient xmlns:xlink="http://www.w3.org/1999/xlink" xlink:href="#linearGradientFAFBFCFFFFCC" id="linearGradientFAFBFCFFFFCC_1980354690" x1="0" y1="162.0" x2="0" y2="222.0" gradientUnits="userSpaceOnUse" xlink:type="simple" xlink:actuate="onLoad" xlink:show="other" /><linearGradient xmlns:xlink="http://www.w3.org/1999/xlink" xlink:href="#linearGradientFF6666FF9696FFB6B6" id="linearGradientFF6666FF9696FFB6B6_1278876243" x1="0" y1="188.0" x2="0" y2="223.0" gradientUnits="userSpaceOnUse" xlink:type="simple" xlink:actuate="onLoad" xlink:show="other" /><linearGradient xmlns:xlink="http://www.w3.org/1999/xlink" xlink:href="#linearGradientFAFBFCFFFFCC" id="linearGradientFAFBFCFFFFCC_1281434033" x1="0" y1="33.0" x2="0" y2="93.0" gradientUnits="userSpaceOnUse" xlink:type="simple" xlink:actuate="onLoad" xlink:show="other" /><linearGradient xmlns:xlink="http://www.w3.org/1999/xlink" xlink:href="#linearGradientF8FBFEEDF5FCDEEDFAD4E7F8E2E5E9" id="linearGradientF8FBFEEDF5FCDEEDFAD4E7F8E2E5E9_90057134" x1="0" y1="316.0" x2="0" y2="422.0" gradientUnits="userSpaceOnUse" xlink:type="simple" xlink:actuate="onLoad" xlink:show="other" /><linearGradient xmlns:xlink="http://www.w3.org/1999/xlink" xlink:href="#linearGradientFF6666FF9696FFB6B6" id="linearGradientFF6666FF9696FFB6B6_1038836807" x1="0" y1="334.0" x2="0" y2="369.0" gradientUnits="userSpaceOnUse" xlink:type="simple" xlink:actuate="onLoad" xlink:show="other" /><linearGradient xmlns:xlink="http://www.w3.org/1999/xlink" xlink:href="#linearGradientFF6666FF9696FFB6B6" id="linearGradientFF6666FF9696FFB6B6_555682091" x1="0" y1="60.0" x2="0" y2="95.0" gradientUnits="userSpaceOnUse" xlink:type="simple" xlink:actuate="onLoad" xlink:show="other" /><linearGradient xmlns:xlink="http://www.w3.org/1999/xlink" xlink:href="#linearGradientFAFBFCFFFFCC" id="linearGradientFAFBFCFFFFCC_1689700368" x1="0" y1="552.0" x2="0" y2="612.0" gradientUnits="userSpaceOnUse" xlink:type="simple" xlink:actuate="onLoad" xlink:show="other" /><linearGradient xmlns:xlink="http://www.w3.org/1999/xlink" xlink:href="#linearGradientF8FBFEEDF5FCDEEDFAD4E7F8E2E5E9" id="linearGradientF8FBFEEDF5FCDEEDFAD4E7F8E2E5E9_273784433" x1="0" y1="290.0" x2="0" y2="396.0" gradientUnits="userSpaceOnUse" xlink:type="simple" xlink:actuate="onLoad" xlink:show="other" /><linearGradient xmlns:xlink="http://www.w3.org/1999/xlink" xlink:href="#linearGradientFAFBFCFFFFCC" id="linearGradientFAFBFCFFFFCC_1996360032" x1="0" y1="288.0" x2="0" y2="348.0" gradientUnits="userSpaceOnUse" xlink:type="simple" xlink:actuate="onLoad" xlink:show="other" /><linearGradient xmlns:xlink="http://www.w3.org/1999/xlink" xlink:href="#linearGradientF8FBFEEDF5FCDEEDFAD4E7F8E2E5E9" id="linearGradientF8FBFEEDF5FCDEEDFAD4E7F8E2E5E9_795934917" x1="0" y1="449.0" x2="0" y2="555.0" gradientUnits="userSpaceOnUse" xlink:type="simple" xlink:actuate="onLoad" xlink:show="other" /><linearGradient xmlns:xlink="http://www.w3.org/1999/xlink" xlink:href="#linearGradientFFFF66FFFF96FFFFB6" id="linearGradientFFFF66FFFF96FFFFB6_2111155059" x1="0" y1="160.0" x2="0" y2="195.0" gradientUnits="userSpaceOnUse" xlink:type="simple" xlink:actuate="onLoad" xlink:show="other" /><linearGradient id="linearGradientFFFF66FFFF96FFFFB6"><stop style="stop-color:#FFFF66;stop-opacity:1;" offset="0.0" id="stopFFFF66" /><stop style="stop-color:#FFFF96;stop-opacity:1;" offset="0.5" id="stopFFFF96" /><stop style="stop-color:#FFFFB6;stop-opacity:1;" offset="1.0" id="stopFFFFB6" /></linearGradient><linearGradient xmlns:xlink="http://www.w3.org/1999/xlink" xlink:href="#linearGradientFFFF66FFFF96FFFFB6" id="linearGradientFFFF66FFFF96FFFFB6_1642791086" x1="0" y1="360.0" x2="0" y2="395.0" gradientUnits="userSpaceOnUse" xlink:type="simple" xlink:actuate="onLoad" xlink:show="other" /><linearGradient xmlns:xlink="http://www.w3.org/1999/xlink" xlink:href="#linearGradientFF6666FF9696FFB6B6" id="linearGradientFF6666FF9696FFB6B6_1742254330" x1="0" y1="318.0" x2="0" y2="353.0" gradientUnits="userSpaceOnUse" xlink:type="simple" xlink:actuate="onLoad" xlink:show="other" /><linearGradient xmlns:xlink="http://www.w3.org/1999/xlink" xlink:href="#linearGradientFAFBFCFFFFCC" id="linearGradientFAFBFCFFFFCC_1082717164" x1="0" y1="424.0" x2="0" y2="484.0" gradientUnits="userSpaceOnUse" xlink:type="simple" xlink:actuate="onLoad" xlink:show="other" /></defs></svg>
