<?xml version="1.0" encoding="UTF-8"?>
<svg xmlns="http://www.w3.org/2000/svg" style="stroke-dasharray:none; shape-rendering:auto; font-family:'Arial'; text-rendering:auto; fill-opacity:1; color-interpolation:auto; color-rendering:auto; font-size:12; fill:black; stroke:black; image-rendering:auto; stroke-miterlimit:10; stroke-linecap:square; stroke-linejoin:miter; font-style:normal; stroke-width:1; stroke-dashoffset:0; font-weight:normal; stroke-opacity:1;" contentScriptType="text/ecmascript" preserveAspectRatio="xMidYMid meet" zoomAndPan="magnify" version="1.0" contentStyleType="text/css" xml:xlink="http://www.w3.org/1999/xlink" width="961" height="1196"><rect x="50" y="200" width="911" height="192" ry="0" rx="0" style="stroke:#000000; fill:#C9C3AC" /><g componentSequence="119"><text x="-296" y="56" transform="rotate(270)" text-anchor="middle" style="font-weight:bold;font-size:10px;stroke:none; fill:#434343"><tspan dy="14" x="-296">Compras</tspan></text></g><rect x="50" y="535" width="911" height="146" ry="0" rx="0" style="stroke:#000000; fill:#9FC1C6" /><g componentSequence="81"><text x="-608" y="56" transform="rotate(270)" text-anchor="middle" style="font-weight:bold;font-size:10px;stroke:none; fill:#434343"><tspan dy="14" x="-608">Rotas</tspan></text></g><rect x="50" y="824" width="911" height="372" ry="0" rx="0" style="stroke:#000000; fill:#D6E0D0" /><g componentSequence="49"><text x="-1010" y="56" transform="rotate(270)" text-anchor="middle" style="font-weight:bold;font-size:10px;stroke:none; fill:#434343"><tspan dy="14" x="-1010">Logística</tspan></text></g><rect x="50" y="680" width="911" height="145" ry="0" rx="0" style="stroke:#000000; fill:#D0DAAE" /><g componentSequence="48"><text x="-752" y="56" transform="rotate(270)" text-anchor="middle" style="font-weight:bold;font-size:10px;stroke:none; fill:#434343"><tspan dy="14" x="-752">Financeiro</tspan></text></g><rect x="50" y="391" width="911" height="145" ry="0" rx="0" style="stroke:#000000; fill:#ADC9AC" /><g componentSequence="47"><text x="-463" y="56" transform="rotate(270)" text-anchor="middle" style="font-weight:bold;font-size:10px;stroke:none; fill:#434343"><tspan dy="14" x="-463">Liberação</tspan></text></g><rect x="50" y="0" width="911" height="201" ry="0" rx="0" style="stroke:#000000; fill:#82B0B7" /><g componentSequence="46"><text x="-100" y="56" transform="rotate(270)" text-anchor="middle" style="font-weight:bold;font-size:10px;stroke:none; fill:#434343"><tspan dy="14" x="-100">Solicitante</tspan></text></g><g sequence="24"><ellipse cx="242" cy="146" rx="17" ry="17" stroke-width="1" style="fill:url(#linearGradient66FF6696FF96B6FFB6_337118000);" stroke="336633" /></g><g sequence="25"><polygon points=" 420 110 450 80 480 110 450 140 420 110" style="fill:url(#linearGradientFAFBFCFFFFCC_450887619);" stroke="000000" /></g><g componentSequence="25"><text x="450" y="150" text-anchor="middle" style="font-weight:bold;font-size:10px;stroke:none; fill:#333399"><tspan dy="14" x="450">Cliente</tspan><tspan dy="14" x="450">Balcão?</tspan></text></g><g sequence="27"><rect x="170" y="964" width="106" height="80" ry="5" rx="5" style="fill:url(#linearGradientF8FBFEEDF5FCDEEDFAD4E7F8E2E5E9_518023232);" stroke="191970" /></g><g componentSequence="27"><text x="223" y="979" text-anchor="middle" style="font-weight:bold;font-size:10px;stroke:none; fill:#333399"><tspan dy="14" x="223">Realizar</tspan><tspan dy="14" x="223">recebimento do</tspan><tspan dy="14" x="223">material</tspan></text></g><g sequence="29"><polygon points=" 790 860 820 830 850 860 820 890 790 860" style="fill:url(#linearGradientFAFBFCFFFFCC_1541600760);" stroke="000000" /></g><g componentSequence="29"><text x="820" y="900" text-anchor="middle" style="font-weight:bold;font-size:10px;stroke:none; fill:#333399"><tspan dy="14" x="820">Cliente</tspan><tspan dy="14" x="820">Balcão</tspan></text></g><g sequence="31"><rect x="490" y="430" width="106" height="54" ry="5" rx="5" style="fill:url(#linearGradientF8FBFEEDF5FCDEEDFAD4E7F8E2E5E9_255290423);" stroke="191970" /></g><g componentSequence="31"><text x="543" y="446" text-anchor="middle" style="font-weight:bold;font-size:10px;stroke:none; fill:#333399"><tspan dy="14" x="543">Liberar pedido</tspan></text></g><g sequence="36"><ellipse cx="927" cy="753" rx="17" ry="17" stroke-width="3" style="fill:url(#linearGradientFF6666FF9696FFB6B6_1785965557);" stroke="993333" /></g><g sequence="51"><rect x="570" y="1120" width="106" height="67" ry="5" rx="5" style="fill:url(#linearGradientF8FBFEEDF5FCDEEDFAD4E7F8E2E5E9_2001497235);" stroke="191970" /></g><g componentSequence="51"><text x="623" y="1135" text-anchor="middle" style="font-weight:bold;font-size:10px;stroke:none; fill:#333399"><tspan dy="14" x="623">Realizar</tspan><tspan dy="14" x="623">devolução</tspan></text></g><g sequence="53"><rect x="310" y="1120" width="106" height="67" ry="5" rx="5" style="fill:url(#linearGradientF8FBFEEDF5FCDEEDFAD4E7F8E2E5E9_1003293367);" stroke="191970" /></g><g componentSequence="53"><text x="363" y="1135" text-anchor="middle" style="font-weight:bold;font-size:10px;stroke:none; fill:#333399"><tspan dy="14" x="363">Revisar</tspan><tspan dy="14" x="363">devolução</tspan></text></g><g sequence="55"><rect x="770" y="950" width="106" height="80" ry="5" rx="5" style="fill:url(#linearGradientF8FBFEEDF5FCDEEDFAD4E7F8E2E5E9_254775085);" stroke="191970" /></g><g componentSequence="55"><text x="823" y="965" text-anchor="middle" style="font-weight:bold;font-size:10px;stroke:none; fill:#333399"><tspan dy="14" x="823">Confirmar</tspan><tspan dy="14" x="823">recebimento do</tspan><tspan dy="14" x="823">material</tspan></text></g><g sequence="56"><polygon points=" 590 970 620 940 650 970 620 1000 590 970" style="fill:url(#linearGradientFAFBFCFFFFCC_2029302078);" stroke="000000" /></g><g componentSequence="56"><text x="620" y="1010" text-anchor="middle" style="font-weight:bold;font-size:10px;stroke:none; fill:#333399"><tspan dy="14" x="620">Devoluç</tspan><tspan dy="14" x="620">ão OK?</tspan></text></g><g sequence="58"><rect x="770" y="719" width="106" height="67" ry="5" rx="5" style="fill:url(#linearGradientF8FBFEEDF5FCDEEDFAD4E7F8E2E5E9_1816683079);" stroke="191970" /></g><g componentSequence="58"><text x="823" y="741" text-anchor="middle" style="font-weight:bold;font-size:10px;stroke:none; fill:#333399"><tspan dy="14" x="823">Acerto de crédito</tspan></text></g><g sequence="74"><polygon points=" 630 589 660 559 690 589 660 619 630 589" style="fill:url(#linearGradientFAFBFCFFFFCC_1065571787);" stroke="000000" /></g><g componentSequence="74"><text x="660" y="629" text-anchor="middle" style="font-weight:bold;font-size:10px;stroke:none; fill:#333399"><tspan dy="14" x="660">Possuí</tspan><tspan dy="14" x="660">coleta?</tspan></text></g><g sequence="76"><rect x="300" y="582" width="106" height="54" ry="5" rx="5" style="fill:url(#linearGradientF8FBFEEDF5FCDEEDFAD4E7F8E2E5E9_1277621233);" stroke="191970" /></g><g componentSequence="76"><text x="353" y="598" text-anchor="middle" style="font-weight:bold;font-size:10px;stroke:none; fill:#333399"><tspan dy="14" x="353">Criar roteiro</tspan></text></g><g sequence="100"><polygon points=" 740 40 770 10 800 40 770 70 740 40" style="fill:url(#linearGradientFAFBFCFFFFCC_294045194);" stroke="000000" /></g><g componentSequence="100"><text x="770" y="80" text-anchor="middle" style="font-weight:bold;font-size:10px;stroke:none; fill:#333399"><tspan dy="14" x="770">Cliente</tspan><tspan dy="14" x="770">Balcão?</tspan></text></g><g sequence="108"><polygon points=" 333 987 363 957 393 987 363 1017 333 987" style="fill:url(#linearGradientFAFBFCFFFFCC_1047778343);" stroke="000000" /></g><g componentSequence="108"><text x="363" y="1027" text-anchor="middle" style="font-weight:bold;font-size:10px;stroke:none; fill:#333399"><tspan dy="14" x="363">Recebim</tspan><tspan dy="14" x="363">ento Ok?</tspan></text></g><g sequence="110"><ellipse cx="357" cy="877" rx="17" ry="17" stroke-width="3" style="fill:url(#linearGradientFF6666FF9696FFB6B6_469496623);" stroke="993333" /></g><g sequence="114"><ellipse cx="517" cy="987" rx="17" ry="17" stroke-width="3" style="fill:url(#linearGradientFF6666FF9696FFB6B6_1614357210);" stroke="993333" /></g><g sequence="116"><rect x="190" y="242" width="106" height="54" ry="5" rx="5" style="fill:url(#linearGradientF8FBFEEDF5FCDEEDFAD4E7F8E2E5E9_1193811521);" stroke="191970" /></g><g componentSequence="116"><text x="243" y="258" text-anchor="middle" style="font-weight:bold;font-size:10px;stroke:none; fill:#333399"><tspan dy="14" x="243">Compras</tspan></text></g><g sequence="120"><polygon points=" 360 250 390 220 420 250 390 280 360 250" style="fill:url(#linearGradientFAFBFCFFFFCC_1733961839);" stroke="000000" /></g><g componentSequence="120"><text x="390" y="290" text-anchor="middle" style="font-weight:bold;font-size:10px;stroke:none; fill:#333399"><tspan dy="14" x="390">Produtos</tspan><tspan dy="14" x="390">possu...</tspan></text></g><g sequence="123"><ellipse cx="387" cy="367" rx="17" ry="17" stroke-width="3" style="fill:url(#linearGradientFF6666FF9696FFB6B6_595385632);" stroke="993333" /></g><g componentSequence="33"><text x="500" y="779" style="font-size:10px;font-weight:none;stroke:none; fill:#333399" text-anchor="left"><tspan dy="14" x="500">Balcão</tspan></text></g><g componentSequence="67"><text x="903" y="753" style="font-size:10px;font-weight:none;stroke:none; fill:#333399" text-anchor="left" /></g><g componentSequence="70"><text x="923" y="923" style="font-size:10px;font-weight:none;stroke:none; fill:#333399" text-anchor="left" /></g><g componentSequence="71"><text x="832" y="808" style="font-size:10px;font-weight:none;stroke:none; fill:#333399" text-anchor="left"><tspan dy="14" x="832">Outro</tspan></text></g><g componentSequence="72"><text x="720" y="989" style="font-size:10px;font-weight:none;stroke:none; fill:#333399" text-anchor="left"><tspan dy="14" x="720">Sim</tspan></text></g><g componentSequence="85"><text x="631" y="1079" style="font-size:10px;font-weight:none;stroke:none; fill:#333399" text-anchor="left" /></g><g componentSequence="87"><text x="333" y="806" style="font-size:10px;font-weight:none;stroke:none; fill:#333399" text-anchor="left" /></g><g componentSequence="95"><text x="589" y="619" style="font-size:10px;font-weight:none;stroke:none; fill:#333399" text-anchor="left"><tspan dy="14" x="589">Sim</tspan></text></g><g componentSequence="96"><text x="410" y="429" style="font-size:10px;font-weight:none;stroke:none; fill:#333399" text-anchor="left"><tspan dy="14" x="410">Balcão</tspan></text></g><g componentSequence="97"><text x="510" y="139" style="font-size:10px;font-weight:none;stroke:none; fill:#333399" text-anchor="left"><tspan dy="14" x="510">Outro</tspan></text></g><g componentSequence="99"><text x="670" y="476" style="font-size:10px;font-weight:none;stroke:none; fill:#333399" text-anchor="left" /></g><g componentSequence="101"><text x="780" y="399" style="font-size:10px;font-weight:none;stroke:none; fill:#333399" text-anchor="left"><tspan dy="14" x="780">Não</tspan></text></g><g componentSequence="102"><text x="110" y="70" style="font-size:10px;font-weight:none;stroke:none; fill:#333399" text-anchor="left"><tspan dy="14" x="110">Outro</tspan></text></g><g componentSequence="103"><text x="830" y="80" style="font-size:10px;font-weight:none;stroke:none; fill:#333399" text-anchor="left"><tspan dy="14" x="830">Balcão</tspan></text></g><g componentSequence="109"><text x="314" y="1005" style="font-size:10px;font-weight:none;stroke:none; fill:#333399" text-anchor="left" /></g><g componentSequence="111"><text x="369" y="926" style="font-size:10px;font-weight:none;stroke:none; fill:#333399" text-anchor="left"><tspan dy="14" x="369">Não</tspan></text></g><g componentSequence="112"><text x="373" y="1088" style="font-size:10px;font-weight:none;stroke:none; fill:#333399" text-anchor="left"><tspan dy="14" x="373">Sim</tspan></text></g><g componentSequence="113"><text x="503" y="1153" style="font-size:10px;font-weight:none;stroke:none; fill:#333399" text-anchor="left" /></g><g componentSequence="115"><text x="572" y="988" style="font-size:10px;font-weight:none;stroke:none; fill:#333399" text-anchor="left" /></g><g componentSequence="117"><text x="252" y="203" style="font-size:10px;font-weight:none;stroke:none; fill:#333399" text-anchor="left" /></g><g componentSequence="121"><text x="338" y="269" style="font-size:10px;font-weight:none;stroke:none; fill:#333399" text-anchor="left" /></g><g componentSequence="122"><text x="399" y="159" style="font-size:10px;font-weight:none;stroke:none; fill:#333399" text-anchor="left" /></g><g componentSequence="124"><text x="398" y="334" style="font-size:10px;font-weight:none;stroke:none; fill:#333399" text-anchor="left" /></g><path style="fill:none; stroke:#000000;stroke-width:1" d="M242.0 163.0 L242.0 241.0" /><polygon style="fill:#000000; stroke:#000000;" points=" 247 231 242 241 237 231 242 233" /><path style="fill:none; stroke:#000000;stroke-width:1" d="M449.0 179.0 L449.0 452.0 L222.0 452.0 L222.0 674.0 L222.0 963.0" /><polygon style="fill:#000000; stroke:#000000;" points=" 227 953 222 963 217 953 222 955" /><path style="fill:none; stroke:#000000;stroke-width:1" d="M480.0 130.0 L543.0 131.0 L543.0 429.0" /><polygon style="fill:#000000; stroke:#000000;" points=" 548 419 543 429 538 419 543 421" /><path style="fill:none; stroke:#000000;stroke-width:1" d="M389.0 219.0 L389.0 128.0 L419.0 128.0" /><polygon style="fill:#000000; stroke:#000000;" points=" 409 123 419 128 409 133 411 128" /><path style="fill:none; stroke:#000000;stroke-width:1" d="M276.0 1004.0 L332.0 1006.0" /><polygon style="fill:#000000; stroke:#000000;" points=" 322 1001 332 1006 322 1011 324 1006" /><path style="fill:none; stroke:#000000;stroke-width:1" d="M352.0 636.0 L352.0 750.0 L243.0 963.0" /><polygon style="fill:#000000; stroke:#000000;" points=" 252 956 243 963 243 952 247 956" /><path style="fill:none; stroke:#000000;stroke-width:1" d="M739.0 59.0 L96.0 60.0 L96.0 1005.0 L169.0 1004.0" /><polygon style="fill:#000000; stroke:#000000;" points=" 159 999 169 1004 159 1009 161 1004" /><path style="fill:none; stroke:#000000;stroke-width:1" d="M789.0 879.0 L612.0 880.0 L589.0 880.0 L543.0 880.0 L543.0 484.0" /><polygon style="fill:#000000; stroke:#000000;" points=" 538 494 543 484 548 494 543 492" /><path style="fill:none; stroke:#000000;stroke-width:1" d="M821.0 829.0 L822.0 786.0" /><polygon style="fill:#000000; stroke:#000000;" points=" 817 796 822 786 827 796 822 794" /><path style="fill:none; stroke:#000000;stroke-width:1" d="M876.0 991.0 L913.0 992.0 L913.0 880.0 L850.0 879.0" /><polygon style="fill:#000000; stroke:#000000;" points=" 860 884 850 879 860 874 858 879" /><path style="fill:none; stroke:#000000;stroke-width:1" d="M596.0 457.0 L660.0 458.0 L660.0 558.0" /><polygon style="fill:#000000; stroke:#000000;" points=" 665 548 660 558 655 548 660 550" /><path style="fill:none; stroke:#000000;stroke-width:1" d="M876.0 753.0 L910.0 753.0" /><polygon style="fill:#000000; stroke:#000000;" points=" 900 748 910 753 900 758 902 753" /><path style="fill:none; stroke:#000000;stroke-width:1" d="M622.0 1119.0 L621.0 1039.0" /><polygon style="fill:#000000; stroke:#000000;" points=" 616 1049 621 1039 626 1049 621 1047" /><path style="fill:none; stroke:#000000;stroke-width:1" d="M416.0 1153.0 L569.0 1153.0" /><polygon style="fill:#000000; stroke:#000000;" points=" 559 1148 569 1153 559 1158 561 1153" /><path style="fill:none; stroke:#000000;stroke-width:1" d="M363.0 1056.0 L363.0 1119.0" /><polygon style="fill:#000000; stroke:#000000;" points=" 368 1109 363 1119 358 1109 363 1111" /><path style="fill:none; stroke:#000000;stroke-width:1" d="M650.0 989.0 L769.0 989.0" /><polygon style="fill:#000000; stroke:#000000;" points=" 759 984 769 989 759 994 761 989" /><path style="fill:none; stroke:#000000;stroke-width:1" d="M589.0 988.0 L534.0 987.0" /><polygon style="fill:#000000; stroke:#000000;" points=" 544 992 534 987 544 982 542 987" /><path style="fill:none; stroke:#000000;stroke-width:1" d="M800.0 60.0 L823.0 60.0 L823.0 718.0" /><polygon style="fill:#000000; stroke:#000000;" points=" 828 708 823 718 818 708 823 710" /><path style="fill:none; stroke:#000000;stroke-width:1" d="M629.0 608.0 L450.0 610.0 L406.0 609.0" /><polygon style="fill:#000000; stroke:#000000;" points=" 416 614 406 609 416 604 414 609" /><path style="fill:none; stroke:#000000;stroke-width:1" d="M690.0 608.0 L770.0 609.0 L770.0 109.0" /><polygon style="fill:#000000; stroke:#000000;" points=" 765 119 770 109 775 119 770 117" /><path style="fill:none; stroke:#000000;stroke-width:1" d="M360.0 956.0 L357.0 894.0" /><polygon style="fill:#000000; stroke:#000000;" points=" 352 904 357 894 362 904 357 902" /><path style="fill:none; stroke:#000000;stroke-width:1" d="M296.0 269.0 L359.0 269.0" /><polygon style="fill:#000000; stroke:#000000;" points=" 349 264 359 269 349 274 351 269" /><path style="fill:none; stroke:#000000;stroke-width:1" d="M388.0 319.0 L387.0 350.0" /><polygon style="fill:#000000; stroke:#000000;" points=" 392 340 387 350 382 340 387 342" /><defs><linearGradient xmlns:xlink="http://www.w3.org/1999/xlink" xlink:href="#linearGradient66FF6696FF96B6FFB6" id="linearGradient66FF6696FF96B6FFB6_337118000" x1="0" y1="129.0" x2="0" y2="164.0" gradientUnits="userSpaceOnUse" xlink:type="simple" xlink:actuate="onLoad" xlink:show="other" /><linearGradient id="linearGradient66FF6696FF96B6FFB6"><stop style="stop-color:#66FF66;stop-opacity:1;" offset="0.0" id="stop66FF66" /><stop style="stop-color:#96FF96;stop-opacity:1;" offset="0.5" id="stop96FF96" /><stop style="stop-color:#B6FFB6;stop-opacity:1;" offset="1.0" id="stopB6FFB6" /></linearGradient><linearGradient xmlns:xlink="http://www.w3.org/1999/xlink" xlink:href="#linearGradientFAFBFCFFFFCC" id="linearGradientFAFBFCFFFFCC_450887619" x1="0" y1="80.0" x2="0" y2="140.0" gradientUnits="userSpaceOnUse" xlink:type="simple" xlink:actuate="onLoad" xlink:show="other" /><linearGradient id="linearGradientFAFBFCFFFFCC"><stop style="stop-color:#FAFBFC;stop-opacity:1;" offset="0.0" id="stopFAFBFC" /><stop style="stop-color:#FFFFCC;stop-opacity:1;" offset="1.0" id="stopFFFFCC" /></linearGradient><linearGradient xmlns:xlink="http://www.w3.org/1999/xlink" xlink:href="#linearGradientF8FBFEEDF5FCDEEDFAD4E7F8E2E5E9" id="linearGradientF8FBFEEDF5FCDEEDFAD4E7F8E2E5E9_518023232" x1="0" y1="964.0" x2="0" y2="1070.0" gradientUnits="userSpaceOnUse" xlink:type="simple" xlink:actuate="onLoad" xlink:show="other" /><linearGradient id="linearGradientF8FBFEEDF5FCDEEDFAD4E7F8E2E5E9"><stop style="stop-color:#F8FBFE;stop-opacity:1;" offset="0.0" id="stopF8FBFE" /><stop style="stop-color:#EDF5FC;stop-opacity:1;" offset="0.25" id="stopEDF5FC" /><stop style="stop-color:#DEEDFA;stop-opacity:1;" offset="0.5" id="stopDEEDFA" /><stop style="stop-color:#D4E7F8;stop-opacity:1;" offset="0.75" id="stopD4E7F8" /><stop style="stop-color:#E2E5E9;stop-opacity:1;" offset="1.0" id="stopE2E5E9" /></linearGradient><linearGradient xmlns:xlink="http://www.w3.org/1999/xlink" xlink:href="#linearGradientFAFBFCFFFFCC" id="linearGradientFAFBFCFFFFCC_1541600760" x1="0" y1="830.0" x2="0" y2="890.0" gradientUnits="userSpaceOnUse" xlink:type="simple" xlink:actuate="onLoad" xlink:show="other" /><linearGradient xmlns:xlink="http://www.w3.org/1999/xlink" xlink:href="#linearGradientF8FBFEEDF5FCDEEDFAD4E7F8E2E5E9" id="linearGradientF8FBFEEDF5FCDEEDFAD4E7F8E2E5E9_255290423" x1="0" y1="430.0" x2="0" y2="536.0" gradientUnits="userSpaceOnUse" xlink:type="simple" xlink:actuate="onLoad" xlink:show="other" /><linearGradient xmlns:xlink="http://www.w3.org/1999/xlink" xlink:href="#linearGradientFF6666FF9696FFB6B6" id="linearGradientFF6666FF9696FFB6B6_1785965557" x1="0" y1="736.0" x2="0" y2="771.0" gradientUnits="userSpaceOnUse" xlink:type="simple" xlink:actuate="onLoad" xlink:show="other" /><linearGradient id="linearGradientFF6666FF9696FFB6B6"><stop style="stop-color:#FF6666;stop-opacity:1;" offset="0.0" id="stopFF6666" /><stop style="stop-color:#FF9696;stop-opacity:1;" offset="0.5" id="stopFF9696" /><stop style="stop-color:#FFB6B6;stop-opacity:1;" offset="1.0" id="stopFFB6B6" /></linearGradient><linearGradient xmlns:xlink="http://www.w3.org/1999/xlink" xlink:href="#linearGradientF8FBFEEDF5FCDEEDFAD4E7F8E2E5E9" id="linearGradientF8FBFEEDF5FCDEEDFAD4E7F8E2E5E9_2001497235" x1="0" y1="1120.0" x2="0" y2="1226.0" gradientUnits="userSpaceOnUse" xlink:type="simple" xlink:actuate="onLoad" xlink:show="other" /><linearGradient xmlns:xlink="http://www.w3.org/1999/xlink" xlink:href="#linearGradientF8FBFEEDF5FCDEEDFAD4E7F8E2E5E9" id="linearGradientF8FBFEEDF5FCDEEDFAD4E7F8E2E5E9_1003293367" x1="0" y1="1120.0" x2="0" y2="1226.0" gradientUnits="userSpaceOnUse" xlink:type="simple" xlink:actuate="onLoad" xlink:show="other" /><linearGradient xmlns:xlink="http://www.w3.org/1999/xlink" xlink:href="#linearGradientF8FBFEEDF5FCDEEDFAD4E7F8E2E5E9" id="linearGradientF8FBFEEDF5FCDEEDFAD4E7F8E2E5E9_254775085" x1="0" y1="950.0" x2="0" y2="1056.0" gradientUnits="userSpaceOnUse" xlink:type="simple" xlink:actuate="onLoad" xlink:show="other" /><linearGradient xmlns:xlink="http://www.w3.org/1999/xlink" xlink:href="#linearGradientFAFBFCFFFFCC" id="linearGradientFAFBFCFFFFCC_2029302078" x1="0" y1="940.0" x2="0" y2="1000.0" gradientUnits="userSpaceOnUse" xlink:type="simple" xlink:actuate="onLoad" xlink:show="other" /><linearGradient xmlns:xlink="http://www.w3.org/1999/xlink" xlink:href="#linearGradientF8FBFEEDF5FCDEEDFAD4E7F8E2E5E9" id="linearGradientF8FBFEEDF5FCDEEDFAD4E7F8E2E5E9_1816683079" x1="0" y1="719.0" x2="0" y2="825.0" gradientUnits="userSpaceOnUse" xlink:type="simple" xlink:actuate="onLoad" xlink:show="other" /><linearGradient xmlns:xlink="http://www.w3.org/1999/xlink" xlink:href="#linearGradientFAFBFCFFFFCC" id="linearGradientFAFBFCFFFFCC_1065571787" x1="0" y1="559.0" x2="0" y2="619.0" gradientUnits="userSpaceOnUse" xlink:type="simple" xlink:actuate="onLoad" xlink:show="other" /><linearGradient xmlns:xlink="http://www.w3.org/1999/xlink" xlink:href="#linearGradientF8FBFEEDF5FCDEEDFAD4E7F8E2E5E9" id="linearGradientF8FBFEEDF5FCDEEDFAD4E7F8E2E5E9_1277621233" x1="0" y1="582.0" x2="0" y2="688.0" gradientUnits="userSpaceOnUse" xlink:type="simple" xlink:actuate="onLoad" xlink:show="other" /><linearGradient xmlns:xlink="http://www.w3.org/1999/xlink" xlink:href="#linearGradientFAFBFCFFFFCC" id="linearGradientFAFBFCFFFFCC_294045194" x1="0" y1="10.0" x2="0" y2="70.0" gradientUnits="userSpaceOnUse" xlink:type="simple" xlink:actuate="onLoad" xlink:show="other" /><linearGradient xmlns:xlink="http://www.w3.org/1999/xlink" xlink:href="#linearGradientFAFBFCFFFFCC" id="linearGradientFAFBFCFFFFCC_1047778343" x1="0" y1="957.0" x2="0" y2="1017.0" gradientUnits="userSpaceOnUse" xlink:type="simple" xlink:actuate="onLoad" xlink:show="other" /><linearGradient xmlns:xlink="http://www.w3.org/1999/xlink" xlink:href="#linearGradientFF6666FF9696FFB6B6" id="linearGradientFF6666FF9696FFB6B6_469496623" x1="0" y1="860.0" x2="0" y2="895.0" gradientUnits="userSpaceOnUse" xlink:type="simple" xlink:actuate="onLoad" xlink:show="other" /><linearGradient xmlns:xlink="http://www.w3.org/1999/xlink" xlink:href="#linearGradientFF6666FF9696FFB6B6" id="linearGradientFF6666FF9696FFB6B6_1614357210" x1="0" y1="970.0" x2="0" y2="1005.0" gradientUnits="userSpaceOnUse" xlink:type="simple" xlink:actuate="onLoad" xlink:show="other" /><linearGradient xmlns:xlink="http://www.w3.org/1999/xlink" xlink:href="#linearGradientF8FBFEEDF5FCDEEDFAD4E7F8E2E5E9" id="linearGradientF8FBFEEDF5FCDEEDFAD4E7F8E2E5E9_1193811521" x1="0" y1="242.0" x2="0" y2="348.0" gradientUnits="userSpaceOnUse" xlink:type="simple" xlink:actuate="onLoad" xlink:show="other" /><linearGradient xmlns:xlink="http://www.w3.org/1999/xlink" xlink:href="#linearGradientFAFBFCFFFFCC" id="linearGradientFAFBFCFFFFCC_1733961839" x1="0" y1="220.0" x2="0" y2="280.0" gradientUnits="userSpaceOnUse" xlink:type="simple" xlink:actuate="onLoad" xlink:show="other" /><linearGradient xmlns:xlink="http://www.w3.org/1999/xlink" xlink:href="#linearGradientFF6666FF9696FFB6B6" id="linearGradientFF6666FF9696FFB6B6_595385632" x1="0" y1="350.0" x2="0" y2="385.0" gradientUnits="userSpaceOnUse" xlink:type="simple" xlink:actuate="onLoad" xlink:show="other" /></defs></svg>
