<?xml version="1.0" encoding="UTF-8"?>
<svg xmlns="http://www.w3.org/2000/svg" style="stroke-dasharray:none; shape-rendering:auto; font-family:'Arial'; text-rendering:auto; fill-opacity:1; color-interpolation:auto; color-rendering:auto; font-size:12; fill:black; stroke:black; image-rendering:auto; stroke-miterlimit:10; stroke-linecap:square; stroke-linejoin:miter; font-style:normal; stroke-width:1; stroke-dashoffset:0; font-weight:normal; stroke-opacity:1;" contentScriptType="text/ecmascript" preserveAspectRatio="xMidYMid meet" zoomAndPan="magnify" version="1.0" contentStyleType="text/css" xml:xlink="http://www.w3.org/1999/xlink" width="1170" height="533"><rect x="0" y="190" width="771" height="194" ry="0" rx="0" style="stroke:#000000; fill:#ADC9AC" /><g componentSequence="5"><text x="-287" y="7" transform="rotate(270)" text-anchor="middle" style="font-weight:bold;font-size:10px;stroke:none; fill:#434343"><tspan dy="14" x="-287">Saí...</tspan></text></g><rect x="0" y="0" width="771" height="191" ry="0" rx="0" style="stroke:#000000; fill:#96B4C0" /><g componentSequence="3"><text x="-95" y="7" transform="rotate(270)" text-anchor="middle" style="font-weight:bold;font-size:10px;stroke:none; fill:#434343"><tspan dy="14" x="-95">Est...</tspan></text></g><rect x="0" y="383" width="771" height="150" ry="0" rx="0" style="stroke:#000000; fill:#ADC9AC" /><g componentSequence="2"><text x="-458" y="7" transform="rotate(270)" text-anchor="middle" style="font-weight:bold;font-size:10px;stroke:none; fill:#434343"><tspan dy="14" x="-458">Via...</tspan></text></g><rect x="770" y="0" width="400" height="533" ry="0" rx="0" style="stroke:#000000; fill:#D0DAAE" /><g componentSequence="1"><text x="-266" y="777" transform="rotate(270)" text-anchor="middle" style="font-weight:bold;font-size:10px;stroke:none; fill:#434343"><tspan dy="14" x="-266">Controladoria</tspan></text></g><g sequence="7"><rect x="950" y="250" width="106" height="70" ry="5" rx="5" style="fill:url(#linearGradientF8FBFEEDF5FCDEEDFAD4E7F8E2E5E9_1751320332);" stroke="191970" /></g><g componentSequence="7"><text x="1003" y="265" text-anchor="middle" style="font-weight:bold;font-size:10px;stroke:none; fill:#333399"><tspan dy="14" x="1003">Confere do</tspan><tspan dy="14" x="1003">Adriano</tspan></text></g><g sequence="8"><polygon points=" 820 270 850 240 880 270 850 300 820 270" style="fill:url(#linearGradientFAFBFCFFFFCC_1722082416);" stroke="000000" /></g><path style="fill:none; stroke-width:6; stroke:#000000;" d="M840.0 270.0 L860.0 270.0" /><path style="fill:none; stroke-width:6; stroke:#000000;" d="M850.0 260.0 L850.0 280.0" /><g componentSequence="8"><text x="850" y="303" text-anchor="middle" style="font-weight:bold;font-size:10px;stroke:none; fill:#333399"><tspan dy="14" x="850">Join</tspan></text></g><g sequence="14"><polygon points=" 170 84 200 54 230 84 200 114 170 84" style="fill:url(#linearGradientFAFBFCFFFFCC_1654353020);" stroke="000000" /></g><path style="fill:none; stroke-width:6; stroke:#000000;" d="M190.0 84.0 L210.0 84.0" /><path style="fill:none; stroke-width:6; stroke:#000000;" d="M200.0 74.0 L200.0 94.0" /><g componentSequence="14"><text x="200" y="117" text-anchor="middle" style="font-weight:bold;font-size:10px;stroke:none; fill:#333399"><tspan dy="14" x="200">Fork</tspan></text></g><g sequence="15"><rect x="300" y="243" width="106" height="84" ry="5" rx="5" style="fill:url(#linearGradientF8FBFEEDF5FCDEEDFAD4E7F8E2E5E9_664399435);" stroke="191970" /></g><g componentSequence="15"><text x="353" y="258" text-anchor="middle" style="font-weight:bold;font-size:10px;stroke:none; fill:#333399"><tspan dy="14" x="353">Revisar pedidos</tspan><tspan dy="14" x="353">parados +72h</tspan></text></g><g sequence="21"><rect x="450" y="243" width="106" height="84" ry="5" rx="5" style="fill:url(#linearGradientF8FBFEEDF5FCDEEDFAD4E7F8E2E5E9_1462949587);" stroke="191970" /></g><g componentSequence="21"><text x="503" y="258" text-anchor="middle" style="font-weight:bold;font-size:10px;stroke:none; fill:#333399"><tspan dy="14" x="503">Check list</tspan><tspan dy="14" x="503">carrinhos de</tspan><tspan dy="14" x="503">operação</tspan></text></g><g sequence="24"><rect x="420" y="56" width="106" height="84" ry="5" rx="5" style="fill:url(#linearGradientF8FBFEEDF5FCDEEDFAD4E7F8E2E5E9_385101601);" stroke="191970" /></g><g componentSequence="24"><text x="473" y="71" text-anchor="middle" style="font-weight:bold;font-size:10px;stroke:none; fill:#333399"><tspan dy="14" x="473">Revisar itens</tspan><tspan dy="14" x="473">bloqueados + 1</tspan><tspan dy="14" x="473">semana</tspan></text></g><g sequence="25"><ellipse cx="97" cy="97" rx="17" ry="17" stroke-width="1" style="fill:url(#linearGradient66FF6696FF96B6FFB6_800409871);" stroke="336633" /></g><g sequence="25"><ellipse cx="97" cy="97" rx="12" ry="12" stroke-width="1" style="stroke:#000000; fill:none" /></g><g sequence="25"><path style="fill:none; stroke-width:1; stroke:#000000;" d="M86.0 97.0 L92.0 97.0" /></g><g sequence="25"><path style="fill:none; stroke-width:1; stroke:#000000;" d="M103.0 97.0 L109.0 97.0" /></g><g sequence="25"><path style="fill:none; stroke-width:1; stroke:#000000;" d="M97.0 86.0 L97.0 92.0" /></g><g sequence="25"><path style="fill:none; stroke-width:1; stroke:#000000;" d="M97.0 103.0 L97.0 109.0" /></g><g sequence="25"><ellipse cx="97" cy="97" rx="1" ry="1" stroke-width="1" style="stroke:#000000; fill:#000000" /></g><g sequence="25"><path style="fill:none; stroke-width:1; stroke:#000000;" d="M97.0 97.0 L105.0 92.0" /></g><g sequence="25"><path style="fill:none; stroke-width:1; stroke:#000000;" d="M97.0 97.0 L91.0 93.0" /></g><g sequence="25"><path style="fill:none; stroke-width:1; stroke:#000000;" d="M101.0 90.0 L103.0 87.0" /></g><g sequence="25"><path style="fill:none; stroke-width:1; stroke:#000000;" d="M104.0 93.0 L107.0 91.0" /></g><g sequence="25"><path style="fill:none; stroke-width:1; stroke:#000000;" d="M104.0 101.0 L107.0 103.0" /></g><g sequence="25"><path style="fill:none; stroke-width:1; stroke:#000000;" d="M101.0 104.0 L103.0 107.0" /></g><g sequence="25"><path style="fill:none; stroke-width:1; stroke:#000000;" d="M93.0 104.0 L91.0 107.0" /></g><g sequence="25"><path style="fill:none; stroke-width:1; stroke:#000000;" d="M90.0 101.0 L87.0 103.0" /></g><g sequence="25"><path style="fill:none; stroke-width:1; stroke:#000000;" d="M93.0 90.0 L91.0 87.0" /></g><g sequence="25"><path style="fill:none; stroke-width:1; stroke:#000000;" d="M90.0 93.0 L87.0 91.0" /></g><g sequence="26"><ellipse cx="1127" cy="287" rx="17" ry="17" stroke-width="3" style="fill:url(#linearGradientFF6666FF9696FFB6B6_1203114244);" stroke="993333" /></g><g sequence="28"><rect x="150" y="425" width="106" height="84" ry="5" rx="5" style="fill:url(#linearGradientF8FBFEEDF5FCDEEDFAD4E7F8E2E5E9_108249967);" stroke="191970" /></g><g componentSequence="28"><text x="203" y="440" text-anchor="middle" style="font-weight:bold;font-size:10px;stroke:none; fill:#333399"><tspan dy="14" x="203">Percentual de</tspan><tspan dy="14" x="203">fretes por</tspan><tspan dy="14" x="203">transportadora</tspan></text></g><g componentSequence="32"><text x="1093" y="287" style="font-size:10px;font-weight:none;stroke:none; fill:#333399" text-anchor="left" /></g><g componentSequence="33"><text x="925" y="284" style="font-size:10px;font-weight:none;stroke:none; fill:#333399" text-anchor="left" /></g><g componentSequence="40"><text x="335" y="98" style="font-size:10px;font-weight:none;stroke:none; fill:#333399" text-anchor="left" /></g><g componentSequence="41"><text x="284" y="189" style="font-size:10px;font-weight:none;stroke:none; fill:#333399" text-anchor="left" /></g><g componentSequence="44"><text x="211" y="283" style="font-size:10px;font-weight:none;stroke:none; fill:#333399" text-anchor="left" /></g><g componentSequence="45"><text x="438" y="285" style="font-size:10px;font-weight:none;stroke:none; fill:#333399" text-anchor="left" /></g><g componentSequence="55"><text x="152" y="97" style="font-size:10px;font-weight:none;stroke:none; fill:#333399" text-anchor="left" /></g><g componentSequence="56"><text x="769" y="97" style="font-size:10px;font-weight:none;stroke:none; fill:#333399" text-anchor="left" /></g><g componentSequence="57"><text x="698" y="284" style="font-size:10px;font-weight:none;stroke:none; fill:#333399" text-anchor="left" /></g><g componentSequence="58"><text x="632" y="466" style="font-size:10px;font-weight:none;stroke:none; fill:#333399" text-anchor="left" /></g><path style="fill:none; stroke:#000000;stroke-width:1" d="M1056.0 286.0 L1110.0 287.0" /><polygon style="fill:#000000; stroke:#000000;" points=" 1100 282 1110 287 1100 292 1102 287" /><path style="fill:none; stroke:#000000;stroke-width:1" d="M880.0 284.0 L949.0 284.0" /><polygon style="fill:#000000; stroke:#000000;" points=" 939 279 949 284 939 289 941 284" /><path style="fill:none; stroke:#000000;stroke-width:1" d="M526.0 97.0 L849.0 97.0 L849.0 239.0" /><polygon style="fill:#000000; stroke:#000000;" points=" 854 229 849 239 844 229 849 231" /><path style="fill:none; stroke:#000000;stroke-width:1" d="M556.0 284.0 L819.0 284.0" /><polygon style="fill:#000000; stroke:#000000;" points=" 809 279 819 284 809 289 811 284" /><path style="fill:none; stroke:#000000;stroke-width:1" d="M256.0 466.0 L850.0 466.0 L850.0 328.0" /><polygon style="fill:#000000; stroke:#000000;" points=" 845 338 850 328 855 338 850 336" /><path style="fill:none; stroke:#000000;stroke-width:1" d="M230.0 98.0 L419.0 98.0" /><polygon style="fill:#000000; stroke:#000000;" points=" 409 93 419 98 409 103 411 98" /><path style="fill:none; stroke:#000000;stroke-width:1" d="M230.0 135.0 L318.0 242.0" /><polygon style="fill:#000000; stroke:#000000;" points=" 316 231 318 242 308 237 313 236" /><path style="fill:none; stroke:#000000;stroke-width:1" d="M200.0 142.0 L202.0 424.0" /><polygon style="fill:#000000; stroke:#000000;" points=" 207 414 202 424 197 414 202 416" /><path style="fill:none; stroke:#000000;stroke-width:1" d="M114.0 97.0 L169.0 97.0" /><polygon style="fill:#000000; stroke:#000000;" points=" 159 92 169 97 159 102 161 97" /><path style="fill:none; stroke:#000000;stroke-width:1" d="M406.0 285.0 L449.0 285.0" /><polygon style="fill:#000000; stroke:#000000;" points=" 439 280 449 285 439 290 441 285" /><defs><linearGradient xmlns:xlink="http://www.w3.org/1999/xlink" xlink:href="#linearGradientF8FBFEEDF5FCDEEDFAD4E7F8E2E5E9" id="linearGradientF8FBFEEDF5FCDEEDFAD4E7F8E2E5E9_1751320332" x1="0" y1="250.0" x2="0" y2="356.0" gradientUnits="userSpaceOnUse" xlink:type="simple" xlink:actuate="onLoad" xlink:show="other" /><linearGradient id="linearGradientF8FBFEEDF5FCDEEDFAD4E7F8E2E5E9"><stop style="stop-color:#F8FBFE;stop-opacity:1;" offset="0.0" id="stopF8FBFE" /><stop style="stop-color:#EDF5FC;stop-opacity:1;" offset="0.25" id="stopEDF5FC" /><stop style="stop-color:#DEEDFA;stop-opacity:1;" offset="0.5" id="stopDEEDFA" /><stop style="stop-color:#D4E7F8;stop-opacity:1;" offset="0.75" id="stopD4E7F8" /><stop style="stop-color:#E2E5E9;stop-opacity:1;" offset="1.0" id="stopE2E5E9" /></linearGradient><linearGradient xmlns:xlink="http://www.w3.org/1999/xlink" xlink:href="#linearGradientFAFBFCFFFFCC" id="linearGradientFAFBFCFFFFCC_1722082416" x1="0" y1="240.0" x2="0" y2="300.0" gradientUnits="userSpaceOnUse" xlink:type="simple" xlink:actuate="onLoad" xlink:show="other" /><linearGradient id="linearGradientFAFBFCFFFFCC"><stop style="stop-color:#FAFBFC;stop-opacity:1;" offset="0.0" id="stopFAFBFC" /><stop style="stop-color:#FFFFCC;stop-opacity:1;" offset="1.0" id="stopFFFFCC" /></linearGradient><linearGradient xmlns:xlink="http://www.w3.org/1999/xlink" xlink:href="#linearGradientFAFBFCFFFFCC" id="linearGradientFAFBFCFFFFCC_1654353020" x1="0" y1="54.0" x2="0" y2="114.0" gradientUnits="userSpaceOnUse" xlink:type="simple" xlink:actuate="onLoad" xlink:show="other" /><linearGradient xmlns:xlink="http://www.w3.org/1999/xlink" xlink:href="#linearGradientF8FBFEEDF5FCDEEDFAD4E7F8E2E5E9" id="linearGradientF8FBFEEDF5FCDEEDFAD4E7F8E2E5E9_664399435" x1="0" y1="243.0" x2="0" y2="349.0" gradientUnits="userSpaceOnUse" xlink:type="simple" xlink:actuate="onLoad" xlink:show="other" /><linearGradient xmlns:xlink="http://www.w3.org/1999/xlink" xlink:href="#linearGradientF8FBFEEDF5FCDEEDFAD4E7F8E2E5E9" id="linearGradientF8FBFEEDF5FCDEEDFAD4E7F8E2E5E9_1462949587" x1="0" y1="243.0" x2="0" y2="349.0" gradientUnits="userSpaceOnUse" xlink:type="simple" xlink:actuate="onLoad" xlink:show="other" /><linearGradient xmlns:xlink="http://www.w3.org/1999/xlink" xlink:href="#linearGradientF8FBFEEDF5FCDEEDFAD4E7F8E2E5E9" id="linearGradientF8FBFEEDF5FCDEEDFAD4E7F8E2E5E9_385101601" x1="0" y1="56.0" x2="0" y2="162.0" gradientUnits="userSpaceOnUse" xlink:type="simple" xlink:actuate="onLoad" xlink:show="other" /><linearGradient xmlns:xlink="http://www.w3.org/1999/xlink" xlink:href="#linearGradient66FF6696FF96B6FFB6" id="linearGradient66FF6696FF96B6FFB6_800409871" x1="0" y1="80.0" x2="0" y2="115.0" gradientUnits="userSpaceOnUse" xlink:type="simple" xlink:actuate="onLoad" xlink:show="other" /><linearGradient id="linearGradient66FF6696FF96B6FFB6"><stop style="stop-color:#66FF66;stop-opacity:1;" offset="0.0" id="stop66FF66" /><stop style="stop-color:#96FF96;stop-opacity:1;" offset="0.5" id="stop96FF96" /><stop style="stop-color:#B6FFB6;stop-opacity:1;" offset="1.0" id="stopB6FFB6" /></linearGradient><linearGradient xmlns:xlink="http://www.w3.org/1999/xlink" xlink:href="#linearGradientFF6666FF9696FFB6B6" id="linearGradientFF6666FF9696FFB6B6_1203114244" x1="0" y1="270.0" x2="0" y2="305.0" gradientUnits="userSpaceOnUse" xlink:type="simple" xlink:actuate="onLoad" xlink:show="other" /><linearGradient id="linearGradientFF6666FF9696FFB6B6"><stop style="stop-color:#FF6666;stop-opacity:1;" offset="0.0" id="stopFF6666" /><stop style="stop-color:#FF9696;stop-opacity:1;" offset="0.5" id="stopFF9696" /><stop style="stop-color:#FFB6B6;stop-opacity:1;" offset="1.0" id="stopFFB6B6" /></linearGradient><linearGradient xmlns:xlink="http://www.w3.org/1999/xlink" xlink:href="#linearGradientF8FBFEEDF5FCDEEDFAD4E7F8E2E5E9" id="linearGradientF8FBFEEDF5FCDEEDFAD4E7F8E2E5E9_108249967" x1="0" y1="425.0" x2="0" y2="531.0" gradientUnits="userSpaceOnUse" xlink:type="simple" xlink:actuate="onLoad" xlink:show="other" /></defs></svg>
