<?xml version="1.0" encoding="UTF-8"?>
<svg xmlns="http://www.w3.org/2000/svg" style="stroke-dasharray:none; shape-rendering:auto; font-family:'Arial'; text-rendering:auto; fill-opacity:1; color-interpolation:auto; color-rendering:auto; font-size:12; fill:black; stroke:black; image-rendering:auto; stroke-miterlimit:10; stroke-linecap:square; stroke-linejoin:miter; font-style:normal; stroke-width:1; stroke-dashoffset:0; font-weight:normal; stroke-opacity:1;" contentScriptType="text/ecmascript" preserveAspectRatio="xMidYMid meet" zoomAndPan="magnify" version="1.0" contentStyleType="text/css" xml:xlink="http://www.w3.org/1999/xlink" width="1091" height="309"><rect x="0" y="159" width="1091" height="150" ry="0" rx="0" style="stroke:#000000; fill:#82B0B7" /><g componentSequence="3"><text x="-234" y="7" transform="rotate(270)" text-anchor="middle" style="font-weight:bold;font-size:10px;stroke:none; fill:#434343"><tspan dy="14" x="-234">Financeiro</tspan></text></g><rect x="0" y="10" width="1091" height="150" ry="0" rx="0" style="stroke:#000000; fill:#9FC1C6" /><g componentSequence="1"><text x="-85" y="7" transform="rotate(270)" text-anchor="middle" style="font-weight:bold;font-size:10px;stroke:none; fill:#434343"><tspan dy="14" x="-85">Fretes</tspan></text></g><g sequence="4"><rect x="190" y="52" width="106" height="70" ry="5" rx="5" style="fill:url(#linearGradientF8FBFEEDF5FCDEEDFAD4E7F8E2E5E9_488586120);" stroke="191970" /></g><g componentSequence="4"><text x="243" y="67" text-anchor="middle" style="font-weight:bold;font-size:10px;stroke:none; fill:#333399"><tspan dy="14" x="243">Conferir NF do</tspan><tspan dy="14" x="243">dia anterior</tspan></text></g><g sequence="5"><rect x="430" y="210" width="106" height="70" ry="5" rx="5" style="fill:url(#linearGradientF8FBFEEDF5FCDEEDFAD4E7F8E2E5E9_332977755);" stroke="191970" /></g><g componentSequence="5"><text x="483" y="225" text-anchor="middle" style="font-weight:bold;font-size:10px;stroke:none; fill:#333399"><tspan dy="14" x="483">Recebimento</tspan><tspan dy="14" x="483">das notas</tspan></text></g><g sequence="6"><rect x="445" y="60" width="106" height="56" ry="5" rx="5" style="fill:url(#linearGradientF8FBFEEDF5FCDEEDFAD4E7F8E2E5E9_401035512);" stroke="191970" /></g><g componentSequence="6"><text x="498" y="77" text-anchor="middle" style="font-weight:bold;font-size:10px;stroke:none; fill:#333399"><tspan dy="14" x="498">Gerar GNRE's</tspan></text></g><g sequence="7"><rect x="720" y="59" width="106" height="56" ry="5" rx="5" style="fill:url(#linearGradientF8FBFEEDF5FCDEEDFAD4E7F8E2E5E9_1390795872);" stroke="191970" /></g><g componentSequence="7"><text x="773" y="76" text-anchor="middle" style="font-weight:bold;font-size:10px;stroke:none; fill:#333399"><tspan dy="14" x="773">Lançar CTE's</tspan></text></g><g sequence="8"><polygon points=" 330 73 360 43 390 73 360 103 330 73" style="fill:url(#linearGradientFAFBFCFFFFCC_910323407);" stroke="000000" /></g><path style="fill:none; stroke-width:6; stroke:#000000;" d="M350.0 73.0 L370.0 73.0" /><path style="fill:none; stroke-width:6; stroke:#000000;" d="M360.0 63.0 L360.0 83.0" /><g componentSequence="8"><text x="360" y="106" text-anchor="middle" style="font-weight:bold;font-size:10px;stroke:none; fill:#333399"><tspan dy="14" x="360">.</tspan></text></g><g sequence="12"><polygon points=" 610 73 640 43 670 73 640 103 610 73" style="fill:url(#linearGradientFAFBFCFFFFCC_1677528146);" stroke="000000" /></g><path style="fill:none; stroke-width:6; stroke:#000000;" d="M630.0 73.0 L650.0 73.0" /><path style="fill:none; stroke-width:6; stroke:#000000;" d="M640.0 63.0 L640.0 83.0" /><g componentSequence="12"><text x="640" y="106" text-anchor="middle" style="font-weight:bold;font-size:10px;stroke:none; fill:#333399"><tspan dy="14" x="640">.</tspan></text></g><g sequence="15"><rect x="691" y="169" width="106" height="70" ry="5" rx="5" style="fill:url(#linearGradientF8FBFEEDF5FCDEEDFAD4E7F8E2E5E9_1320214597);" stroke="191970" /></g><g componentSequence="15"><text x="744" y="184" text-anchor="middle" style="font-weight:bold;font-size:10px;stroke:none; fill:#333399"><tspan dy="14" x="744">Recebimento</tspan><tspan dy="14" x="744">GNRE's</tspan></text></g><g sequence="22"><ellipse cx="1017" cy="86" rx="17" ry="17" stroke-width="3" style="fill:url(#linearGradientFF6666FF9696FFB6B6_852108079);" stroke="993333" /></g><g sequence="23"><polygon points=" 880 73 910 43 940 73 910 103 880 73" style="fill:url(#linearGradientFAFBFCFFFFCC_400234415);" stroke="000000" /></g><path style="fill:none; stroke-width:6; stroke:#000000;" d="M900.0 73.0 L920.0 73.0" /><path style="fill:none; stroke-width:6; stroke:#000000;" d="M910.0 63.0 L910.0 83.0" /><g componentSequence="23"><text x="910" y="106" text-anchor="middle" style="font-weight:bold;font-size:10px;stroke:none; fill:#333399"><tspan dy="14" x="910">.</tspan></text></g><g sequence="28"><ellipse cx="117" cy="87" rx="17" ry="17" stroke-width="1" style="fill:url(#linearGradient66FF6696FF96B6FFB6_474941082);" stroke="336633" /></g><g sequence="28"><ellipse cx="117" cy="87" rx="12" ry="12" stroke-width="1" style="stroke:#000000; fill:none" /></g><g sequence="28"><path style="fill:none; stroke-width:1; stroke:#000000;" d="M106.0 87.0 L112.0 87.0" /></g><g sequence="28"><path style="fill:none; stroke-width:1; stroke:#000000;" d="M123.0 87.0 L129.0 87.0" /></g><g sequence="28"><path style="fill:none; stroke-width:1; stroke:#000000;" d="M117.0 76.0 L117.0 82.0" /></g><g sequence="28"><path style="fill:none; stroke-width:1; stroke:#000000;" d="M117.0 93.0 L117.0 99.0" /></g><g sequence="28"><ellipse cx="117" cy="87" rx="1" ry="1" stroke-width="1" style="stroke:#000000; fill:#000000" /></g><g sequence="28"><path style="fill:none; stroke-width:1; stroke:#000000;" d="M117.0 87.0 L125.0 82.0" /></g><g sequence="28"><path style="fill:none; stroke-width:1; stroke:#000000;" d="M117.0 87.0 L111.0 83.0" /></g><g sequence="28"><path style="fill:none; stroke-width:1; stroke:#000000;" d="M121.0 80.0 L123.0 77.0" /></g><g sequence="28"><path style="fill:none; stroke-width:1; stroke:#000000;" d="M124.0 83.0 L127.0 81.0" /></g><g sequence="28"><path style="fill:none; stroke-width:1; stroke:#000000;" d="M124.0 91.0 L127.0 93.0" /></g><g sequence="28"><path style="fill:none; stroke-width:1; stroke:#000000;" d="M121.0 94.0 L123.0 97.0" /></g><g sequence="28"><path style="fill:none; stroke-width:1; stroke:#000000;" d="M113.0 94.0 L111.0 97.0" /></g><g sequence="28"><path style="fill:none; stroke-width:1; stroke:#000000;" d="M110.0 91.0 L107.0 93.0" /></g><g sequence="28"><path style="fill:none; stroke-width:1; stroke:#000000;" d="M113.0 80.0 L111.0 77.0" /></g><g sequence="28"><path style="fill:none; stroke-width:1; stroke:#000000;" d="M110.0 83.0 L107.0 81.0" /></g><g componentSequence="9"><text x="323" y="87" style="font-size:10px;font-weight:none;stroke:none; fill:#333399" text-anchor="left" /></g><g componentSequence="10"><text x="427" y="87" style="font-size:10px;font-weight:none;stroke:none; fill:#333399" text-anchor="left" /></g><g componentSequence="11"><text x="371" y="222" style="font-size:10px;font-weight:none;stroke:none; fill:#333399" text-anchor="left" /></g><g componentSequence="13"><text x="590" y="87" style="font-size:10px;font-weight:none;stroke:none; fill:#333399" text-anchor="left" /></g><g componentSequence="14"><text x="705" y="87" style="font-size:10px;font-weight:none;stroke:none; fill:#333399" text-anchor="left" /></g><g componentSequence="16"><text x="652" y="191" style="font-size:10px;font-weight:none;stroke:none; fill:#333399" text-anchor="left" /></g><g componentSequence="24"><text x="863" y="87" style="font-size:10px;font-weight:none;stroke:none; fill:#333399" text-anchor="left" /></g><g componentSequence="25"><text x="885" y="203" style="font-size:10px;font-weight:none;stroke:none; fill:#333399" text-anchor="left" /></g><g componentSequence="26"><text x="794" y="245" style="font-size:10px;font-weight:none;stroke:none; fill:#333399" text-anchor="left" /></g><g componentSequence="29"><text x="172" y="87" style="font-size:10px;font-weight:none;stroke:none; fill:#333399" text-anchor="left" /></g><g componentSequence="27"><text x="980" y="86" style="font-size:10px;font-weight:none;stroke:none; fill:#333399" text-anchor="left" /></g><path style="fill:none; stroke:#000000;stroke-width:1" d="M296.0 87.0 L329.0 87.0" /><polygon style="fill:#000000; stroke:#000000;" points=" 319 82 329 87 319 92 321 87" /><path style="fill:none; stroke:#000000;stroke-width:1" d="M536.0 245.0 L917.0 245.0 L912.0 131.0" /><polygon style="fill:#000000; stroke:#000000;" points=" 907 141 912 131 917 141 912 139" /><path style="fill:none; stroke:#000000;stroke-width:1" d="M360.0 131.0 L361.0 245.0 L429.0 245.0" /><polygon style="fill:#000000; stroke:#000000;" points=" 419 240 429 245 419 250 421 245" /><path style="fill:none; stroke:#000000;stroke-width:1" d="M551.0 87.0 L609.0 87.0" /><polygon style="fill:#000000; stroke:#000000;" points=" 599 82 609 87 599 92 601 87" /><path style="fill:none; stroke:#000000;stroke-width:1" d="M390.0 87.0 L444.0 87.0" /><polygon style="fill:#000000; stroke:#000000;" points=" 434 82 444 87 434 92 436 87" /><path style="fill:none; stroke:#000000;stroke-width:1" d="M826.0 87.0 L879.0 87.0" /><polygon style="fill:#000000; stroke:#000000;" points=" 869 82 879 87 869 92 871 87" /><path style="fill:none; stroke:#000000;stroke-width:1" d="M670.0 87.0 L719.0 87.0" /><polygon style="fill:#000000; stroke:#000000;" points=" 709 82 719 87 709 92 711 87" /><path style="fill:none; stroke:#000000;stroke-width:1" d="M640.0 131.0 L642.0 204.0 L690.0 204.0" /><polygon style="fill:#000000; stroke:#000000;" points=" 680 199 690 204 680 209 682 204" /><path style="fill:none; stroke:#000000;stroke-width:1" d="M797.0 203.0 L878.0 203.0 L897.0 131.0" /><polygon style="fill:#000000; stroke:#000000;" points=" 890 139 897 131 899 142 895 139" /><path style="fill:none; stroke:#000000;stroke-width:1" d="M940.0 86.0 L1000.0 86.0" /><polygon style="fill:#000000; stroke:#000000;" points=" 990 81 1000 86 990 91 992 86" /><path style="fill:none; stroke:#000000;stroke-width:1" d="M135.0 87.0 L189.0 87.0" /><polygon style="fill:#000000; stroke:#000000;" points=" 179 82 189 87 179 92 181 87" /><defs><linearGradient xmlns:xlink="http://www.w3.org/1999/xlink" xlink:href="#linearGradientF8FBFEEDF5FCDEEDFAD4E7F8E2E5E9" id="linearGradientF8FBFEEDF5FCDEEDFAD4E7F8E2E5E9_488586120" x1="0" y1="52.0" x2="0" y2="158.0" gradientUnits="userSpaceOnUse" xlink:type="simple" xlink:actuate="onLoad" xlink:show="other" /><linearGradient id="linearGradientF8FBFEEDF5FCDEEDFAD4E7F8E2E5E9"><stop style="stop-color:#F8FBFE;stop-opacity:1;" offset="0.0" id="stopF8FBFE" /><stop style="stop-color:#EDF5FC;stop-opacity:1;" offset="0.25" id="stopEDF5FC" /><stop style="stop-color:#DEEDFA;stop-opacity:1;" offset="0.5" id="stopDEEDFA" /><stop style="stop-color:#D4E7F8;stop-opacity:1;" offset="0.75" id="stopD4E7F8" /><stop style="stop-color:#E2E5E9;stop-opacity:1;" offset="1.0" id="stopE2E5E9" /></linearGradient><linearGradient xmlns:xlink="http://www.w3.org/1999/xlink" xlink:href="#linearGradientF8FBFEEDF5FCDEEDFAD4E7F8E2E5E9" id="linearGradientF8FBFEEDF5FCDEEDFAD4E7F8E2E5E9_332977755" x1="0" y1="210.0" x2="0" y2="316.0" gradientUnits="userSpaceOnUse" xlink:type="simple" xlink:actuate="onLoad" xlink:show="other" /><linearGradient xmlns:xlink="http://www.w3.org/1999/xlink" xlink:href="#linearGradientF8FBFEEDF5FCDEEDFAD4E7F8E2E5E9" id="linearGradientF8FBFEEDF5FCDEEDFAD4E7F8E2E5E9_401035512" x1="0" y1="60.0" x2="0" y2="166.0" gradientUnits="userSpaceOnUse" xlink:type="simple" xlink:actuate="onLoad" xlink:show="other" /><linearGradient xmlns:xlink="http://www.w3.org/1999/xlink" xlink:href="#linearGradientF8FBFEEDF5FCDEEDFAD4E7F8E2E5E9" id="linearGradientF8FBFEEDF5FCDEEDFAD4E7F8E2E5E9_1390795872" x1="0" y1="59.0" x2="0" y2="165.0" gradientUnits="userSpaceOnUse" xlink:type="simple" xlink:actuate="onLoad" xlink:show="other" /><linearGradient xmlns:xlink="http://www.w3.org/1999/xlink" xlink:href="#linearGradientFAFBFCFFFFCC" id="linearGradientFAFBFCFFFFCC_910323407" x1="0" y1="43.0" x2="0" y2="103.0" gradientUnits="userSpaceOnUse" xlink:type="simple" xlink:actuate="onLoad" xlink:show="other" /><linearGradient id="linearGradientFAFBFCFFFFCC"><stop style="stop-color:#FAFBFC;stop-opacity:1;" offset="0.0" id="stopFAFBFC" /><stop style="stop-color:#FFFFCC;stop-opacity:1;" offset="1.0" id="stopFFFFCC" /></linearGradient><linearGradient xmlns:xlink="http://www.w3.org/1999/xlink" xlink:href="#linearGradientFAFBFCFFFFCC" id="linearGradientFAFBFCFFFFCC_1677528146" x1="0" y1="43.0" x2="0" y2="103.0" gradientUnits="userSpaceOnUse" xlink:type="simple" xlink:actuate="onLoad" xlink:show="other" /><linearGradient xmlns:xlink="http://www.w3.org/1999/xlink" xlink:href="#linearGradientF8FBFEEDF5FCDEEDFAD4E7F8E2E5E9" id="linearGradientF8FBFEEDF5FCDEEDFAD4E7F8E2E5E9_1320214597" x1="0" y1="169.0" x2="0" y2="275.0" gradientUnits="userSpaceOnUse" xlink:type="simple" xlink:actuate="onLoad" xlink:show="other" /><linearGradient xmlns:xlink="http://www.w3.org/1999/xlink" xlink:href="#linearGradientFF6666FF9696FFB6B6" id="linearGradientFF6666FF9696FFB6B6_852108079" x1="0" y1="69.0" x2="0" y2="104.0" gradientUnits="userSpaceOnUse" xlink:type="simple" xlink:actuate="onLoad" xlink:show="other" /><linearGradient id="linearGradientFF6666FF9696FFB6B6"><stop style="stop-color:#FF6666;stop-opacity:1;" offset="0.0" id="stopFF6666" /><stop style="stop-color:#FF9696;stop-opacity:1;" offset="0.5" id="stopFF9696" /><stop style="stop-color:#FFB6B6;stop-opacity:1;" offset="1.0" id="stopFFB6B6" /></linearGradient><linearGradient xmlns:xlink="http://www.w3.org/1999/xlink" xlink:href="#linearGradientFAFBFCFFFFCC" id="linearGradientFAFBFCFFFFCC_400234415" x1="0" y1="43.0" x2="0" y2="103.0" gradientUnits="userSpaceOnUse" xlink:type="simple" xlink:actuate="onLoad" xlink:show="other" /><linearGradient xmlns:xlink="http://www.w3.org/1999/xlink" xlink:href="#linearGradient66FF6696FF96B6FFB6" id="linearGradient66FF6696FF96B6FFB6_474941082" x1="0" y1="70.0" x2="0" y2="105.0" gradientUnits="userSpaceOnUse" xlink:type="simple" xlink:actuate="onLoad" xlink:show="other" /><linearGradient id="linearGradient66FF6696FF96B6FFB6"><stop style="stop-color:#66FF66;stop-opacity:1;" offset="0.0" id="stop66FF66" /><stop style="stop-color:#96FF96;stop-opacity:1;" offset="0.5" id="stop96FF96" /><stop style="stop-color:#B6FFB6;stop-opacity:1;" offset="1.0" id="stopB6FFB6" /></linearGradient></defs></svg>
