<?xml version="1.0" encoding="UTF-8"?>
<svg xmlns="http://www.w3.org/2000/svg" style="stroke-dasharray:none; shape-rendering:auto; font-family:'Arial'; text-rendering:auto; fill-opacity:1; color-interpolation:auto; color-rendering:auto; font-size:12; fill:black; stroke:black; image-rendering:auto; stroke-miterlimit:10; stroke-linecap:square; stroke-linejoin:miter; font-style:normal; stroke-width:1; stroke-dashoffset:0; font-weight:normal; stroke-opacity:1;" contentScriptType="text/ecmascript" preserveAspectRatio="xMidYMid meet" zoomAndPan="magnify" version="1.0" contentStyleType="text/css" xml:xlink="http://www.w3.org/1999/xlink" width="1091" height="929"><rect x="3" y="784" width="1088" height="145" ry="0" rx="0" style="stroke:#000000; fill:#C9C3AC" /><g componentSequence="59"><text x="-856" y="9" transform="rotate(270)" text-anchor="middle" style="font-weight:bold;font-size:10px;stroke:none; fill:#434343"><tspan dy="14" x="-856">Cobrança</tspan></text></g><rect x="3" y="175" width="1088" height="166" ry="0" rx="0" style="stroke:#000000; fill:#D6E0D0" /><g componentSequence="23"><text x="-258" y="9" transform="rotate(270)" text-anchor="middle" style="font-weight:bold;font-size:10px;stroke:none; fill:#434343"><tspan dy="14" x="-258">Gerente</tspan></text></g><rect x="3" y="640" width="1088" height="145" ry="0" rx="0" style="stroke:#000000; fill:#D0DAAE" /><g componentSequence="21"><text x="-712" y="9" transform="rotate(270)" text-anchor="middle" style="font-weight:bold;font-size:10px;stroke:none; fill:#434343"><tspan dy="14" x="-712">Crédito</tspan></text></g><rect x="3" y="502" width="1088" height="139" ry="0" rx="0" style="stroke:#000000; fill:#ADC9AC" /><g componentSequence="3"><text x="-571" y="9" transform="rotate(270)" text-anchor="middle" style="font-weight:bold;font-size:10px;stroke:none; fill:#434343"><tspan dy="14" x="-571">Logística</tspan></text></g><rect x="3" y="340" width="1088" height="167" ry="0" rx="0" style="stroke:#000000; fill:#82B0B7" /><g componentSequence="2"><text x="-423" y="9" transform="rotate(270)" text-anchor="middle" style="font-weight:bold;font-size:10px;stroke:none; fill:#434343"><tspan dy="14" x="-423">Gerente Vendas</tspan></text></g><rect x="3" y="0" width="1088" height="176" ry="0" rx="0" style="stroke:#000000; fill:#9FC1C6" /><g componentSequence="1"><text x="-88" y="9" transform="rotate(270)" text-anchor="middle" style="font-weight:bold;font-size:10px;stroke:none; fill:#434343"><tspan dy="14" x="-88">Solicitante</tspan></text></g><g sequence="4"><ellipse cx="107" cy="27" rx="17" ry="17" stroke-width="1" style="fill:url(#linearGradient66FF6696FF96B6FFB6_581762191);" stroke="336633" /></g><g sequence="5"><rect x="380" y="530" width="106" height="80" ry="5" rx="5" style="fill:url(#linearGradientF8FBFEEDF5FCDEEDFAD4E7F8E2E5E9_745211562);" stroke="191970" /></g><g componentSequence="5"><text x="433" y="545" text-anchor="middle" style="font-weight:bold;font-size:10px;stroke:none; fill:#333399"><tspan dy="14" x="433">Devolução e</tspan><tspan dy="14" x="433">lançamento do</tspan><tspan dy="14" x="433">crédito</tspan></text></g><g sequence="7"><rect x="810" y="60" width="106" height="67" ry="5" rx="5" style="fill:url(#linearGradientF8FBFEEDF5FCDEEDFAD4E7F8E2E5E9_676632575);" stroke="191970" /></g><g componentSequence="7"><text x="863" y="75" text-anchor="middle" style="font-weight:bold;font-size:10px;stroke:none; fill:#333399"><tspan dy="14" x="863">Anexar canhoto</tspan><tspan dy="14" x="863">da NF</tspan></text></g><g sequence="8"><rect x="810" y="823" width="106" height="67" ry="5" rx="5" style="fill:url(#linearGradientF8FBFEEDF5FCDEEDFAD4E7F8E2E5E9_1834355857);" stroke="191970" /></g><g componentSequence="8"><text x="863" y="838" text-anchor="middle" style="font-weight:bold;font-size:10px;stroke:none; fill:#333399"><tspan dy="14" x="863">Baixa débito do</tspan><tspan dy="14" x="863">cliente</tspan></text></g><g sequence="14"><ellipse cx="1067" cy="858" rx="17" ry="17" stroke-width="3" style="fill:url(#linearGradientFF6666FF9696FFB6B6_677109040);" stroke="993333" /></g><g sequence="22"><rect x="50" y="210" width="106" height="67" ry="5" rx="5" style="fill:url(#linearGradientF8FBFEEDF5FCDEEDFAD4E7F8E2E5E9_1559347399);" stroke="191970" /></g><g componentSequence="22"><text x="103" y="225" text-anchor="middle" style="font-weight:bold;font-size:10px;stroke:none; fill:#333399"><tspan dy="14" x="103">Aprovação</tspan><tspan dy="14" x="103">supervisor</tspan></text></g><g sequence="25"><polygon points=" 210 230 240 200 270 230 240 260 210 230" style="fill:url(#linearGradientFAFBFCFFFFCC_1343639497);" stroke="000000" /></g><g componentSequence="25"><text x="240" y="262" text-anchor="middle" style="font-weight:bold;font-size:10px;stroke:none; fill:#333399"><tspan dy="14" x="240">Aprova?</tspan></text></g><g sequence="28"><ellipse cx="247" cy="317" rx="17" ry="17" stroke-width="3" style="fill:url(#linearGradientFF6666FF9696FFB6B6_226096094);" stroke="993333" /></g><g sequence="30"><polygon points=" 300 220 330 190 360 220 330 250 300 220" style="fill:url(#linearGradientFAFBFCFFFFCC_2075991324);" stroke="000000" /></g><g componentSequence="30"><text x="330" y="260" text-anchor="middle" style="font-weight:bold;font-size:10px;stroke:none; fill:#333399"><tspan dy="14" x="330">Necessit</tspan><tspan dy="14" x="330">a de</tspan><tspan dy="14" x="330">avali...</tspan></text></g><g sequence="33"><rect x="280" y="384" width="106" height="80" ry="5" rx="5" style="fill:url(#linearGradientF8FBFEEDF5FCDEEDFAD4E7F8E2E5E9_697834836);" stroke="191970" /></g><g componentSequence="33"><text x="333" y="399" text-anchor="middle" style="font-weight:bold;font-size:10px;stroke:none; fill:#333399"><tspan dy="14" x="333">Aprovação</tspan><tspan dy="14" x="333">Gerente de</tspan><tspan dy="14" x="333">Vendas</tspan></text></g><g sequence="39"><ellipse cx="127" cy="425" rx="17" ry="17" stroke-width="3" style="fill:url(#linearGradientFF6666FF9696FFB6B6_1259497385);" stroke="993333" /></g><g sequence="42"><polygon points=" 550 544 580 514 610 544 580 574 550 544" style="fill:url(#linearGradientFAFBFCFFFFCC_154634774);" stroke="000000" /></g><g componentSequence="42"><text x="580" y="584" text-anchor="middle" style="font-weight:bold;font-size:10px;stroke:none; fill:#333399"><tspan dy="14" x="580">Dados</tspan><tspan dy="14" x="580">estão</tspan><tspan dy="14" x="580">corre...</tspan></text></g><g sequence="45"><rect x="380" y="83" width="106" height="67" ry="5" rx="5" style="fill:url(#linearGradientF8FBFEEDF5FCDEEDFAD4E7F8E2E5E9_452015057);" stroke="191970" /></g><g componentSequence="45"><text x="433" y="98" text-anchor="middle" style="font-weight:bold;font-size:10px;stroke:none; fill:#333399"><tspan dy="14" x="433">Correção dos</tspan><tspan dy="14" x="433">dados</tspan></text></g><g sequence="49"><polygon points=" 950 830 980 800 1010 830 980 860 950 830" style="fill:url(#linearGradientFAFBFCFFFFCC_1944780646);" stroke="000000" /></g><g componentSequence="49"><text x="980" y="870" text-anchor="middle" style="font-weight:bold;font-size:10px;stroke:none; fill:#333399"><tspan dy="14" x="980">Dados</tspan><tspan dy="14" x="980">estão</tspan><tspan dy="14" x="980">ok?</tspan></text></g><g sequence="52"><polygon points=" 950 430 980 400 1010 430 980 460 950 430" style="fill:url(#linearGradientFAFBFCFFFFCC_723382685);" stroke="000000" /></g><g componentSequence="52"><text x="980" y="470" text-anchor="middle" style="font-weight:bold;font-size:10px;stroke:none; fill:#333399"><tspan dy="14" x="980">Destino</tspan><tspan dy="14" x="980">da</tspan><tspan dy="14" x="980">solici...</tspan></text></g><g sequence="60"><rect x="527" y="690" width="106" height="67" ry="5" rx="5" style="fill:url(#linearGradientF8FBFEEDF5FCDEEDFAD4E7F8E2E5E9_508541394);" stroke="191970" /></g><g componentSequence="60"><text x="580" y="705" text-anchor="middle" style="font-weight:bold;font-size:10px;stroke:none; fill:#333399"><tspan dy="14" x="580">Liberação do</tspan><tspan dy="14" x="580">pedido</tspan></text></g><g sequence="62"><rect x="680" y="524" width="106" height="80" ry="5" rx="5" style="fill:url(#linearGradientF8FBFEEDF5FCDEEDFAD4E7F8E2E5E9_229867121);" stroke="191970" /></g><g componentSequence="62"><text x="733" y="539" text-anchor="middle" style="font-weight:bold;font-size:10px;stroke:none; fill:#333399"><tspan dy="14" x="733">Faturamento do</tspan><tspan dy="14" x="733">pedido e anexo</tspan><tspan dy="14" x="733">da nova NF</tspan></text></g><g sequence="66"><polygon points=" 77 90 107 60 137 90 107 120 77 90" style="fill:url(#linearGradientFAFBFCFFFFCC_696689006);" stroke="000000" /></g><g componentSequence="66"><text x="107" y="130" text-anchor="middle" style="font-weight:bold;font-size:10px;stroke:none; fill:#333399"><tspan dy="14" x="107">É</tspan><tspan dy="14" x="107">supervis</tspan><tspan dy="14" x="107">or?</tspan></text></g><g componentSequence="13"><text x="873" y="475" style="font-size:10px;font-weight:none;stroke:none; fill:#333399" text-anchor="left" /></g><g componentSequence="24"><text x="193" y="243" style="font-size:10px;font-weight:none;stroke:none; fill:#333399" text-anchor="left" /></g><g componentSequence="29"><text x="255" y="293" style="font-size:10px;font-weight:none;stroke:none; fill:#333399" text-anchor="left" /></g><g componentSequence="31"><text x="295" y="245" style="font-size:10px;font-weight:none;stroke:none; fill:#333399" text-anchor="left" /></g><g componentSequence="34"><text x="342" y="343" style="font-size:10px;font-weight:none;stroke:none; fill:#333399" text-anchor="left" /></g><g componentSequence="36"><text x="442" y="352" style="font-size:10px;font-weight:none;stroke:none; fill:#333399" text-anchor="left" /></g><g componentSequence="44"><text x="528" y="570" style="font-size:10px;font-weight:none;stroke:none; fill:#333399" text-anchor="left" /></g><g componentSequence="47"><text x="589" y="268" style="font-size:10px;font-weight:none;stroke:none; fill:#333399" text-anchor="left" /></g><g componentSequence="50"><text x="943" y="856" style="font-size:10px;font-weight:none;stroke:none; fill:#333399" text-anchor="left" /></g><g componentSequence="51"><text x="1040" y="857" style="font-size:10px;font-weight:none;stroke:none; fill:#333399" text-anchor="left" /></g><g componentSequence="53"><text x="990" y="656" style="font-size:10px;font-weight:none;stroke:none; fill:#333399" text-anchor="left" /></g><g componentSequence="54"><text x="989" y="215" style="font-size:10px;font-weight:none;stroke:none; fill:#333399" text-anchor="left" /></g><g componentSequence="56"><text x="665" y="457" style="font-size:10px;font-weight:none;stroke:none; fill:#333399" text-anchor="left" /></g><g componentSequence="57"><text x="950" y="30" style="font-size:10px;font-weight:none;stroke:none; fill:#333399" text-anchor="left" /></g><g componentSequence="61"><text x="590" y="658" style="font-size:10px;font-weight:none;stroke:none; fill:#333399" text-anchor="left" /></g><g componentSequence="63"><text x="743" y="714" style="font-size:10px;font-weight:none;stroke:none; fill:#333399" text-anchor="left" /></g><g componentSequence="64"><text x="742" y="270" style="font-size:10px;font-weight:none;stroke:none; fill:#333399" text-anchor="left" /></g><g componentSequence="67"><text x="117" y="52" style="font-size:10px;font-weight:none;stroke:none; fill:#333399" text-anchor="left" /></g><g componentSequence="68"><text x="278" y="117" style="font-size:10px;font-weight:none;stroke:none; fill:#333399" text-anchor="left" /></g><g componentSequence="69"><text x="115" y="191" style="font-size:10px;font-weight:none;stroke:none; fill:#333399" text-anchor="left" /></g><g componentSequence="70"><text x="268" y="116" style="font-size:10px;font-weight:none;stroke:none; fill:#333399" text-anchor="left" /></g><g componentSequence="71"><text x="222" y="425" style="font-size:10px;font-weight:none;stroke:none; fill:#333399" text-anchor="left" /></g><g componentSequence="72"><text x="342" y="541" style="font-size:10px;font-weight:none;stroke:none; fill:#333399" text-anchor="left" /></g><path style="fill:none; stroke:#000000;stroke-width:1" d="M107.0 45.0 L107.0 59.0" /><polygon style="fill:#000000; stroke:#000000;" points=" 112 49 107 59 102 49 107 51" /><path style="fill:none; stroke:#000000;stroke-width:1" d="M486.0 570.0 L549.0 570.0" /><polygon style="fill:#000000; stroke:#000000;" points=" 539 565 549 570 539 575 541 570" /><path style="fill:none; stroke:#000000;stroke-width:1" d="M360.0 246.0 L432.0 247.0 L432.0 529.0" /><polygon style="fill:#000000; stroke:#000000;" points=" 437 519 432 529 427 519 432 521" /><path style="fill:none; stroke:#000000;stroke-width:1" d="M949.0 456.0 L433.0 457.0 L433.0 529.0" /><polygon style="fill:#000000; stroke:#000000;" points=" 438 519 433 529 428 519 433 521" /><path style="fill:none; stroke:#000000;stroke-width:1" d="M332.0 464.0 L332.0 571.0 L379.0 570.0" /><polygon style="fill:#000000; stroke:#000000;" points=" 369 565 379 570 369 575 371 570" /><path style="fill:none; stroke:#000000;stroke-width:1" d="M863.0 127.0 L863.0 822.0" /><polygon style="fill:#000000; stroke:#000000;" points=" 868 812 863 822 858 812 863 814" /><path style="fill:none; stroke:#000000;stroke-width:1" d="M979.0 399.0 L979.0 95.0 L916.0 94.0" /><polygon style="fill:#000000; stroke:#000000;" points=" 926 99 916 94 926 89 924 94" /><path style="fill:none; stroke:#000000;stroke-width:1" d="M732.0 523.0 L732.0 94.0 L809.0 93.0" /><polygon style="fill:#000000; stroke:#000000;" points=" 799 88 809 93 799 98 801 93" /><path style="fill:none; stroke:#000000;stroke-width:1" d="M916.0 856.0 L949.0 856.0" /><polygon style="fill:#000000; stroke:#000000;" points=" 939 851 949 856 939 861 941 856" /><path style="fill:none; stroke:#000000;stroke-width:1" d="M1010.0 856.0 L1050.0 858.0" /><polygon style="fill:#000000; stroke:#000000;" points=" 1040 853 1050 858 1040 862 1042 858" /><path style="fill:none; stroke:#000000;stroke-width:1" d="M156.0 243.0 L209.0 243.0" /><polygon style="fill:#000000; stroke:#000000;" points=" 199 238 209 243 199 248 201 243" /><path style="fill:none; stroke:#000000;stroke-width:1" d="M105.0 172.0 L104.0 209.0" /><polygon style="fill:#000000; stroke:#000000;" points=" 109 199 104 209 99 199 104 201" /><path style="fill:none; stroke:#000000;stroke-width:1" d="M244.0 286.0 L246.0 300.0" /><polygon style="fill:#000000; stroke:#000000;" points=" 250 289 246 300 240 291 245 292" /><path style="fill:none; stroke:#000000;stroke-width:1" d="M270.0 244.0 L299.0 245.0" /><polygon style="fill:#000000; stroke:#000000;" points=" 289 240 299 245 289 250 291 245" /><path style="fill:none; stroke:#000000;stroke-width:1" d="M331.0 302.0 L332.0 383.0" /><polygon style="fill:#000000; stroke:#000000;" points=" 337 373 332 383 327 373 332 375" /><path style="fill:none; stroke:#000000;stroke-width:1" d="M137.0 116.0 L329.0 118.0 L329.0 189.0" /><polygon style="fill:#000000; stroke:#000000;" points=" 334 179 329 189 324 179 329 181" /><path style="fill:none; stroke:#000000;stroke-width:1" d="M279.0 424.0 L144.0 425.0" /><polygon style="fill:#000000; stroke:#000000;" points=" 154 430 144 425 154 420 152 425" /><path style="fill:none; stroke:#000000;stroke-width:1" d="M579.0 513.0 L579.0 117.0 L486.0 116.0" /><polygon style="fill:#000000; stroke:#000000;" points=" 496 121 486 116 496 111 494 116" /><path style="fill:none; stroke:#000000;stroke-width:1" d="M580.0 626.0 L580.0 689.0" /><polygon style="fill:#000000; stroke:#000000;" points=" 585 679 580 689 575 679 580 681" /><path style="fill:none; stroke:#000000;stroke-width:1" d="M379.0 116.0 L137.0 116.0" /><polygon style="fill:#000000; stroke:#000000;" points=" 147 121 137 116 147 111 145 116" /><path style="fill:none; stroke:#000000;stroke-width:1" d="M1010.0 453.0 L1044.0 451.0 L1044.0 30.0 L432.0 30.0 L432.0 82.0" /><polygon style="fill:#000000; stroke:#000000;" points=" 437 72 432 82 427 72 432 74" /><path style="fill:none; stroke:#000000;stroke-width:1" d="M980.0 799.0 L980.0 512.0" /><polygon style="fill:#000000; stroke:#000000;" points=" 975 522 980 512 985 522 980 520" /><path style="fill:none; stroke:#000000;stroke-width:1" d="M633.0 723.0 L733.0 724.0 L733.0 604.0" /><polygon style="fill:#000000; stroke:#000000;" points=" 728 614 733 604 738 614 733 612" /><defs><linearGradient xmlns:xlink="http://www.w3.org/1999/xlink" xlink:href="#linearGradient66FF6696FF96B6FFB6" id="linearGradient66FF6696FF96B6FFB6_581762191" x1="0" y1="10.0" x2="0" y2="45.0" gradientUnits="userSpaceOnUse" xlink:type="simple" xlink:actuate="onLoad" xlink:show="other" /><linearGradient id="linearGradient66FF6696FF96B6FFB6"><stop style="stop-color:#66FF66;stop-opacity:1;" offset="0.0" id="stop66FF66" /><stop style="stop-color:#96FF96;stop-opacity:1;" offset="0.5" id="stop96FF96" /><stop style="stop-color:#B6FFB6;stop-opacity:1;" offset="1.0" id="stopB6FFB6" /></linearGradient><linearGradient xmlns:xlink="http://www.w3.org/1999/xlink" xlink:href="#linearGradientF8FBFEEDF5FCDEEDFAD4E7F8E2E5E9" id="linearGradientF8FBFEEDF5FCDEEDFAD4E7F8E2E5E9_745211562" x1="0" y1="530.0" x2="0" y2="636.0" gradientUnits="userSpaceOnUse" xlink:type="simple" xlink:actuate="onLoad" xlink:show="other" /><linearGradient id="linearGradientF8FBFEEDF5FCDEEDFAD4E7F8E2E5E9"><stop style="stop-color:#F8FBFE;stop-opacity:1;" offset="0.0" id="stopF8FBFE" /><stop style="stop-color:#EDF5FC;stop-opacity:1;" offset="0.25" id="stopEDF5FC" /><stop style="stop-color:#DEEDFA;stop-opacity:1;" offset="0.5" id="stopDEEDFA" /><stop style="stop-color:#D4E7F8;stop-opacity:1;" offset="0.75" id="stopD4E7F8" /><stop style="stop-color:#E2E5E9;stop-opacity:1;" offset="1.0" id="stopE2E5E9" /></linearGradient><linearGradient xmlns:xlink="http://www.w3.org/1999/xlink" xlink:href="#linearGradientF8FBFEEDF5FCDEEDFAD4E7F8E2E5E9" id="linearGradientF8FBFEEDF5FCDEEDFAD4E7F8E2E5E9_676632575" x1="0" y1="60.0" x2="0" y2="166.0" gradientUnits="userSpaceOnUse" xlink:type="simple" xlink:actuate="onLoad" xlink:show="other" /><linearGradient xmlns:xlink="http://www.w3.org/1999/xlink" xlink:href="#linearGradientF8FBFEEDF5FCDEEDFAD4E7F8E2E5E9" id="linearGradientF8FBFEEDF5FCDEEDFAD4E7F8E2E5E9_1834355857" x1="0" y1="823.0" x2="0" y2="929.0" gradientUnits="userSpaceOnUse" xlink:type="simple" xlink:actuate="onLoad" xlink:show="other" /><linearGradient xmlns:xlink="http://www.w3.org/1999/xlink" xlink:href="#linearGradientFF6666FF9696FFB6B6" id="linearGradientFF6666FF9696FFB6B6_677109040" x1="0" y1="841.0" x2="0" y2="876.0" gradientUnits="userSpaceOnUse" xlink:type="simple" xlink:actuate="onLoad" xlink:show="other" /><linearGradient id="linearGradientFF6666FF9696FFB6B6"><stop style="stop-color:#FF6666;stop-opacity:1;" offset="0.0" id="stopFF6666" /><stop style="stop-color:#FF9696;stop-opacity:1;" offset="0.5" id="stopFF9696" /><stop style="stop-color:#FFB6B6;stop-opacity:1;" offset="1.0" id="stopFFB6B6" /></linearGradient><linearGradient xmlns:xlink="http://www.w3.org/1999/xlink" xlink:href="#linearGradientF8FBFEEDF5FCDEEDFAD4E7F8E2E5E9" id="linearGradientF8FBFEEDF5FCDEEDFAD4E7F8E2E5E9_1559347399" x1="0" y1="210.0" x2="0" y2="316.0" gradientUnits="userSpaceOnUse" xlink:type="simple" xlink:actuate="onLoad" xlink:show="other" /><linearGradient xmlns:xlink="http://www.w3.org/1999/xlink" xlink:href="#linearGradientFAFBFCFFFFCC" id="linearGradientFAFBFCFFFFCC_1343639497" x1="0" y1="200.0" x2="0" y2="260.0" gradientUnits="userSpaceOnUse" xlink:type="simple" xlink:actuate="onLoad" xlink:show="other" /><linearGradient id="linearGradientFAFBFCFFFFCC"><stop style="stop-color:#FAFBFC;stop-opacity:1;" offset="0.0" id="stopFAFBFC" /><stop style="stop-color:#FFFFCC;stop-opacity:1;" offset="1.0" id="stopFFFFCC" /></linearGradient><linearGradient xmlns:xlink="http://www.w3.org/1999/xlink" xlink:href="#linearGradientFF6666FF9696FFB6B6" id="linearGradientFF6666FF9696FFB6B6_226096094" x1="0" y1="300.0" x2="0" y2="335.0" gradientUnits="userSpaceOnUse" xlink:type="simple" xlink:actuate="onLoad" xlink:show="other" /><linearGradient xmlns:xlink="http://www.w3.org/1999/xlink" xlink:href="#linearGradientFAFBFCFFFFCC" id="linearGradientFAFBFCFFFFCC_2075991324" x1="0" y1="190.0" x2="0" y2="250.0" gradientUnits="userSpaceOnUse" xlink:type="simple" xlink:actuate="onLoad" xlink:show="other" /><linearGradient xmlns:xlink="http://www.w3.org/1999/xlink" xlink:href="#linearGradientF8FBFEEDF5FCDEEDFAD4E7F8E2E5E9" id="linearGradientF8FBFEEDF5FCDEEDFAD4E7F8E2E5E9_697834836" x1="0" y1="384.0" x2="0" y2="490.0" gradientUnits="userSpaceOnUse" xlink:type="simple" xlink:actuate="onLoad" xlink:show="other" /><linearGradient xmlns:xlink="http://www.w3.org/1999/xlink" xlink:href="#linearGradientFF6666FF9696FFB6B6" id="linearGradientFF6666FF9696FFB6B6_1259497385" x1="0" y1="408.0" x2="0" y2="443.0" gradientUnits="userSpaceOnUse" xlink:type="simple" xlink:actuate="onLoad" xlink:show="other" /><linearGradient xmlns:xlink="http://www.w3.org/1999/xlink" xlink:href="#linearGradientFAFBFCFFFFCC" id="linearGradientFAFBFCFFFFCC_154634774" x1="0" y1="514.0" x2="0" y2="574.0" gradientUnits="userSpaceOnUse" xlink:type="simple" xlink:actuate="onLoad" xlink:show="other" /><linearGradient xmlns:xlink="http://www.w3.org/1999/xlink" xlink:href="#linearGradientF8FBFEEDF5FCDEEDFAD4E7F8E2E5E9" id="linearGradientF8FBFEEDF5FCDEEDFAD4E7F8E2E5E9_452015057" x1="0" y1="83.0" x2="0" y2="189.0" gradientUnits="userSpaceOnUse" xlink:type="simple" xlink:actuate="onLoad" xlink:show="other" /><linearGradient xmlns:xlink="http://www.w3.org/1999/xlink" xlink:href="#linearGradientFAFBFCFFFFCC" id="linearGradientFAFBFCFFFFCC_1944780646" x1="0" y1="800.0" x2="0" y2="860.0" gradientUnits="userSpaceOnUse" xlink:type="simple" xlink:actuate="onLoad" xlink:show="other" /><linearGradient xmlns:xlink="http://www.w3.org/1999/xlink" xlink:href="#linearGradientFAFBFCFFFFCC" id="linearGradientFAFBFCFFFFCC_723382685" x1="0" y1="400.0" x2="0" y2="460.0" gradientUnits="userSpaceOnUse" xlink:type="simple" xlink:actuate="onLoad" xlink:show="other" /><linearGradient xmlns:xlink="http://www.w3.org/1999/xlink" xlink:href="#linearGradientF8FBFEEDF5FCDEEDFAD4E7F8E2E5E9" id="linearGradientF8FBFEEDF5FCDEEDFAD4E7F8E2E5E9_508541394" x1="0" y1="690.0" x2="0" y2="796.0" gradientUnits="userSpaceOnUse" xlink:type="simple" xlink:actuate="onLoad" xlink:show="other" /><linearGradient xmlns:xlink="http://www.w3.org/1999/xlink" xlink:href="#linearGradientF8FBFEEDF5FCDEEDFAD4E7F8E2E5E9" id="linearGradientF8FBFEEDF5FCDEEDFAD4E7F8E2E5E9_229867121" x1="0" y1="524.0" x2="0" y2="630.0" gradientUnits="userSpaceOnUse" xlink:type="simple" xlink:actuate="onLoad" xlink:show="other" /><linearGradient xmlns:xlink="http://www.w3.org/1999/xlink" xlink:href="#linearGradientFAFBFCFFFFCC" id="linearGradientFAFBFCFFFFCC_696689006" x1="0" y1="60.0" x2="0" y2="120.0" gradientUnits="userSpaceOnUse" xlink:type="simple" xlink:actuate="onLoad" xlink:show="other" /></defs></svg>
