<?xml version="1.0" encoding="UTF-8"?>
<svg xmlns="http://www.w3.org/2000/svg" style="stroke-dasharray:none; shape-rendering:auto; font-family:'Arial'; text-rendering:auto; fill-opacity:1; color-interpolation:auto; color-rendering:auto; font-size:12; fill:black; stroke:black; image-rendering:auto; stroke-miterlimit:10; stroke-linecap:square; stroke-linejoin:miter; font-style:normal; stroke-width:1; stroke-dashoffset:0; font-weight:normal; stroke-opacity:1;" contentScriptType="text/ecmascript" preserveAspectRatio="xMidYMid meet" zoomAndPan="magnify" version="1.0" contentStyleType="text/css" xml:xlink="http://www.w3.org/1999/xlink" width="1080" height="531"><rect x="0" y="280" width="1080" height="133" ry="0" rx="0" style="stroke:#000000; fill:#ADC9AC" /><g componentSequence="90"><text x="-346" y="6" transform="rotate(270)" text-anchor="middle" style="font-weight:bold;font-size:10px;stroke:none; fill:#434343"><tspan dy="14" x="-346">Comprador</tspan></text></g><rect x="0" y="410" width="1080" height="121" ry="0" rx="0" style="stroke:#000000; fill:#82B0B7" /><g componentSequence="2"><text x="-470" y="6" transform="rotate(270)" text-anchor="middle" style="font-weight:bold;font-size:10px;stroke:none; fill:#434343"><tspan dy="14" x="-470">Recebimento</tspan></text></g><rect x="0" y="149" width="1080" height="132" ry="0" rx="0" style="stroke:#000000; fill:#D0DAAE" /><g componentSequence="17"><text x="-215" y="6" transform="rotate(270)" text-anchor="middle" style="font-weight:bold;font-size:10px;stroke:none; fill:#434343"><tspan dy="14" x="-215">Compras</tspan></text></g><rect x="0" y="0" width="1080" height="150" ry="0" rx="0" style="stroke:#000000; fill:#9FC1C6" /><g componentSequence="1"><text x="-75" y="6" transform="rotate(270)" text-anchor="middle" style="font-weight:bold;font-size:10px;stroke:none; fill:#434343"><tspan dy="14" x="-75">Vendas</tspan></text></g><g sequence="3"><ellipse cx="88" cy="77" rx="17" ry="17" stroke-width="1" style="fill:url(#linearGradient66FF6696FF96B6FFB6_714255219);" stroke="336633" /></g><g sequence="10"><rect x="631" y="430" width="106" height="67" ry="5" rx="5" style="fill:url(#linearGradientF8FBFEEDF5FCDEEDFAD4E7F8E2E5E9_609566801);" stroke="191970" /></g><g componentSequence="10"><text x="684" y="445" text-anchor="middle" style="font-weight:bold;font-size:10px;stroke:none; fill:#333399"><tspan dy="14" x="684">Liberação no</tspan><tspan dy="14" x="684">recebimento</tspan></text></g><g sequence="20"><rect x="161" y="180" width="106" height="80" ry="5" rx="5" style="fill:url(#linearGradientF8FBFEEDF5FCDEEDFAD4E7F8E2E5E9_543866883);" stroke="191970" /></g><g componentSequence="20"><text x="214" y="195" text-anchor="middle" style="font-weight:bold;font-size:10px;stroke:none; fill:#333399"><tspan dy="14" x="214">Cadastro e envio</tspan><tspan dy="14" x="214">do código</tspan></text></g><g sequence="37"><rect x="231" y="319" width="106" height="67" ry="5" rx="5" style="fill:url(#linearGradientF8FBFEEDF5FCDEEDFAD4E7F8E2E5E9_1701333610);" stroke="191970" /></g><g componentSequence="37"><text x="284" y="334" text-anchor="middle" style="font-weight:bold;font-size:10px;stroke:none; fill:#333399"><tspan dy="14" x="284">Compra do</tspan><tspan dy="14" x="284">material</tspan></text></g><g sequence="52"><ellipse cx="1028" cy="222" rx="17" ry="17" stroke-width="3" style="fill:url(#linearGradientFF6666FF9696FFB6B6_1520352391);" stroke="993333" /></g><g sequence="73"><rect x="461" y="43" width="106" height="67" ry="5" rx="5" style="fill:url(#linearGradientF8FBFEEDF5FCDEEDFAD4E7F8E2E5E9_1413949517);" stroke="191970" /></g><g componentSequence="73"><text x="514" y="58" text-anchor="middle" style="font-weight:bold;font-size:10px;stroke:none; fill:#333399"><tspan dy="14" x="514">Colocação do</tspan><tspan dy="14" x="514">pedido</tspan></text></g><g sequence="75"><rect x="691" y="188" width="106" height="67" ry="5" rx="5" style="fill:url(#linearGradientF8FBFEEDF5FCDEEDFAD4E7F8E2E5E9_576421918);" stroke="191970" /></g><g componentSequence="75"><text x="744" y="203" text-anchor="middle" style="font-weight:bold;font-size:10px;stroke:none; fill:#333399"><tspan dy="14" x="744">Remoção do</tspan><tspan dy="14" x="744">rastreio</tspan></text></g><g sequence="81"><rect x="541" y="188" width="106" height="67" ry="5" rx="5" style="fill:url(#linearGradientF8FBFEEDF5FCDEEDFAD4E7F8E2E5E9_88585509);" stroke="191970" /></g><g componentSequence="81"><text x="594" y="203" text-anchor="middle" style="font-weight:bold;font-size:10px;stroke:none; fill:#333399"><tspan dy="14" x="594">Follow-up do</tspan><tspan dy="14" x="594">material</tspan></text></g><g sequence="85"><rect x="781" y="50" width="106" height="67" ry="5" rx="5" style="fill:url(#linearGradientF8FBFEEDF5FCDEEDFAD4E7F8E2E5E9_714234766);" stroke="191970" /></g><g componentSequence="85"><text x="834" y="65" text-anchor="middle" style="font-weight:bold;font-size:10px;stroke:none; fill:#333399"><tspan dy="14" x="834">Vendedor libera</tspan><tspan dy="14" x="834">o pedido</tspan></text></g><g sequence="87"><rect x="861" y="195" width="106" height="54" ry="5" rx="5" style="fill:url(#linearGradientF8FBFEEDF5FCDEEDFAD4E7F8E2E5E9_1199184849);" stroke="191970" /></g><g componentSequence="87"><text x="914" y="211" text-anchor="middle" style="font-weight:bold;font-size:10px;stroke:none; fill:#333399"><tspan dy="14" x="914">Número NF</tspan></text></g><g sequence="92"><polygon points=" 421 326 451 296 481 326 451 356 421 326" style="fill:url(#linearGradientFAFBFCFFFFCC_962537552);" stroke="000000" /></g><g componentSequence="92"><text x="451" y="366" text-anchor="middle" style="font-weight:bold;font-size:10px;stroke:none; fill:#333399"><tspan dy="14" x="451">Continua</tspan><tspan dy="14" x="451">r</tspan><tspan dy="14" x="451">compra?</tspan></text></g><g sequence="96"><ellipse cx="528" cy="353" rx="17" ry="17" stroke-width="3" style="fill:url(#linearGradientFF6666FF9696FFB6B6_17386691);" stroke="993333" /></g><g sequence="98"><polygon points=" 331 51 361 21 391 51 361 81 331 51" style="fill:url(#linearGradientFAFBFCFFFFCC_973023559);" stroke="000000" /></g><g componentSequence="98"><text x="361" y="91" text-anchor="middle" style="font-weight:bold;font-size:10px;stroke:none; fill:#333399"><tspan dy="14" x="361">Dados</tspan><tspan dy="14" x="361">corretos</tspan><tspan dy="14" x="361">?</tspan></text></g><g sequence="102"><rect x="161" y="49" width="106" height="67" ry="5" rx="5" style="fill:url(#linearGradientF8FBFEEDF5FCDEEDFAD4E7F8E2E5E9_776735034);" stroke="191970" /></g><g componentSequence="102"><text x="214" y="64" text-anchor="middle" style="font-weight:bold;font-size:10px;stroke:none; fill:#333399"><tspan dy="14" x="214">Correção dos</tspan><tspan dy="14" x="214">dados</tspan></text></g><g componentSequence="71"><text x="98" y="194" style="font-size:10px;font-weight:none;stroke:none; fill:#333399" text-anchor="left" /></g><g componentSequence="83"><text x="603" y="379" style="font-size:10px;font-weight:none;stroke:none; fill:#333399" text-anchor="left" /></g><g componentSequence="84"><text x="755" y="364" style="font-size:10px;font-weight:none;stroke:none; fill:#333399" text-anchor="left" /></g><g componentSequence="86"><text x="754" y="118" style="font-size:10px;font-weight:none;stroke:none; fill:#333399" text-anchor="left" /></g><g componentSequence="88"><text x="924" y="126" style="font-size:10px;font-weight:none;stroke:none; fill:#333399" text-anchor="left" /></g><g componentSequence="89"><text x="999" y="222" style="font-size:10px;font-weight:none;stroke:none; fill:#333399" text-anchor="left" /></g><g componentSequence="93"><text x="389" y="352" style="font-size:10px;font-weight:none;stroke:none; fill:#333399" text-anchor="left" /></g><g componentSequence="94"><text x="471" y="223" style="font-size:10px;font-weight:none;stroke:none; fill:#333399" text-anchor="left" /></g><g componentSequence="95"><text x="421" y="262" style="font-size:10px;font-weight:none;stroke:none; fill:#333399" text-anchor="left" /></g><g componentSequence="97"><text x="506" y="353" style="font-size:10px;font-weight:none;stroke:none; fill:#333399" text-anchor="left" /></g><g componentSequence="99"><text x="367" y="220" style="font-size:10px;font-weight:none;stroke:none; fill:#333399" text-anchor="left" /></g><g componentSequence="101"><text x="436" y="76" style="font-size:10px;font-weight:none;stroke:none; fill:#333399" text-anchor="left" /></g><g componentSequence="103"><text x="309" y="79" style="font-size:10px;font-weight:none;stroke:none; fill:#333399" text-anchor="left" /></g><g componentSequence="104"><text x="224" y="148" style="font-size:10px;font-weight:none;stroke:none; fill:#333399" text-anchor="left" /></g><path style="fill:none; stroke:#000000;stroke-width:1" d="M88.0 95.0 L88.0 220.0 L160.0 220.0" /><polygon style="fill:#000000; stroke:#000000;" points=" 150 215 160 220 150 225 152 220" /><path style="fill:none; stroke:#000000;stroke-width:1" d="M737.0 465.0 L746.0 465.0 L744.0 255.0" /><polygon style="fill:#000000; stroke:#000000;" points=" 739 265 744 255 749 265 744 263" /><path style="fill:none; stroke:#000000;stroke-width:1" d="M593.0 255.0 L593.0 465.0 L630.0 461.0 L630.0 461.0" /><polygon style="fill:#000000; stroke:#000000;" points=" 620 456 630 461 620 466 622 461" /><path style="fill:none; stroke:#000000;stroke-width:1" d="M267.0 220.0 L360.0 220.0 L360.0 133.0" /><polygon style="fill:#000000; stroke:#000000;" points=" 355 143 360 133 365 143 360 141" /><path style="fill:none; stroke:#000000;stroke-width:1" d="M214.0 116.0 L214.0 179.0" /><polygon style="fill:#000000; stroke:#000000;" points=" 219 169 214 179 209 169 214 171" /><path style="fill:none; stroke:#000000;stroke-width:1" d="M337.0 352.0 L420.0 352.0" /><polygon style="fill:#000000; stroke:#000000;" points=" 410 347 420 352 410 357 412 352" /><path style="fill:none; stroke:#000000;stroke-width:1" d="M495.0 110.0 L394.0 292.0 L281.0 292.0 L282.0 318.0" /><polygon style="fill:#000000; stroke:#000000;" points=" 287 308 282 318 277 308 282 310" /><path style="fill:none; stroke:#000000;stroke-width:1" d="M967.0 222.0 L1010.0 222.0" /><polygon style="fill:#000000; stroke:#000000;" points=" 1000 217 1010 222 1000 227 1002 222" /><path style="fill:none; stroke:#000000;stroke-width:1" d="M391.0 76.0 L460.0 76.0" /><polygon style="fill:#000000; stroke:#000000;" points=" 450 71 460 76 450 81 452 76" /><path style="fill:none; stroke:#000000;stroke-width:1" d="M744.0 187.0 L744.0 84.0 L780.0 84.0" /><polygon style="fill:#000000; stroke:#000000;" points=" 770 79 780 84 770 89 772 84" /><path style="fill:none; stroke:#000000;stroke-width:1" d="M452.0 295.0 L455.0 223.0 L540.0 222.0" /><polygon style="fill:#000000; stroke:#000000;" points=" 530 217 540 222 530 227 532 222" /><path style="fill:none; stroke:#000000;stroke-width:1" d="M887.0 84.0 L914.0 85.0 L914.0 194.0" /><polygon style="fill:#000000; stroke:#000000;" points=" 919 184 914 194 909 184 914 186" /><path style="fill:none; stroke:#000000;stroke-width:1" d="M481.0 352.0 L511.0 353.0" /><polygon style="fill:#000000; stroke:#000000;" points=" 501 348 511 353 501 358 503 353" /><path style="fill:none; stroke:#000000;stroke-width:1" d="M330.0 78.0 L267.0 80.0" /><polygon style="fill:#000000; stroke:#000000;" points=" 277 85 267 80 277 75 275 80" /><defs><linearGradient xmlns:xlink="http://www.w3.org/1999/xlink" xlink:href="#linearGradient66FF6696FF96B6FFB6" id="linearGradient66FF6696FF96B6FFB6_714255219" x1="0" y1="60.0" x2="0" y2="95.0" gradientUnits="userSpaceOnUse" xlink:type="simple" xlink:actuate="onLoad" xlink:show="other" /><linearGradient id="linearGradient66FF6696FF96B6FFB6"><stop style="stop-color:#66FF66;stop-opacity:1;" offset="0.0" id="stop66FF66" /><stop style="stop-color:#96FF96;stop-opacity:1;" offset="0.5" id="stop96FF96" /><stop style="stop-color:#B6FFB6;stop-opacity:1;" offset="1.0" id="stopB6FFB6" /></linearGradient><linearGradient xmlns:xlink="http://www.w3.org/1999/xlink" xlink:href="#linearGradientF8FBFEEDF5FCDEEDFAD4E7F8E2E5E9" id="linearGradientF8FBFEEDF5FCDEEDFAD4E7F8E2E5E9_609566801" x1="0" y1="430.0" x2="0" y2="536.0" gradientUnits="userSpaceOnUse" xlink:type="simple" xlink:actuate="onLoad" xlink:show="other" /><linearGradient id="linearGradientF8FBFEEDF5FCDEEDFAD4E7F8E2E5E9"><stop style="stop-color:#F8FBFE;stop-opacity:1;" offset="0.0" id="stopF8FBFE" /><stop style="stop-color:#EDF5FC;stop-opacity:1;" offset="0.25" id="stopEDF5FC" /><stop style="stop-color:#DEEDFA;stop-opacity:1;" offset="0.5" id="stopDEEDFA" /><stop style="stop-color:#D4E7F8;stop-opacity:1;" offset="0.75" id="stopD4E7F8" /><stop style="stop-color:#E2E5E9;stop-opacity:1;" offset="1.0" id="stopE2E5E9" /></linearGradient><linearGradient xmlns:xlink="http://www.w3.org/1999/xlink" xlink:href="#linearGradientF8FBFEEDF5FCDEEDFAD4E7F8E2E5E9" id="linearGradientF8FBFEEDF5FCDEEDFAD4E7F8E2E5E9_543866883" x1="0" y1="180.0" x2="0" y2="286.0" gradientUnits="userSpaceOnUse" xlink:type="simple" xlink:actuate="onLoad" xlink:show="other" /><linearGradient xmlns:xlink="http://www.w3.org/1999/xlink" xlink:href="#linearGradientF8FBFEEDF5FCDEEDFAD4E7F8E2E5E9" id="linearGradientF8FBFEEDF5FCDEEDFAD4E7F8E2E5E9_1701333610" x1="0" y1="319.0" x2="0" y2="425.0" gradientUnits="userSpaceOnUse" xlink:type="simple" xlink:actuate="onLoad" xlink:show="other" /><linearGradient xmlns:xlink="http://www.w3.org/1999/xlink" xlink:href="#linearGradientFF6666FF9696FFB6B6" id="linearGradientFF6666FF9696FFB6B6_1520352391" x1="0" y1="205.0" x2="0" y2="240.0" gradientUnits="userSpaceOnUse" xlink:type="simple" xlink:actuate="onLoad" xlink:show="other" /><linearGradient id="linearGradientFF6666FF9696FFB6B6"><stop style="stop-color:#FF6666;stop-opacity:1;" offset="0.0" id="stopFF6666" /><stop style="stop-color:#FF9696;stop-opacity:1;" offset="0.5" id="stopFF9696" /><stop style="stop-color:#FFB6B6;stop-opacity:1;" offset="1.0" id="stopFFB6B6" /></linearGradient><linearGradient xmlns:xlink="http://www.w3.org/1999/xlink" xlink:href="#linearGradientF8FBFEEDF5FCDEEDFAD4E7F8E2E5E9" id="linearGradientF8FBFEEDF5FCDEEDFAD4E7F8E2E5E9_1413949517" x1="0" y1="43.0" x2="0" y2="149.0" gradientUnits="userSpaceOnUse" xlink:type="simple" xlink:actuate="onLoad" xlink:show="other" /><linearGradient xmlns:xlink="http://www.w3.org/1999/xlink" xlink:href="#linearGradientF8FBFEEDF5FCDEEDFAD4E7F8E2E5E9" id="linearGradientF8FBFEEDF5FCDEEDFAD4E7F8E2E5E9_576421918" x1="0" y1="188.0" x2="0" y2="294.0" gradientUnits="userSpaceOnUse" xlink:type="simple" xlink:actuate="onLoad" xlink:show="other" /><linearGradient xmlns:xlink="http://www.w3.org/1999/xlink" xlink:href="#linearGradientF8FBFEEDF5FCDEEDFAD4E7F8E2E5E9" id="linearGradientF8FBFEEDF5FCDEEDFAD4E7F8E2E5E9_88585509" x1="0" y1="188.0" x2="0" y2="294.0" gradientUnits="userSpaceOnUse" xlink:type="simple" xlink:actuate="onLoad" xlink:show="other" /><linearGradient xmlns:xlink="http://www.w3.org/1999/xlink" xlink:href="#linearGradientF8FBFEEDF5FCDEEDFAD4E7F8E2E5E9" id="linearGradientF8FBFEEDF5FCDEEDFAD4E7F8E2E5E9_714234766" x1="0" y1="50.0" x2="0" y2="156.0" gradientUnits="userSpaceOnUse" xlink:type="simple" xlink:actuate="onLoad" xlink:show="other" /><linearGradient xmlns:xlink="http://www.w3.org/1999/xlink" xlink:href="#linearGradientF8FBFEEDF5FCDEEDFAD4E7F8E2E5E9" id="linearGradientF8FBFEEDF5FCDEEDFAD4E7F8E2E5E9_1199184849" x1="0" y1="195.0" x2="0" y2="301.0" gradientUnits="userSpaceOnUse" xlink:type="simple" xlink:actuate="onLoad" xlink:show="other" /><linearGradient xmlns:xlink="http://www.w3.org/1999/xlink" xlink:href="#linearGradientFAFBFCFFFFCC" id="linearGradientFAFBFCFFFFCC_962537552" x1="0" y1="296.0" x2="0" y2="356.0" gradientUnits="userSpaceOnUse" xlink:type="simple" xlink:actuate="onLoad" xlink:show="other" /><linearGradient id="linearGradientFAFBFCFFFFCC"><stop style="stop-color:#FAFBFC;stop-opacity:1;" offset="0.0" id="stopFAFBFC" /><stop style="stop-color:#FFFFCC;stop-opacity:1;" offset="1.0" id="stopFFFFCC" /></linearGradient><linearGradient xmlns:xlink="http://www.w3.org/1999/xlink" xlink:href="#linearGradientFF6666FF9696FFB6B6" id="linearGradientFF6666FF9696FFB6B6_17386691" x1="0" y1="336.0" x2="0" y2="371.0" gradientUnits="userSpaceOnUse" xlink:type="simple" xlink:actuate="onLoad" xlink:show="other" /><linearGradient xmlns:xlink="http://www.w3.org/1999/xlink" xlink:href="#linearGradientFAFBFCFFFFCC" id="linearGradientFAFBFCFFFFCC_973023559" x1="0" y1="21.0" x2="0" y2="81.0" gradientUnits="userSpaceOnUse" xlink:type="simple" xlink:actuate="onLoad" xlink:show="other" /><linearGradient xmlns:xlink="http://www.w3.org/1999/xlink" xlink:href="#linearGradientF8FBFEEDF5FCDEEDFAD4E7F8E2E5E9" id="linearGradientF8FBFEEDF5FCDEEDFAD4E7F8E2E5E9_776735034" x1="0" y1="49.0" x2="0" y2="155.0" gradientUnits="userSpaceOnUse" xlink:type="simple" xlink:actuate="onLoad" xlink:show="other" /></defs></svg>
