<?xml version="1.0" encoding="UTF-8"?>
<svg xmlns="http://www.w3.org/2000/svg" style="stroke-dasharray:none; shape-rendering:auto; font-family:'Arial'; text-rendering:auto; fill-opacity:1; color-interpolation:auto; color-rendering:auto; font-size:12; fill:black; stroke:black; image-rendering:auto; stroke-miterlimit:10; stroke-linecap:square; stroke-linejoin:miter; font-style:normal; stroke-width:1; stroke-dashoffset:0; font-weight:normal; stroke-opacity:1;" contentScriptType="text/ecmascript" preserveAspectRatio="xMidYMid meet" zoomAndPan="magnify" version="1.0" contentStyleType="text/css" xml:xlink="http://www.w3.org/1999/xlink" width="921" height="471"><rect x="0" y="310" width="921" height="161" ry="0" rx="0" style="stroke:#000000; fill:#ADC9AC" /><g componentSequence="1"><text x="-390" y="7" transform="rotate(270)" text-anchor="middle" style="font-weight:bold;font-size:10px;stroke:none; fill:#434343"><tspan dy="14" x="-390">Gerente</tspan></text></g><rect x="0" y="147" width="921" height="164" ry="0" rx="0" style="stroke:#000000; fill:#82B0B7" /><g componentSequence="2"><text x="-229" y="7" transform="rotate(270)" text-anchor="middle" style="font-weight:bold;font-size:10px;stroke:none; fill:#434343"><tspan dy="14" x="-229">TI</tspan></text></g><rect x="0" y="3" width="921" height="150" ry="0" rx="0" style="stroke:#000000; fill:#9FC1C6" /><g componentSequence="3"><text x="-78" y="7" transform="rotate(270)" text-anchor="middle" style="font-weight:bold;font-size:10px;stroke:none; fill:#434343"><tspan dy="14" x="-78">Solicitante</tspan></text></g><g sequence="5"><ellipse cx="79" cy="77" rx="17" ry="17" stroke-width="1" style="fill:url(#linearGradient66FF6696FF96B6FFB6_1648927803);" stroke="336633" /></g><g sequence="7"><rect x="360" y="183" width="106" height="56" ry="5" rx="5" style="fill:url(#linearGradientF8FBFEEDF5FCDEEDFAD4E7F8E2E5E9_1821332994);" stroke="191970" /></g><g componentSequence="7"><text x="413" y="200" text-anchor="middle" style="font-weight:bold;font-size:10px;stroke:none; fill:#333399"><tspan dy="14" x="413">Tratativa TI</tspan></text></g><g sequence="16"><rect x="670" y="43" width="106" height="70" ry="5" rx="5" style="fill:url(#linearGradientF8FBFEEDF5FCDEEDFAD4E7F8E2E5E9_1756417867);" stroke="191970" /></g><g componentSequence="16"><text x="723" y="58" text-anchor="middle" style="font-weight:bold;font-size:10px;stroke:none; fill:#333399"><tspan dy="14" x="723">Finalização do</tspan><tspan dy="14" x="723">solicitante</tspan></text></g><g sequence="17"><ellipse cx="837" cy="210" rx="17" ry="17" stroke-width="3" style="fill:url(#linearGradientFF6666FF9696FFB6B6_766663737);" stroke="993333" /></g><g sequence="27"><polygon points=" 693 183 723 153 753 183 723 213 693 183" style="fill:url(#linearGradientFAFBFCFFFFCC_184310984);" stroke="000000" /></g><g componentSequence="27"><text x="723" y="223" text-anchor="middle" style="font-weight:bold;font-size:10px;stroke:none; fill:#333399"><tspan dy="14" x="723">Demand</tspan><tspan dy="14" x="723">a foi</tspan><tspan dy="14" x="723">atend...</tspan></text></g><g sequence="31"><polygon points=" 160 190 190 160 220 190 190 220 160 190" style="fill:url(#linearGradientFAFBFCFFFFCC_475346131);" stroke="000000" /></g><g componentSequence="31"><text x="190" y="230" text-anchor="middle" style="font-weight:bold;font-size:10px;stroke:none; fill:#333399"><tspan dy="14" x="190">Sou</tspan><tspan dy="14" x="190">gerente?</tspan></text></g><g sequence="32"><polygon points=" 260 190 290 160 320 190 290 220 260 190" style="fill:url(#linearGradientFAFBFCFFFFCC_1928424069);" stroke="000000" /></g><g componentSequence="32"><text x="290" y="230" text-anchor="middle" style="font-weight:bold;font-size:10px;stroke:none; fill:#333399"><tspan dy="14" x="290">Aprov.</tspan><tspan dy="14" x="290">gerente?</tspan></text></g><g sequence="33"><polygon points=" 50 190 80 160 110 190 80 220 50 190" style="fill:url(#linearGradientFAFBFCFFFFCC_1302176630);" stroke="000000" /></g><g componentSequence="33"><text x="80" y="230" text-anchor="middle" style="font-weight:bold;font-size:10px;stroke:none; fill:#333399"><tspan dy="14" x="80">Req.</tspan><tspan dy="14" x="80">material?</tspan></text></g><g sequence="38"><rect x="140" y="358" width="106" height="70" ry="5" rx="5" style="fill:url(#linearGradientF8FBFEEDF5FCDEEDFAD4E7F8E2E5E9_636464145);" stroke="191970" /></g><g componentSequence="38"><text x="193" y="373" text-anchor="middle" style="font-weight:bold;font-size:10px;stroke:none; fill:#333399"><tspan dy="14" x="193">Aprovação</tspan><tspan dy="14" x="193">gerente</tspan></text></g><g sequence="43"><polygon points=" 300 372 330 342 360 372 330 402 300 372" style="fill:url(#linearGradientFAFBFCFFFFCC_279574483);" stroke="000000" /></g><g componentSequence="43"><text x="330" y="412" text-anchor="middle" style="font-weight:bold;font-size:10px;stroke:none; fill:#333399"><tspan dy="14" x="330">Gerente</tspan><tspan dy="14" x="330">aprova?</tspan></text></g><g sequence="45"><ellipse cx="457" cy="392" rx="17" ry="17" stroke-width="3" style="fill:url(#linearGradientFF6666FF9696FFB6B6_1777664513);" stroke="993333" /></g><g sequence="48"><polygon points=" 550 183 580 153 610 183 580 213 550 183" style="fill:url(#linearGradientFAFBFCFFFFCC_1238604378);" stroke="000000" /></g><g componentSequence="48"><text x="580" y="223" text-anchor="middle" style="font-weight:bold;font-size:10px;stroke:none; fill:#333399"><tspan dy="14" x="580">Passar</tspan><tspan dy="14" x="580">p/</tspan><tspan dy="14" x="580">gerente?</tspan></text></g><g componentSequence="24"><text x="733" y="133" style="font-size:10px;font-weight:none;stroke:none; fill:#333399" text-anchor="left" /></g><g componentSequence="29"><text x="561" y="284" style="font-size:10px;font-weight:none;stroke:none; fill:#333399" text-anchor="left"><tspan dy="14" x="561">Não</tspan></text></g><g componentSequence="30"><text x="796" y="210" style="font-size:10px;font-weight:none;stroke:none; fill:#333399" text-anchor="left" /></g><g componentSequence="34"><text x="89" y="127" style="font-size:10px;font-weight:none;stroke:none; fill:#333399" text-anchor="left" /></g><g componentSequence="35"><text x="145" y="211" style="font-size:10px;font-weight:none;stroke:none; fill:#333399" text-anchor="left"><tspan dy="14" x="145">Não</tspan></text></g><g componentSequence="36"><text x="250" y="211" style="font-size:10px;font-weight:none;stroke:none; fill:#333399" text-anchor="left"><tspan dy="14" x="250">Não</tspan></text></g><g componentSequence="37"><text x="350" y="211" style="font-size:10px;font-weight:none;stroke:none; fill:#333399" text-anchor="left"><tspan dy="14" x="350">Não</tspan></text></g><g componentSequence="39"><text x="91" y="356" style="font-size:10px;font-weight:none;stroke:none; fill:#333399" text-anchor="left"><tspan dy="14" x="91">Sim</tspan></text></g><g componentSequence="41"><text x="305" y="124" style="font-size:10px;font-weight:none;stroke:none; fill:#333399" text-anchor="left"><tspan dy="14" x="305">Sim</tspan></text></g><g componentSequence="42"><text x="226" y="282" style="font-size:10px;font-weight:none;stroke:none; fill:#333399" text-anchor="left"><tspan dy="14" x="226">Sim</tspan></text></g><g componentSequence="44"><text x="283" y="393" style="font-size:10px;font-weight:none;stroke:none; fill:#333399" text-anchor="left" /></g><g componentSequence="46"><text x="410" y="392" style="font-size:10px;font-weight:none;stroke:none; fill:#333399" text-anchor="left"><tspan dy="14" x="410">Não</tspan></text></g><g componentSequence="47"><text x="390" y="300" style="font-size:10px;font-weight:none;stroke:none; fill:#333399" text-anchor="left"><tspan dy="14" x="390">Sim</tspan></text></g><g componentSequence="49"><text x="518" y="211" style="font-size:10px;font-weight:none;stroke:none; fill:#333399" text-anchor="left" /></g><g componentSequence="51"><text x="472" y="447" style="font-size:10px;font-weight:none;stroke:none; fill:#333399" text-anchor="left" /></g><g componentSequence="52"><text x="733" y="133" style="font-size:10px;font-weight:none;stroke:none; fill:#333399" text-anchor="left" /></g><g componentSequence="53"><text x="598" y="78" style="font-size:10px;font-weight:none;stroke:none; fill:#333399" text-anchor="left" /></g><path style="fill:none; stroke:#000000;stroke-width:1" d="M78.0 94.0 L78.0 158.0" /><polygon style="fill:#000000; stroke:#000000;" points=" 83 148 78 158 73 148 78 150" /><path style="fill:none; stroke:#000000;stroke-width:1" d="M466.0 210.0 L548.0 210.0" /><polygon style="fill:#000000; stroke:#000000;" points=" 538 205 548 210 538 215 540 210" /><path style="fill:none; stroke:#000000;stroke-width:1" d="M718.0 269.0 L718.0 284.0 L414.0 284.0 L413.0 240.0" /><polygon style="fill:#000000; stroke:#000000;" points=" 408 250 413 240 418 250 413 248" /><path style="fill:none; stroke:#000000;stroke-width:1" d="M320.0 210.0 L358.0 210.0" /><polygon style="fill:#000000; stroke:#000000;" points=" 348 205 358 210 348 215 350 210" /><path style="fill:none; stroke:#000000;stroke-width:1" d="M188.0 158.0 L189.0 124.0 L267.0 124.0 L335.0 124.0 L335.0 200.0 L358.0 202.0" /><polygon style="fill:#000000; stroke:#000000;" points=" 348 196 358 202 348 206 350 201" /><path style="fill:none; stroke:#000000;stroke-width:1" d="M329.0 340.0 L330.0 300.0 L409.0 300.0 L410.0 240.0" /><polygon style="fill:#000000; stroke:#000000;" points=" 405 250 410 240 415 250 410 248" /><path style="fill:none; stroke:#009600;stroke-width:1" d="M722.0 113.0 L722.0 152.0" /><polygon style="fill:#009600; stroke:#009600;" points=" 727 142 722 152 717 142 722 144" /><path style="fill:none; stroke:#000000;stroke-width:1" d="M722.0 113.0 L722.0 152.0" /><polygon style="fill:#000000; stroke:#000000;" points=" 727 142 722 152 717 142 722 144" /><path style="fill:none; stroke:#000000;stroke-width:1" d="M580.0 152.0 L580.0 78.0 L668.0 77.0" /><polygon style="fill:#000000; stroke:#000000;" points=" 658 72 668 77 658 82 660 77" /><path style="fill:none; stroke:#000000;stroke-width:1" d="M753.0 210.0 L820.0 209.0" /><polygon style="fill:#000000; stroke:#000000;" points=" 810 204 820 209 810 214 812 209" /><path style="fill:none; stroke:#000000;stroke-width:1" d="M220.0 210.0 L258.0 210.0" /><polygon style="fill:#000000; stroke:#000000;" points=" 248 205 258 210 248 215 250 210" /><path style="fill:none; stroke:#000000;stroke-width:1" d="M110.0 210.0 L158.0 210.0" /><polygon style="fill:#000000; stroke:#000000;" points=" 148 205 158 210 148 215 150 210" /><path style="fill:none; stroke:#000000;stroke-width:1" d="M290.0 262.0 L292.0 282.0 L244.0 282.0 L194.0 282.0 L193.0 356.0" /><polygon style="fill:#000000; stroke:#000000;" points=" 198 346 193 356 188 346 193 348" /><path style="fill:none; stroke:#000000;stroke-width:1" d="M80.0 262.0 L81.0 393.0 L138.0 392.0" /><polygon style="fill:#000000; stroke:#000000;" points=" 128 387 138 392 128 397 130 392" /><path style="fill:none; stroke:#000000;stroke-width:1" d="M246.0 392.0 L298.0 392.0" /><polygon style="fill:#000000; stroke:#000000;" points=" 288 387 298 392 288 397 290 392" /><path style="fill:none; stroke:#000000;stroke-width:1" d="M580.0 269.0 L581.0 447.0 L381.0 447.0 L184.0 447.0 L186.0 428.0" /><polygon style="fill:#000000; stroke:#000000;" points=" 180 437 186 428 190 438 185 436" /><path style="fill:none; stroke:#000000;stroke-width:1" d="M360.0 392.0 L438.0 392.0" /><polygon style="fill:#000000; stroke:#000000;" points=" 428 387 438 392 428 397 430 392" /><defs><linearGradient xmlns:xlink="http://www.w3.org/1999/xlink" xlink:href="#linearGradient66FF6696FF96B6FFB6" id="linearGradient66FF6696FF96B6FFB6_1648927803" x1="0" y1="60.0" x2="0" y2="95.0" gradientUnits="userSpaceOnUse" xlink:type="simple" xlink:actuate="onLoad" xlink:show="other" /><linearGradient id="linearGradient66FF6696FF96B6FFB6"><stop style="stop-color:#66FF66;stop-opacity:1;" offset="0.0" id="stop66FF66" /><stop style="stop-color:#96FF96;stop-opacity:1;" offset="0.5" id="stop96FF96" /><stop style="stop-color:#B6FFB6;stop-opacity:1;" offset="1.0" id="stopB6FFB6" /></linearGradient><linearGradient xmlns:xlink="http://www.w3.org/1999/xlink" xlink:href="#linearGradientF8FBFEEDF5FCDEEDFAD4E7F8E2E5E9" id="linearGradientF8FBFEEDF5FCDEEDFAD4E7F8E2E5E9_1821332994" x1="0" y1="183.0" x2="0" y2="289.0" gradientUnits="userSpaceOnUse" xlink:type="simple" xlink:actuate="onLoad" xlink:show="other" /><linearGradient id="linearGradientF8FBFEEDF5FCDEEDFAD4E7F8E2E5E9"><stop style="stop-color:#F8FBFE;stop-opacity:1;" offset="0.0" id="stopF8FBFE" /><stop style="stop-color:#EDF5FC;stop-opacity:1;" offset="0.25" id="stopEDF5FC" /><stop style="stop-color:#DEEDFA;stop-opacity:1;" offset="0.5" id="stopDEEDFA" /><stop style="stop-color:#D4E7F8;stop-opacity:1;" offset="0.75" id="stopD4E7F8" /><stop style="stop-color:#E2E5E9;stop-opacity:1;" offset="1.0" id="stopE2E5E9" /></linearGradient><linearGradient xmlns:xlink="http://www.w3.org/1999/xlink" xlink:href="#linearGradientF8FBFEEDF5FCDEEDFAD4E7F8E2E5E9" id="linearGradientF8FBFEEDF5FCDEEDFAD4E7F8E2E5E9_1756417867" x1="0" y1="43.0" x2="0" y2="149.0" gradientUnits="userSpaceOnUse" xlink:type="simple" xlink:actuate="onLoad" xlink:show="other" /><linearGradient xmlns:xlink="http://www.w3.org/1999/xlink" xlink:href="#linearGradientFF6666FF9696FFB6B6" id="linearGradientFF6666FF9696FFB6B6_766663737" x1="0" y1="193.0" x2="0" y2="228.0" gradientUnits="userSpaceOnUse" xlink:type="simple" xlink:actuate="onLoad" xlink:show="other" /><linearGradient id="linearGradientFF6666FF9696FFB6B6"><stop style="stop-color:#FF6666;stop-opacity:1;" offset="0.0" id="stopFF6666" /><stop style="stop-color:#FF9696;stop-opacity:1;" offset="0.5" id="stopFF9696" /><stop style="stop-color:#FFB6B6;stop-opacity:1;" offset="1.0" id="stopFFB6B6" /></linearGradient><linearGradient xmlns:xlink="http://www.w3.org/1999/xlink" xlink:href="#linearGradientFAFBFCFFFFCC" id="linearGradientFAFBFCFFFFCC_184310984" x1="0" y1="153.0" x2="0" y2="213.0" gradientUnits="userSpaceOnUse" xlink:type="simple" xlink:actuate="onLoad" xlink:show="other" /><linearGradient id="linearGradientFAFBFCFFFFCC"><stop style="stop-color:#FAFBFC;stop-opacity:1;" offset="0.0" id="stopFAFBFC" /><stop style="stop-color:#FFFFCC;stop-opacity:1;" offset="1.0" id="stopFFFFCC" /></linearGradient><linearGradient xmlns:xlink="http://www.w3.org/1999/xlink" xlink:href="#linearGradientFAFBFCFFFFCC" id="linearGradientFAFBFCFFFFCC_475346131" x1="0" y1="160.0" x2="0" y2="220.0" gradientUnits="userSpaceOnUse" xlink:type="simple" xlink:actuate="onLoad" xlink:show="other" /><linearGradient xmlns:xlink="http://www.w3.org/1999/xlink" xlink:href="#linearGradientFAFBFCFFFFCC" id="linearGradientFAFBFCFFFFCC_1928424069" x1="0" y1="160.0" x2="0" y2="220.0" gradientUnits="userSpaceOnUse" xlink:type="simple" xlink:actuate="onLoad" xlink:show="other" /><linearGradient xmlns:xlink="http://www.w3.org/1999/xlink" xlink:href="#linearGradientFAFBFCFFFFCC" id="linearGradientFAFBFCFFFFCC_1302176630" x1="0" y1="160.0" x2="0" y2="220.0" gradientUnits="userSpaceOnUse" xlink:type="simple" xlink:actuate="onLoad" xlink:show="other" /><linearGradient xmlns:xlink="http://www.w3.org/1999/xlink" xlink:href="#linearGradientF8FBFEEDF5FCDEEDFAD4E7F8E2E5E9" id="linearGradientF8FBFEEDF5FCDEEDFAD4E7F8E2E5E9_636464145" x1="0" y1="358.0" x2="0" y2="464.0" gradientUnits="userSpaceOnUse" xlink:type="simple" xlink:actuate="onLoad" xlink:show="other" /><linearGradient xmlns:xlink="http://www.w3.org/1999/xlink" xlink:href="#linearGradientFAFBFCFFFFCC" id="linearGradientFAFBFCFFFFCC_279574483" x1="0" y1="342.0" x2="0" y2="402.0" gradientUnits="userSpaceOnUse" xlink:type="simple" xlink:actuate="onLoad" xlink:show="other" /><linearGradient xmlns:xlink="http://www.w3.org/1999/xlink" xlink:href="#linearGradientFF6666FF9696FFB6B6" id="linearGradientFF6666FF9696FFB6B6_1777664513" x1="0" y1="375.0" x2="0" y2="410.0" gradientUnits="userSpaceOnUse" xlink:type="simple" xlink:actuate="onLoad" xlink:show="other" /><linearGradient xmlns:xlink="http://www.w3.org/1999/xlink" xlink:href="#linearGradientFAFBFCFFFFCC" id="linearGradientFAFBFCFFFFCC_1238604378" x1="0" y1="153.0" x2="0" y2="213.0" gradientUnits="userSpaceOnUse" xlink:type="simple" xlink:actuate="onLoad" xlink:show="other" /></defs></svg>
