<?xml version="1.0" encoding="UTF-8"?>
<svg xmlns="http://www.w3.org/2000/svg" style="stroke-dasharray:none; shape-rendering:auto; font-family:'Arial'; text-rendering:auto; fill-opacity:1; color-interpolation:auto; color-rendering:auto; font-size:12; fill:black; stroke:black; image-rendering:auto; stroke-miterlimit:10; stroke-linecap:square; stroke-linejoin:miter; font-style:normal; stroke-width:1; stroke-dashoffset:0; font-weight:normal; stroke-opacity:1;" contentScriptType="text/ecmascript" preserveAspectRatio="xMidYMid meet" zoomAndPan="magnify" version="1.0" contentStyleType="text/css" xml:xlink="http://www.w3.org/1999/xlink" width="2621" height="965"><rect x="0" y="870" width="2621" height="95" ry="0" rx="0" style="stroke:#000000; fill:#82B0B7" /><g componentSequence="3"><text x="-917" y="7" transform="rotate(270)" text-anchor="middle" style="font-weight:bold;font-size:10px;stroke:none; fill:#434343"><tspan dy="14" x="-917">D.P</tspan></text></g><rect x="0" y="9" width="2621" height="150" ry="0" rx="0" style="stroke:#000000; fill:#82B0B7" /><g componentSequence="2"><text x="-84" y="7" transform="rotate(270)" text-anchor="middle" style="font-weight:bold;font-size:10px;stroke:none; fill:#434343"><tspan dy="14" x="-84">VENDEDOR</tspan></text></g><rect x="0" y="759" width="2621" height="114" ry="0" rx="0" style="stroke:#000000; fill:#9FC1C6" /><g componentSequence="1"><text x="-816" y="7" transform="rotate(270)" text-anchor="middle" style="font-weight:bold;font-size:10px;stroke:none; fill:#434343"><tspan dy="14" x="-816">COMPRAS</tspan></text></g><rect x="0" y="304" width="2621" height="134" ry="0" rx="0" style="stroke:#000000; fill:#ADC9AC" /><g componentSequence="8"><text x="-371" y="7" transform="rotate(270)" text-anchor="middle" style="font-weight:bold;font-size:10px;stroke:none; fill:#434343"><tspan dy="14" x="-371">GERENTE</tspan></text></g><rect x="0" y="539" width="2621" height="115" ry="0" rx="0" style="stroke:#000000; fill:#D6E0D0" /><g componentSequence="6"><text x="-596" y="7" transform="rotate(270)" text-anchor="middle" style="font-weight:bold;font-size:10px;stroke:none; fill:#434343"><tspan dy="14" x="-596">LOGÍSTICA</tspan></text></g><rect x="0" y="158" width="2621" height="150" ry="0" rx="0" style="stroke:#000000; fill:#82B0B7" /><g componentSequence="7"><text x="-233" y="7" transform="rotate(270)" text-anchor="middle" style="font-weight:bold;font-size:10px;stroke:none; fill:#434343"><tspan dy="14" x="-233">SUPERVISOR</tspan></text></g><rect x="0" y="653" width="2621" height="116" ry="0" rx="0" style="stroke:#000000; fill:#C9C3AC" /><g componentSequence="5"><text x="-711" y="7" transform="rotate(270)" text-anchor="middle" style="font-weight:bold;font-size:10px;stroke:none; fill:#434343"><tspan dy="14" x="-711">RECEBIMENTO</tspan></text></g><rect x="0" y="432" width="2621" height="108" ry="0" rx="0" style="stroke:#000000; fill:#D0DAAE" /><g componentSequence="4"><text x="-486" y="7" transform="rotate(270)" text-anchor="middle" style="font-weight:bold;font-size:10px;stroke:none; fill:#434343"><tspan dy="14" x="-486">COBRANÇA</tspan></text></g><g sequence="9"><ellipse cx="627" cy="67" rx="17" ry="17" stroke-width="1" style="fill:url(#linearGradient66FF6696FF96B6FFB6_1168037811);" stroke="336633" /></g><g sequence="13"><rect x="519" y="167" width="106" height="70" ry="5" rx="5" style="fill:url(#linearGradientF8FBFEEDF5FCDEEDFAD4E7F8E2E5E9_1264132464);" stroke="191970" /></g><g componentSequence="13"><text x="572" y="182" text-anchor="middle" style="font-weight:bold;font-size:10px;stroke:none; fill:#333399"><tspan dy="14" x="572">Aprovação</tspan><tspan dy="14" x="572">Supervisor</tspan></text></g><g sequence="18"><polygon points=" 700 230 730 200 760 230 730 260 700 230" style="fill:url(#linearGradientFAFBFCFFFFCC_1332133059);" stroke="000000" /></g><g componentSequence="18"><text x="730" y="270" text-anchor="middle" style="font-weight:bold;font-size:10px;stroke:none; fill:#333399"><tspan dy="14" x="730">Produto</tspan><tspan dy="14" x="730">Especial</tspan><tspan dy="14" x="730">?</tspan></text></g><g sequence="20"><rect x="550" y="333" width="106" height="84" ry="5" rx="5" style="fill:url(#linearGradientF8FBFEEDF5FCDEEDFAD4E7F8E2E5E9_174336843);" stroke="191970" /></g><g componentSequence="20"><text x="603" y="348" text-anchor="middle" style="font-weight:bold;font-size:10px;stroke:none; fill:#333399"><tspan dy="14" x="603">Aprovação</tspan><tspan dy="14" x="603">Gerente de</tspan><tspan dy="14" x="603">Vendas</tspan></text></g><g sequence="23"><polygon points=" 720 50 750 20 780 50 750 80 720 50" style="fill:url(#linearGradientFAFBFCFFFFCC_972314363);" stroke="000000" /></g><g componentSequence="23"><text x="750" y="90" text-anchor="middle" style="font-weight:bold;font-size:10px;stroke:none; fill:#333399"><tspan dy="14" x="750">Solicitant</tspan><tspan dy="14" x="750">e?</tspan></text></g><g sequence="27"><polygon points=" 1050 230 1080 200 1110 230 1080 260 1050 230" style="fill:url(#linearGradientFAFBFCFFFFCC_1000645140);" stroke="000000" /></g><path style="fill:none; stroke-width:6; stroke:#000000;" d="M1070.0 230.0 L1090.0 230.0" /><path style="fill:none; stroke-width:6; stroke:#000000;" d="M1080.0 220.0 L1080.0 240.0" /><g componentSequence="27"><text x="1080" y="270" text-anchor="middle" style="font-weight:bold;font-size:10px;stroke:none; fill:#333399"><tspan dy="14" x="1080">Inicio de</tspan><tspan dy="14" x="1080">Atividad.</tspan><tspan dy="14" x="1080">..</tspan></text></g><g sequence="29"><rect x="1030" y="460" width="106" height="70" ry="5" rx="5" style="fill:url(#linearGradientF8FBFEEDF5FCDEEDFAD4E7F8E2E5E9_1105101063);" stroke="191970" /></g><g componentSequence="29"><text x="1083" y="475" text-anchor="middle" style="font-weight:bold;font-size:10px;stroke:none; fill:#333399"><tspan dy="14" x="1083">Alteração da</tspan><tspan dy="14" x="1083">Cobrança</tspan></text></g><g sequence="31"><polygon points=" 1710 240 1740 210 1770 240 1740 270 1710 240" style="fill:url(#linearGradientFAFBFCFFFFCC_1783354372);" stroke="000000" /></g><g componentSequence="31"><text x="1740" y="280" text-anchor="middle" style="font-weight:bold;font-size:10px;stroke:none; fill:#333399"><tspan dy="14" x="1740">Possui</tspan><tspan dy="14" x="1740">Coleta?</tspan></text></g><g sequence="33"><rect x="1440" y="580" width="106" height="56" ry="5" rx="5" style="fill:url(#linearGradientF8FBFEEDF5FCDEEDFAD4E7F8E2E5E9_1905464376);" stroke="191970" /></g><g componentSequence="33"><text x="1493" y="597" text-anchor="middle" style="font-weight:bold;font-size:10px;stroke:none; fill:#333399"><tspan dy="14" x="1493">Realizar Coleta</tspan></text></g><g sequence="35"><rect x="1410" y="690" width="106" height="70" ry="5" rx="5" style="fill:url(#linearGradientF8FBFEEDF5FCDEEDFAD4E7F8E2E5E9_1866054684);" stroke="191970" /></g><g componentSequence="35"><text x="1463" y="705" text-anchor="middle" style="font-weight:bold;font-size:10px;stroke:none; fill:#333399"><tspan dy="14" x="1463">Realizar</tspan><tspan dy="14" x="1463">Recebimento</tspan></text></g><g sequence="38"><polygon points=" 1220 474 1250 444 1280 474 1250 504 1220 474" style="fill:url(#linearGradientFAFBFCFFFFCC_1524289093);" stroke="000000" /></g><path style="fill:none; stroke-width:6; stroke:#000000;" d="M1240.0 474.0 L1260.0 474.0" /><path style="fill:none; stroke-width:6; stroke:#000000;" d="M1250.0 464.0 L1250.0 484.0" /><g componentSequence="38"><text x="1250" y="514" text-anchor="middle" style="font-weight:bold;font-size:10px;stroke:none; fill:#333399"><tspan dy="14" x="1250">Finaliza</tspan><tspan dy="14" x="1250">Ativida...</tspan></text></g><g sequence="41"><polygon points=" 1810 467 1840 437 1870 467 1840 497 1810 467" style="fill:url(#linearGradientFAFBFCFFFFCC_1845873390);" stroke="000000" /></g><g componentSequence="41"><text x="1840" y="507" text-anchor="middle" style="font-weight:bold;font-size:10px;stroke:none; fill:#333399"><tspan dy="14" x="1840">Recebim</tspan><tspan dy="14" x="1840">ento</tspan><tspan dy="14" x="1840">OK?</tspan></text></g><g sequence="43"><rect x="2060" y="460" width="106" height="70" ry="5" rx="5" style="fill:url(#linearGradientF8FBFEEDF5FCDEEDFAD4E7F8E2E5E9_123613634);" stroke="191970" /></g><g componentSequence="43"><text x="2113" y="475" text-anchor="middle" style="font-weight:bold;font-size:10px;stroke:none; fill:#333399"><tspan dy="14" x="2113">Acerto de</tspan><tspan dy="14" x="2113">Crédito</tspan></text></g><g sequence="45"><rect x="1783" y="48" width="106" height="70" ry="5" rx="5" style="fill:url(#linearGradientF8FBFEEDF5FCDEEDFAD4E7F8E2E5E9_631612521);" stroke="191970" /></g><g componentSequence="45"><text x="1836" y="63" text-anchor="middle" style="font-weight:bold;font-size:10px;stroke:none; fill:#333399"><tspan dy="14" x="1836">Revisar</tspan><tspan dy="14" x="1836">Devolução</tspan></text></g><g sequence="47"><polygon points=" 1940 58 1970 28 2000 58 1970 88 1940 58" style="fill:url(#linearGradientFAFBFCFFFFCC_687996542);" stroke="000000" /></g><g componentSequence="47"><text x="1970" y="98" text-anchor="middle" style="font-weight:bold;font-size:10px;stroke:none; fill:#333399"><tspan dy="14" x="1970">Devoluç</tspan><tspan dy="14" x="1970">ão</tspan><tspan dy="14" x="1970">Revi...</tspan></text></g><g sequence="49"><ellipse cx="2207" cy="85" rx="17" ry="17" stroke-width="3" style="fill:url(#linearGradientFF6666FF9696FFB6B6_1771242250);" stroke="993333" /></g><g sequence="54"><polygon points=" 350 250 380 220 410 250 380 280 350 250" style="fill:url(#linearGradientFAFBFCFFFFCC_523632603);" stroke="000000" /></g><g componentSequence="54"><text x="380" y="283" text-anchor="middle" style="font-weight:bold;font-size:10px;stroke:none; fill:#333399"><tspan dy="14" x="380">Aprova?</tspan></text></g><g sequence="57"><rect x="250" y="84" width="106" height="70" ry="5" rx="5" style="fill:url(#linearGradientF8FBFEEDF5FCDEEDFAD4E7F8E2E5E9_389781176);" stroke="191970" /></g><g componentSequence="57"><text x="303" y="99" text-anchor="middle" style="font-weight:bold;font-size:10px;stroke:none; fill:#333399"><tspan dy="14" x="303">Ajustar</tspan><tspan dy="14" x="303">Devolução</tspan></text></g><g sequence="60"><ellipse cx="217" cy="287" rx="17" ry="17" stroke-width="3" style="fill:url(#linearGradientFF6666FF9696FFB6B6_829388847);" stroke="993333" /></g><g sequence="62"><polygon points=" 850 361 880 331 910 361 880 391 850 361" style="fill:url(#linearGradientFAFBFCFFFFCC_1075160667);" stroke="000000" /></g><g componentSequence="62"><text x="880" y="394" text-anchor="middle" style="font-weight:bold;font-size:10px;stroke:none; fill:#333399"><tspan dy="14" x="880">Aprova?</tspan></text></g><g sequence="65"><polygon points=" 2190 347 2220 317 2250 347 2220 377 2190 347" style="fill:url(#linearGradientFAFBFCFFFFCC_1886278309);" stroke="000000" /></g><g componentSequence="65"><text x="2220" y="387" text-anchor="middle" style="font-weight:bold;font-size:10px;stroke:none; fill:#333399"><tspan dy="14" x="2220">Aplicar</tspan><tspan dy="14" x="2220">Penalida</tspan><tspan dy="14" x="2220">de?</tspan></text></g><g sequence="67"><rect x="2280" y="880" width="106" height="84" ry="5" rx="5" style="fill:url(#linearGradientF8FBFEEDF5FCDEEDFAD4E7F8E2E5E9_1001096262);" stroke="191970" /></g><g componentSequence="67"><text x="2333" y="895" text-anchor="middle" style="font-weight:bold;font-size:10px;stroke:none; fill:#333399"><tspan dy="14" x="2333">Aplicar Ação</tspan><tspan dy="14" x="2333">comportamental</tspan></text></g><g sequence="69"><rect x="2380" y="51" width="106" height="70" ry="5" rx="5" style="fill:url(#linearGradientF8FBFEEDF5FCDEEDFAD4E7F8E2E5E9_1901014300);" stroke="191970" /></g><g componentSequence="69"><text x="2433" y="66" text-anchor="middle" style="font-weight:bold;font-size:10px;stroke:none; fill:#333399"><tspan dy="14" x="2433">Confirmar</tspan><tspan dy="14" x="2433">Devolução</tspan></text></g><g sequence="71"><ellipse cx="2567" cy="85" rx="17" ry="17" stroke-width="3" style="fill:url(#linearGradientFF6666FF9696FFB6B6_470120976);" stroke="993333" /></g><g sequence="75"><ellipse cx="877" cy="510" rx="17" ry="17" stroke-width="3" style="fill:url(#linearGradientFF6666FF9696FFB6B6_519895119);" stroke="993333" /></g><g sequence="85"><polygon points=" 1290 590 1320 560 1350 590 1320 620 1290 590" style="fill:url(#linearGradientFAFBFCFFFFCC_2031273570);" stroke="000000" /></g><g componentSequence="85"><text x="1320" y="630" text-anchor="middle" style="font-weight:bold;font-size:10px;stroke:none; fill:#333399"><tspan dy="14" x="1320">Material</tspan><tspan dy="14" x="1320">ok?</tspan></text></g><g sequence="88"><rect x="1270" y="51" width="106" height="70" ry="5" rx="5" style="fill:url(#linearGradientF8FBFEEDF5FCDEEDFAD4E7F8E2E5E9_1899832209);" stroke="191970" /></g><g componentSequence="88"><text x="1323" y="75" text-anchor="middle" style="font-weight:bold;font-size:10px;stroke:none; fill:#333399"><tspan dy="14" x="1323">Confirmar coleta</tspan></text></g><g sequence="91"><polygon points=" 1430 58 1460 28 1490 58 1460 88 1430 58" style="fill:url(#linearGradientFAFBFCFFFFCC_1189020252);" stroke="000000" /></g><g componentSequence="91"><text x="1460" y="98" text-anchor="middle" style="font-weight:bold;font-size:10px;stroke:none; fill:#333399"><tspan dy="14" x="1460">Coletar</tspan><tspan dy="14" x="1460">mesmo</tspan><tspan dy="14" x="1460">assim?</tspan></text></g><g sequence="97"><polygon points=" 1530 474 1560 444 1590 474 1560 504 1530 474" style="fill:url(#linearGradientFAFBFCFFFFCC_1058583624);" stroke="000000" /></g><g componentSequence="97"><text x="1560" y="514" text-anchor="middle" style="font-weight:bold;font-size:10px;stroke:none; fill:#333399"><tspan dy="14" x="1560">Realizar</tspan><tspan dy="14" x="1560">Coleta?</tspan></text></g><g sequence="98"><ellipse cx="1527" cy="377" rx="17" ry="17" stroke-width="3" style="fill:url(#linearGradientFF6666FF9696FFB6B6_1356223519);" stroke="993333" /></g><g sequence="106"><rect x="2060" y="788" width="106" height="70" ry="5" rx="5" style="fill:url(#linearGradientF8FBFEEDF5FCDEEDFAD4E7F8E2E5E9_1215288383);" stroke="191970" /></g><g componentSequence="106"><text x="2113" y="803" text-anchor="middle" style="font-weight:bold;font-size:10px;stroke:none; fill:#333399"><tspan dy="14" x="2113">Analisar</tspan><tspan dy="14" x="2113">Devolução</tspan></text></g><g sequence="111"><rect x="1690" y="580" width="106" height="56" ry="5" rx="5" style="fill:url(#linearGradientF8FBFEEDF5FCDEEDFAD4E7F8E2E5E9_1981604492);" stroke="191970" /></g><g componentSequence="111"><text x="1743" y="597" text-anchor="middle" style="font-weight:bold;font-size:10px;stroke:none; fill:#333399"><tspan dy="14" x="1743">Criar roteiro</tspan></text></g><g sequence="114"><rect x="1590" y="340" width="106" height="84" ry="5" rx="5" style="fill:url(#linearGradientF8FBFEEDF5FCDEEDFAD4E7F8E2E5E9_215786227);" stroke="191970" /></g><g componentSequence="114"><text x="1643" y="355" text-anchor="middle" style="font-weight:bold;font-size:10px;stroke:none; fill:#333399"><tspan dy="14" x="1643">Desfazer</tspan><tspan dy="14" x="1643">alteração da</tspan><tspan dy="14" x="1643">cobrança</tspan></text></g><g sequence="117"><rect x="2060" y="44" width="106" height="84" ry="5" rx="5" style="fill:url(#linearGradientF8FBFEEDF5FCDEEDFAD4E7F8E2E5E9_1850243547);" stroke="191970" /></g><g componentSequence="117"><text x="2113" y="59" text-anchor="middle" style="font-weight:bold;font-size:10px;stroke:none; fill:#333399"><tspan dy="14" x="2113">Desfazer</tspan><tspan dy="14" x="2113">alteração da</tspan><tspan dy="14" x="2113">cobrança</tspan></text></g><g sequence="120"><polygon points=" 400 100 430 70 460 100 430 130 400 100" style="fill:url(#linearGradientFAFBFCFFFFCC_1479575041);" stroke="000000" /></g><g componentSequence="120"><text x="430" y="140" text-anchor="middle" style="font-weight:bold;font-size:10px;stroke:none; fill:#333399"><tspan dy="14" x="430">Continua</tspan><tspan dy="14" x="430">r</tspan><tspan dy="14" x="430">devol...</tspan></text></g><g sequence="124"><rect x="680" y="788" width="106" height="70" ry="5" rx="5" style="fill:url(#linearGradientF8FBFEEDF5FCDEEDFAD4E7F8E2E5E9_1235814153);" stroke="191970" /></g><g componentSequence="124"><text x="733" y="803" text-anchor="middle" style="font-weight:bold;font-size:10px;stroke:none; fill:#333399"><tspan dy="14" x="733">Avaliação</tspan><tspan dy="14" x="733">Compras</tspan></text></g><g sequence="131"><polygon points=" 700 354 730 324 760 354 730 384 700 354" style="fill:url(#linearGradientFAFBFCFFFFCC_546041845);" stroke="000000" /></g><g componentSequence="131"><text x="730" y="394" text-anchor="middle" style="font-weight:bold;font-size:10px;stroke:none; fill:#333399"><tspan dy="14" x="730">Necessit</tspan><tspan dy="14" x="730">a</tspan><tspan dy="14" x="730">avali...</tspan></text></g><g sequence="136"><polygon points=" 1590 590 1620 560 1650 590 1620 620 1590 590" style="fill:url(#linearGradientFAFBFCFFFFCC_228641950);" stroke="000000" /></g><g componentSequence="136"><text x="1620" y="630" text-anchor="middle" style="font-weight:bold;font-size:10px;stroke:none; fill:#333399"><tspan dy="14" x="1620">Treiname</tspan><tspan dy="14" x="1620">nto</tspan></text></g><g sequence="147"><ellipse cx="427" cy="37" rx="17" ry="17" stroke-width="3" style="fill:url(#linearGradientFF6666FF9696FFB6B6_1367102373);" stroke="993333" /></g><g componentSequence="24"><text x="692" y="69" style="font-size:10px;font-weight:none;stroke:none; fill:#333399" text-anchor="left" /></g><g componentSequence="25"><text x="648" y="104" style="font-size:10px;font-weight:none;stroke:none; fill:#333399" text-anchor="left"><tspan dy="14" x="648">Sou Vendedor</tspan></text></g><g componentSequence="26"><text x="750" y="140" style="font-size:10px;font-weight:none;stroke:none; fill:#333399" text-anchor="left"><tspan dy="14" x="750">Sou Supervisor</tspan></text></g><g componentSequence="28"><text x="915" y="258" style="font-size:10px;font-weight:none;stroke:none; fill:#333399" text-anchor="left" /></g><g componentSequence="30"><text x="1091" y="388" style="font-size:10px;font-weight:none;stroke:none; fill:#333399" text-anchor="left" /></g><g componentSequence="32"><text x="1420" y="259" style="font-size:10px;font-weight:none;stroke:none; fill:#333399" text-anchor="left" /></g><g componentSequence="37"><text x="1815" y="617" style="font-size:10px;font-weight:none;stroke:none; fill:#333399" text-anchor="left" /></g><g componentSequence="40"><text x="1188" y="495" style="font-size:10px;font-weight:none;stroke:none; fill:#333399" text-anchor="left" /></g><g componentSequence="44"><text x="1975" y="495" style="font-size:10px;font-weight:none;stroke:none; fill:#333399" text-anchor="left"><tspan dy="14" x="1975">Sim</tspan></text></g><g componentSequence="46"><text x="1848" y="277" style="font-size:10px;font-weight:none;stroke:none; fill:#333399" text-anchor="left"><tspan dy="14" x="1848">Não</tspan></text></g><g componentSequence="48"><text x="1924" y="85" style="font-size:10px;font-weight:none;stroke:none; fill:#333399" text-anchor="left" /></g><g componentSequence="55"><text x="452" y="202" style="font-size:10px;font-weight:none;stroke:none; fill:#333399" text-anchor="left" /></g><g componentSequence="56"><text x="565" y="261" style="font-size:10px;font-weight:none;stroke:none; fill:#333399" text-anchor="left"><tspan dy="14" x="565">Aprovado</tspan></text></g><g componentSequence="58"><text x="312" y="227" style="font-size:10px;font-weight:none;stroke:none; fill:#333399" text-anchor="left"><tspan dy="14" x="312">Ajustar</tspan></text></g><g componentSequence="61"><text x="303" y="287" style="font-size:10px;font-weight:none;stroke:none; fill:#333399" text-anchor="left"><tspan dy="14" x="303">Reprovado</tspan></text></g><g componentSequence="63"><text x="688" y="379" style="font-size:10px;font-weight:none;stroke:none; fill:#333399" text-anchor="left" /></g><g componentSequence="72"><text x="2528" y="85" style="font-size:10px;font-weight:none;stroke:none; fill:#333399" text-anchor="left" /></g><g componentSequence="74"><text x="2528" y="85" style="font-size:10px;font-weight:none;stroke:none; fill:#333399" text-anchor="left" /></g><g componentSequence="76"><text x="888" y="456" style="font-size:10px;font-weight:none;stroke:none; fill:#333399" text-anchor="left"><tspan dy="14" x="888">Não</tspan></text></g><g componentSequence="83"><text x="2449" y="548" style="font-size:10px;font-weight:none;stroke:none; fill:#333399" text-anchor="left" /></g><g componentSequence="84"><text x="2266" y="193" style="font-size:10px;font-weight:none;stroke:none; fill:#333399" text-anchor="left" /></g><g componentSequence="86"><text x="1405" y="610" style="font-size:10px;font-weight:none;stroke:none; fill:#333399" text-anchor="left" /></g><g componentSequence="94"><text x="1260" y="715" style="font-size:10px;font-weight:none;stroke:none; fill:#333399" text-anchor="left" /></g><g componentSequence="96"><text x="1352" y="293" style="font-size:10px;font-weight:none;stroke:none; fill:#333399" text-anchor="left" /></g><g componentSequence="100"><text x="1710" y="495" style="font-size:10px;font-weight:none;stroke:none; fill:#333399" text-anchor="left" /></g><g componentSequence="101"><text x="1415" y="495" style="font-size:10px;font-weight:none;stroke:none; fill:#333399" text-anchor="left" /></g><g componentSequence="102"><text x="1331" y="340" style="font-size:10px;font-weight:none;stroke:none; fill:#333399" text-anchor="left" /></g><g componentSequence="103"><text x="1471" y="417" style="font-size:10px;font-weight:none;stroke:none; fill:#333399" text-anchor="left" /></g><g componentSequence="104"><text x="1413" y="86" style="font-size:10px;font-weight:none;stroke:none; fill:#333399" text-anchor="left" /></g><g componentSequence="105"><text x="1361" y="700" style="font-size:10px;font-weight:none;stroke:none; fill:#333399" text-anchor="left" /></g><g componentSequence="107"><text x="2123" y="659" style="font-size:10px;font-weight:none;stroke:none; fill:#333399" text-anchor="left" /></g><g componentSequence="112"><text x="1751" y="446" style="font-size:10px;font-weight:none;stroke:none; fill:#333399" text-anchor="left" /></g><g componentSequence="115"><text x="1652" y="486" style="font-size:10px;font-weight:none;stroke:none; fill:#333399" text-anchor="left" /></g><g componentSequence="116"><text x="1577" y="379" style="font-size:10px;font-weight:none;stroke:none; fill:#333399" text-anchor="left" /></g><g componentSequence="118"><text x="2040" y="86" style="font-size:10px;font-weight:none;stroke:none; fill:#333399" text-anchor="left" /></g><g componentSequence="119"><text x="2188" y="85" style="font-size:10px;font-weight:none;stroke:none; fill:#333399" text-anchor="left" /></g><g componentSequence="121"><text x="388" y="124" style="font-size:10px;font-weight:none;stroke:none; fill:#333399" text-anchor="left" /></g><g componentSequence="122"><text x="549" y="122" style="font-size:10px;font-weight:none;stroke:none; fill:#333399" text-anchor="left"><tspan dy="14" x="549">Sim</tspan></text></g><g componentSequence="128"><text x="990" y="316" style="font-size:10px;font-weight:none;stroke:none; fill:#333399" text-anchor="left"><tspan dy="14" x="990">Sim</tspan></text></g><g componentSequence="133"><text x="741" y="614" style="font-size:10px;font-weight:none;stroke:none; fill:#333399" text-anchor="left"><tspan dy="14" x="741">Sim</tspan></text></g><g componentSequence="134"><text x="612" y="659" style="font-size:10px;font-weight:none;stroke:none; fill:#333399" text-anchor="left" /></g><g componentSequence="137"><text x="1680" y="610" style="font-size:10px;font-weight:none;stroke:none; fill:#333399" text-anchor="left" /></g><g componentSequence="138"><text x="1571" y="688" style="font-size:10px;font-weight:none;stroke:none; fill:#333399" text-anchor="left" /></g><g componentSequence="139"><text x="1578" y="610" style="font-size:10px;font-weight:none;stroke:none; fill:#333399" text-anchor="left" /></g><g componentSequence="142"><text x="2230" y="656" style="font-size:10px;font-weight:none;stroke:none; fill:#333399" text-anchor="left" /></g><g componentSequence="143"><text x="1980" y="661" style="font-size:10px;font-weight:none;stroke:none; fill:#333399" text-anchor="left" /></g><g componentSequence="144"><text x="647" y="299" style="font-size:10px;font-weight:none;stroke:none; fill:#333399" text-anchor="left" /></g><g componentSequence="145"><text x="815" y="378" style="font-size:10px;font-weight:none;stroke:none; fill:#333399" text-anchor="left" /></g><g componentSequence="146"><text x="2342" y="586" style="font-size:10px;font-weight:none;stroke:none; fill:#333399" text-anchor="left" /></g><g componentSequence="148"><text x="438" y="62" style="font-size:10px;font-weight:none;stroke:none; fill:#333399" text-anchor="left" /></g><path style="fill:none; stroke:#000000;stroke-width:1" d="M644.0 67.0 L719.0 70.0" /><polygon style="fill:#000000; stroke:#000000;" points=" 709 65 719 70 709 75 711 70" /><path style="fill:none; stroke:#000000;stroke-width:1" d="M518.0 202.0 L383.0 202.0 L382.0 219.0" /><polygon style="fill:#000000; stroke:#000000;" points=" 388 209 382 219 378 209 382 211" /><path style="fill:none; stroke:#000000;stroke-width:1" d="M722.0 122.0 L680.0 202.0 L625.0 202.0" /><polygon style="fill:#000000; stroke:#000000;" points=" 635 207 625 202 635 197 633 202" /><path style="fill:none; stroke:#000000;stroke-width:1" d="M460.0 126.0 L572.0 120.0 L572.0 166.0" /><polygon style="fill:#000000; stroke:#000000;" points=" 577 156 572 166 567 156 572 158" /><path style="fill:none; stroke:#000000;stroke-width:1" d="M760.0 258.0 L1049.0 258.0" /><polygon style="fill:#000000; stroke:#000000;" points=" 1039 253 1049 258 1039 263 1041 258" /><path style="fill:none; stroke:#000000;stroke-width:1" d="M699.0 278.0 L667.0 299.0 L601.0 299.0 L602.0 332.0" /><polygon style="fill:#000000; stroke:#000000;" points=" 607 322 602 332 597 322 602 324" /><path style="fill:none; stroke:#000000;stroke-width:1" d="M744.0 122.0 L736.0 199.0" /><polygon style="fill:#000000; stroke:#000000;" points=" 742 190 736 199 732 189 737 191" /><path style="fill:none; stroke:#000000;stroke-width:1" d="M410.0 263.0 L699.0 258.0" /><polygon style="fill:#000000; stroke:#000000;" points=" 689 253 699 258 689 263 691 258" /><path style="fill:none; stroke:#000000;stroke-width:1" d="M656.0 378.0 L699.0 380.0" /><polygon style="fill:#000000; stroke:#000000;" points=" 689 375 699 380 689 385 691 380" /><path style="fill:none; stroke:#000000;stroke-width:1" d="M679.0 823.0 L602.0 823.0 L602.0 417.0" /><polygon style="fill:#000000; stroke:#000000;" points=" 597 427 602 417 607 427 602 425" /><path style="fill:none; stroke:#000000;stroke-width:1" d="M1080.0 316.0 L1082.0 459.0" /><polygon style="fill:#000000; stroke:#000000;" points=" 1087 449 1082 459 1077 449 1082 451" /><path style="fill:none; stroke:#000000;stroke-width:1" d="M1110.0 258.0 L1709.0 260.0" /><polygon style="fill:#000000; stroke:#000000;" points=" 1699 255 1709 260 1699 265 1701 260" /><path style="fill:none; stroke:#000000;stroke-width:1" d="M910.0 357.0 L1049.0 275.0" /><polygon style="fill:#000000; stroke:#000000;" points=" 1038 276 1049 275 1043 284 1042 279" /><path style="fill:none; stroke:#000000;stroke-width:1" d="M1136.0 495.0 L1219.0 495.0" /><polygon style="fill:#000000; stroke:#000000;" points=" 1209 490 1219 495 1209 500 1211 495" /><path style="fill:none; stroke:#000000;stroke-width:1" d="M1770.0 259.0 L1806.0 258.0 L1806.0 510.0 L1805.0 724.0 L1516.0 724.0" /><polygon style="fill:#000000; stroke:#000000;" points=" 1526 729 1516 724 1526 719 1524 724" /><path style="fill:none; stroke:#000000;stroke-width:1" d="M1740.0 312.0 L1742.0 579.0" /><polygon style="fill:#000000; stroke:#000000;" points=" 1747 569 1742 579 1737 569 1742 571" /><path style="fill:none; stroke:#000000;stroke-width:1" d="M1439.0 609.0 L1350.0 610.0" /><polygon style="fill:#000000; stroke:#000000;" points=" 1360 615 1350 610 1360 605 1358 610" /><path style="fill:none; stroke:#000000;stroke-width:1" d="M1589.0 610.0 L1546.0 609.0" /><polygon style="fill:#000000; stroke:#000000;" points=" 1556 614 1546 609 1556 604 1554 609" /><path style="fill:none; stroke:#000000;stroke-width:1" d="M1409.0 724.0 L1250.0 724.0 L1250.0 546.0" /><polygon style="fill:#000000; stroke:#000000;" points=" 1245 556 1250 546 1255 556 1250 554" /><path style="fill:none; stroke:#000000;stroke-width:1" d="M1460.0 144.0 L1462.0 689.0" /><polygon style="fill:#000000; stroke:#000000;" points=" 1467 679 1462 689 1457 679 1462 681" /><path style="fill:none; stroke:#000000;stroke-width:1" d="M1322.0 662.0 L1324.0 694.0 L1409.0 713.0" /><polygon style="fill:#000000; stroke:#000000;" points=" 1400 706 1409 713 1398 716 1401 711" /><path style="fill:none; stroke:#000000;stroke-width:1" d="M1596.0 662.0 L1589.0 678.0 L1516.0 705.0" /><polygon style="fill:#000000; stroke:#000000;" points=" 1527 706 1516 705 1524 697 1524 702" /><path style="fill:none; stroke:#000000;stroke-width:1" d="M1970.0 144.0 L1970.0 724.0 L1516.0 724.0" /><polygon style="fill:#000000; stroke:#000000;" points=" 1526 729 1516 724 1526 719 1524 724" /><path style="fill:none; stroke:#000000;stroke-width:1" d="M1280.0 495.0 L1529.0 495.0" /><polygon style="fill:#000000; stroke:#000000;" points=" 1519 490 1529 495 1519 500 1521 495" /><path style="fill:none; stroke:#000000;stroke-width:1" d="M1452.0 144.0 L1434.0 293.0 L1249.0 293.0 L1249.0 443.0" /><polygon style="fill:#000000; stroke:#000000;" points=" 1254 433 1249 443 1244 433 1249 435" /><path style="fill:none; stroke:#000000;stroke-width:1" d="M1870.0 495.0 L2059.0 495.0" /><polygon style="fill:#000000; stroke:#000000;" points=" 2049 490 2059 495 2049 500 2051 495" /><path style="fill:none; stroke:#000000;stroke-width:1" d="M1839.0 436.0 L1836.0 118.0" /><polygon style="fill:#000000; stroke:#000000;" points=" 1831 128 1836 118 1841 128 1836 126" /><path style="fill:none; stroke:#000000;stroke-width:1" d="M1590.0 495.0 L1809.0 495.0" /><polygon style="fill:#000000; stroke:#000000;" points=" 1799 490 1809 495 1799 500 1801 495" /><path style="fill:none; stroke:#000000;stroke-width:1" d="M2113.0 530.0 L2113.0 787.0" /><polygon style="fill:#000000; stroke:#000000;" points=" 2118 777 2113 787 2108 777 2113 779" /><path style="fill:none; stroke:#000000;stroke-width:1" d="M1889.0 84.0 L1939.0 85.0" /><polygon style="fill:#000000; stroke:#000000;" points=" 1929 80 1939 85 1929 90 1931 85" /><path style="fill:none; stroke:#000000;stroke-width:1" d="M2000.0 86.0 L2059.0 86.0" /><polygon style="fill:#000000; stroke:#000000;" points=" 2049 81 2059 86 2049 91 2051 86" /><path style="fill:none; stroke:#000000;stroke-width:1" d="M2166.0 85.0 L2190.0 85.0" /><polygon style="fill:#000000; stroke:#000000;" points=" 2180 80 2190 85 2180 90 2182 85" /><path style="fill:none; stroke:#000000;stroke-width:1" d="M349.0 259.0 L302.0 253.0 L302.0 154.0" /><polygon style="fill:#000000; stroke:#000000;" points=" 297 164 302 154 307 164 302 162" /><path style="fill:none; stroke:#000000;stroke-width:1" d="M349.0 274.0 L310.0 287.0 L235.0 287.0" /><polygon style="fill:#000000; stroke:#000000;" points=" 245 292 235 287 245 282 243 287" /><path style="fill:none; stroke:#000000;stroke-width:1" d="M356.0 122.0 L399.0 125.0" /><polygon style="fill:#000000; stroke:#000000;" points=" 389 119 399 125 389 129 391 124" /><path style="fill:none; stroke:#000000;stroke-width:1" d="M879.0 419.0 L877.0 493.0" /><polygon style="fill:#000000; stroke:#000000;" points=" 882 483 877 493 872 483 877 485" /><path style="fill:none; stroke:#000000;stroke-width:1" d="M760.0 380.0 L849.0 376.0" /><polygon style="fill:#000000; stroke:#000000;" points=" 839 371 849 376 839 381 841 376" /><path style="fill:none; stroke:#000000;stroke-width:1" d="M2219.0 316.0 L2219.0 215.0 L2379.0 118.0" /><polygon style="fill:#000000; stroke:#000000;" points=" 2368 119 2379 118 2373 127 2372 122" /><path style="fill:none; stroke:#000000;stroke-width:1" d="M2250.0 375.0 L2332.0 375.0 L2332.0 879.0" /><polygon style="fill:#000000; stroke:#000000;" points=" 2337 869 2332 879 2327 869 2332 871" /><path style="fill:none; stroke:#000000;stroke-width:1" d="M2166.0 823.0 L2220.0 824.0 L2220.0 433.0" /><polygon style="fill:#000000; stroke:#000000;" points=" 2215 443 2220 433 2225 443 2220 441" /><path style="fill:none; stroke:#000000;stroke-width:1" d="M2386.0 919.0 L2444.0 917.0 L2433.0 121.0" /><polygon style="fill:#000000; stroke:#000000;" points=" 2428 131 2433 121 2438 131 2433 129" /><path style="fill:none; stroke:#009600;stroke-width:1" d="M2486.0 85.0 L2550.0 85.0" /><polygon style="fill:#009600; stroke:#009600;" points=" 2540 80 2550 85 2540 90 2542 85" /><path style="fill:none; stroke:#000000;stroke-width:1" d="M2486.0 85.0 L2550.0 85.0" /><polygon style="fill:#000000; stroke:#000000;" points=" 2540 80 2550 85 2540 90 2542 85" /><path style="fill:none; stroke:#000000;stroke-width:1" d="M1320.0 559.0 L1322.0 121.0" /><polygon style="fill:#000000; stroke:#000000;" points=" 1317 131 1322 121 1327 131 1322 129" /><path style="fill:none; stroke:#000000;stroke-width:1" d="M1376.0 86.0 L1429.0 86.0" /><polygon style="fill:#000000; stroke:#000000;" points=" 1419 81 1429 86 1419 91 1421 86" /><path style="fill:none; stroke:#000000;stroke-width:1" d="M1590.0 495.0 L1642.0 495.0 L1642.0 424.0" /><polygon style="fill:#000000; stroke:#000000;" points=" 1637 434 1642 424 1647 434 1642 432" /><path style="fill:none; stroke:#000000;stroke-width:1" d="M1589.0 379.0 L1544.0 377.0" /><polygon style="fill:#000000; stroke:#000000;" points=" 1554 382 1544 377 1554 372 1552 377" /><path style="fill:none; stroke:#000000;stroke-width:1" d="M1689.0 609.0 L1650.0 610.0" /><polygon style="fill:#000000; stroke:#000000;" points=" 1660 615 1650 610 1660 605 1658 610" /><path style="fill:none; stroke:#000000;stroke-width:1" d="M428.0 69.0 L427.0 54.0" /><polygon style="fill:#000000; stroke:#000000;" points=" 423 64 427 54 433 64 428 62" /><path style="fill:none; stroke:#000000;stroke-width:1" d="M730.0 440.0 L732.0 787.0" /><polygon style="fill:#000000; stroke:#000000;" points=" 737 777 732 787 727 777 732 779" /><defs><linearGradient xmlns:xlink="http://www.w3.org/1999/xlink" xlink:href="#linearGradient66FF6696FF96B6FFB6" id="linearGradient66FF6696FF96B6FFB6_1168037811" x1="0" y1="50.0" x2="0" y2="85.0" gradientUnits="userSpaceOnUse" xlink:type="simple" xlink:actuate="onLoad" xlink:show="other" /><linearGradient id="linearGradient66FF6696FF96B6FFB6"><stop style="stop-color:#66FF66;stop-opacity:1;" offset="0.0" id="stop66FF66" /><stop style="stop-color:#96FF96;stop-opacity:1;" offset="0.5" id="stop96FF96" /><stop style="stop-color:#B6FFB6;stop-opacity:1;" offset="1.0" id="stopB6FFB6" /></linearGradient><linearGradient xmlns:xlink="http://www.w3.org/1999/xlink" xlink:href="#linearGradientF8FBFEEDF5FCDEEDFAD4E7F8E2E5E9" id="linearGradientF8FBFEEDF5FCDEEDFAD4E7F8E2E5E9_1264132464" x1="0" y1="167.0" x2="0" y2="273.0" gradientUnits="userSpaceOnUse" xlink:type="simple" xlink:actuate="onLoad" xlink:show="other" /><linearGradient id="linearGradientF8FBFEEDF5FCDEEDFAD4E7F8E2E5E9"><stop style="stop-color:#F8FBFE;stop-opacity:1;" offset="0.0" id="stopF8FBFE" /><stop style="stop-color:#EDF5FC;stop-opacity:1;" offset="0.25" id="stopEDF5FC" /><stop style="stop-color:#DEEDFA;stop-opacity:1;" offset="0.5" id="stopDEEDFA" /><stop style="stop-color:#D4E7F8;stop-opacity:1;" offset="0.75" id="stopD4E7F8" /><stop style="stop-color:#E2E5E9;stop-opacity:1;" offset="1.0" id="stopE2E5E9" /></linearGradient><linearGradient xmlns:xlink="http://www.w3.org/1999/xlink" xlink:href="#linearGradientFAFBFCFFFFCC" id="linearGradientFAFBFCFFFFCC_1332133059" x1="0" y1="200.0" x2="0" y2="260.0" gradientUnits="userSpaceOnUse" xlink:type="simple" xlink:actuate="onLoad" xlink:show="other" /><linearGradient id="linearGradientFAFBFCFFFFCC"><stop style="stop-color:#FAFBFC;stop-opacity:1;" offset="0.0" id="stopFAFBFC" /><stop style="stop-color:#FFFFCC;stop-opacity:1;" offset="1.0" id="stopFFFFCC" /></linearGradient><linearGradient xmlns:xlink="http://www.w3.org/1999/xlink" xlink:href="#linearGradientF8FBFEEDF5FCDEEDFAD4E7F8E2E5E9" id="linearGradientF8FBFEEDF5FCDEEDFAD4E7F8E2E5E9_174336843" x1="0" y1="333.0" x2="0" y2="439.0" gradientUnits="userSpaceOnUse" xlink:type="simple" xlink:actuate="onLoad" xlink:show="other" /><linearGradient xmlns:xlink="http://www.w3.org/1999/xlink" xlink:href="#linearGradientFAFBFCFFFFCC" id="linearGradientFAFBFCFFFFCC_972314363" x1="0" y1="20.0" x2="0" y2="80.0" gradientUnits="userSpaceOnUse" xlink:type="simple" xlink:actuate="onLoad" xlink:show="other" /><linearGradient xmlns:xlink="http://www.w3.org/1999/xlink" xlink:href="#linearGradientFAFBFCFFFFCC" id="linearGradientFAFBFCFFFFCC_1000645140" x1="0" y1="200.0" x2="0" y2="260.0" gradientUnits="userSpaceOnUse" xlink:type="simple" xlink:actuate="onLoad" xlink:show="other" /><linearGradient xmlns:xlink="http://www.w3.org/1999/xlink" xlink:href="#linearGradientF8FBFEEDF5FCDEEDFAD4E7F8E2E5E9" id="linearGradientF8FBFEEDF5FCDEEDFAD4E7F8E2E5E9_1105101063" x1="0" y1="460.0" x2="0" y2="566.0" gradientUnits="userSpaceOnUse" xlink:type="simple" xlink:actuate="onLoad" xlink:show="other" /><linearGradient xmlns:xlink="http://www.w3.org/1999/xlink" xlink:href="#linearGradientFAFBFCFFFFCC" id="linearGradientFAFBFCFFFFCC_1783354372" x1="0" y1="210.0" x2="0" y2="270.0" gradientUnits="userSpaceOnUse" xlink:type="simple" xlink:actuate="onLoad" xlink:show="other" /><linearGradient xmlns:xlink="http://www.w3.org/1999/xlink" xlink:href="#linearGradientF8FBFEEDF5FCDEEDFAD4E7F8E2E5E9" id="linearGradientF8FBFEEDF5FCDEEDFAD4E7F8E2E5E9_1905464376" x1="0" y1="580.0" x2="0" y2="686.0" gradientUnits="userSpaceOnUse" xlink:type="simple" xlink:actuate="onLoad" xlink:show="other" /><linearGradient xmlns:xlink="http://www.w3.org/1999/xlink" xlink:href="#linearGradientF8FBFEEDF5FCDEEDFAD4E7F8E2E5E9" id="linearGradientF8FBFEEDF5FCDEEDFAD4E7F8E2E5E9_1866054684" x1="0" y1="690.0" x2="0" y2="796.0" gradientUnits="userSpaceOnUse" xlink:type="simple" xlink:actuate="onLoad" xlink:show="other" /><linearGradient xmlns:xlink="http://www.w3.org/1999/xlink" xlink:href="#linearGradientFAFBFCFFFFCC" id="linearGradientFAFBFCFFFFCC_1524289093" x1="0" y1="444.0" x2="0" y2="504.0" gradientUnits="userSpaceOnUse" xlink:type="simple" xlink:actuate="onLoad" xlink:show="other" /><linearGradient xmlns:xlink="http://www.w3.org/1999/xlink" xlink:href="#linearGradientFAFBFCFFFFCC" id="linearGradientFAFBFCFFFFCC_1845873390" x1="0" y1="437.0" x2="0" y2="497.0" gradientUnits="userSpaceOnUse" xlink:type="simple" xlink:actuate="onLoad" xlink:show="other" /><linearGradient xmlns:xlink="http://www.w3.org/1999/xlink" xlink:href="#linearGradientF8FBFEEDF5FCDEEDFAD4E7F8E2E5E9" id="linearGradientF8FBFEEDF5FCDEEDFAD4E7F8E2E5E9_123613634" x1="0" y1="460.0" x2="0" y2="566.0" gradientUnits="userSpaceOnUse" xlink:type="simple" xlink:actuate="onLoad" xlink:show="other" /><linearGradient xmlns:xlink="http://www.w3.org/1999/xlink" xlink:href="#linearGradientF8FBFEEDF5FCDEEDFAD4E7F8E2E5E9" id="linearGradientF8FBFEEDF5FCDEEDFAD4E7F8E2E5E9_631612521" x1="0" y1="48.0" x2="0" y2="154.0" gradientUnits="userSpaceOnUse" xlink:type="simple" xlink:actuate="onLoad" xlink:show="other" /><linearGradient xmlns:xlink="http://www.w3.org/1999/xlink" xlink:href="#linearGradientFAFBFCFFFFCC" id="linearGradientFAFBFCFFFFCC_687996542" x1="0" y1="28.0" x2="0" y2="88.0" gradientUnits="userSpaceOnUse" xlink:type="simple" xlink:actuate="onLoad" xlink:show="other" /><linearGradient xmlns:xlink="http://www.w3.org/1999/xlink" xlink:href="#linearGradientFF6666FF9696FFB6B6" id="linearGradientFF6666FF9696FFB6B6_1771242250" x1="0" y1="68.0" x2="0" y2="103.0" gradientUnits="userSpaceOnUse" xlink:type="simple" xlink:actuate="onLoad" xlink:show="other" /><linearGradient id="linearGradientFF6666FF9696FFB6B6"><stop style="stop-color:#FF6666;stop-opacity:1;" offset="0.0" id="stopFF6666" /><stop style="stop-color:#FF9696;stop-opacity:1;" offset="0.5" id="stopFF9696" /><stop style="stop-color:#FFB6B6;stop-opacity:1;" offset="1.0" id="stopFFB6B6" /></linearGradient><linearGradient xmlns:xlink="http://www.w3.org/1999/xlink" xlink:href="#linearGradientFAFBFCFFFFCC" id="linearGradientFAFBFCFFFFCC_523632603" x1="0" y1="220.0" x2="0" y2="280.0" gradientUnits="userSpaceOnUse" xlink:type="simple" xlink:actuate="onLoad" xlink:show="other" /><linearGradient xmlns:xlink="http://www.w3.org/1999/xlink" xlink:href="#linearGradientF8FBFEEDF5FCDEEDFAD4E7F8E2E5E9" id="linearGradientF8FBFEEDF5FCDEEDFAD4E7F8E2E5E9_389781176" x1="0" y1="84.0" x2="0" y2="190.0" gradientUnits="userSpaceOnUse" xlink:type="simple" xlink:actuate="onLoad" xlink:show="other" /><linearGradient xmlns:xlink="http://www.w3.org/1999/xlink" xlink:href="#linearGradientFF6666FF9696FFB6B6" id="linearGradientFF6666FF9696FFB6B6_829388847" x1="0" y1="270.0" x2="0" y2="305.0" gradientUnits="userSpaceOnUse" xlink:type="simple" xlink:actuate="onLoad" xlink:show="other" /><linearGradient xmlns:xlink="http://www.w3.org/1999/xlink" xlink:href="#linearGradientFAFBFCFFFFCC" id="linearGradientFAFBFCFFFFCC_1075160667" x1="0" y1="331.0" x2="0" y2="391.0" gradientUnits="userSpaceOnUse" xlink:type="simple" xlink:actuate="onLoad" xlink:show="other" /><linearGradient xmlns:xlink="http://www.w3.org/1999/xlink" xlink:href="#linearGradientFAFBFCFFFFCC" id="linearGradientFAFBFCFFFFCC_1886278309" x1="0" y1="317.0" x2="0" y2="377.0" gradientUnits="userSpaceOnUse" xlink:type="simple" xlink:actuate="onLoad" xlink:show="other" /><linearGradient xmlns:xlink="http://www.w3.org/1999/xlink" xlink:href="#linearGradientF8FBFEEDF5FCDEEDFAD4E7F8E2E5E9" id="linearGradientF8FBFEEDF5FCDEEDFAD4E7F8E2E5E9_1001096262" x1="0" y1="880.0" x2="0" y2="986.0" gradientUnits="userSpaceOnUse" xlink:type="simple" xlink:actuate="onLoad" xlink:show="other" /><linearGradient xmlns:xlink="http://www.w3.org/1999/xlink" xlink:href="#linearGradientF8FBFEEDF5FCDEEDFAD4E7F8E2E5E9" id="linearGradientF8FBFEEDF5FCDEEDFAD4E7F8E2E5E9_1901014300" x1="0" y1="51.0" x2="0" y2="157.0" gradientUnits="userSpaceOnUse" xlink:type="simple" xlink:actuate="onLoad" xlink:show="other" /><linearGradient xmlns:xlink="http://www.w3.org/1999/xlink" xlink:href="#linearGradientFF6666FF9696FFB6B6" id="linearGradientFF6666FF9696FFB6B6_470120976" x1="0" y1="68.0" x2="0" y2="103.0" gradientUnits="userSpaceOnUse" xlink:type="simple" xlink:actuate="onLoad" xlink:show="other" /><linearGradient xmlns:xlink="http://www.w3.org/1999/xlink" xlink:href="#linearGradientFF6666FF9696FFB6B6" id="linearGradientFF6666FF9696FFB6B6_519895119" x1="0" y1="493.0" x2="0" y2="528.0" gradientUnits="userSpaceOnUse" xlink:type="simple" xlink:actuate="onLoad" xlink:show="other" /><linearGradient xmlns:xlink="http://www.w3.org/1999/xlink" xlink:href="#linearGradientFAFBFCFFFFCC" id="linearGradientFAFBFCFFFFCC_2031273570" x1="0" y1="560.0" x2="0" y2="620.0" gradientUnits="userSpaceOnUse" xlink:type="simple" xlink:actuate="onLoad" xlink:show="other" /><linearGradient xmlns:xlink="http://www.w3.org/1999/xlink" xlink:href="#linearGradientF8FBFEEDF5FCDEEDFAD4E7F8E2E5E9" id="linearGradientF8FBFEEDF5FCDEEDFAD4E7F8E2E5E9_1899832209" x1="0" y1="51.0" x2="0" y2="157.0" gradientUnits="userSpaceOnUse" xlink:type="simple" xlink:actuate="onLoad" xlink:show="other" /><linearGradient xmlns:xlink="http://www.w3.org/1999/xlink" xlink:href="#linearGradientFAFBFCFFFFCC" id="linearGradientFAFBFCFFFFCC_1189020252" x1="0" y1="28.0" x2="0" y2="88.0" gradientUnits="userSpaceOnUse" xlink:type="simple" xlink:actuate="onLoad" xlink:show="other" /><linearGradient xmlns:xlink="http://www.w3.org/1999/xlink" xlink:href="#linearGradientFAFBFCFFFFCC" id="linearGradientFAFBFCFFFFCC_1058583624" x1="0" y1="444.0" x2="0" y2="504.0" gradientUnits="userSpaceOnUse" xlink:type="simple" xlink:actuate="onLoad" xlink:show="other" /><linearGradient xmlns:xlink="http://www.w3.org/1999/xlink" xlink:href="#linearGradientFF6666FF9696FFB6B6" id="linearGradientFF6666FF9696FFB6B6_1356223519" x1="0" y1="360.0" x2="0" y2="395.0" gradientUnits="userSpaceOnUse" xlink:type="simple" xlink:actuate="onLoad" xlink:show="other" /><linearGradient xmlns:xlink="http://www.w3.org/1999/xlink" xlink:href="#linearGradientF8FBFEEDF5FCDEEDFAD4E7F8E2E5E9" id="linearGradientF8FBFEEDF5FCDEEDFAD4E7F8E2E5E9_1215288383" x1="0" y1="788.0" x2="0" y2="894.0" gradientUnits="userSpaceOnUse" xlink:type="simple" xlink:actuate="onLoad" xlink:show="other" /><linearGradient xmlns:xlink="http://www.w3.org/1999/xlink" xlink:href="#linearGradientF8FBFEEDF5FCDEEDFAD4E7F8E2E5E9" id="linearGradientF8FBFEEDF5FCDEEDFAD4E7F8E2E5E9_1981604492" x1="0" y1="580.0" x2="0" y2="686.0" gradientUnits="userSpaceOnUse" xlink:type="simple" xlink:actuate="onLoad" xlink:show="other" /><linearGradient xmlns:xlink="http://www.w3.org/1999/xlink" xlink:href="#linearGradientF8FBFEEDF5FCDEEDFAD4E7F8E2E5E9" id="linearGradientF8FBFEEDF5FCDEEDFAD4E7F8E2E5E9_215786227" x1="0" y1="340.0" x2="0" y2="446.0" gradientUnits="userSpaceOnUse" xlink:type="simple" xlink:actuate="onLoad" xlink:show="other" /><linearGradient xmlns:xlink="http://www.w3.org/1999/xlink" xlink:href="#linearGradientF8FBFEEDF5FCDEEDFAD4E7F8E2E5E9" id="linearGradientF8FBFEEDF5FCDEEDFAD4E7F8E2E5E9_1850243547" x1="0" y1="44.0" x2="0" y2="150.0" gradientUnits="userSpaceOnUse" xlink:type="simple" xlink:actuate="onLoad" xlink:show="other" /><linearGradient xmlns:xlink="http://www.w3.org/1999/xlink" xlink:href="#linearGradientFAFBFCFFFFCC" id="linearGradientFAFBFCFFFFCC_1479575041" x1="0" y1="70.0" x2="0" y2="130.0" gradientUnits="userSpaceOnUse" xlink:type="simple" xlink:actuate="onLoad" xlink:show="other" /><linearGradient xmlns:xlink="http://www.w3.org/1999/xlink" xlink:href="#linearGradientF8FBFEEDF5FCDEEDFAD4E7F8E2E5E9" id="linearGradientF8FBFEEDF5FCDEEDFAD4E7F8E2E5E9_1235814153" x1="0" y1="788.0" x2="0" y2="894.0" gradientUnits="userSpaceOnUse" xlink:type="simple" xlink:actuate="onLoad" xlink:show="other" /><linearGradient xmlns:xlink="http://www.w3.org/1999/xlink" xlink:href="#linearGradientFAFBFCFFFFCC" id="linearGradientFAFBFCFFFFCC_546041845" x1="0" y1="324.0" x2="0" y2="384.0" gradientUnits="userSpaceOnUse" xlink:type="simple" xlink:actuate="onLoad" xlink:show="other" /><linearGradient xmlns:xlink="http://www.w3.org/1999/xlink" xlink:href="#linearGradientFAFBFCFFFFCC" id="linearGradientFAFBFCFFFFCC_228641950" x1="0" y1="560.0" x2="0" y2="620.0" gradientUnits="userSpaceOnUse" xlink:type="simple" xlink:actuate="onLoad" xlink:show="other" /><linearGradient xmlns:xlink="http://www.w3.org/1999/xlink" xlink:href="#linearGradientFF6666FF9696FFB6B6" id="linearGradientFF6666FF9696FFB6B6_1367102373" x1="0" y1="20.0" x2="0" y2="55.0" gradientUnits="userSpaceOnUse" xlink:type="simple" xlink:actuate="onLoad" xlink:show="other" /></defs></svg>
