<?xml version="1.0" encoding="UTF-8"?>
<svg xmlns="http://www.w3.org/2000/svg" style="stroke-dasharray:none; shape-rendering:auto; font-family:'Arial'; text-rendering:auto; fill-opacity:1; color-interpolation:auto; color-rendering:auto; font-size:12; fill:black; stroke:black; image-rendering:auto; stroke-miterlimit:10; stroke-linecap:square; stroke-linejoin:miter; font-style:normal; stroke-width:1; stroke-dashoffset:0; font-weight:normal; stroke-opacity:1;" contentScriptType="text/ecmascript" preserveAspectRatio="xMidYMid meet" zoomAndPan="magnify" version="1.0" contentStyleType="text/css" xml:xlink="http://www.w3.org/1999/xlink" width="901" height="451"><rect x="0" y="11" width="901" height="150" ry="0" rx="0" style="stroke:#000000; fill:#9FC1C6" /><g componentSequence="3"><text x="-86" y="6" transform="rotate(270)" text-anchor="middle" style="font-weight:bold;font-size:10px;stroke:none; fill:#434343"><tspan dy="14" x="-86">Comercial</tspan></text></g><rect x="0" y="301" width="901" height="150" ry="0" rx="0" style="stroke:#000000; fill:#ADC9AC" /><g componentSequence="1"><text x="-376" y="6" transform="rotate(270)" text-anchor="middle" style="font-weight:bold;font-size:10px;stroke:none; fill:#434343"><tspan dy="14" x="-376">Gerente de vendas</tspan></text></g><rect x="0" y="153" width="901" height="150" ry="0" rx="0" style="stroke:#000000; fill:#82B0B7" /><g componentSequence="2"><text x="-228" y="6" transform="rotate(270)" text-anchor="middle" style="font-weight:bold;font-size:10px;stroke:none; fill:#434343"><tspan dy="14" x="-228">Financeiro</tspan></text></g><g sequence="4"><ellipse cx="57" cy="79" rx="17" ry="17" stroke-width="1" style="fill:url(#linearGradient66FF6696FF96B6FFB6_1680744818);" stroke="336633" /></g><g sequence="5"><rect x="177" y="195" width="106" height="67" ry="5" rx="5" style="fill:url(#linearGradientF8FBFEEDF5FCDEEDFAD4E7F8E2E5E9_1793708935);" stroke="191970" /></g><g componentSequence="5"><text x="230" y="210" text-anchor="middle" style="font-weight:bold;font-size:10px;stroke:none; fill:#333399"><tspan dy="14" x="230">Análise</tspan><tspan dy="14" x="230">Financeira</tspan></text></g><g sequence="7"><rect x="330" y="343" width="106" height="67" ry="5" rx="5" style="fill:url(#linearGradientF8FBFEEDF5FCDEEDFAD4E7F8E2E5E9_1859537410);" stroke="191970" /></g><g componentSequence="7"><text x="383" y="358" text-anchor="middle" style="font-weight:bold;font-size:10px;stroke:none; fill:#333399"><tspan dy="14" x="383">Aprovação</tspan><tspan dy="14" x="383">gerente</tspan></text></g><g sequence="8"><polygon points=" 353 202 383 172 413 202 383 232 353 202" style="fill:url(#linearGradientFAFBFCFFFFCC_735369660);" stroke="000000" /></g><g componentSequence="8"><text x="383" y="242" text-anchor="middle" style="font-weight:bold;font-size:10px;stroke:none; fill:#333399"><tspan dy="14" x="383">Financeir</tspan><tspan dy="14" x="383">o</tspan><tspan dy="14" x="383">apro...</tspan></text></g><g sequence="11"><polygon points=" 520 350 550 320 580 350 550 380 520 350" style="fill:url(#linearGradientFAFBFCFFFFCC_1055152133);" stroke="000000" /></g><g componentSequence="11"><text x="550" y="390" text-anchor="middle" style="font-weight:bold;font-size:10px;stroke:none; fill:#333399"><tspan dy="14" x="550">Gerência</tspan><tspan dy="14" x="550">aprovou</tspan><tspan dy="14" x="550">?</tspan></text></g><g sequence="17"><rect x="497" y="188" width="106" height="80" ry="5" rx="5" style="fill:url(#linearGradientF8FBFEEDF5FCDEEDFAD4E7F8E2E5E9_439734709);" stroke="191970" /></g><g componentSequence="17"><text x="550" y="203" text-anchor="middle" style="font-weight:bold;font-size:10px;stroke:none; fill:#333399"><tspan dy="14" x="550">Alterar</tspan><tspan dy="14" x="550">vencimento do</tspan><tspan dy="14" x="550">título</tspan></text></g><g sequence="24"><rect x="330" y="45" width="106" height="67" ry="5" rx="5" style="fill:url(#linearGradientF8FBFEEDF5FCDEEDFAD4E7F8E2E5E9_1190071979);" stroke="191970" /></g><g componentSequence="24"><text x="383" y="60" text-anchor="middle" style="font-weight:bold;font-size:10px;stroke:none; fill:#333399"><tspan dy="14" x="383">Informar</tspan><tspan dy="14" x="383">vendedor</tspan></text></g><g sequence="26"><polygon points=" 200 52 230 22 260 52 230 82 200 52" style="fill:url(#linearGradientFAFBFCFFFFCC_1274750707);" stroke="000000" /></g><g componentSequence="26"><text x="230" y="92" text-anchor="middle" style="font-weight:bold;font-size:10px;stroke:none; fill:#333399"><tspan dy="14" x="230">Tentar</tspan><tspan dy="14" x="230">com</tspan><tspan dy="14" x="230">me...</tspan></text></g><g sequence="29"><ellipse cx="117" cy="79" rx="17" ry="17" stroke-width="3" style="fill:url(#linearGradientFF6666FF9696FFB6B6_1464040441);" stroke="993333" /></g><g sequence="33"><ellipse cx="657" cy="229" rx="17" ry="17" stroke-width="3" style="fill:url(#linearGradientFF6666FF9696FFB6B6_1666162909);" stroke="993333" /></g><g componentSequence="6"><text x="67" y="223" style="font-size:10px;font-weight:none;stroke:none; fill:#333399" text-anchor="left" /></g><g componentSequence="9"><text x="328" y="228" style="font-size:10px;font-weight:none;stroke:none; fill:#333399" text-anchor="left" /></g><g componentSequence="10"><text x="393" y="313" style="font-size:10px;font-weight:none;stroke:none; fill:#333399" text-anchor="left"><tspan dy="14" x="393">Enviar p/ diretoria</tspan></text></g><g componentSequence="12"><text x="488" y="376" style="font-size:10px;font-weight:none;stroke:none; fill:#333399" text-anchor="left" /></g><g componentSequence="18"><text x="560" y="294" style="font-size:10px;font-weight:none;stroke:none; fill:#333399" text-anchor="left"><tspan dy="14" x="560">Sim</tspan></text></g><g componentSequence="19"><text x="465" y="228" style="font-size:10px;font-weight:none;stroke:none; fill:#333399" text-anchor="left"><tspan dy="14" x="465">Sim</tspan></text></g><g componentSequence="25"><text x="670" y="173" style="font-size:10px;font-weight:none;stroke:none; fill:#333399" text-anchor="left"><tspan dy="14" x="670">Não</tspan></text></g><g componentSequence="27"><text x="305" y="78" style="font-size:10px;font-weight:none;stroke:none; fill:#333399" text-anchor="left" /></g><g componentSequence="30"><text x="177" y="79" style="font-size:10px;font-weight:none;stroke:none; fill:#333399" text-anchor="left"><tspan dy="14" x="177">Não</tspan></text></g><g componentSequence="34"><text x="631" y="229" style="font-size:10px;font-weight:none;stroke:none; fill:#333399" text-anchor="left" /></g><g componentSequence="35"><text x="390" y="129" style="font-size:10px;font-weight:none;stroke:none; fill:#333399" text-anchor="left"><tspan dy="14" x="390">Não</tspan></text></g><g componentSequence="36"><text x="240" y="164" style="font-size:10px;font-weight:none;stroke:none; fill:#333399" text-anchor="left" /></g><path style="fill:none; stroke:#F00000;stroke-width:1" d="M57.0 97.0 L57.0 230.0 L176.0 229.0" /><polygon style="fill:#F00000; stroke:#F00000;" points=" 166 224 176 229 166 234 168 229" /><polygon style="fill:#F00000; stroke:#F00000;" points=" 52 107 57 97 62 107 57 105" /><path style="fill:none; stroke:#000000;stroke-width:1" d="M283.0 228.0 L352.0 228.0" /><polygon style="fill:#000000; stroke:#000000;" points=" 342 223 352 228 342 233 344 228" /><path style="fill:none; stroke:#000000;stroke-width:1" d="M230.0 134.0 L230.0 194.0" /><polygon style="fill:#000000; stroke:#000000;" points=" 235 184 230 194 225 184 230 186" /><path style="fill:none; stroke:#000000;stroke-width:1" d="M436.0 376.0 L519.0 376.0" /><polygon style="fill:#000000; stroke:#000000;" points=" 509 371 519 376 509 381 511 376" /><path style="fill:none; stroke:#000000;stroke-width:1" d="M383.0 284.0 L383.0 342.0" /><polygon style="fill:#000000; stroke:#000000;" points=" 388 332 383 342 378 332 383 334" /><path style="fill:none; stroke:#000000;stroke-width:1" d="M413.0 228.0 L496.0 228.0" /><polygon style="fill:#000000; stroke:#000000;" points=" 486 223 496 228 486 233 488 228" /><path style="fill:none; stroke:#000000;stroke-width:1" d="M383.0 171.0 L383.0 112.0" /><polygon style="fill:#000000; stroke:#000000;" points=" 378 122 383 112 388 122 383 120" /><path style="fill:none; stroke:#000000;stroke-width:1" d="M550.0 319.0 L550.0 268.0" /><polygon style="fill:#000000; stroke:#000000;" points=" 545 278 550 268 555 278 550 276" /><path style="fill:none; stroke:#000000;stroke-width:1" d="M580.0 376.0 L783.0 378.0 L783.0 80.0 L436.0 78.0" /><polygon style="fill:#000000; stroke:#000000;" points=" 446 83 436 78 446 73 444 78" /><path style="fill:none; stroke:#000000;stroke-width:1" d="M603.0 228.0 L640.0 229.0" /><polygon style="fill:#000000; stroke:#000000;" points=" 630 224 640 229 630 234 632 229" /><path style="fill:none; stroke:#000000;stroke-width:1" d="M329.0 78.0 L260.0 78.0" /><polygon style="fill:#000000; stroke:#000000;" points=" 270 83 260 78 270 73 268 78" /><path style="fill:none; stroke:#000000;stroke-width:1" d="M199.0 78.0 L134.0 79.0" /><polygon style="fill:#000000; stroke:#000000;" points=" 144 84 134 79 144 74 142 79" /><defs><linearGradient xmlns:xlink="http://www.w3.org/1999/xlink" xlink:href="#linearGradient66FF6696FF96B6FFB6" id="linearGradient66FF6696FF96B6FFB6_1680744818" x1="0" y1="62.0" x2="0" y2="97.0" gradientUnits="userSpaceOnUse" xlink:type="simple" xlink:actuate="onLoad" xlink:show="other" /><linearGradient id="linearGradient66FF6696FF96B6FFB6"><stop style="stop-color:#66FF66;stop-opacity:1;" offset="0.0" id="stop66FF66" /><stop style="stop-color:#96FF96;stop-opacity:1;" offset="0.5" id="stop96FF96" /><stop style="stop-color:#B6FFB6;stop-opacity:1;" offset="1.0" id="stopB6FFB6" /></linearGradient><linearGradient xmlns:xlink="http://www.w3.org/1999/xlink" xlink:href="#linearGradientF8FBFEEDF5FCDEEDFAD4E7F8E2E5E9" id="linearGradientF8FBFEEDF5FCDEEDFAD4E7F8E2E5E9_1793708935" x1="0" y1="195.0" x2="0" y2="301.0" gradientUnits="userSpaceOnUse" xlink:type="simple" xlink:actuate="onLoad" xlink:show="other" /><linearGradient id="linearGradientF8FBFEEDF5FCDEEDFAD4E7F8E2E5E9"><stop style="stop-color:#F8FBFE;stop-opacity:1;" offset="0.0" id="stopF8FBFE" /><stop style="stop-color:#EDF5FC;stop-opacity:1;" offset="0.25" id="stopEDF5FC" /><stop style="stop-color:#DEEDFA;stop-opacity:1;" offset="0.5" id="stopDEEDFA" /><stop style="stop-color:#D4E7F8;stop-opacity:1;" offset="0.75" id="stopD4E7F8" /><stop style="stop-color:#E2E5E9;stop-opacity:1;" offset="1.0" id="stopE2E5E9" /></linearGradient><linearGradient xmlns:xlink="http://www.w3.org/1999/xlink" xlink:href="#linearGradientF8FBFEEDF5FCDEEDFAD4E7F8E2E5E9" id="linearGradientF8FBFEEDF5FCDEEDFAD4E7F8E2E5E9_1859537410" x1="0" y1="343.0" x2="0" y2="449.0" gradientUnits="userSpaceOnUse" xlink:type="simple" xlink:actuate="onLoad" xlink:show="other" /><linearGradient xmlns:xlink="http://www.w3.org/1999/xlink" xlink:href="#linearGradientFAFBFCFFFFCC" id="linearGradientFAFBFCFFFFCC_735369660" x1="0" y1="172.0" x2="0" y2="232.0" gradientUnits="userSpaceOnUse" xlink:type="simple" xlink:actuate="onLoad" xlink:show="other" /><linearGradient id="linearGradientFAFBFCFFFFCC"><stop style="stop-color:#FAFBFC;stop-opacity:1;" offset="0.0" id="stopFAFBFC" /><stop style="stop-color:#FFFFCC;stop-opacity:1;" offset="1.0" id="stopFFFFCC" /></linearGradient><linearGradient xmlns:xlink="http://www.w3.org/1999/xlink" xlink:href="#linearGradientFAFBFCFFFFCC" id="linearGradientFAFBFCFFFFCC_1055152133" x1="0" y1="320.0" x2="0" y2="380.0" gradientUnits="userSpaceOnUse" xlink:type="simple" xlink:actuate="onLoad" xlink:show="other" /><linearGradient xmlns:xlink="http://www.w3.org/1999/xlink" xlink:href="#linearGradientF8FBFEEDF5FCDEEDFAD4E7F8E2E5E9" id="linearGradientF8FBFEEDF5FCDEEDFAD4E7F8E2E5E9_439734709" x1="0" y1="188.0" x2="0" y2="294.0" gradientUnits="userSpaceOnUse" xlink:type="simple" xlink:actuate="onLoad" xlink:show="other" /><linearGradient xmlns:xlink="http://www.w3.org/1999/xlink" xlink:href="#linearGradientF8FBFEEDF5FCDEEDFAD4E7F8E2E5E9" id="linearGradientF8FBFEEDF5FCDEEDFAD4E7F8E2E5E9_1190071979" x1="0" y1="45.0" x2="0" y2="151.0" gradientUnits="userSpaceOnUse" xlink:type="simple" xlink:actuate="onLoad" xlink:show="other" /><linearGradient xmlns:xlink="http://www.w3.org/1999/xlink" xlink:href="#linearGradientFAFBFCFFFFCC" id="linearGradientFAFBFCFFFFCC_1274750707" x1="0" y1="22.0" x2="0" y2="82.0" gradientUnits="userSpaceOnUse" xlink:type="simple" xlink:actuate="onLoad" xlink:show="other" /><linearGradient xmlns:xlink="http://www.w3.org/1999/xlink" xlink:href="#linearGradientFF6666FF9696FFB6B6" id="linearGradientFF6666FF9696FFB6B6_1464040441" x1="0" y1="62.0" x2="0" y2="97.0" gradientUnits="userSpaceOnUse" xlink:type="simple" xlink:actuate="onLoad" xlink:show="other" /><linearGradient id="linearGradientFF6666FF9696FFB6B6"><stop style="stop-color:#FF6666;stop-opacity:1;" offset="0.0" id="stopFF6666" /><stop style="stop-color:#FF9696;stop-opacity:1;" offset="0.5" id="stopFF9696" /><stop style="stop-color:#FFB6B6;stop-opacity:1;" offset="1.0" id="stopFFB6B6" /></linearGradient><linearGradient xmlns:xlink="http://www.w3.org/1999/xlink" xlink:href="#linearGradientFF6666FF9696FFB6B6" id="linearGradientFF6666FF9696FFB6B6_1666162909" x1="0" y1="212.0" x2="0" y2="247.0" gradientUnits="userSpaceOnUse" xlink:type="simple" xlink:actuate="onLoad" xlink:show="other" /></defs></svg>
