<?xml version="1.0" encoding="UTF-8"?>
<svg xmlns="http://www.w3.org/2000/svg" style="stroke-dasharray:none; shape-rendering:auto; font-family:'Arial'; text-rendering:auto; fill-opacity:1; color-interpolation:auto; color-rendering:auto; font-size:12; fill:black; stroke:black; image-rendering:auto; stroke-miterlimit:10; stroke-linecap:square; stroke-linejoin:miter; font-style:normal; stroke-width:1; stroke-dashoffset:0; font-weight:normal; stroke-opacity:1;" contentScriptType="text/ecmascript" preserveAspectRatio="xMidYMid meet" zoomAndPan="magnify" version="1.0" contentStyleType="text/css" xml:xlink="http://www.w3.org/1999/xlink" width="743" height="604"><rect x="12" y="12" width="731" height="161" ry="0" rx="0" style="stroke:#000000; fill:#82B0B7" /><g componentSequence="10"><text x="-92" y="19" transform="rotate(270)" text-anchor="middle" style="font-weight:bold;font-size:10px;stroke:none; fill:#434343"><tspan dy="14" x="-92">Expedição</tspan></text></g><rect x="12" y="172" width="731" height="211" ry="0" rx="0" style="stroke:#000000; fill:#ADC9AC" /><g componentSequence="9"><text x="-277" y="19" transform="rotate(270)" text-anchor="middle" style="font-weight:bold;font-size:10px;stroke:none; fill:#434343"><tspan dy="14" x="-277">Vendas</tspan></text></g><rect x="12" y="382" width="731" height="222" ry="0" rx="0" style="stroke:#000000; fill:#D0DAAE" /><g componentSequence="8"><text x="-493" y="19" transform="rotate(270)" text-anchor="middle" style="font-weight:bold;font-size:10px;stroke:none; fill:#434343"><tspan dy="14" x="-493">Supervisor</tspan></text></g><g sequence="2"><polygon points=" 350 259 380 229 410 259 380 289 350 259" style="fill:url(#linearGradientFAFBFCFFFFCC_1438165447);" stroke="000000" /></g><g componentSequence="2"><text x="380" y="299" text-anchor="middle" style="font-weight:bold;font-size:10px;stroke:none; fill:#333399"><tspan dy="14" x="380">Cancelar</tspan><tspan dy="14" x="380">pedido?</tspan></text></g><g sequence="3"><rect x="500" y="58" width="106" height="70" ry="5" rx="5" style="fill:url(#linearGradientF8FBFEEDF5FCDEEDFAD4E7F8E2E5E9_1535069440);" stroke="191970" /></g><g componentSequence="3"><text x="553" y="73" text-anchor="middle" style="font-weight:bold;font-size:10px;stroke:none; fill:#333399"><tspan dy="14" x="553">Finalização</tspan><tspan dy="14" x="553">logística</tspan></text></g><g sequence="4"><ellipse cx="677" cy="92" rx="17" ry="17" stroke-width="3" style="fill:url(#linearGradientFF6666FF9696FFB6B6_1598079671);" stroke="993333" /></g><g sequence="5"><rect x="120" y="450" width="106" height="70" ry="5" rx="5" style="fill:url(#linearGradientF8FBFEEDF5FCDEEDFAD4E7F8E2E5E9_440551227);" stroke="191970" /></g><g componentSequence="5"><text x="173" y="474" text-anchor="middle" style="font-weight:bold;font-size:10px;stroke:none; fill:#333399"><tspan dy="14" x="173">Ação supervisor</tspan></text></g><g sequence="6"><polygon points=" 350 450 380 420 410 450 380 480 350 450" style="fill:url(#linearGradientFAFBFCFFFFCC_178529061);" stroke="000000" /></g><g componentSequence="6"><text x="380" y="490" text-anchor="middle" style="font-weight:bold;font-size:10px;stroke:none; fill:#333399"><tspan dy="14" x="380">Continua</tspan><tspan dy="14" x="380">r com o</tspan><tspan dy="14" x="380">canc...</tspan></text></g><g sequence="18"><ellipse cx="177" cy="287" rx="17" ry="17" stroke-width="1" style="fill:url(#linearGradient66FF6696FF96B6FFB6_722630716);" stroke="336633" /></g><g sequence="25"><ellipse cx="377" cy="577" rx="17" ry="17" stroke-width="3" style="fill:url(#linearGradientFF6666FF9696FFB6B6_1914585747);" stroke="993333" /></g><g componentSequence="17"><text x="562" y="374" style="font-size:10px;font-weight:none;stroke:none; fill:#333399" text-anchor="left" /></g><g componentSequence="19"><text x="88" y="366" style="font-size:10px;font-weight:none;stroke:none; fill:#333399" text-anchor="left" /></g><g componentSequence="20"><text x="282" y="284" style="font-size:10px;font-weight:none;stroke:none; fill:#333399" text-anchor="left" /></g><g componentSequence="21"><text x="643" y="92" style="font-size:10px;font-weight:none;stroke:none; fill:#333399" text-anchor="left" /></g><g componentSequence="22"><text x="390" y="101" style="font-size:10px;font-weight:none;stroke:none; fill:#333399" text-anchor="left" /></g><g componentSequence="23"><text x="266" y="370" style="font-size:10px;font-weight:none;stroke:none; fill:#333399" text-anchor="left" /></g><g componentSequence="24"><text x="298" y="477" style="font-size:10px;font-weight:none;stroke:none; fill:#333399" text-anchor="left" /></g><g componentSequence="26"><text x="388" y="541" style="font-size:10px;font-weight:none;stroke:none; fill:#333399" text-anchor="left" /></g><path style="fill:none; stroke:#000000;stroke-width:1" d="M380.0 228.0 L380.0 92.0 L499.0 92.0" /><polygon style="fill:#000000; stroke:#000000;" points=" 489 87 499 92 489 97 491 92" /><path style="fill:none; stroke:#000000;stroke-width:1" d="M379.0 331.0 L379.0 370.0 L173.0 370.0 L173.0 449.0" /><polygon style="fill:#000000; stroke:#000000;" points=" 178 439 173 449 168 439 173 441" /><path style="fill:none; stroke:#000000;stroke-width:1" d="M194.0 287.0 L349.0 281.0" /><polygon style="fill:#000000; stroke:#000000;" points=" 339 276 349 281 339 286 341 281" /><path style="fill:none; stroke:#000000;stroke-width:1" d="M606.0 92.0 L660.0 92.0" /><polygon style="fill:#000000; stroke:#000000;" points=" 650 87 660 92 650 97 652 92" /><path style="fill:none; stroke:#000000;stroke-width:1" d="M410.0 472.0 L552.0 477.0 L552.0 128.0" /><polygon style="fill:#000000; stroke:#000000;" points=" 547 138 552 128 557 138 552 136" /><path style="fill:none; stroke:#000000;stroke-width:1" d="M226.0 481.0 L349.0 473.0" /><polygon style="fill:#000000; stroke:#000000;" points=" 339 469 349 473 339 479 341 474" /><path style="fill:none; stroke:#009600;stroke-width:1" d="M160.0 287.0 L78.0 288.0 L78.0 484.0 L119.0 484.0" /><polygon style="fill:#009600; stroke:#009600;" points=" 109 479 119 484 109 489 111 484" /><path style="fill:none; stroke:#000000;stroke-width:1" d="M378.0 522.0 L377.0 560.0" /><polygon style="fill:#000000; stroke:#000000;" points=" 382 550 377 560 372 550 377 552" /><defs><linearGradient xmlns:xlink="http://www.w3.org/1999/xlink" xlink:href="#linearGradientFAFBFCFFFFCC" id="linearGradientFAFBFCFFFFCC_1438165447" x1="0" y1="229.0" x2="0" y2="289.0" gradientUnits="userSpaceOnUse" xlink:type="simple" xlink:actuate="onLoad" xlink:show="other" /><linearGradient id="linearGradientFAFBFCFFFFCC"><stop style="stop-color:#FAFBFC;stop-opacity:1;" offset="0.0" id="stopFAFBFC" /><stop style="stop-color:#FFFFCC;stop-opacity:1;" offset="1.0" id="stopFFFFCC" /></linearGradient><linearGradient xmlns:xlink="http://www.w3.org/1999/xlink" xlink:href="#linearGradientF8FBFEEDF5FCDEEDFAD4E7F8E2E5E9" id="linearGradientF8FBFEEDF5FCDEEDFAD4E7F8E2E5E9_1535069440" x1="0" y1="58.0" x2="0" y2="164.0" gradientUnits="userSpaceOnUse" xlink:type="simple" xlink:actuate="onLoad" xlink:show="other" /><linearGradient id="linearGradientF8FBFEEDF5FCDEEDFAD4E7F8E2E5E9"><stop style="stop-color:#F8FBFE;stop-opacity:1;" offset="0.0" id="stopF8FBFE" /><stop style="stop-color:#EDF5FC;stop-opacity:1;" offset="0.25" id="stopEDF5FC" /><stop style="stop-color:#DEEDFA;stop-opacity:1;" offset="0.5" id="stopDEEDFA" /><stop style="stop-color:#D4E7F8;stop-opacity:1;" offset="0.75" id="stopD4E7F8" /><stop style="stop-color:#E2E5E9;stop-opacity:1;" offset="1.0" id="stopE2E5E9" /></linearGradient><linearGradient xmlns:xlink="http://www.w3.org/1999/xlink" xlink:href="#linearGradientFF6666FF9696FFB6B6" id="linearGradientFF6666FF9696FFB6B6_1598079671" x1="0" y1="75.0" x2="0" y2="110.0" gradientUnits="userSpaceOnUse" xlink:type="simple" xlink:actuate="onLoad" xlink:show="other" /><linearGradient id="linearGradientFF6666FF9696FFB6B6"><stop style="stop-color:#FF6666;stop-opacity:1;" offset="0.0" id="stopFF6666" /><stop style="stop-color:#FF9696;stop-opacity:1;" offset="0.5" id="stopFF9696" /><stop style="stop-color:#FFB6B6;stop-opacity:1;" offset="1.0" id="stopFFB6B6" /></linearGradient><linearGradient xmlns:xlink="http://www.w3.org/1999/xlink" xlink:href="#linearGradientF8FBFEEDF5FCDEEDFAD4E7F8E2E5E9" id="linearGradientF8FBFEEDF5FCDEEDFAD4E7F8E2E5E9_440551227" x1="0" y1="450.0" x2="0" y2="556.0" gradientUnits="userSpaceOnUse" xlink:type="simple" xlink:actuate="onLoad" xlink:show="other" /><linearGradient xmlns:xlink="http://www.w3.org/1999/xlink" xlink:href="#linearGradientFAFBFCFFFFCC" id="linearGradientFAFBFCFFFFCC_178529061" x1="0" y1="420.0" x2="0" y2="480.0" gradientUnits="userSpaceOnUse" xlink:type="simple" xlink:actuate="onLoad" xlink:show="other" /><linearGradient xmlns:xlink="http://www.w3.org/1999/xlink" xlink:href="#linearGradient66FF6696FF96B6FFB6" id="linearGradient66FF6696FF96B6FFB6_722630716" x1="0" y1="270.0" x2="0" y2="305.0" gradientUnits="userSpaceOnUse" xlink:type="simple" xlink:actuate="onLoad" xlink:show="other" /><linearGradient id="linearGradient66FF6696FF96B6FFB6"><stop style="stop-color:#66FF66;stop-opacity:1;" offset="0.0" id="stop66FF66" /><stop style="stop-color:#96FF96;stop-opacity:1;" offset="0.5" id="stop96FF96" /><stop style="stop-color:#B6FFB6;stop-opacity:1;" offset="1.0" id="stopB6FFB6" /></linearGradient><linearGradient xmlns:xlink="http://www.w3.org/1999/xlink" xlink:href="#linearGradientFF6666FF9696FFB6B6" id="linearGradientFF6666FF9696FFB6B6_1914585747" x1="0" y1="560.0" x2="0" y2="595.0" gradientUnits="userSpaceOnUse" xlink:type="simple" xlink:actuate="onLoad" xlink:show="other" /></defs></svg>
