<?xml version="1.0" encoding="UTF-8"?>
<svg xmlns="http://www.w3.org/2000/svg" style="stroke-dasharray:none; shape-rendering:auto; font-family:'Arial'; text-rendering:auto; fill-opacity:1; color-interpolation:auto; color-rendering:auto; font-size:12; fill:black; stroke:black; image-rendering:auto; stroke-miterlimit:10; stroke-linecap:square; stroke-linejoin:miter; font-style:normal; stroke-width:1; stroke-dashoffset:0; font-weight:normal; stroke-opacity:1;" contentScriptType="text/ecmascript" preserveAspectRatio="xMidYMid meet" zoomAndPan="magnify" version="1.0" contentStyleType="text/css" xml:xlink="http://www.w3.org/1999/xlink" width="1189" height="648"><rect x="809" y="0" width="380" height="648" ry="0" rx="0" style="stroke:#000000; fill:#D0DAAE" /><g componentSequence="56"><text x="-324" y="815" transform="rotate(270)" text-anchor="middle" style="font-weight:bold;font-size:10px;stroke:none; fill:#434343"><tspan dy="14" x="-324">Controladoria</tspan></text></g><rect x="0" y="498" width="810" height="150" ry="0" rx="0" style="stroke:#000000; fill:#ADC9AC" /><g componentSequence="3"><text x="-573" y="6" transform="rotate(270)" text-anchor="middle" style="font-weight:bold;font-size:10px;stroke:none; fill:#434343"><tspan dy="14" x="-573">Co...</tspan></text></g><rect x="0" y="0" width="810" height="350" ry="0" rx="0" style="stroke:#000000; fill:#9FC1C6" /><g componentSequence="1"><text x="-175" y="6" transform="rotate(270)" text-anchor="middle" style="font-weight:bold;font-size:10px;stroke:none; fill:#434343"><tspan dy="14" x="-175">Ste...</tspan></text></g><rect x="0" y="349" width="810" height="150" ry="0" rx="0" style="stroke:#000000; fill:#82B0B7" /><g componentSequence="2"><text x="-424" y="6" transform="rotate(270)" text-anchor="middle" style="font-weight:bold;font-size:10px;stroke:none; fill:#434343"><tspan dy="14" x="-424">Cré...</tspan></text></g><g sequence="5"><rect x="251" y="67" width="106" height="106" ry="5" rx="5" style="fill:url(#linearGradientF8FBFEEDF5FCDEEDFAD4E7F8E2E5E9_469813490);" stroke="191970" /></g><g componentSequence="5"><text x="304" y="82" text-anchor="middle" style="font-weight:bold;font-size:10px;stroke:none; fill:#333399"><tspan dy="14" x="304">Imprimir extratos</tspan><tspan dy="14" x="304">e baixar</tspan><tspan dy="14" x="304">arquivos retorno</tspan><tspan dy="14" x="304">cobrança</tspan></text></g><g sequence="6"><rect x="398" y="74" width="106" height="93" ry="5" rx="5" style="fill:url(#linearGradientF8FBFEEDF5FCDEEDFAD4E7F8E2E5E9_315045122);" stroke="191970" /></g><g componentSequence="6"><text x="451" y="89" text-anchor="middle" style="font-weight:bold;font-size:10px;stroke:none; fill:#333399"><tspan dy="14" x="451">Executar baixas</tspan><tspan dy="14" x="451">dos arquivos de</tspan><tspan dy="14" x="451">retorno de</tspan><tspan dy="14" x="451">cobrança</tspan></text></g><g sequence="7"><rect x="541" y="81" width="106" height="80" ry="5" rx="5" style="fill:url(#linearGradientF8FBFEEDF5FCDEEDFAD4E7F8E2E5E9_385393538);" stroke="191970" /></g><g componentSequence="7"><text x="594" y="96" text-anchor="middle" style="font-weight:bold;font-size:10px;stroke:none; fill:#333399"><tspan dy="14" x="594">Lançar tarifas</tspan><tspan dy="14" x="594">bancárias da</tspan><tspan dy="14" x="594">RedeCard</tspan></text></g><g sequence="8"><rect x="685" y="81" width="106" height="80" ry="5" rx="5" style="fill:url(#linearGradientF8FBFEEDF5FCDEEDFAD4E7F8E2E5E9_1408909113);" stroke="191970" /></g><g componentSequence="8"><text x="738" y="96" text-anchor="middle" style="font-weight:bold;font-size:10px;stroke:none; fill:#333399"><tspan dy="14" x="738">Realizar</tspan><tspan dy="14" x="738">conciliações</tspan><tspan dy="14" x="738">bancárias</tspan></text></g><g sequence="9"><rect x="249" y="237" width="106" height="80" ry="5" rx="5" style="fill:url(#linearGradientF8FBFEEDF5FCDEEDFAD4E7F8E2E5E9_1235696364);" stroke="191970" /></g><g componentSequence="9"><text x="302" y="252" text-anchor="middle" style="font-weight:bold;font-size:10px;stroke:none; fill:#333399"><tspan dy="14" x="302">Anexar arquivo</tspan><tspan dy="14" x="302">extratos/Relatóri</tspan><tspan dy="14" x="302">os do dia</tspan></text></g><g sequence="10"><rect x="391" y="244" width="106" height="67" ry="5" rx="5" style="fill:url(#linearGradientF8FBFEEDF5FCDEEDFAD4E7F8E2E5E9_1650682367);" stroke="191970" /></g><g componentSequence="10"><text x="444" y="259" text-anchor="middle" style="font-weight:bold;font-size:10px;stroke:none; fill:#333399"><tspan dy="14" x="444">Executar Rotina</tspan><tspan dy="14" x="444">504 (opção 7)</tspan></text></g><g sequence="11"><rect x="537" y="237" width="106" height="80" ry="5" rx="5" style="fill:url(#linearGradientF8FBFEEDF5FCDEEDFAD4E7F8E2E5E9_835990146);" stroke="191970" /></g><g componentSequence="11"><text x="590" y="252" text-anchor="middle" style="font-weight:bold;font-size:10px;stroke:none; fill:#333399"><tspan dy="14" x="590">Enviar e-mail</tspan><tspan dy="14" x="590">dos DNI's para o</tspan><tspan dy="14" x="590">vendas</tspan></text></g><g sequence="12"><rect x="401" y="384" width="106" height="80" ry="5" rx="5" style="fill:url(#linearGradientF8FBFEEDF5FCDEEDFAD4E7F8E2E5E9_869646454);" stroke="191970" /></g><g componentSequence="12"><text x="454" y="399" text-anchor="middle" style="font-weight:bold;font-size:10px;stroke:none; fill:#333399"><tspan dy="14" x="454">Realizar acerto</tspan><tspan dy="14" x="454">dos créditos de</tspan><tspan dy="14" x="454">clientes</tspan></text></g><g sequence="13"><rect x="431" y="526" width="106" height="80" ry="5" rx="5" style="fill:url(#linearGradientF8FBFEEDF5FCDEEDFAD4E7F8E2E5E9_1129704634);" stroke="191970" /></g><g componentSequence="13"><text x="484" y="541" text-anchor="middle" style="font-weight:bold;font-size:10px;stroke:none; fill:#333399"><tspan dy="14" x="484">Revisar contas a</tspan><tspan dy="14" x="484">pagar em</tspan><tspan dy="14" x="484">aberto vencidas</tspan></text></g><g sequence="14"><polygon points=" 161 109 191 79 221 109 191 139 161 109" style="fill:url(#linearGradientFAFBFCFFFFCC_973097406);" stroke="000000" /></g><path style="fill:none; stroke-width:6; stroke:#000000;" d="M181.0 109.0 L201.0 109.0" /><path style="fill:none; stroke-width:6; stroke:#000000;" d="M191.0 99.0 L191.0 119.0" /><g componentSequence="14"><text x="191" y="141" text-anchor="middle" style="font-weight:bold;font-size:10px;stroke:none; fill:#333399"><tspan dy="14" x="191">Fork</tspan></text></g><g sequence="30"><polygon points=" 841 265 871 235 901 265 871 295 841 265" style="fill:url(#linearGradientFAFBFCFFFFCC_718290014);" stroke="000000" /></g><path style="fill:none; stroke-width:6; stroke:#000000;" d="M861.0 265.0 L881.0 265.0" /><path style="fill:none; stroke-width:6; stroke:#000000;" d="M871.0 255.0 L871.0 275.0" /><g componentSequence="30"><text x="871" y="297" text-anchor="middle" style="font-weight:bold;font-size:10px;stroke:none; fill:#333399"><tspan dy="14" x="871">Join</tspan></text></g><g sequence="39"><rect x="941" y="237" width="106" height="80" ry="5" rx="5" style="fill:url(#linearGradientF8FBFEEDF5FCDEEDFAD4E7F8E2E5E9_932945666);" stroke="191970" /></g><g componentSequence="39"><text x="994" y="252" text-anchor="middle" style="font-weight:bold;font-size:10px;stroke:none; fill:#333399"><tspan dy="14" x="994">Atualizar</tspan><tspan dy="14" x="994">dashboard fluxo</tspan><tspan dy="14" x="994">financeiro</tspan></text></g><g sequence="41"><ellipse cx="1098" cy="278" rx="17" ry="17" stroke-width="3" style="fill:url(#linearGradientFF6666FF9696FFB6B6_1539802487);" stroke="993333" /></g><g sequence="54"><ellipse cx="88" cy="122" rx="17" ry="17" stroke-width="1" style="fill:url(#linearGradient66FF6696FF96B6FFB6_1664248328);" stroke="336633" /></g><g sequence="54"><ellipse cx="88" cy="122" rx="12" ry="12" stroke-width="1" style="stroke:#000000; fill:none" /></g><g sequence="54"><path style="fill:none; stroke-width:1; stroke:#000000;" d="M77.0 122.0 L83.0 122.0" /></g><g sequence="54"><path style="fill:none; stroke-width:1; stroke:#000000;" d="M94.0 122.0 L100.0 122.0" /></g><g sequence="54"><path style="fill:none; stroke-width:1; stroke:#000000;" d="M88.0 111.0 L88.0 117.0" /></g><g sequence="54"><path style="fill:none; stroke-width:1; stroke:#000000;" d="M88.0 128.0 L88.0 134.0" /></g><g sequence="54"><ellipse cx="88" cy="122" rx="1" ry="1" stroke-width="1" style="stroke:#000000; fill:#000000" /></g><g sequence="54"><path style="fill:none; stroke-width:1; stroke:#000000;" d="M88.0 122.0 L96.0 117.0" /></g><g sequence="54"><path style="fill:none; stroke-width:1; stroke:#000000;" d="M88.0 122.0 L82.0 118.0" /></g><g sequence="54"><path style="fill:none; stroke-width:1; stroke:#000000;" d="M92.0 115.0 L94.0 112.0" /></g><g sequence="54"><path style="fill:none; stroke-width:1; stroke:#000000;" d="M95.0 118.0 L98.0 116.0" /></g><g sequence="54"><path style="fill:none; stroke-width:1; stroke:#000000;" d="M95.0 126.0 L98.0 128.0" /></g><g sequence="54"><path style="fill:none; stroke-width:1; stroke:#000000;" d="M92.0 129.0 L94.0 132.0" /></g><g sequence="54"><path style="fill:none; stroke-width:1; stroke:#000000;" d="M84.0 129.0 L82.0 132.0" /></g><g sequence="54"><path style="fill:none; stroke-width:1; stroke:#000000;" d="M81.0 126.0 L78.0 128.0" /></g><g sequence="54"><path style="fill:none; stroke-width:1; stroke:#000000;" d="M84.0 115.0 L82.0 112.0" /></g><g sequence="54"><path style="fill:none; stroke-width:1; stroke:#000000;" d="M81.0 118.0 L78.0 116.0" /></g><g componentSequence="16"><text x="246" y="121" style="font-size:10px;font-weight:none;stroke:none; fill:#333399" text-anchor="left" /></g><g componentSequence="27"><text x="200" y="486" style="font-size:10px;font-weight:none;stroke:none; fill:#333399" text-anchor="left" /></g><g componentSequence="37"><text x="709" y="424" style="font-size:10px;font-weight:none;stroke:none; fill:#333399" text-anchor="left" /></g><g componentSequence="38"><text x="836" y="566" style="font-size:10px;font-weight:none;stroke:none; fill:#333399" text-anchor="left" /></g><g componentSequence="40"><text x="931" y="277" style="font-size:10px;font-weight:none;stroke:none; fill:#333399" text-anchor="left" /></g><g componentSequence="42"><text x="1074" y="278" style="font-size:10px;font-weight:none;stroke:none; fill:#333399" text-anchor="left" /></g><g componentSequence="46"><text x="387" y="120" style="font-size:10px;font-weight:none;stroke:none; fill:#333399" text-anchor="left" /></g><g componentSequence="47"><text x="532" y="120" style="font-size:10px;font-weight:none;stroke:none; fill:#333399" text-anchor="left" /></g><g componentSequence="48"><text x="676" y="121" style="font-size:10px;font-weight:none;stroke:none; fill:#333399" text-anchor="left" /></g><g componentSequence="49"><text x="550" y="221" style="font-size:10px;font-weight:none;stroke:none; fill:#333399" text-anchor="left" /></g><g componentSequence="50"><text x="383" y="277" style="font-size:10px;font-weight:none;stroke:none; fill:#333399" text-anchor="left" /></g><g componentSequence="51"><text x="527" y="277" style="font-size:10px;font-weight:none;stroke:none; fill:#333399" text-anchor="left" /></g><g componentSequence="52"><text x="752" y="277" style="font-size:10px;font-weight:none;stroke:none; fill:#333399" text-anchor="left" /></g><g componentSequence="53"><text x="201" y="399" style="font-size:10px;font-weight:none;stroke:none; fill:#333399" text-anchor="left" /></g><g componentSequence="57"><text x="1074" y="278" style="font-size:10px;font-weight:none;stroke:none; fill:#333399" text-anchor="left" /></g><g componentSequence="55"><text x="143" y="122" style="font-size:10px;font-weight:none;stroke:none; fill:#333399" text-anchor="left" /></g><path style="fill:none; stroke:#000000;stroke-width:1" d="M357.0 120.0 L397.0 120.0" /><polygon style="fill:#000000; stroke:#000000;" points=" 387 115 397 120 387 125 389 120" /><path style="fill:none; stroke:#000000;stroke-width:1" d="M221.0 121.0 L250.0 121.0" /><polygon style="fill:#000000; stroke:#000000;" points=" 240 116 250 121 240 126 242 121" /><path style="fill:none; stroke:#000000;stroke-width:1" d="M504.0 120.0 L540.0 120.0" /><polygon style="fill:#000000; stroke:#000000;" points=" 530 115 540 120 530 125 532 120" /><path style="fill:none; stroke:#000000;stroke-width:1" d="M647.0 121.0 L684.0 121.0" /><polygon style="fill:#000000; stroke:#000000;" points=" 674 116 684 121 674 126 676 121" /><path style="fill:none; stroke:#000000;stroke-width:1" d="M736.0 161.0 L734.0 221.0 L301.0 220.0 L301.0 236.0" /><polygon style="fill:#000000; stroke:#000000;" points=" 306 226 301 236 296 226 301 228" /><path style="fill:none; stroke:#000000;stroke-width:1" d="M355.0 277.0 L390.0 277.0" /><polygon style="fill:#000000; stroke:#000000;" points=" 380 272 390 277 380 282 382 277" /><path style="fill:none; stroke:#000000;stroke-width:1" d="M497.0 277.0 L536.0 277.0" /><polygon style="fill:#000000; stroke:#000000;" points=" 526 272 536 277 526 282 528 277" /><path style="fill:none; stroke:#000000;stroke-width:1" d="M643.0 277.0 L840.0 277.0" /><polygon style="fill:#000000; stroke:#000000;" points=" 830 272 840 277 830 282 832 277" /><path style="fill:none; stroke:#000000;stroke-width:1" d="M507.0 424.0 L743.0 424.0 L840.0 313.0" /><polygon style="fill:#000000; stroke:#000000;" points=" 830 317 840 313 837 324 835 319" /><path style="fill:none; stroke:#000000;stroke-width:1" d="M191.0 165.0 L191.0 424.0 L400.0 424.0" /><polygon style="fill:#000000; stroke:#000000;" points=" 390 419 400 424 390 429 392 424" /><path style="fill:none; stroke:#000000;stroke-width:1" d="M537.0 566.0 L870.0 566.0 L870.0 321.0" /><polygon style="fill:#000000; stroke:#000000;" points=" 865 331 870 321 875 331 870 329" /><path style="fill:none; stroke:#000000;stroke-width:1" d="M190.0 165.0 L190.0 566.0 L430.0 566.0" /><polygon style="fill:#000000; stroke:#000000;" points=" 420 561 430 566 420 571 422 566" /><path style="fill:none; stroke:#000000;stroke-width:1" d="M106.0 122.0 L160.0 122.0" /><polygon style="fill:#000000; stroke:#000000;" points=" 150 117 160 122 150 127 152 122" /><path style="fill:none; stroke:#000000;stroke-width:1" d="M901.0 277.0 L940.0 277.0" /><polygon style="fill:#000000; stroke:#000000;" points=" 930 272 940 277 930 282 932 277" /><path style="fill:none; stroke:#009600;stroke-width:1" d="M1047.0 277.0 L1081.0 278.0" /><polygon style="fill:#009600; stroke:#009600;" points=" 1071 273 1081 278 1071 283 1073 278" /><path style="fill:none; stroke:#000000;stroke-width:1" d="M1047.0 277.0 L1081.0 278.0" /><polygon style="fill:#000000; stroke:#000000;" points=" 1071 273 1081 278 1071 283 1073 278" /><defs><linearGradient xmlns:xlink="http://www.w3.org/1999/xlink" xlink:href="#linearGradientF8FBFEEDF5FCDEEDFAD4E7F8E2E5E9" id="linearGradientF8FBFEEDF5FCDEEDFAD4E7F8E2E5E9_469813490" x1="0" y1="67.0" x2="0" y2="173.0" gradientUnits="userSpaceOnUse" xlink:type="simple" xlink:actuate="onLoad" xlink:show="other" /><linearGradient id="linearGradientF8FBFEEDF5FCDEEDFAD4E7F8E2E5E9"><stop style="stop-color:#F8FBFE;stop-opacity:1;" offset="0.0" id="stopF8FBFE" /><stop style="stop-color:#EDF5FC;stop-opacity:1;" offset="0.25" id="stopEDF5FC" /><stop style="stop-color:#DEEDFA;stop-opacity:1;" offset="0.5" id="stopDEEDFA" /><stop style="stop-color:#D4E7F8;stop-opacity:1;" offset="0.75" id="stopD4E7F8" /><stop style="stop-color:#E2E5E9;stop-opacity:1;" offset="1.0" id="stopE2E5E9" /></linearGradient><linearGradient xmlns:xlink="http://www.w3.org/1999/xlink" xlink:href="#linearGradientF8FBFEEDF5FCDEEDFAD4E7F8E2E5E9" id="linearGradientF8FBFEEDF5FCDEEDFAD4E7F8E2E5E9_315045122" x1="0" y1="74.0" x2="0" y2="180.0" gradientUnits="userSpaceOnUse" xlink:type="simple" xlink:actuate="onLoad" xlink:show="other" /><linearGradient xmlns:xlink="http://www.w3.org/1999/xlink" xlink:href="#linearGradientF8FBFEEDF5FCDEEDFAD4E7F8E2E5E9" id="linearGradientF8FBFEEDF5FCDEEDFAD4E7F8E2E5E9_385393538" x1="0" y1="81.0" x2="0" y2="187.0" gradientUnits="userSpaceOnUse" xlink:type="simple" xlink:actuate="onLoad" xlink:show="other" /><linearGradient xmlns:xlink="http://www.w3.org/1999/xlink" xlink:href="#linearGradientF8FBFEEDF5FCDEEDFAD4E7F8E2E5E9" id="linearGradientF8FBFEEDF5FCDEEDFAD4E7F8E2E5E9_1408909113" x1="0" y1="81.0" x2="0" y2="187.0" gradientUnits="userSpaceOnUse" xlink:type="simple" xlink:actuate="onLoad" xlink:show="other" /><linearGradient xmlns:xlink="http://www.w3.org/1999/xlink" xlink:href="#linearGradientF8FBFEEDF5FCDEEDFAD4E7F8E2E5E9" id="linearGradientF8FBFEEDF5FCDEEDFAD4E7F8E2E5E9_1235696364" x1="0" y1="237.0" x2="0" y2="343.0" gradientUnits="userSpaceOnUse" xlink:type="simple" xlink:actuate="onLoad" xlink:show="other" /><linearGradient xmlns:xlink="http://www.w3.org/1999/xlink" xlink:href="#linearGradientF8FBFEEDF5FCDEEDFAD4E7F8E2E5E9" id="linearGradientF8FBFEEDF5FCDEEDFAD4E7F8E2E5E9_1650682367" x1="0" y1="244.0" x2="0" y2="350.0" gradientUnits="userSpaceOnUse" xlink:type="simple" xlink:actuate="onLoad" xlink:show="other" /><linearGradient xmlns:xlink="http://www.w3.org/1999/xlink" xlink:href="#linearGradientF8FBFEEDF5FCDEEDFAD4E7F8E2E5E9" id="linearGradientF8FBFEEDF5FCDEEDFAD4E7F8E2E5E9_835990146" x1="0" y1="237.0" x2="0" y2="343.0" gradientUnits="userSpaceOnUse" xlink:type="simple" xlink:actuate="onLoad" xlink:show="other" /><linearGradient xmlns:xlink="http://www.w3.org/1999/xlink" xlink:href="#linearGradientF8FBFEEDF5FCDEEDFAD4E7F8E2E5E9" id="linearGradientF8FBFEEDF5FCDEEDFAD4E7F8E2E5E9_869646454" x1="0" y1="384.0" x2="0" y2="490.0" gradientUnits="userSpaceOnUse" xlink:type="simple" xlink:actuate="onLoad" xlink:show="other" /><linearGradient xmlns:xlink="http://www.w3.org/1999/xlink" xlink:href="#linearGradientF8FBFEEDF5FCDEEDFAD4E7F8E2E5E9" id="linearGradientF8FBFEEDF5FCDEEDFAD4E7F8E2E5E9_1129704634" x1="0" y1="526.0" x2="0" y2="632.0" gradientUnits="userSpaceOnUse" xlink:type="simple" xlink:actuate="onLoad" xlink:show="other" /><linearGradient xmlns:xlink="http://www.w3.org/1999/xlink" xlink:href="#linearGradientFAFBFCFFFFCC" id="linearGradientFAFBFCFFFFCC_973097406" x1="0" y1="79.0" x2="0" y2="139.0" gradientUnits="userSpaceOnUse" xlink:type="simple" xlink:actuate="onLoad" xlink:show="other" /><linearGradient id="linearGradientFAFBFCFFFFCC"><stop style="stop-color:#FAFBFC;stop-opacity:1;" offset="0.0" id="stopFAFBFC" /><stop style="stop-color:#FFFFCC;stop-opacity:1;" offset="1.0" id="stopFFFFCC" /></linearGradient><linearGradient xmlns:xlink="http://www.w3.org/1999/xlink" xlink:href="#linearGradientFAFBFCFFFFCC" id="linearGradientFAFBFCFFFFCC_718290014" x1="0" y1="235.0" x2="0" y2="295.0" gradientUnits="userSpaceOnUse" xlink:type="simple" xlink:actuate="onLoad" xlink:show="other" /><linearGradient xmlns:xlink="http://www.w3.org/1999/xlink" xlink:href="#linearGradientF8FBFEEDF5FCDEEDFAD4E7F8E2E5E9" id="linearGradientF8FBFEEDF5FCDEEDFAD4E7F8E2E5E9_932945666" x1="0" y1="237.0" x2="0" y2="343.0" gradientUnits="userSpaceOnUse" xlink:type="simple" xlink:actuate="onLoad" xlink:show="other" /><linearGradient xmlns:xlink="http://www.w3.org/1999/xlink" xlink:href="#linearGradientFF6666FF9696FFB6B6" id="linearGradientFF6666FF9696FFB6B6_1539802487" x1="0" y1="261.0" x2="0" y2="296.0" gradientUnits="userSpaceOnUse" xlink:type="simple" xlink:actuate="onLoad" xlink:show="other" /><linearGradient id="linearGradientFF6666FF9696FFB6B6"><stop style="stop-color:#FF6666;stop-opacity:1;" offset="0.0" id="stopFF6666" /><stop style="stop-color:#FF9696;stop-opacity:1;" offset="0.5" id="stopFF9696" /><stop style="stop-color:#FFB6B6;stop-opacity:1;" offset="1.0" id="stopFFB6B6" /></linearGradient><linearGradient xmlns:xlink="http://www.w3.org/1999/xlink" xlink:href="#linearGradient66FF6696FF96B6FFB6" id="linearGradient66FF6696FF96B6FFB6_1664248328" x1="0" y1="105.0" x2="0" y2="140.0" gradientUnits="userSpaceOnUse" xlink:type="simple" xlink:actuate="onLoad" xlink:show="other" /><linearGradient id="linearGradient66FF6696FF96B6FFB6"><stop style="stop-color:#66FF66;stop-opacity:1;" offset="0.0" id="stop66FF66" /><stop style="stop-color:#96FF96;stop-opacity:1;" offset="0.5" id="stop96FF96" /><stop style="stop-color:#B6FFB6;stop-opacity:1;" offset="1.0" id="stopB6FFB6" /></linearGradient></defs></svg>
