<?xml version="1.0" encoding="UTF-8"?>
<svg xmlns="http://www.w3.org/2000/svg" style="stroke-dasharray:none; shape-rendering:auto; font-family:'Arial'; text-rendering:auto; fill-opacity:1; color-interpolation:auto; color-rendering:auto; font-size:12; fill:black; stroke:black; image-rendering:auto; stroke-miterlimit:10; stroke-linecap:square; stroke-linejoin:miter; font-style:normal; stroke-width:1; stroke-dashoffset:0; font-weight:normal; stroke-opacity:1;" contentScriptType="text/ecmascript" preserveAspectRatio="xMidYMid meet" zoomAndPan="magnify" version="1.0" contentStyleType="text/css" xml:xlink="http://www.w3.org/1999/xlink" width="961" height="1161"><rect x="10" y="239" width="951" height="922" ry="0" rx="0" style="stroke:#000000; fill:#82B0B7" /><g componentSequence="2"><text x="-700" y="16" transform="rotate(270)" text-anchor="middle" style="font-weight:bold;font-size:10px;stroke:none; fill:#434343"><tspan dy="14" x="-700">Logística</tspan></text></g><rect x="10" y="0" width="951" height="240" ry="0" rx="0" style="stroke:#000000; fill:#8DB58B" /><g componentSequence="1"><text x="-120" y="16" transform="rotate(270)" text-anchor="middle" style="font-weight:bold;font-size:10px;stroke:none; fill:#434343"><tspan dy="14" x="-120">Solicitante</tspan></text></g><g sequence="3"><ellipse cx="367" cy="57" rx="17" ry="17" stroke-width="1" style="fill:url(#linearGradient66FF6696FF96B6FFB6_1264538788);" stroke="336633" /></g><g sequence="4"><rect x="240" y="260" width="106" height="54" ry="5" rx="5" style="fill:url(#linearGradientF8FBFEEDF5FCDEEDFAD4E7F8E2E5E9_1167631295);" stroke="191970" /></g><g componentSequence="4"><text x="293" y="276" text-anchor="middle" style="font-weight:bold;font-size:10px;stroke:none; fill:#333399"><tspan dy="14" x="293">Estoque</tspan></text></g><g sequence="9"><rect x="240" y="710" width="106" height="80" ry="5" rx="5" style="fill:url(#linearGradientF8FBFEEDF5FCDEEDFAD4E7F8E2E5E9_1101479892);" stroke="191970" /></g><g componentSequence="9"><text x="293" y="725" text-anchor="middle" style="font-weight:bold;font-size:10px;stroke:none; fill:#333399"><tspan dy="14" x="293">Resposta</tspan><tspan dy="14" x="293">supervisão</tspan><tspan dy="14" x="293">logística</tspan></text></g><g sequence="10"><polygon points=" 60 170 90 140 120 170 90 200 60 170" style="fill:url(#linearGradientFAFBFCFFFFCC_77965700);" stroke="000000" /></g><g componentSequence="10"><text x="90" y="210" text-anchor="middle" style="font-weight:bold;font-size:10px;stroke:none; fill:#333399"><tspan dy="14" x="90">Área do</tspan><tspan dy="14" x="90">chamado</tspan></text></g><g sequence="16"><rect x="240" y="370" width="106" height="54" ry="5" rx="5" style="fill:url(#linearGradientF8FBFEEDF5FCDEEDFAD4E7F8E2E5E9_904804288);" stroke="191970" /></g><g componentSequence="16"><text x="293" y="386" text-anchor="middle" style="font-weight:bold;font-size:10px;stroke:none; fill:#333399"><tspan dy="14" x="293">Recebimento</tspan></text></g><g sequence="17"><rect x="240" y="480" width="106" height="54" ry="5" rx="5" style="fill:url(#linearGradientF8FBFEEDF5FCDEEDFAD4E7F8E2E5E9_896266137);" stroke="191970" /></g><g componentSequence="17"><text x="293" y="496" text-anchor="middle" style="font-weight:bold;font-size:10px;stroke:none; fill:#333399"><tspan dy="14" x="293">Faturamento</tspan></text></g><g sequence="28"><rect x="240" y="590" width="106" height="54" ry="5" rx="5" style="fill:url(#linearGradientF8FBFEEDF5FCDEEDFAD4E7F8E2E5E9_1305096063);" stroke="191970" /></g><g componentSequence="28"><text x="293" y="606" text-anchor="middle" style="font-weight:bold;font-size:10px;stroke:none; fill:#333399"><tspan dy="14" x="293">Separação</tspan></text></g><g sequence="40"><rect x="580" y="60" width="106" height="67" ry="5" rx="5" style="fill:url(#linearGradientF8FBFEEDF5FCDEEDFAD4E7F8E2E5E9_1686787787);" stroke="191970" /></g><g componentSequence="40"><text x="633" y="75" text-anchor="middle" style="font-weight:bold;font-size:10px;stroke:none; fill:#333399"><tspan dy="14" x="633">Finalização</tspan><tspan dy="14" x="633">solicitante</tspan></text></g><g sequence="46"><ellipse cx="897" cy="93" rx="17" ry="17" stroke-width="3" style="fill:url(#linearGradientFF6666FF9696FFB6B6_547241389);" stroke="993333" /></g><g sequence="48"><polygon points=" 480 270 510 240 540 270 510 300 480 270" style="fill:url(#linearGradientFAFBFCFFFFCC_1256392960);" stroke="000000" /></g><g componentSequence="48"><text x="510" y="310" text-anchor="middle" style="font-weight:bold;font-size:10px;stroke:none; fill:#333399"><tspan dy="14" x="510">Devolver</tspan><tspan dy="14" x="510">para o</tspan><tspan dy="14" x="510">estoque</tspan></text></g><g sequence="52"><polygon points=" 480 380 510 350 540 380 510 410 480 380" style="fill:url(#linearGradientFAFBFCFFFFCC_1456367348);" stroke="000000" /></g><g componentSequence="52"><text x="510" y="420" text-anchor="middle" style="font-weight:bold;font-size:10px;stroke:none; fill:#333399"><tspan dy="14" x="510">Devolver</tspan><tspan dy="14" x="510">para o</tspan><tspan dy="14" x="510">receb...</tspan></text></g><g sequence="56"><polygon points=" 480 490 510 460 540 490 510 520 480 490" style="fill:url(#linearGradientFAFBFCFFFFCC_1623477992);" stroke="000000" /></g><g componentSequence="56"><text x="510" y="530" text-anchor="middle" style="font-weight:bold;font-size:10px;stroke:none; fill:#333399"><tspan dy="14" x="510">Devolver</tspan><tspan dy="14" x="510">para o</tspan><tspan dy="14" x="510">fatur...</tspan></text></g><g sequence="60"><polygon points=" 480 600 510 570 540 600 510 630 480 600" style="fill:url(#linearGradientFAFBFCFFFFCC_828797960);" stroke="000000" /></g><g componentSequence="60"><text x="510" y="640" text-anchor="middle" style="font-weight:bold;font-size:10px;stroke:none; fill:#333399"><tspan dy="14" x="510">Devolver</tspan><tspan dy="14" x="510">para a</tspan><tspan dy="14" x="510">separ...</tspan></text></g><g sequence="64"><polygon points=" 480 730 510 700 540 730 510 760 480 730" style="fill:url(#linearGradientFAFBFCFFFFCC_1671417901);" stroke="000000" /></g><g componentSequence="64"><text x="510" y="770" text-anchor="middle" style="font-weight:bold;font-size:10px;stroke:none; fill:#333399"><tspan dy="14" x="510">Devolver</tspan><tspan dy="14" x="510">para o</tspan><tspan dy="14" x="510">gerente</tspan></text></g><g sequence="79"><rect x="240" y="840" width="106" height="67" ry="5" rx="5" style="fill:url(#linearGradientF8FBFEEDF5FCDEEDFAD4E7F8E2E5E9_1187242860);" stroke="191970" /></g><g componentSequence="79"><text x="293" y="855" text-anchor="middle" style="font-weight:bold;font-size:10px;stroke:none; fill:#333399"><tspan dy="14" x="293">Entregas via</tspan><tspan dy="14" x="293">auto</tspan></text></g><g sequence="81"><rect x="240" y="950" width="106" height="67" ry="5" rx="5" style="fill:url(#linearGradientF8FBFEEDF5FCDEEDFAD4E7F8E2E5E9_78792274);" stroke="191970" /></g><g componentSequence="81"><text x="293" y="965" text-anchor="middle" style="font-weight:bold;font-size:10px;stroke:none; fill:#333399"><tspan dy="14" x="293">Entregas</tspan><tspan dy="14" x="293">Tercerizada</tspan></text></g><g sequence="83"><rect x="240" y="1070" width="106" height="54" ry="5" rx="5" style="fill:url(#linearGradientF8FBFEEDF5FCDEEDFAD4E7F8E2E5E9_108442872);" stroke="191970" /></g><g componentSequence="83"><text x="293" y="1086" text-anchor="middle" style="font-weight:bold;font-size:10px;stroke:none; fill:#333399"><tspan dy="14" x="293">Fluxo entregas</tspan></text></g><g sequence="85"><polygon points=" 480 854 510 824 540 854 510 884 480 854" style="fill:url(#linearGradientFAFBFCFFFFCC_469045923);" stroke="000000" /></g><g componentSequence="85"><text x="510" y="894" text-anchor="middle" style="font-weight:bold;font-size:10px;stroke:none; fill:#333399"><tspan dy="14" x="510">Devolver</tspan><tspan dy="14" x="510">para o</tspan><tspan dy="14" x="510">via auto</tspan></text></g><g sequence="87"><polygon points=" 480 964 510 934 540 964 510 994 480 964" style="fill:url(#linearGradientFAFBFCFFFFCC_1123310130);" stroke="000000" /></g><g componentSequence="87"><text x="510" y="1004" text-anchor="middle" style="font-weight:bold;font-size:10px;stroke:none; fill:#333399"><tspan dy="14" x="510">Devolver</tspan><tspan dy="14" x="510">para o</tspan><tspan dy="14" x="510">entre...</tspan></text></g><g sequence="89"><polygon points=" 480 1070 510 1040 540 1070 510 1100 480 1070" style="fill:url(#linearGradientFAFBFCFFFFCC_1424098536);" stroke="000000" /></g><g componentSequence="89"><text x="510" y="1110" text-anchor="middle" style="font-weight:bold;font-size:10px;stroke:none; fill:#333399"><tspan dy="14" x="510">Devolver</tspan><tspan dy="14" x="510">para o</tspan><tspan dy="14" x="510">entregas</tspan></text></g><g componentSequence="11"><text x="189" y="57" style="font-size:10px;font-weight:none;stroke:none; fill:#333399" text-anchor="left" /></g><g componentSequence="15"><text x="172" y="505" style="font-size:10px;font-weight:none;stroke:none; fill:#333399" text-anchor="left" /></g><g componentSequence="21"><text x="187" y="258" style="font-size:10px;font-weight:none;stroke:none; fill:#333399" text-anchor="left" /></g><g componentSequence="49"><text x="423" y="292" style="font-size:10px;font-weight:none;stroke:none; fill:#333399" text-anchor="left" /></g><g componentSequence="51"><text x="519" y="86" style="font-size:10px;font-weight:none;stroke:none; fill:#333399" text-anchor="left" /></g><g componentSequence="53"><text x="423" y="402" style="font-size:10px;font-weight:none;stroke:none; fill:#333399" text-anchor="left" /></g><g componentSequence="55"><text x="440" y="212" style="font-size:10px;font-weight:none;stroke:none; fill:#333399" text-anchor="left" /></g><g componentSequence="58"><text x="443" y="267" style="font-size:10px;font-weight:none;stroke:none; fill:#333399" text-anchor="left" /></g><g componentSequence="59"><text x="423" y="512" style="font-size:10px;font-weight:none;stroke:none; fill:#333399" text-anchor="left" /></g><g componentSequence="62"><text x="444" y="322" style="font-size:10px;font-weight:none;stroke:none; fill:#333399" text-anchor="left" /></g><g componentSequence="63"><text x="423" y="622" style="font-size:10px;font-weight:none;stroke:none; fill:#333399" text-anchor="left" /></g><g componentSequence="65"><text x="423" y="753" style="font-size:10px;font-weight:none;stroke:none; fill:#333399" text-anchor="left" /></g><g componentSequence="67"><text x="445" y="387" style="font-size:10px;font-weight:none;stroke:none; fill:#333399" text-anchor="left" /></g><g componentSequence="69"><text x="642" y="260" style="font-size:10px;font-weight:none;stroke:none; fill:#333399" text-anchor="left" /></g><g componentSequence="70"><text x="642" y="313" style="font-size:10px;font-weight:none;stroke:none; fill:#333399" text-anchor="left" /></g><g componentSequence="71"><text x="642" y="369" style="font-size:10px;font-weight:none;stroke:none; fill:#333399" text-anchor="left" /></g><g componentSequence="72"><text x="643" y="423" style="font-size:10px;font-weight:none;stroke:none; fill:#333399" text-anchor="left" /></g><g componentSequence="73"><text x="643" y="489" style="font-size:10px;font-weight:none;stroke:none; fill:#333399" text-anchor="left" /></g><g componentSequence="74"><text x="793" y="93" style="font-size:10px;font-weight:none;stroke:none; fill:#333399" text-anchor="left" /></g><g componentSequence="75"><text x="793" y="93" style="font-size:10px;font-weight:none;stroke:none; fill:#333399" text-anchor="left" /></g><g componentSequence="77"><text x="177" y="426" style="font-size:10px;font-weight:none;stroke:none; fill:#333399" text-anchor="left" /></g><g componentSequence="78"><text x="179" y="373" style="font-size:10px;font-weight:none;stroke:none; fill:#333399" text-anchor="left" /></g><g componentSequence="82"><text x="170" y="622" style="font-size:10px;font-weight:none;stroke:none; fill:#333399" text-anchor="left" /></g><g componentSequence="84"><text x="169" y="678" style="font-size:10px;font-weight:none;stroke:none; fill:#333399" text-anchor="left" /></g><g componentSequence="86"><text x="423" y="877" style="font-size:10px;font-weight:none;stroke:none; fill:#333399" text-anchor="left" /></g><g componentSequence="88"><text x="423" y="987" style="font-size:10px;font-weight:none;stroke:none; fill:#333399" text-anchor="left" /></g><g componentSequence="90"><text x="423" y="1096" style="font-size:10px;font-weight:none;stroke:none; fill:#333399" text-anchor="left" /></g><g componentSequence="94"><text x="184" y="321" style="font-size:10px;font-weight:none;stroke:none; fill:#333399" text-anchor="left" /></g><g componentSequence="95"><text x="169" y="570" style="font-size:10px;font-weight:none;stroke:none; fill:#333399" text-anchor="left" /></g><g componentSequence="97"><text x="642" y="550" style="font-size:10px;font-weight:none;stroke:none; fill:#333399" text-anchor="left" /></g><g componentSequence="98"><text x="642" y="602" style="font-size:10px;font-weight:none;stroke:none; fill:#333399" text-anchor="left" /></g><g componentSequence="99"><text x="642" y="658" style="font-size:10px;font-weight:none;stroke:none; fill:#333399" text-anchor="left" /></g><g componentSequence="100"><text x="445" y="449" style="font-size:10px;font-weight:none;stroke:none; fill:#333399" text-anchor="left" /></g><g componentSequence="101"><text x="446" y="504" style="font-size:10px;font-weight:none;stroke:none; fill:#333399" text-anchor="left" /></g><g componentSequence="102"><text x="446" y="557" style="font-size:10px;font-weight:none;stroke:none; fill:#333399" text-anchor="left" /></g><path style="fill:none; stroke:#000000;stroke-width:1" d="M349.0 57.0 L90.0 57.0 L90.0 139.0" /><polygon style="fill:#000000; stroke:#000000;" points=" 95 129 90 139 85 129 90 131" /><path style="fill:none; stroke:#000000;stroke-width:1" d="M509.0 239.0 L509.0 57.0 L385.0 57.0" /><polygon style="fill:#000000; stroke:#000000;" points=" 395 62 385 57 395 52 393 57" /><path style="fill:none; stroke:#000000;stroke-width:1" d="M486.0 349.0 L373.0 73.0" /><polygon style="fill:#000000; stroke:#000000;" points=" 372 84 373 73 381 80 376 80" /><path style="fill:none; stroke:#000000;stroke-width:1" d="M492.0 459.0 L372.0 74.0" /><polygon style="fill:#000000; stroke:#000000;" points=" 370 85 372 74 380 82 374 82" /><path style="fill:none; stroke:#000000;stroke-width:1" d="M495.0 569.0 L371.0 74.0" /><polygon style="fill:#000000; stroke:#000000;" points=" 369 85 371 74 378 82 373 82" /><path style="fill:none; stroke:#000000;stroke-width:1" d="M498.0 699.0 L370.0 74.0" /><polygon style="fill:#000000; stroke:#000000;" points=" 367 85 370 74 377 83 372 82" /><path style="fill:none; stroke:#000000;stroke-width:1" d="M500.0 823.0 L370.0 74.0" /><polygon style="fill:#000000; stroke:#000000;" points=" 367 85 370 74 377 83 371 82" /><path style="fill:none; stroke:#000000;stroke-width:1" d="M501.0 933.0 L369.0 74.0" /><polygon style="fill:#000000; stroke:#000000;" points=" 366 85 369 74 375 83 370 82" /><path style="fill:none; stroke:#000000;stroke-width:1" d="M502.0 1039.0 L369.0 74.0" /><polygon style="fill:#000000; stroke:#000000;" points=" 365 85 369 74 375 83 370 82" /><path style="fill:none; stroke:#000000;stroke-width:1" d="M346.0 289.0 L479.0 294.0" /><polygon style="fill:#000000; stroke:#000000;" points=" 469 289 479 294 469 299 471 294" /><path style="fill:none; stroke:#000000;stroke-width:1" d="M120.0 213.0 L214.0 288.0 L239.0 288.0" /><polygon style="fill:#000000; stroke:#000000;" points=" 229 283 239 288 229 293 231 288" /><path style="fill:none; stroke:#000000;stroke-width:1" d="M346.0 751.0 L479.0 755.0" /><polygon style="fill:#000000; stroke:#000000;" points=" 469 750 479 755 469 760 471 755" /><path style="fill:none; stroke:#000000;stroke-width:1" d="M101.0 239.0 L218.0 750.0 L239.0 750.0" /><polygon style="fill:#000000; stroke:#000000;" points=" 229 745 239 750 229 755 231 750" /><path style="fill:none; stroke:#000000;stroke-width:1" d="M106.0 239.0 L222.0 596.0 L238.0 596.0 L239.0 596.0" /><polygon style="fill:#000000; stroke:#000000;" points=" 229 591 239 596 229 601 231 596" /><path style="fill:none; stroke:#000000;stroke-width:1" d="M111.0 239.0 L218.0 488.0 L239.0 493.0" /><polygon style="fill:#000000; stroke:#000000;" points=" 230 486 239 493 228 496 231 491" /><path style="fill:none; stroke:#000000;stroke-width:1" d="M98.0 239.0 L218.0 984.0 L239.0 984.0" /><polygon style="fill:#000000; stroke:#000000;" points=" 229 979 239 984 229 989 231 984" /><path style="fill:none; stroke:#000000;stroke-width:1" d="M97.0 239.0 L218.0 1096.0 L239.0 1096.0" /><polygon style="fill:#000000; stroke:#000000;" points=" 229 1091 239 1096 229 1101 231 1096" /><path style="fill:none; stroke:#000000;stroke-width:1" d="M120.0 237.0 L214.0 384.0 L239.0 388.0" /><polygon style="fill:#000000; stroke:#000000;" points=" 230 381 239 388 228 391 231 387" /><path style="fill:none; stroke:#000000;stroke-width:1" d="M99.0 239.0 L215.0 877.0 L239.0 877.0 L239.0 877.0" /><polygon style="fill:#000000; stroke:#000000;" points=" 229 872 239 877 229 882 231 877" /><path style="fill:none; stroke:#000000;stroke-width:1" d="M346.0 399.0 L479.0 404.0" /><polygon style="fill:#000000; stroke:#000000;" points=" 469 399 479 404 469 409 471 404" /><path style="fill:none; stroke:#000000;stroke-width:1" d="M346.0 509.0 L479.0 514.0" /><polygon style="fill:#000000; stroke:#000000;" points=" 469 509 479 514 469 519 471 514" /><path style="fill:none; stroke:#000000;stroke-width:1" d="M346.0 619.0 L479.0 624.0" /><polygon style="fill:#000000; stroke:#000000;" points=" 469 619 479 624 469 629 471 624" /><path style="fill:none; stroke:#009600;stroke-width:1" d="M686.0 93.0 L879.0 93.0" /><polygon style="fill:#009600; stroke:#009600;" points=" 869 88 879 93 869 98 871 93" /><path style="fill:none; stroke:#000000;stroke-width:1" d="M686.0 93.0 L879.0 93.0" /><polygon style="fill:#000000; stroke:#000000;" points=" 869 88 879 93 869 98 871 93" /><path style="fill:none; stroke:#F00000;stroke-width:1" d="M540.0 297.0 L632.0 300.0 L632.0 127.0" /><polygon style="fill:#F00000; stroke:#F00000;" points=" 627 137 632 127 637 137 632 135" /><polygon style="fill:#F00000; stroke:#F00000;" points=" 550 302 540 297 550 292 548 297" /><path style="fill:none; stroke:#F00000;stroke-width:1" d="M540.0 406.0 L632.0 406.0 L632.0 127.0" /><polygon style="fill:#F00000; stroke:#F00000;" points=" 627 137 632 127 637 137 632 135" /><polygon style="fill:#F00000; stroke:#F00000;" points=" 550 411 540 406 550 401 548 406" /><path style="fill:none; stroke:#F00000;stroke-width:1" d="M540.0 516.0 L632.0 519.0 L632.0 127.0" /><polygon style="fill:#F00000; stroke:#F00000;" points=" 627 137 632 127 637 137 632 135" /><polygon style="fill:#F00000; stroke:#F00000;" points=" 550 521 540 516 550 511 548 516" /><path style="fill:none; stroke:#F00000;stroke-width:1" d="M540.0 626.0 L633.0 626.0 L633.0 127.0" /><polygon style="fill:#F00000; stroke:#F00000;" points=" 628 137 633 127 638 137 633 135" /><polygon style="fill:#F00000; stroke:#F00000;" points=" 550 631 540 626 550 621 548 626" /><path style="fill:none; stroke:#F00000;stroke-width:1" d="M540.0 756.0 L633.0 757.0 L633.0 127.0" /><polygon style="fill:#F00000; stroke:#F00000;" points=" 628 137 633 127 638 137 633 135" /><polygon style="fill:#F00000; stroke:#F00000;" points=" 550 761 540 756 550 751 548 756" /><path style="fill:none; stroke:#F00000;stroke-width:1" d="M540.0 880.0 L632.0 881.0 L632.0 127.0" /><polygon style="fill:#F00000; stroke:#F00000;" points=" 627 137 632 127 637 137 632 135" /><polygon style="fill:#F00000; stroke:#F00000;" points=" 550 885 540 880 550 875 548 880" /><path style="fill:none; stroke:#F00000;stroke-width:1" d="M540.0 988.0 L632.0 984.0 L632.0 127.0" /><polygon style="fill:#F00000; stroke:#F00000;" points=" 627 137 632 127 637 137 632 135" /><polygon style="fill:#F00000; stroke:#F00000;" points=" 550 993 540 988 550 983 548 988" /><path style="fill:none; stroke:#F00000;stroke-width:1" d="M540.0 1096.0 L632.0 1097.0 L632.0 127.0" /><polygon style="fill:#F00000; stroke:#F00000;" points=" 627 137 632 127 637 137 632 135" /><polygon style="fill:#F00000; stroke:#F00000;" points=" 550 1101 540 1096 550 1091 548 1096" /><path style="fill:none; stroke:#000000;stroke-width:1" d="M346.0 875.0 L479.0 879.0" /><polygon style="fill:#000000; stroke:#000000;" points=" 469 874 479 879 469 884 471 879" /><path style="fill:none; stroke:#000000;stroke-width:1" d="M346.0 985.0 L479.0 989.0" /><polygon style="fill:#000000; stroke:#000000;" points=" 469 984 479 989 469 994 471 989" /><path style="fill:none; stroke:#000000;stroke-width:1" d="M346.0 1096.0 L479.0 1096.0" /><polygon style="fill:#000000; stroke:#000000;" points=" 469 1091 479 1096 469 1101 471 1096" /><defs><linearGradient xmlns:xlink="http://www.w3.org/1999/xlink" xlink:href="#linearGradient66FF6696FF96B6FFB6" id="linearGradient66FF6696FF96B6FFB6_1264538788" x1="0" y1="40.0" x2="0" y2="75.0" gradientUnits="userSpaceOnUse" xlink:type="simple" xlink:actuate="onLoad" xlink:show="other" /><linearGradient id="linearGradient66FF6696FF96B6FFB6"><stop style="stop-color:#66FF66;stop-opacity:1;" offset="0.0" id="stop66FF66" /><stop style="stop-color:#96FF96;stop-opacity:1;" offset="0.5" id="stop96FF96" /><stop style="stop-color:#B6FFB6;stop-opacity:1;" offset="1.0" id="stopB6FFB6" /></linearGradient><linearGradient xmlns:xlink="http://www.w3.org/1999/xlink" xlink:href="#linearGradientF8FBFEEDF5FCDEEDFAD4E7F8E2E5E9" id="linearGradientF8FBFEEDF5FCDEEDFAD4E7F8E2E5E9_1167631295" x1="0" y1="260.0" x2="0" y2="366.0" gradientUnits="userSpaceOnUse" xlink:type="simple" xlink:actuate="onLoad" xlink:show="other" /><linearGradient id="linearGradientF8FBFEEDF5FCDEEDFAD4E7F8E2E5E9"><stop style="stop-color:#F8FBFE;stop-opacity:1;" offset="0.0" id="stopF8FBFE" /><stop style="stop-color:#EDF5FC;stop-opacity:1;" offset="0.25" id="stopEDF5FC" /><stop style="stop-color:#DEEDFA;stop-opacity:1;" offset="0.5" id="stopDEEDFA" /><stop style="stop-color:#D4E7F8;stop-opacity:1;" offset="0.75" id="stopD4E7F8" /><stop style="stop-color:#E2E5E9;stop-opacity:1;" offset="1.0" id="stopE2E5E9" /></linearGradient><linearGradient xmlns:xlink="http://www.w3.org/1999/xlink" xlink:href="#linearGradientF8FBFEEDF5FCDEEDFAD4E7F8E2E5E9" id="linearGradientF8FBFEEDF5FCDEEDFAD4E7F8E2E5E9_1101479892" x1="0" y1="710.0" x2="0" y2="816.0" gradientUnits="userSpaceOnUse" xlink:type="simple" xlink:actuate="onLoad" xlink:show="other" /><linearGradient xmlns:xlink="http://www.w3.org/1999/xlink" xlink:href="#linearGradientFAFBFCFFFFCC" id="linearGradientFAFBFCFFFFCC_77965700" x1="0" y1="140.0" x2="0" y2="200.0" gradientUnits="userSpaceOnUse" xlink:type="simple" xlink:actuate="onLoad" xlink:show="other" /><linearGradient id="linearGradientFAFBFCFFFFCC"><stop style="stop-color:#FAFBFC;stop-opacity:1;" offset="0.0" id="stopFAFBFC" /><stop style="stop-color:#FFFFCC;stop-opacity:1;" offset="1.0" id="stopFFFFCC" /></linearGradient><linearGradient xmlns:xlink="http://www.w3.org/1999/xlink" xlink:href="#linearGradientF8FBFEEDF5FCDEEDFAD4E7F8E2E5E9" id="linearGradientF8FBFEEDF5FCDEEDFAD4E7F8E2E5E9_904804288" x1="0" y1="370.0" x2="0" y2="476.0" gradientUnits="userSpaceOnUse" xlink:type="simple" xlink:actuate="onLoad" xlink:show="other" /><linearGradient xmlns:xlink="http://www.w3.org/1999/xlink" xlink:href="#linearGradientF8FBFEEDF5FCDEEDFAD4E7F8E2E5E9" id="linearGradientF8FBFEEDF5FCDEEDFAD4E7F8E2E5E9_896266137" x1="0" y1="480.0" x2="0" y2="586.0" gradientUnits="userSpaceOnUse" xlink:type="simple" xlink:actuate="onLoad" xlink:show="other" /><linearGradient xmlns:xlink="http://www.w3.org/1999/xlink" xlink:href="#linearGradientF8FBFEEDF5FCDEEDFAD4E7F8E2E5E9" id="linearGradientF8FBFEEDF5FCDEEDFAD4E7F8E2E5E9_1305096063" x1="0" y1="590.0" x2="0" y2="696.0" gradientUnits="userSpaceOnUse" xlink:type="simple" xlink:actuate="onLoad" xlink:show="other" /><linearGradient xmlns:xlink="http://www.w3.org/1999/xlink" xlink:href="#linearGradientF8FBFEEDF5FCDEEDFAD4E7F8E2E5E9" id="linearGradientF8FBFEEDF5FCDEEDFAD4E7F8E2E5E9_1686787787" x1="0" y1="60.0" x2="0" y2="166.0" gradientUnits="userSpaceOnUse" xlink:type="simple" xlink:actuate="onLoad" xlink:show="other" /><linearGradient xmlns:xlink="http://www.w3.org/1999/xlink" xlink:href="#linearGradientFF6666FF9696FFB6B6" id="linearGradientFF6666FF9696FFB6B6_547241389" x1="0" y1="76.0" x2="0" y2="111.0" gradientUnits="userSpaceOnUse" xlink:type="simple" xlink:actuate="onLoad" xlink:show="other" /><linearGradient id="linearGradientFF6666FF9696FFB6B6"><stop style="stop-color:#FF6666;stop-opacity:1;" offset="0.0" id="stopFF6666" /><stop style="stop-color:#FF9696;stop-opacity:1;" offset="0.5" id="stopFF9696" /><stop style="stop-color:#FFB6B6;stop-opacity:1;" offset="1.0" id="stopFFB6B6" /></linearGradient><linearGradient xmlns:xlink="http://www.w3.org/1999/xlink" xlink:href="#linearGradientFAFBFCFFFFCC" id="linearGradientFAFBFCFFFFCC_1256392960" x1="0" y1="240.0" x2="0" y2="300.0" gradientUnits="userSpaceOnUse" xlink:type="simple" xlink:actuate="onLoad" xlink:show="other" /><linearGradient xmlns:xlink="http://www.w3.org/1999/xlink" xlink:href="#linearGradientFAFBFCFFFFCC" id="linearGradientFAFBFCFFFFCC_1456367348" x1="0" y1="350.0" x2="0" y2="410.0" gradientUnits="userSpaceOnUse" xlink:type="simple" xlink:actuate="onLoad" xlink:show="other" /><linearGradient xmlns:xlink="http://www.w3.org/1999/xlink" xlink:href="#linearGradientFAFBFCFFFFCC" id="linearGradientFAFBFCFFFFCC_1623477992" x1="0" y1="460.0" x2="0" y2="520.0" gradientUnits="userSpaceOnUse" xlink:type="simple" xlink:actuate="onLoad" xlink:show="other" /><linearGradient xmlns:xlink="http://www.w3.org/1999/xlink" xlink:href="#linearGradientFAFBFCFFFFCC" id="linearGradientFAFBFCFFFFCC_828797960" x1="0" y1="570.0" x2="0" y2="630.0" gradientUnits="userSpaceOnUse" xlink:type="simple" xlink:actuate="onLoad" xlink:show="other" /><linearGradient xmlns:xlink="http://www.w3.org/1999/xlink" xlink:href="#linearGradientFAFBFCFFFFCC" id="linearGradientFAFBFCFFFFCC_1671417901" x1="0" y1="700.0" x2="0" y2="760.0" gradientUnits="userSpaceOnUse" xlink:type="simple" xlink:actuate="onLoad" xlink:show="other" /><linearGradient xmlns:xlink="http://www.w3.org/1999/xlink" xlink:href="#linearGradientF8FBFEEDF5FCDEEDFAD4E7F8E2E5E9" id="linearGradientF8FBFEEDF5FCDEEDFAD4E7F8E2E5E9_1187242860" x1="0" y1="840.0" x2="0" y2="946.0" gradientUnits="userSpaceOnUse" xlink:type="simple" xlink:actuate="onLoad" xlink:show="other" /><linearGradient xmlns:xlink="http://www.w3.org/1999/xlink" xlink:href="#linearGradientF8FBFEEDF5FCDEEDFAD4E7F8E2E5E9" id="linearGradientF8FBFEEDF5FCDEEDFAD4E7F8E2E5E9_78792274" x1="0" y1="950.0" x2="0" y2="1056.0" gradientUnits="userSpaceOnUse" xlink:type="simple" xlink:actuate="onLoad" xlink:show="other" /><linearGradient xmlns:xlink="http://www.w3.org/1999/xlink" xlink:href="#linearGradientF8FBFEEDF5FCDEEDFAD4E7F8E2E5E9" id="linearGradientF8FBFEEDF5FCDEEDFAD4E7F8E2E5E9_108442872" x1="0" y1="1070.0" x2="0" y2="1176.0" gradientUnits="userSpaceOnUse" xlink:type="simple" xlink:actuate="onLoad" xlink:show="other" /><linearGradient xmlns:xlink="http://www.w3.org/1999/xlink" xlink:href="#linearGradientFAFBFCFFFFCC" id="linearGradientFAFBFCFFFFCC_469045923" x1="0" y1="824.0" x2="0" y2="884.0" gradientUnits="userSpaceOnUse" xlink:type="simple" xlink:actuate="onLoad" xlink:show="other" /><linearGradient xmlns:xlink="http://www.w3.org/1999/xlink" xlink:href="#linearGradientFAFBFCFFFFCC" id="linearGradientFAFBFCFFFFCC_1123310130" x1="0" y1="934.0" x2="0" y2="994.0" gradientUnits="userSpaceOnUse" xlink:type="simple" xlink:actuate="onLoad" xlink:show="other" /><linearGradient xmlns:xlink="http://www.w3.org/1999/xlink" xlink:href="#linearGradientFAFBFCFFFFCC" id="linearGradientFAFBFCFFFFCC_1424098536" x1="0" y1="1040.0" x2="0" y2="1100.0" gradientUnits="userSpaceOnUse" xlink:type="simple" xlink:actuate="onLoad" xlink:show="other" /></defs></svg>
