<?xml version="1.0" encoding="UTF-8"?>
<svg xmlns="http://www.w3.org/2000/svg" style="stroke-dasharray:none; shape-rendering:auto; font-family:'Arial'; text-rendering:auto; fill-opacity:1; color-interpolation:auto; color-rendering:auto; font-size:12; fill:black; stroke:black; image-rendering:auto; stroke-miterlimit:10; stroke-linecap:square; stroke-linejoin:miter; font-style:normal; stroke-width:1; stroke-dashoffset:0; font-weight:normal; stroke-opacity:1;" contentScriptType="text/ecmascript" preserveAspectRatio="xMidYMid meet" zoomAndPan="magnify" version="1.0" contentStyleType="text/css" xml:xlink="http://www.w3.org/1999/xlink" width="700" height="740"><rect x="0" y="590" width="700" height="150" ry="0" rx="0" style="stroke:#000000; fill:#D6E0D0" /><g componentSequence="2"><text x="-665" y="6" transform="rotate(270)" text-anchor="middle" style="font-weight:bold;font-size:10px;stroke:none; fill:#434343"><tspan dy="14" x="-665">Financeiro</tspan></text></g><rect x="0" y="292" width="700" height="150" ry="0" rx="0" style="stroke:#000000; fill:#82B0B7" /><g componentSequence="4"><text x="-367" y="6" transform="rotate(270)" text-anchor="middle" style="font-weight:bold;font-size:10px;stroke:none; fill:#434343"><tspan dy="14" x="-367">Compras</tspan></text></g><rect x="0" y="2" width="700" height="150" ry="0" rx="0" style="stroke:#000000; fill:#9FC1C6" /><g componentSequence="3"><text x="-77" y="6" transform="rotate(270)" text-anchor="middle" style="font-weight:bold;font-size:10px;stroke:none; fill:#434343"><tspan dy="14" x="-77">Solicitante</tspan></text></g><rect x="0" y="147" width="700" height="150" ry="0" rx="0" style="stroke:#000000; fill:#C9C3AC" /><g componentSequence="1"><text x="-222" y="6" transform="rotate(270)" text-anchor="middle" style="font-weight:bold;font-size:10px;stroke:none; fill:#434343"><tspan dy="14" x="-222">Gerência</tspan></text></g><rect x="0" y="441" width="700" height="150" ry="0" rx="0" style="stroke:#000000; fill:#D0DAAE" /><g componentSequence="5"><text x="-516" y="6" transform="rotate(270)" text-anchor="middle" style="font-weight:bold;font-size:10px;stroke:none; fill:#434343"><tspan dy="14" x="-516">Recebimento</tspan></text></g><g sequence="6"><ellipse cx="237" cy="83" rx="17" ry="17" stroke-width="1" style="fill:url(#linearGradient66FF6696FF96B6FFB6_2052656527);" stroke="336633" /></g><g sequence="8"><rect x="210" y="189" width="106" height="67" ry="5" rx="5" style="fill:url(#linearGradientF8FBFEEDF5FCDEEDFAD4E7F8E2E5E9_1956576436);" stroke="191970" /></g><g componentSequence="8"><text x="263" y="204" text-anchor="middle" style="font-weight:bold;font-size:10px;stroke:none; fill:#333399"><tspan dy="14" x="263">Aprovação</tspan><tspan dy="14" x="263">Gerente</tspan></text></g><g sequence="9"><rect x="210" y="333" width="106" height="67" ry="5" rx="5" style="fill:url(#linearGradientF8FBFEEDF5FCDEEDFAD4E7F8E2E5E9_1889625855);" stroke="191970" /></g><g componentSequence="9"><text x="263" y="348" text-anchor="middle" style="font-weight:bold;font-size:10px;stroke:none; fill:#333399"><tspan dy="14" x="263">Aprovação</tspan><tspan dy="14" x="263">Compras</tspan></text></g><g sequence="10"><rect x="180" y="469" width="106" height="93" ry="5" rx="5" style="fill:url(#linearGradientF8FBFEEDF5FCDEEDFAD4E7F8E2E5E9_899937935);" stroke="191970" /></g><g componentSequence="10"><text x="233" y="484" text-anchor="middle" style="font-weight:bold;font-size:10px;stroke:none; fill:#333399"><tspan dy="14" x="233">Cancelamento</tspan><tspan dy="14" x="233">da nota e</tspan><tspan dy="14" x="233">entrada na</tspan><tspan dy="14" x="233">mercadoria</tspan></text></g><g sequence="12"><rect x="450" y="632" width="106" height="67" ry="5" rx="5" style="fill:url(#linearGradientF8FBFEEDF5FCDEEDFAD4E7F8E2E5E9_119840961);" stroke="191970" /></g><g componentSequence="12"><text x="503" y="647" text-anchor="middle" style="font-weight:bold;font-size:10px;stroke:none; fill:#333399"><tspan dy="14" x="503">Consulta título</tspan><tspan dy="14" x="503">em banco</tspan></text></g><g sequence="13"><polygon points=" 340 203 370 173 400 203 370 233 340 203" style="fill:url(#linearGradientFAFBFCFFFFCC_73172941);" stroke="000000" /></g><g componentSequence="13"><text x="370" y="243" text-anchor="middle" style="font-weight:bold;font-size:10px;stroke:none; fill:#333399"><tspan dy="14" x="370">Aprovad</tspan><tspan dy="14" x="370">o?</tspan></text></g><g sequence="14"><polygon points=" 340 348 370 318 400 348 370 378 340 348" style="fill:url(#linearGradientFAFBFCFFFFCC_2133954343);" stroke="000000" /></g><g componentSequence="14"><text x="370" y="388" text-anchor="middle" style="font-weight:bold;font-size:10px;stroke:none; fill:#333399"><tspan dy="14" x="370">Aprovad</tspan><tspan dy="14" x="370">o?</tspan></text></g><g sequence="24"><ellipse cx="457" cy="223" rx="17" ry="17" stroke-width="3" style="fill:url(#linearGradientFF6666FF9696FFB6B6_1435240896);" stroke="993333" /></g><g sequence="31"><polygon points=" 120 196 150 166 180 196 150 226 120 196" style="fill:url(#linearGradientFAFBFCFFFFCC_2005698840);" stroke="000000" /></g><g componentSequence="31"><text x="150" y="236" text-anchor="middle" style="font-weight:bold;font-size:10px;stroke:none; fill:#333399"><tspan dy="14" x="150">É</tspan><tspan dy="14" x="150">supervis</tspan><tspan dy="14" x="150">or?</tspan></text></g><g sequence="38"><polygon points=" 120 340 150 310 180 340 150 370 120 340" style="fill:url(#linearGradientFAFBFCFFFFCC_386796235);" stroke="000000" /></g><g componentSequence="38"><text x="150" y="380" text-anchor="middle" style="font-weight:bold;font-size:10px;stroke:none; fill:#333399"><tspan dy="14" x="150">Tem</tspan><tspan dy="14" x="150">produto</tspan><tspan dy="14" x="150">espec...</tspan></text></g><g sequence="42"><polygon points=" 203 646 233 616 263 646 233 676 203 646" style="fill:url(#linearGradientFAFBFCFFFFCC_1681254330);" stroke="000000" /></g><g componentSequence="42"><text x="233" y="686" text-anchor="middle" style="font-weight:bold;font-size:10px;stroke:none; fill:#333399"><tspan dy="14" x="233">Aprovar</tspan><tspan dy="14" x="233">?</tspan></text></g><g sequence="50"><rect x="580" y="189" width="106" height="67" ry="5" rx="5" style="fill:url(#linearGradientF8FBFEEDF5FCDEEDFAD4E7F8E2E5E9_1371681013);" stroke="191970" /></g><g componentSequence="50"><text x="633" y="204" text-anchor="middle" style="font-weight:bold;font-size:10px;stroke:none; fill:#333399"><tspan dy="14" x="633">Reavaliação do</tspan><tspan dy="14" x="633">supervisor</tspan></text></g><g sequence="52"><polygon points=" 60 56 90 26 120 56 90 86 60 56" style="fill:url(#linearGradientFAFBFCFFFFCC_1108715420);" stroke="000000" /></g><g componentSequence="52"><text x="90" y="96" text-anchor="middle" style="font-weight:bold;font-size:10px;stroke:none; fill:#333399"><tspan dy="14" x="90">Foi</tspan><tspan dy="14" x="90">iniciado</tspan><tspan dy="14" x="90">autom...</tspan></text></g><g sequence="56"><polygon points=" 500 196 530 166 560 196 530 226 500 196" style="fill:url(#linearGradientFAFBFCFFFFCC_631944519);" stroke="000000" /></g><g componentSequence="56"><text x="530" y="236" text-anchor="middle" style="font-weight:bold;font-size:10px;stroke:none; fill:#333399"><tspan dy="14" x="530">Supervis</tspan><tspan dy="14" x="530">or ainda</tspan><tspan dy="14" x="530">aprova?</tspan></text></g><g sequence="60"><ellipse cx="647" cy="666" rx="17" ry="17" stroke-width="3" style="fill:url(#linearGradientFF6666FF9696FFB6B6_1860800127);" stroke="993333" /></g><g componentSequence="16"><text x="338" y="222" style="font-size:10px;font-weight:none;stroke:none; fill:#333399" text-anchor="left" /></g><g componentSequence="18"><text x="338" y="366" style="font-size:10px;font-weight:none;stroke:none; fill:#333399" text-anchor="left" /></g><g componentSequence="19"><text x="340" y="440" style="font-size:10px;font-weight:none;stroke:none; fill:#333399" text-anchor="left"><tspan dy="14" x="340">Sim</tspan></text></g><g componentSequence="25"><text x="405" y="209" style="font-size:10px;font-weight:none;stroke:none; fill:#333399" text-anchor="left"><tspan dy="14" x="405">Não</tspan></text></g><g componentSequence="33"><text x="205" y="222" style="font-size:10px;font-weight:none;stroke:none; fill:#333399" text-anchor="left" /></g><g componentSequence="39"><text x="160" y="294" style="font-size:10px;font-weight:none;stroke:none; fill:#333399" text-anchor="left" /></g><g componentSequence="40"><text x="205" y="366" style="font-size:10px;font-weight:none;stroke:none; fill:#333399" text-anchor="left" /></g><g componentSequence="43"><text x="243" y="589" style="font-size:10px;font-weight:none;stroke:none; fill:#333399" text-anchor="left" /></g><g componentSequence="45"><text x="366" y="665" style="font-size:10px;font-weight:none;stroke:none; fill:#333399" text-anchor="left" /></g><g componentSequence="46"><text x="285" y="298" style="font-size:10px;font-weight:none;stroke:none; fill:#333399" text-anchor="left" /></g><g componentSequence="47"><text x="159" y="485" style="font-size:10px;font-weight:none;stroke:none; fill:#333399" text-anchor="left" /></g><g componentSequence="51"><text x="582" y="368" style="font-size:10px;font-weight:none;stroke:none; fill:#333399" text-anchor="left" /></g><g componentSequence="53"><text x="180" y="83" style="font-size:10px;font-weight:none;stroke:none; fill:#333399" text-anchor="left" /></g><g componentSequence="54"><text x="159" y="126" style="font-size:10px;font-weight:none;stroke:none; fill:#333399" text-anchor="left" /></g><g componentSequence="55"><text x="99" y="373" style="font-size:10px;font-weight:none;stroke:none; fill:#333399" text-anchor="left" /></g><g componentSequence="57"><text x="580" y="222" style="font-size:10px;font-weight:none;stroke:none; fill:#333399" text-anchor="left" /></g><g componentSequence="58"><text x="497" y="223" style="font-size:10px;font-weight:none;stroke:none; fill:#333399" text-anchor="left" /></g><g componentSequence="59"><text x="538" y="518" style="font-size:10px;font-weight:none;stroke:none; fill:#333399" text-anchor="left" /></g><g componentSequence="61"><text x="603" y="666" style="font-size:10px;font-weight:none;stroke:none; fill:#333399" text-anchor="left" /></g><g componentSequence="62"><text x="631" y="611" style="font-size:10px;font-weight:none;stroke:none; fill:#333399" text-anchor="left" /></g><path style="fill:none; stroke:#000000;stroke-width:1" d="M220.0 83.0 L120.0 82.0" /><polygon style="fill:#000000; stroke:#000000;" points=" 130 87 120 82 130 77 128 82" /><path style="fill:none; stroke:#000000;stroke-width:1" d="M316.0 222.0 L339.0 222.0" /><polygon style="fill:#000000; stroke:#000000;" points=" 329 217 339 222 329 227 331 222" /><path style="fill:none; stroke:#000000;stroke-width:1" d="M180.0 222.0 L209.0 222.0" /><polygon style="fill:#000000; stroke:#000000;" points=" 199 217 209 222 199 227 201 222" /><path style="fill:none; stroke:#000000;stroke-width:1" d="M316.0 366.0 L339.0 367.0" /><polygon style="fill:#000000; stroke:#000000;" points=" 329 362 339 367 329 372 331 367" /><path style="fill:none; stroke:#000000;stroke-width:1" d="M180.0 366.0 L209.0 366.0" /><polygon style="fill:#000000; stroke:#000000;" points=" 199 361 209 366 199 371 201 366" /><path style="fill:none; stroke:#000000;stroke-width:1" d="M233.0 562.0 L233.0 615.0" /><polygon style="fill:#000000; stroke:#000000;" points=" 238 605 233 615 228 605 233 607" /><path style="fill:none; stroke:#000000;stroke-width:1" d="M370.0 417.0 L370.0 459.0 L233.0 459.0 L233.0 468.0" /><polygon style="fill:#000000; stroke:#000000;" points=" 238 458 233 468 228 458 233 460" /><path style="fill:none; stroke:#000000;stroke-width:1" d="M149.0 422.0 L149.0 518.0 L179.0 517.0" /><polygon style="fill:#000000; stroke:#000000;" points=" 169 512 179 517 169 522 171 517" /><path style="fill:none; stroke:#000000;stroke-width:1" d="M89.0 138.0 L89.0 517.0 L179.0 516.0" /><polygon style="fill:#000000; stroke:#000000;" points=" 169 511 179 516 169 521 171 516" /><path style="fill:none; stroke:#000000;stroke-width:1" d="M530.0 278.0 L530.0 518.0 L286.0 516.0" /><polygon style="fill:#000000; stroke:#000000;" points=" 296 521 286 516 296 511 294 516" /><path style="fill:none; stroke:#000000;stroke-width:1" d="M556.0 665.0 L630.0 666.0" /><polygon style="fill:#000000; stroke:#000000;" points=" 620 661 630 666 620 671 622 666" /><path style="fill:none; stroke:#000000;stroke-width:1" d="M263.0 665.0 L449.0 665.0" /><polygon style="fill:#000000; stroke:#000000;" points=" 439 660 449 665 439 670 441 665" /><path style="fill:none; stroke:#000000;stroke-width:1" d="M400.0 222.0 L440.0 223.0" /><polygon style="fill:#000000; stroke:#000000;" points=" 430 218 440 223 430 228 432 223" /><path style="fill:none; stroke:#000000;stroke-width:1" d="M371.0 272.0 L372.0 298.0 L260.0 298.0 L164.0 298.0 L162.0 309.0" /><polygon style="fill:#000000; stroke:#000000;" points=" 169 300 162 309 159 298 163 301" /><path style="fill:none; stroke:#000000;stroke-width:1" d="M400.0 367.0 L633.0 368.0 L633.0 256.0" /><polygon style="fill:#000000; stroke:#000000;" points=" 628 266 633 256 638 266 633 264" /><path style="fill:none; stroke:#000000;stroke-width:1" d="M499.0 222.0 L474.0 223.0" /><polygon style="fill:#000000; stroke:#000000;" points=" 484 228 474 223 484 218 482 223" /><path style="fill:none; stroke:#000000;stroke-width:1" d="M150.0 278.0 L150.0 309.0" /><polygon style="fill:#000000; stroke:#000000;" points=" 155 299 150 309 145 299 150 301" /><path style="fill:none; stroke:#000000;stroke-width:1" d="M120.0 103.0 L149.0 123.0 L149.0 165.0" /><polygon style="fill:#000000; stroke:#000000;" points=" 154 155 149 165 144 155 149 157" /><path style="fill:none; stroke:#000000;stroke-width:1" d="M263.0 648.0 L327.0 611.0 L633.0 611.0 L633.0 256.0" /><polygon style="fill:#000000; stroke:#000000;" points=" 628 266 633 256 638 266 633 264" /><path style="fill:none; stroke:#000000;stroke-width:1" d="M579.0 222.0 L560.0 222.0" /><polygon style="fill:#000000; stroke:#000000;" points=" 570 227 560 222 570 217 568 222" /><defs><linearGradient xmlns:xlink="http://www.w3.org/1999/xlink" xlink:href="#linearGradient66FF6696FF96B6FFB6" id="linearGradient66FF6696FF96B6FFB6_2052656527" x1="0" y1="66.0" x2="0" y2="101.0" gradientUnits="userSpaceOnUse" xlink:type="simple" xlink:actuate="onLoad" xlink:show="other" /><linearGradient id="linearGradient66FF6696FF96B6FFB6"><stop style="stop-color:#66FF66;stop-opacity:1;" offset="0.0" id="stop66FF66" /><stop style="stop-color:#96FF96;stop-opacity:1;" offset="0.5" id="stop96FF96" /><stop style="stop-color:#B6FFB6;stop-opacity:1;" offset="1.0" id="stopB6FFB6" /></linearGradient><linearGradient xmlns:xlink="http://www.w3.org/1999/xlink" xlink:href="#linearGradientF8FBFEEDF5FCDEEDFAD4E7F8E2E5E9" id="linearGradientF8FBFEEDF5FCDEEDFAD4E7F8E2E5E9_1956576436" x1="0" y1="189.0" x2="0" y2="295.0" gradientUnits="userSpaceOnUse" xlink:type="simple" xlink:actuate="onLoad" xlink:show="other" /><linearGradient id="linearGradientF8FBFEEDF5FCDEEDFAD4E7F8E2E5E9"><stop style="stop-color:#F8FBFE;stop-opacity:1;" offset="0.0" id="stopF8FBFE" /><stop style="stop-color:#EDF5FC;stop-opacity:1;" offset="0.25" id="stopEDF5FC" /><stop style="stop-color:#DEEDFA;stop-opacity:1;" offset="0.5" id="stopDEEDFA" /><stop style="stop-color:#D4E7F8;stop-opacity:1;" offset="0.75" id="stopD4E7F8" /><stop style="stop-color:#E2E5E9;stop-opacity:1;" offset="1.0" id="stopE2E5E9" /></linearGradient><linearGradient xmlns:xlink="http://www.w3.org/1999/xlink" xlink:href="#linearGradientF8FBFEEDF5FCDEEDFAD4E7F8E2E5E9" id="linearGradientF8FBFEEDF5FCDEEDFAD4E7F8E2E5E9_1889625855" x1="0" y1="333.0" x2="0" y2="439.0" gradientUnits="userSpaceOnUse" xlink:type="simple" xlink:actuate="onLoad" xlink:show="other" /><linearGradient xmlns:xlink="http://www.w3.org/1999/xlink" xlink:href="#linearGradientF8FBFEEDF5FCDEEDFAD4E7F8E2E5E9" id="linearGradientF8FBFEEDF5FCDEEDFAD4E7F8E2E5E9_899937935" x1="0" y1="469.0" x2="0" y2="575.0" gradientUnits="userSpaceOnUse" xlink:type="simple" xlink:actuate="onLoad" xlink:show="other" /><linearGradient xmlns:xlink="http://www.w3.org/1999/xlink" xlink:href="#linearGradientF8FBFEEDF5FCDEEDFAD4E7F8E2E5E9" id="linearGradientF8FBFEEDF5FCDEEDFAD4E7F8E2E5E9_119840961" x1="0" y1="632.0" x2="0" y2="738.0" gradientUnits="userSpaceOnUse" xlink:type="simple" xlink:actuate="onLoad" xlink:show="other" /><linearGradient xmlns:xlink="http://www.w3.org/1999/xlink" xlink:href="#linearGradientFAFBFCFFFFCC" id="linearGradientFAFBFCFFFFCC_73172941" x1="0" y1="173.0" x2="0" y2="233.0" gradientUnits="userSpaceOnUse" xlink:type="simple" xlink:actuate="onLoad" xlink:show="other" /><linearGradient id="linearGradientFAFBFCFFFFCC"><stop style="stop-color:#FAFBFC;stop-opacity:1;" offset="0.0" id="stopFAFBFC" /><stop style="stop-color:#FFFFCC;stop-opacity:1;" offset="1.0" id="stopFFFFCC" /></linearGradient><linearGradient xmlns:xlink="http://www.w3.org/1999/xlink" xlink:href="#linearGradientFAFBFCFFFFCC" id="linearGradientFAFBFCFFFFCC_2133954343" x1="0" y1="318.0" x2="0" y2="378.0" gradientUnits="userSpaceOnUse" xlink:type="simple" xlink:actuate="onLoad" xlink:show="other" /><linearGradient xmlns:xlink="http://www.w3.org/1999/xlink" xlink:href="#linearGradientFF6666FF9696FFB6B6" id="linearGradientFF6666FF9696FFB6B6_1435240896" x1="0" y1="206.0" x2="0" y2="241.0" gradientUnits="userSpaceOnUse" xlink:type="simple" xlink:actuate="onLoad" xlink:show="other" /><linearGradient id="linearGradientFF6666FF9696FFB6B6"><stop style="stop-color:#FF6666;stop-opacity:1;" offset="0.0" id="stopFF6666" /><stop style="stop-color:#FF9696;stop-opacity:1;" offset="0.5" id="stopFF9696" /><stop style="stop-color:#FFB6B6;stop-opacity:1;" offset="1.0" id="stopFFB6B6" /></linearGradient><linearGradient xmlns:xlink="http://www.w3.org/1999/xlink" xlink:href="#linearGradientFAFBFCFFFFCC" id="linearGradientFAFBFCFFFFCC_2005698840" x1="0" y1="166.0" x2="0" y2="226.0" gradientUnits="userSpaceOnUse" xlink:type="simple" xlink:actuate="onLoad" xlink:show="other" /><linearGradient xmlns:xlink="http://www.w3.org/1999/xlink" xlink:href="#linearGradientFAFBFCFFFFCC" id="linearGradientFAFBFCFFFFCC_386796235" x1="0" y1="310.0" x2="0" y2="370.0" gradientUnits="userSpaceOnUse" xlink:type="simple" xlink:actuate="onLoad" xlink:show="other" /><linearGradient xmlns:xlink="http://www.w3.org/1999/xlink" xlink:href="#linearGradientFAFBFCFFFFCC" id="linearGradientFAFBFCFFFFCC_1681254330" x1="0" y1="616.0" x2="0" y2="676.0" gradientUnits="userSpaceOnUse" xlink:type="simple" xlink:actuate="onLoad" xlink:show="other" /><linearGradient xmlns:xlink="http://www.w3.org/1999/xlink" xlink:href="#linearGradientF8FBFEEDF5FCDEEDFAD4E7F8E2E5E9" id="linearGradientF8FBFEEDF5FCDEEDFAD4E7F8E2E5E9_1371681013" x1="0" y1="189.0" x2="0" y2="295.0" gradientUnits="userSpaceOnUse" xlink:type="simple" xlink:actuate="onLoad" xlink:show="other" /><linearGradient xmlns:xlink="http://www.w3.org/1999/xlink" xlink:href="#linearGradientFAFBFCFFFFCC" id="linearGradientFAFBFCFFFFCC_1108715420" x1="0" y1="26.0" x2="0" y2="86.0" gradientUnits="userSpaceOnUse" xlink:type="simple" xlink:actuate="onLoad" xlink:show="other" /><linearGradient xmlns:xlink="http://www.w3.org/1999/xlink" xlink:href="#linearGradientFAFBFCFFFFCC" id="linearGradientFAFBFCFFFFCC_631944519" x1="0" y1="166.0" x2="0" y2="226.0" gradientUnits="userSpaceOnUse" xlink:type="simple" xlink:actuate="onLoad" xlink:show="other" /><linearGradient xmlns:xlink="http://www.w3.org/1999/xlink" xlink:href="#linearGradientFF6666FF9696FFB6B6" id="linearGradientFF6666FF9696FFB6B6_1860800127" x1="0" y1="649.0" x2="0" y2="684.0" gradientUnits="userSpaceOnUse" xlink:type="simple" xlink:actuate="onLoad" xlink:show="other" /></defs></svg>
