<?xml version="1.0" encoding="UTF-8"?>
<svg xmlns="http://www.w3.org/2000/svg" style="stroke-dasharray:none; shape-rendering:auto; font-family:'Arial'; text-rendering:auto; fill-opacity:1; color-interpolation:auto; color-rendering:auto; font-size:12; fill:black; stroke:black; image-rendering:auto; stroke-miterlimit:10; stroke-linecap:square; stroke-linejoin:miter; font-style:normal; stroke-width:1; stroke-dashoffset:0; font-weight:normal; stroke-opacity:1;" contentScriptType="text/ecmascript" preserveAspectRatio="xMidYMid meet" zoomAndPan="magnify" version="1.0" contentStyleType="text/css" xml:xlink="http://www.w3.org/1999/xlink" width="781" height="443"><rect x="10" y="298" width="771" height="145" ry="0" rx="0" style="stroke:#000000; fill:#D0DAAE" /><g componentSequence="4"><text x="-370" y="17" transform="rotate(270)" text-anchor="middle" style="font-weight:bold;font-size:10px;stroke:none; fill:#434343"><tspan dy="14" x="-370">Rotas</tspan></text></g><rect x="10" y="154" width="771" height="145" ry="0" rx="0" style="stroke:#000000; fill:#ADC9AC" /><g componentSequence="3"><text x="-226" y="17" transform="rotate(270)" text-anchor="middle" style="font-weight:bold;font-size:10px;stroke:none; fill:#434343"><tspan dy="14" x="-226">Vendedor</tspan></text></g><rect x="10" y="10" width="771" height="145" ry="0" rx="0" style="stroke:#000000; fill:#82B0B7" /><g componentSequence="1"><text x="-82" y="17" transform="rotate(270)" text-anchor="middle" style="font-weight:bold;font-size:10px;stroke:none; fill:#434343"><tspan dy="14" x="-82">Ocorrências</tspan></text></g><g sequence="2"><ellipse cx="157" cy="83" rx="17" ry="17" stroke-width="1" style="fill:url(#linearGradient66FF6696FF96B6FFB6_1266183079);" stroke="336633" /></g><g sequence="5"><rect x="100" y="193" width="106" height="70" ry="5" rx="5" style="fill:url(#linearGradientF8FBFEEDF5FCDEEDFAD4E7F8E2E5E9_1170185400);" stroke="191970" /></g><g componentSequence="5"><text x="153" y="208" text-anchor="middle" style="font-weight:bold;font-size:10px;stroke:none; fill:#333399"><tspan dy="14" x="153">Notificar</tspan><tspan dy="14" x="153">vendedor</tspan></text></g><g sequence="7"><rect x="240" y="320" width="106" height="56" ry="5" rx="5" style="fill:url(#linearGradientF8FBFEEDF5FCDEEDFAD4E7F8E2E5E9_1098907863);" stroke="191970" /></g><g componentSequence="7"><text x="293" y="337" text-anchor="middle" style="font-weight:bold;font-size:10px;stroke:none; fill:#333399"><tspan dy="14" x="293">Roteirizar</tspan></text></g><g sequence="8"><polygon points=" 260 207 290 177 320 207 290 237 260 207" style="fill:url(#linearGradientFAFBFCFFFFCC_75667075);" stroke="000000" /></g><g componentSequence="8"><text x="290" y="247" text-anchor="middle" style="font-weight:bold;font-size:10px;stroke:none; fill:#333399"><tspan dy="14" x="290">Reentreg</tspan><tspan dy="14" x="290">a?</tspan></text></g><g sequence="11"><ellipse cx="417" cy="227" rx="17" ry="17" stroke-width="3" style="fill:url(#linearGradientFF6666FF9696FFB6B6_204468455);" stroke="993333" /></g><g sequence="13"><rect x="490" y="193" width="106" height="70" ry="5" rx="5" style="fill:url(#linearGradientF8FBFEEDF5FCDEEDFAD4E7F8E2E5E9_894236550);" stroke="191970" /></g><g componentSequence="13"><text x="543" y="208" text-anchor="middle" style="font-weight:bold;font-size:10px;stroke:none; fill:#333399"><tspan dy="14" x="543">Acompanhament</tspan><tspan dy="14" x="543">o</tspan></text></g><g sequence="15"><polygon points=" 620 207 650 177 680 207 650 237 620 207" style="fill:url(#linearGradientFAFBFCFFFFCC_1946931008);" stroke="000000" /></g><g componentSequence="15"><text x="650" y="247" text-anchor="middle" style="font-weight:bold;font-size:10px;stroke:none; fill:#333399"><tspan dy="14" x="650">Reentreg</tspan><tspan dy="14" x="650">a ok?</tspan></text></g><g sequence="17"><ellipse cx="747" cy="227" rx="17" ry="17" stroke-width="3" style="fill:url(#linearGradientFF6666FF9696FFB6B6_1689086412);" stroke="993333" /></g><g componentSequence="6"><text x="166" y="147" style="font-size:10px;font-weight:none;stroke:none; fill:#333399" text-anchor="left" /></g><g componentSequence="9"><text x="243" y="228" style="font-size:10px;font-weight:none;stroke:none; fill:#333399" text-anchor="left" /></g><g componentSequence="10"><text x="300" y="280" style="font-size:10px;font-weight:none;stroke:none; fill:#333399" text-anchor="left"><tspan dy="14" x="300">Sim, reentregar</tspan></text></g><g componentSequence="12"><text x="320" y="213" style="font-size:10px;font-weight:none;stroke:none; fill:#333399" text-anchor="left"><tspan dy="14" x="320">Dev/Canc. NF</tspan></text></g><g componentSequence="14"><text x="497" y="348" style="font-size:10px;font-weight:none;stroke:none; fill:#333399" text-anchor="left" /></g><g componentSequence="16"><text x="618" y="228" style="font-size:10px;font-weight:none;stroke:none; fill:#333399" text-anchor="left" /></g><g componentSequence="18"><text x="715" y="227" style="font-size:10px;font-weight:none;stroke:none; fill:#333399" text-anchor="left"><tspan dy="14" x="715">Sim</tspan></text></g><g componentSequence="19"><text x="400" y="410" style="font-size:10px;font-weight:none;stroke:none; fill:#333399" text-anchor="left"><tspan dy="14" x="400">Não, mandar para rotas</tspan><tspan dy="14" x="400">novamente</tspan></text></g><g componentSequence="20"><text x="460" y="120" style="font-size:10px;font-weight:none;stroke:none; fill:#333399" text-anchor="left"><tspan dy="14" x="460">Devolução / Cancelamento</tspan></text></g><path style="fill:none; stroke:#000000;stroke-width:1" d="M157.0 100.0 L154.0 192.0" /><polygon style="fill:#000000; stroke:#000000;" points=" 159 182 154 192 149 182 154 184" /><path style="fill:none; stroke:#000000;stroke-width:1" d="M206.0 228.0 L259.0 228.0" /><polygon style="fill:#000000; stroke:#000000;" points=" 249 223 259 228 249 233 251 228" /><path style="fill:none; stroke:#000000;stroke-width:1" d="M346.0 348.0 L542.0 348.0 L542.0 263.0" /><polygon style="fill:#000000; stroke:#000000;" points=" 537 273 542 263 547 273 542 271" /><path style="fill:none; stroke:#000000;stroke-width:1" d="M291.0 279.0 L292.0 319.0" /><polygon style="fill:#000000; stroke:#000000;" points=" 297 309 292 319 287 309 292 311" /><path style="fill:none; stroke:#000000;stroke-width:1" d="M649.0 279.0 L649.0 415.0 L291.0 415.0 L292.0 376.0" /><polygon style="fill:#000000; stroke:#000000;" points=" 287 386 292 376 297 386 292 384" /><path style="fill:none; stroke:#000000;stroke-width:1" d="M320.0 227.0 L400.0 227.0" /><polygon style="fill:#000000; stroke:#000000;" points=" 390 222 400 227 390 232 392 227" /><path style="fill:none; stroke:#000000;stroke-width:1" d="M649.0 176.0 L649.0 135.0 L417.0 135.0 L417.0 209.0" /><polygon style="fill:#000000; stroke:#000000;" points=" 422 199 417 209 412 199 417 201" /><path style="fill:none; stroke:#000000;stroke-width:1" d="M596.0 228.0 L619.0 228.0" /><polygon style="fill:#000000; stroke:#000000;" points=" 609 223 619 228 609 233 611 228" /><path style="fill:none; stroke:#000000;stroke-width:1" d="M680.0 227.0 L730.0 227.0" /><polygon style="fill:#000000; stroke:#000000;" points=" 720 222 730 227 720 232 722 227" /><defs><linearGradient xmlns:xlink="http://www.w3.org/1999/xlink" xlink:href="#linearGradient66FF6696FF96B6FFB6" id="linearGradient66FF6696FF96B6FFB6_1266183079" x1="0" y1="66.0" x2="0" y2="101.0" gradientUnits="userSpaceOnUse" xlink:type="simple" xlink:actuate="onLoad" xlink:show="other" /><linearGradient id="linearGradient66FF6696FF96B6FFB6"><stop style="stop-color:#66FF66;stop-opacity:1;" offset="0.0" id="stop66FF66" /><stop style="stop-color:#96FF96;stop-opacity:1;" offset="0.5" id="stop96FF96" /><stop style="stop-color:#B6FFB6;stop-opacity:1;" offset="1.0" id="stopB6FFB6" /></linearGradient><linearGradient xmlns:xlink="http://www.w3.org/1999/xlink" xlink:href="#linearGradientF8FBFEEDF5FCDEEDFAD4E7F8E2E5E9" id="linearGradientF8FBFEEDF5FCDEEDFAD4E7F8E2E5E9_1170185400" x1="0" y1="193.0" x2="0" y2="299.0" gradientUnits="userSpaceOnUse" xlink:type="simple" xlink:actuate="onLoad" xlink:show="other" /><linearGradient id="linearGradientF8FBFEEDF5FCDEEDFAD4E7F8E2E5E9"><stop style="stop-color:#F8FBFE;stop-opacity:1;" offset="0.0" id="stopF8FBFE" /><stop style="stop-color:#EDF5FC;stop-opacity:1;" offset="0.25" id="stopEDF5FC" /><stop style="stop-color:#DEEDFA;stop-opacity:1;" offset="0.5" id="stopDEEDFA" /><stop style="stop-color:#D4E7F8;stop-opacity:1;" offset="0.75" id="stopD4E7F8" /><stop style="stop-color:#E2E5E9;stop-opacity:1;" offset="1.0" id="stopE2E5E9" /></linearGradient><linearGradient xmlns:xlink="http://www.w3.org/1999/xlink" xlink:href="#linearGradientF8FBFEEDF5FCDEEDFAD4E7F8E2E5E9" id="linearGradientF8FBFEEDF5FCDEEDFAD4E7F8E2E5E9_1098907863" x1="0" y1="320.0" x2="0" y2="426.0" gradientUnits="userSpaceOnUse" xlink:type="simple" xlink:actuate="onLoad" xlink:show="other" /><linearGradient xmlns:xlink="http://www.w3.org/1999/xlink" xlink:href="#linearGradientFAFBFCFFFFCC" id="linearGradientFAFBFCFFFFCC_75667075" x1="0" y1="177.0" x2="0" y2="237.0" gradientUnits="userSpaceOnUse" xlink:type="simple" xlink:actuate="onLoad" xlink:show="other" /><linearGradient id="linearGradientFAFBFCFFFFCC"><stop style="stop-color:#FAFBFC;stop-opacity:1;" offset="0.0" id="stopFAFBFC" /><stop style="stop-color:#FFFFCC;stop-opacity:1;" offset="1.0" id="stopFFFFCC" /></linearGradient><linearGradient xmlns:xlink="http://www.w3.org/1999/xlink" xlink:href="#linearGradientFF6666FF9696FFB6B6" id="linearGradientFF6666FF9696FFB6B6_204468455" x1="0" y1="210.0" x2="0" y2="245.0" gradientUnits="userSpaceOnUse" xlink:type="simple" xlink:actuate="onLoad" xlink:show="other" /><linearGradient id="linearGradientFF6666FF9696FFB6B6"><stop style="stop-color:#FF6666;stop-opacity:1;" offset="0.0" id="stopFF6666" /><stop style="stop-color:#FF9696;stop-opacity:1;" offset="0.5" id="stopFF9696" /><stop style="stop-color:#FFB6B6;stop-opacity:1;" offset="1.0" id="stopFFB6B6" /></linearGradient><linearGradient xmlns:xlink="http://www.w3.org/1999/xlink" xlink:href="#linearGradientF8FBFEEDF5FCDEEDFAD4E7F8E2E5E9" id="linearGradientF8FBFEEDF5FCDEEDFAD4E7F8E2E5E9_894236550" x1="0" y1="193.0" x2="0" y2="299.0" gradientUnits="userSpaceOnUse" xlink:type="simple" xlink:actuate="onLoad" xlink:show="other" /><linearGradient xmlns:xlink="http://www.w3.org/1999/xlink" xlink:href="#linearGradientFAFBFCFFFFCC" id="linearGradientFAFBFCFFFFCC_1946931008" x1="0" y1="177.0" x2="0" y2="237.0" gradientUnits="userSpaceOnUse" xlink:type="simple" xlink:actuate="onLoad" xlink:show="other" /><linearGradient xmlns:xlink="http://www.w3.org/1999/xlink" xlink:href="#linearGradientFF6666FF9696FFB6B6" id="linearGradientFF6666FF9696FFB6B6_1689086412" x1="0" y1="210.0" x2="0" y2="245.0" gradientUnits="userSpaceOnUse" xlink:type="simple" xlink:actuate="onLoad" xlink:show="other" /></defs></svg>
