<?xml version="1.0" encoding="UTF-8"?>
<svg xmlns="http://www.w3.org/2000/svg" style="stroke-dasharray:none; shape-rendering:auto; font-family:'Arial'; text-rendering:auto; fill-opacity:1; color-interpolation:auto; color-rendering:auto; font-size:12; fill:black; stroke:black; image-rendering:auto; stroke-miterlimit:10; stroke-linecap:square; stroke-linejoin:miter; font-style:normal; stroke-width:1; stroke-dashoffset:0; font-weight:normal; stroke-opacity:1;" contentScriptType="text/ecmascript" preserveAspectRatio="xMidYMid meet" zoomAndPan="magnify" version="1.0" contentStyleType="text/css" xml:xlink="http://www.w3.org/1999/xlink" width="731" height="681"><rect x="20" y="540" width="711" height="141" ry="0" rx="0" style="stroke:#000000; fill:#ADC9AC" /><g componentSequence="25"><text x="-610" y="26" transform="rotate(270)" text-anchor="middle" style="font-weight:bold;font-size:10px;stroke:none; fill:#434343"><tspan dy="14" x="-610">Devolução</tspan></text></g><rect x="20" y="390" width="711" height="151" ry="0" rx="0" style="stroke:#000000; fill:#ADC9DB" /><g componentSequence="3"><text x="-465" y="26" transform="rotate(270)" text-anchor="middle" style="font-weight:bold;font-size:10px;stroke:none; fill:#434343"><tspan dy="14" x="-465">Rotas</tspan></text></g><rect x="20" y="14" width="711" height="145" ry="0" rx="0" style="stroke:#000000; fill:#82B0B7" /><g componentSequence="2"><text x="-86" y="26" transform="rotate(270)" text-anchor="middle" style="font-weight:bold;font-size:10px;stroke:none; fill:#434343"><tspan dy="14" x="-86">Vendedor</tspan></text></g><rect x="20" y="154" width="711" height="237" ry="0" rx="0" style="stroke:#000000; fill:#82B0B7" /><g componentSequence="1"><text x="-272" y="26" transform="rotate(270)" text-anchor="middle" style="font-weight:bold;font-size:10px;stroke:none; fill:#434343"><tspan dy="14" x="-272">Pós venda</tspan></text></g><g sequence="4"><ellipse cx="87" cy="87" rx="17" ry="17" stroke-width="1" style="fill:url(#linearGradient66FF6696FF96B6FFB6_2103625357);" stroke="336633" /></g><g sequence="7"><polygon points=" 180 68 210 38 240 68 210 98 180 68" style="fill:url(#linearGradientFAFBFCFFFFCC_1940207441);" stroke="000000" /></g><g componentSequence="7"><text x="210" y="108" text-anchor="middle" style="font-weight:bold;font-size:10px;stroke:none; fill:#333399"><tspan dy="14" x="210">Especial/</tspan><tspan dy="14" x="210">+30?</tspan></text></g><g sequence="9"><rect x="300" y="54" width="106" height="67" ry="5" rx="5" style="fill:url(#linearGradientF8FBFEEDF5FCDEEDFAD4E7F8E2E5E9_2006625789);" stroke="191970" /></g><g componentSequence="9"><text x="353" y="69" text-anchor="middle" style="font-weight:bold;font-size:10px;stroke:none; fill:#333399"><tspan dy="14" x="353">Aprovação</tspan><tspan dy="14" x="353">supervisor</tspan></text></g><g sequence="11"><rect x="300" y="180" width="106" height="67" ry="5" rx="5" style="fill:url(#linearGradientF8FBFEEDF5FCDEEDFAD4E7F8E2E5E9_848837994);" stroke="191970" /></g><g componentSequence="11"><text x="353" y="195" text-anchor="middle" style="font-weight:bold;font-size:10px;stroke:none; fill:#333399"><tspan dy="14" x="353">Validação e</tspan><tspan dy="14" x="353">aprovação</tspan></text></g><g sequence="13"><polygon points=" 450 74 480 44 510 74 480 104 450 74" style="fill:url(#linearGradientFAFBFCFFFFCC_1504039706);" stroke="000000" /></g><g componentSequence="13"><text x="480" y="106" text-anchor="middle" style="font-weight:bold;font-size:10px;stroke:none; fill:#333399"><tspan dy="14" x="480">Aprova?</tspan></text></g><g sequence="16"><ellipse cx="587" cy="87" rx="17" ry="17" stroke-width="3" style="fill:url(#linearGradientFF6666FF9696FFB6B6_56649920);" stroke="993333" /></g><g sequence="18"><rect x="540" y="585" width="106" height="54" ry="5" rx="5" style="fill:url(#linearGradientF8FBFEEDF5FCDEEDFAD4E7F8E2E5E9_565696532);" stroke="191970" /></g><g componentSequence="18"><text x="593" y="601" text-anchor="middle" style="font-weight:bold;font-size:10px;stroke:none; fill:#333399"><tspan dy="14" x="593">Conferência</tspan></text></g><g sequence="21"><rect x="540" y="196" width="106" height="67" ry="5" rx="5" style="fill:url(#linearGradientF8FBFEEDF5FCDEEDFAD4E7F8E2E5E9_1387774501);" stroke="191970" /></g><g componentSequence="21"><text x="593" y="211" text-anchor="middle" style="font-weight:bold;font-size:10px;stroke:none; fill:#333399"><tspan dy="14" x="593">Finalização e</tspan><tspan dy="14" x="593">Avaliação</tspan></text></g><g sequence="23"><ellipse cx="697" cy="229" rx="17" ry="17" stroke-width="3" style="fill:url(#linearGradientFF6666FF9696FFB6B6_629012074);" stroke="993333" /></g><g sequence="26"><rect x="310" y="434" width="106" height="67" ry="5" rx="5" style="fill:url(#linearGradientF8FBFEEDF5FCDEEDFAD4E7F8E2E5E9_626764909);" stroke="191970" /></g><g componentSequence="26"><text x="363" y="449" text-anchor="middle" style="font-weight:bold;font-size:10px;stroke:none; fill:#333399"><tspan dy="14" x="363">Gerar ordem de</tspan><tspan dy="14" x="363">coleta</tspan></text></g><g sequence="29"><polygon points=" 330 310 360 280 390 310 360 340 330 310" style="fill:url(#linearGradientFAFBFCFFFFCC_984856490);" stroke="000000" /></g><g componentSequence="29"><text x="360" y="350" text-anchor="middle" style="font-weight:bold;font-size:10px;stroke:none; fill:#333399"><tspan dy="14" x="360">Aprova</tspan><tspan dy="14" x="360">solicitaçã</tspan><tspan dy="14" x="360">o?</tspan></text></g><g sequence="32"><ellipse cx="267" cy="337" rx="17" ry="17" stroke-width="3" style="fill:url(#linearGradientFF6666FF9696FFB6B6_1459223603);" stroke="993333" /></g><g componentSequence="10"><text x="255" y="74" style="font-size:10px;font-weight:none;stroke:none; fill:#333399" text-anchor="left"><tspan dy="14" x="255">Sim</tspan></text></g><g componentSequence="12"><text x="228" y="193" style="font-size:10px;font-weight:none;stroke:none; fill:#333399" text-anchor="left"><tspan dy="14" x="228">Não</tspan></text></g><g componentSequence="14"><text x="438" y="87" style="font-size:10px;font-weight:none;stroke:none; fill:#333399" text-anchor="left" /></g><g componentSequence="15"><text x="450" y="196" style="font-size:10px;font-weight:none;stroke:none; fill:#333399" text-anchor="left"><tspan dy="14" x="450">Sim</tspan></text></g><g componentSequence="17"><text x="530" y="74" style="font-size:10px;font-weight:none;stroke:none; fill:#333399" text-anchor="left"><tspan dy="14" x="530">Não</tspan></text></g><g componentSequence="20"><text x="152" y="87" style="font-size:10px;font-weight:none;stroke:none; fill:#333399" text-anchor="left" /></g><g componentSequence="22"><text x="602" y="424" style="font-size:10px;font-weight:none;stroke:none; fill:#333399" text-anchor="left" /></g><g componentSequence="24"><text x="673" y="229" style="font-size:10px;font-weight:none;stroke:none; fill:#333399" text-anchor="left" /></g><g componentSequence="28"><text x="406" y="611" style="font-size:10px;font-weight:none;stroke:none; fill:#333399" text-anchor="left" /></g><g componentSequence="31"><text x="372" y="413" style="font-size:10px;font-weight:none;stroke:none; fill:#333399" text-anchor="left" /></g><g componentSequence="33"><text x="317" y="337" style="font-size:10px;font-weight:none;stroke:none; fill:#333399" text-anchor="left" /></g><g componentSequence="34"><text x="366" y="263" style="font-size:10px;font-weight:none;stroke:none; fill:#333399" text-anchor="left" /></g><path style="fill:none; stroke:#000000;stroke-width:1" d="M105.0 87.0 L179.0 87.0" /><polygon style="fill:#000000; stroke:#000000;" points=" 169 82 179 87 169 92 171 87" /><path style="fill:none; stroke:#000000;stroke-width:1" d="M240.0 87.0 L299.0 87.0" /><polygon style="fill:#000000; stroke:#000000;" points=" 289 82 299 87 289 92 291 87" /><path style="fill:none; stroke:#000000;stroke-width:1" d="M209.0 137.0 L209.0 213.0 L299.0 213.0" /><polygon style="fill:#000000; stroke:#000000;" points=" 289 208 299 213 289 218 291 213" /><path style="fill:none; stroke:#000000;stroke-width:1" d="M406.0 87.0 L449.0 87.0" /><polygon style="fill:#000000; stroke:#000000;" points=" 439 82 449 87 439 92 441 87" /><path style="fill:none; stroke:#000000;stroke-width:1" d="M355.0 247.0 L357.0 279.0" /><polygon style="fill:#000000; stroke:#000000;" points=" 361 269 357 279 351 269 357 271" /><path style="fill:none; stroke:#000000;stroke-width:1" d="M479.0 130.0 L479.0 213.0 L406.0 213.0" /><polygon style="fill:#000000; stroke:#000000;" points=" 416 218 406 213 416 208 414 213" /><path style="fill:none; stroke:#000000;stroke-width:1" d="M510.0 87.0 L569.0 87.0" /><polygon style="fill:#000000; stroke:#000000;" points=" 559 82 569 87 559 92 561 87" /><path style="fill:none; stroke:#000000;stroke-width:1" d="M592.0 584.0 L592.0 374.0 L592.0 263.0" /><polygon style="fill:#000000; stroke:#000000;" points=" 587 273 592 263 597 273 592 271" /><path style="fill:none; stroke:#000000;stroke-width:1" d="M362.0 501.0 L362.0 611.0 L539.0 611.0" /><polygon style="fill:#000000; stroke:#000000;" points=" 529 606 539 611 529 616 531 611" /><path style="fill:none; stroke:#000000;stroke-width:1" d="M646.0 229.0 L679.0 229.0" /><polygon style="fill:#000000; stroke:#000000;" points=" 669 224 679 229 669 234 671 229" /><path style="fill:none; stroke:#000000;stroke-width:1" d="M361.0 392.0 L362.0 433.0" /><polygon style="fill:#000000; stroke:#000000;" points=" 367 423 362 433 357 423 362 425" /><path style="fill:none; stroke:#000000;stroke-width:1" d="M329.0 336.0 L284.0 337.0" /><polygon style="fill:#000000; stroke:#000000;" points=" 294 342 284 337 294 332 292 337" /><defs><linearGradient xmlns:xlink="http://www.w3.org/1999/xlink" xlink:href="#linearGradient66FF6696FF96B6FFB6" id="linearGradient66FF6696FF96B6FFB6_2103625357" x1="0" y1="70.0" x2="0" y2="105.0" gradientUnits="userSpaceOnUse" xlink:type="simple" xlink:actuate="onLoad" xlink:show="other" /><linearGradient id="linearGradient66FF6696FF96B6FFB6"><stop style="stop-color:#66FF66;stop-opacity:1;" offset="0.0" id="stop66FF66" /><stop style="stop-color:#96FF96;stop-opacity:1;" offset="0.5" id="stop96FF96" /><stop style="stop-color:#B6FFB6;stop-opacity:1;" offset="1.0" id="stopB6FFB6" /></linearGradient><linearGradient xmlns:xlink="http://www.w3.org/1999/xlink" xlink:href="#linearGradientFAFBFCFFFFCC" id="linearGradientFAFBFCFFFFCC_1940207441" x1="0" y1="38.0" x2="0" y2="98.0" gradientUnits="userSpaceOnUse" xlink:type="simple" xlink:actuate="onLoad" xlink:show="other" /><linearGradient id="linearGradientFAFBFCFFFFCC"><stop style="stop-color:#FAFBFC;stop-opacity:1;" offset="0.0" id="stopFAFBFC" /><stop style="stop-color:#FFFFCC;stop-opacity:1;" offset="1.0" id="stopFFFFCC" /></linearGradient><linearGradient xmlns:xlink="http://www.w3.org/1999/xlink" xlink:href="#linearGradientF8FBFEEDF5FCDEEDFAD4E7F8E2E5E9" id="linearGradientF8FBFEEDF5FCDEEDFAD4E7F8E2E5E9_2006625789" x1="0" y1="54.0" x2="0" y2="160.0" gradientUnits="userSpaceOnUse" xlink:type="simple" xlink:actuate="onLoad" xlink:show="other" /><linearGradient id="linearGradientF8FBFEEDF5FCDEEDFAD4E7F8E2E5E9"><stop style="stop-color:#F8FBFE;stop-opacity:1;" offset="0.0" id="stopF8FBFE" /><stop style="stop-color:#EDF5FC;stop-opacity:1;" offset="0.25" id="stopEDF5FC" /><stop style="stop-color:#DEEDFA;stop-opacity:1;" offset="0.5" id="stopDEEDFA" /><stop style="stop-color:#D4E7F8;stop-opacity:1;" offset="0.75" id="stopD4E7F8" /><stop style="stop-color:#E2E5E9;stop-opacity:1;" offset="1.0" id="stopE2E5E9" /></linearGradient><linearGradient xmlns:xlink="http://www.w3.org/1999/xlink" xlink:href="#linearGradientF8FBFEEDF5FCDEEDFAD4E7F8E2E5E9" id="linearGradientF8FBFEEDF5FCDEEDFAD4E7F8E2E5E9_848837994" x1="0" y1="180.0" x2="0" y2="286.0" gradientUnits="userSpaceOnUse" xlink:type="simple" xlink:actuate="onLoad" xlink:show="other" /><linearGradient xmlns:xlink="http://www.w3.org/1999/xlink" xlink:href="#linearGradientFAFBFCFFFFCC" id="linearGradientFAFBFCFFFFCC_1504039706" x1="0" y1="44.0" x2="0" y2="104.0" gradientUnits="userSpaceOnUse" xlink:type="simple" xlink:actuate="onLoad" xlink:show="other" /><linearGradient xmlns:xlink="http://www.w3.org/1999/xlink" xlink:href="#linearGradientFF6666FF9696FFB6B6" id="linearGradientFF6666FF9696FFB6B6_56649920" x1="0" y1="70.0" x2="0" y2="105.0" gradientUnits="userSpaceOnUse" xlink:type="simple" xlink:actuate="onLoad" xlink:show="other" /><linearGradient id="linearGradientFF6666FF9696FFB6B6"><stop style="stop-color:#FF6666;stop-opacity:1;" offset="0.0" id="stopFF6666" /><stop style="stop-color:#FF9696;stop-opacity:1;" offset="0.5" id="stopFF9696" /><stop style="stop-color:#FFB6B6;stop-opacity:1;" offset="1.0" id="stopFFB6B6" /></linearGradient><linearGradient xmlns:xlink="http://www.w3.org/1999/xlink" xlink:href="#linearGradientF8FBFEEDF5FCDEEDFAD4E7F8E2E5E9" id="linearGradientF8FBFEEDF5FCDEEDFAD4E7F8E2E5E9_565696532" x1="0" y1="585.0" x2="0" y2="691.0" gradientUnits="userSpaceOnUse" xlink:type="simple" xlink:actuate="onLoad" xlink:show="other" /><linearGradient xmlns:xlink="http://www.w3.org/1999/xlink" xlink:href="#linearGradientF8FBFEEDF5FCDEEDFAD4E7F8E2E5E9" id="linearGradientF8FBFEEDF5FCDEEDFAD4E7F8E2E5E9_1387774501" x1="0" y1="196.0" x2="0" y2="302.0" gradientUnits="userSpaceOnUse" xlink:type="simple" xlink:actuate="onLoad" xlink:show="other" /><linearGradient xmlns:xlink="http://www.w3.org/1999/xlink" xlink:href="#linearGradientFF6666FF9696FFB6B6" id="linearGradientFF6666FF9696FFB6B6_629012074" x1="0" y1="212.0" x2="0" y2="247.0" gradientUnits="userSpaceOnUse" xlink:type="simple" xlink:actuate="onLoad" xlink:show="other" /><linearGradient xmlns:xlink="http://www.w3.org/1999/xlink" xlink:href="#linearGradientF8FBFEEDF5FCDEEDFAD4E7F8E2E5E9" id="linearGradientF8FBFEEDF5FCDEEDFAD4E7F8E2E5E9_626764909" x1="0" y1="434.0" x2="0" y2="540.0" gradientUnits="userSpaceOnUse" xlink:type="simple" xlink:actuate="onLoad" xlink:show="other" /><linearGradient xmlns:xlink="http://www.w3.org/1999/xlink" xlink:href="#linearGradientFAFBFCFFFFCC" id="linearGradientFAFBFCFFFFCC_984856490" x1="0" y1="280.0" x2="0" y2="340.0" gradientUnits="userSpaceOnUse" xlink:type="simple" xlink:actuate="onLoad" xlink:show="other" /><linearGradient xmlns:xlink="http://www.w3.org/1999/xlink" xlink:href="#linearGradientFF6666FF9696FFB6B6" id="linearGradientFF6666FF9696FFB6B6_1459223603" x1="0" y1="320.0" x2="0" y2="355.0" gradientUnits="userSpaceOnUse" xlink:type="simple" xlink:actuate="onLoad" xlink:show="other" /></defs></svg>
