<?xml version="1.0" encoding="UTF-8"?>
<svg xmlns="http://www.w3.org/2000/svg" style="stroke-dasharray:none; shape-rendering:auto; font-family:'Arial'; text-rendering:auto; fill-opacity:1; color-interpolation:auto; color-rendering:auto; font-size:12; fill:black; stroke:black; image-rendering:auto; stroke-miterlimit:10; stroke-linecap:square; stroke-linejoin:miter; font-style:normal; stroke-width:1; stroke-dashoffset:0; font-weight:normal; stroke-opacity:1;" contentScriptType="text/ecmascript" preserveAspectRatio="xMidYMid meet" zoomAndPan="magnify" version="1.0" contentStyleType="text/css" xml:xlink="http://www.w3.org/1999/xlink" width="1373" height="718"><rect x="1" y="293" width="1371" height="278" ry="0" rx="0" style="stroke:#000000; fill:#ADC9AC" /><g componentSequence="90"><text x="-432" y="8" transform="rotate(270)" text-anchor="middle" style="font-weight:bold;font-size:10px;stroke:none; fill:#434343"><tspan dy="14" x="-432">SwimLane</tspan></text></g><rect x="1" y="568" width="1372" height="150" ry="0" rx="0" style="stroke:#000000; fill:#82B0B7" /><g componentSequence="2"><text x="-643" y="8" transform="rotate(270)" text-anchor="middle" style="font-weight:bold;font-size:10px;stroke:none; fill:#434343"><tspan dy="14" x="-643">Recebimento</tspan></text></g><rect x="0" y="149" width="1372" height="145" ry="0" rx="0" style="stroke:#000000; fill:#D0DAAE" /><g componentSequence="17"><text x="-221" y="7" transform="rotate(270)" text-anchor="middle" style="font-weight:bold;font-size:10px;stroke:none; fill:#434343"><tspan dy="14" x="-221">Compras</tspan></text></g><rect x="0" y="0" width="1372" height="150" ry="0" rx="0" style="stroke:#000000; fill:#9FC1C6" /><g componentSequence="1"><text x="-75" y="7" transform="rotate(270)" text-anchor="middle" style="font-weight:bold;font-size:10px;stroke:none; fill:#434343"><tspan dy="14" x="-75">Vendas</tspan></text></g><g sequence="3"><ellipse cx="88" cy="92" rx="17" ry="17" stroke-width="1" style="fill:url(#linearGradient66FF6696FF96B6FFB6_1024225067);" stroke="336633" /></g><g sequence="10"><rect x="891" y="335" width="106" height="70" ry="5" rx="5" style="fill:url(#linearGradientF8FBFEEDF5FCDEEDFAD4E7F8E2E5E9_868976378);" stroke="191970" /></g><g componentSequence="10"><text x="944" y="350" text-anchor="middle" style="font-weight:bold;font-size:10px;stroke:none; fill:#333399"><tspan dy="14" x="944">Liberação no</tspan><tspan dy="14" x="944">recebimento</tspan></text></g><g sequence="20"><rect x="121" y="184" width="106" height="84" ry="5" rx="5" style="fill:url(#linearGradientF8FBFEEDF5FCDEEDFAD4E7F8E2E5E9_938738779);" stroke="191970" /></g><g componentSequence="20"><text x="174" y="199" text-anchor="middle" style="font-weight:bold;font-size:10px;stroke:none; fill:#333399"><tspan dy="14" x="174">Cadastro e</tspan><tspan dy="14" x="174">envio do código</tspan></text></g><g sequence="37"><rect x="128" y="470" width="106" height="56" ry="5" rx="5" style="fill:url(#linearGradientF8FBFEEDF5FCDEEDFAD4E7F8E2E5E9_1928760513);" stroke="191970" /></g><g componentSequence="37"><text x="181" y="487" text-anchor="middle" style="font-weight:bold;font-size:10px;stroke:none; fill:#333399"><tspan dy="14" x="181">Compras-01</tspan></text></g><g sequence="52"><ellipse cx="1318" cy="222" rx="17" ry="17" stroke-width="3" style="fill:url(#linearGradientFF6666FF9696FFB6B6_744341635);" stroke="993333" /></g><g sequence="73"><rect x="231" y="42" width="106" height="70" ry="5" rx="5" style="fill:url(#linearGradientF8FBFEEDF5FCDEEDFAD4E7F8E2E5E9_1137606564);" stroke="191970" /></g><g componentSequence="73"><text x="284" y="57" text-anchor="middle" style="font-weight:bold;font-size:10px;stroke:none; fill:#333399"><tspan dy="14" x="284">Colocação do</tspan><tspan dy="14" x="284">pedido</tspan></text></g><g sequence="75"><rect x="981" y="188" width="106" height="70" ry="5" rx="5" style="fill:url(#linearGradientF8FBFEEDF5FCDEEDFAD4E7F8E2E5E9_1418685786);" stroke="191970" /></g><g componentSequence="75"><text x="1034" y="203" text-anchor="middle" style="font-weight:bold;font-size:10px;stroke:none; fill:#333399"><tspan dy="14" x="1034">Remoção do</tspan><tspan dy="14" x="1034">rastreio</tspan></text></g><g sequence="81"><rect x="791" y="188" width="106" height="70" ry="5" rx="5" style="fill:url(#linearGradientF8FBFEEDF5FCDEEDFAD4E7F8E2E5E9_316240782);" stroke="191970" /></g><g componentSequence="81"><text x="844" y="203" text-anchor="middle" style="font-weight:bold;font-size:10px;stroke:none; fill:#333399"><tspan dy="14" x="844">Follow-up do</tspan><tspan dy="14" x="844">material</tspan></text></g><g sequence="85"><rect x="1071" y="50" width="106" height="70" ry="5" rx="5" style="fill:url(#linearGradientF8FBFEEDF5FCDEEDFAD4E7F8E2E5E9_1354948750);" stroke="191970" /></g><g componentSequence="85"><text x="1124" y="65" text-anchor="middle" style="font-weight:bold;font-size:10px;stroke:none; fill:#333399"><tspan dy="14" x="1124">Vendedor libera</tspan><tspan dy="14" x="1124">o pedido</tspan></text></g><g sequence="87"><rect x="1151" y="195" width="106" height="56" ry="5" rx="5" style="fill:url(#linearGradientF8FBFEEDF5FCDEEDFAD4E7F8E2E5E9_1614911085);" stroke="191970" /></g><g componentSequence="87"><text x="1204" y="212" text-anchor="middle" style="font-weight:bold;font-size:10px;stroke:none; fill:#333399"><tspan dy="14" x="1204">Número NF</tspan></text></g><g sequence="91"><polygon points=" 381 209 411 179 441 209 411 239 381 209" style="fill:url(#linearGradientFAFBFCFFFFCC_1334559362);" stroke="000000" /></g><path style="fill:none; stroke-width:6; stroke:#000000;" d="M401.0 209.0 L421.0 209.0" /><path style="fill:none; stroke-width:6; stroke:#000000;" d="M411.0 199.0 L411.0 219.0" /><g componentSequence="91"><text x="411" y="242" text-anchor="middle" style="font-weight:bold;font-size:10px;stroke:none; fill:#333399"><tspan dy="14" x="411">Paralelo</tspan></text></g><g sequence="93"><rect x="291" y="470" width="106" height="56" ry="5" rx="5" style="fill:url(#linearGradientF8FBFEEDF5FCDEEDFAD4E7F8E2E5E9_379031038);" stroke="191970" /></g><g componentSequence="93"><text x="344" y="487" text-anchor="middle" style="font-weight:bold;font-size:10px;stroke:none; fill:#333399"><tspan dy="14" x="344">Compras-02</tspan></text></g><g sequence="94"><rect x="441" y="470" width="106" height="56" ry="5" rx="5" style="fill:url(#linearGradientF8FBFEEDF5FCDEEDFAD4E7F8E2E5E9_1368840498);" stroke="191970" /></g><g componentSequence="94"><text x="494" y="487" text-anchor="middle" style="font-weight:bold;font-size:10px;stroke:none; fill:#333399"><tspan dy="14" x="494">Compras-03</tspan></text></g><g sequence="95"><rect x="591" y="460" width="106" height="70" ry="5" rx="5" style="fill:url(#linearGradientF8FBFEEDF5FCDEEDFAD4E7F8E2E5E9_1023987603);" stroke="191970" /></g><g componentSequence="95"><text x="644" y="475" text-anchor="middle" style="font-weight:bold;font-size:10px;stroke:none; fill:#333399"><tspan dy="14" x="644">Gerente</tspan><tspan dy="14" x="644">Compras</tspan></text></g><g sequence="100"><polygon points=" 381 640 411 610 441 640 411 670 381 640" style="fill:url(#linearGradientFAFBFCFFFFCC_747017570);" stroke="000000" /></g><path style="fill:none; stroke-width:6; stroke:#000000;" d="M401.0 640.0 L421.0 640.0" /><path style="fill:none; stroke-width:6; stroke:#000000;" d="M411.0 630.0 L411.0 650.0" /><g componentSequence="100"><text x="411" y="673" text-anchor="middle" style="font-weight:bold;font-size:10px;stroke:none; fill:#333399"><tspan dy="14" x="411">Join</tspan></text></g><g sequence="106"><polygon points=" 151 380 181 350 211 380 181 410 151 380" style="fill:url(#linearGradientFAFBFCFFFFCC_114558321);" stroke="000000" /></g><g componentSequence="106"><text x="181" y="420" text-anchor="middle" style="font-weight:bold;font-size:10px;stroke:none; fill:#333399"><tspan dy="14" x="181">Compras</tspan><tspan dy="14" x="181">01?</tspan></text></g><g sequence="109"><polygon points=" 311 380 341 350 371 380 341 410 311 380" style="fill:url(#linearGradientFAFBFCFFFFCC_1642861520);" stroke="000000" /></g><g componentSequence="109"><text x="341" y="420" text-anchor="middle" style="font-weight:bold;font-size:10px;stroke:none; fill:#333399"><tspan dy="14" x="341">Compras</tspan><tspan dy="14" x="341">02?</tspan></text></g><g sequence="112"><polygon points=" 461 380 491 350 521 380 491 410 461 380" style="fill:url(#linearGradientFAFBFCFFFFCC_442711081);" stroke="000000" /></g><g componentSequence="112"><text x="491" y="420" text-anchor="middle" style="font-weight:bold;font-size:10px;stroke:none; fill:#333399"><tspan dy="14" x="491">Compras</tspan><tspan dy="14" x="491">03?</tspan></text></g><g sequence="115"><polygon points=" 611 380 641 350 671 380 641 410 611 380" style="fill:url(#linearGradientFAFBFCFFFFCC_47613826);" stroke="000000" /></g><g componentSequence="115"><text x="641" y="420" text-anchor="middle" style="font-weight:bold;font-size:10px;stroke:none; fill:#333399"><tspan dy="14" x="641">Gerente</tspan><tspan dy="14" x="641">de</tspan><tspan dy="14" x="641">comp...</tspan></text></g><g componentSequence="71"><text x="98" y="183" style="font-size:10px;font-weight:none;stroke:none; fill:#333399" text-anchor="left" /></g><g componentSequence="79"><text x="184" y="102" style="font-size:10px;font-weight:none;stroke:none; fill:#333399" text-anchor="left" /></g><g componentSequence="83"><text x="854" y="337" style="font-size:10px;font-weight:none;stroke:none; fill:#333399" text-anchor="left" /></g><g componentSequence="84"><text x="1044" y="333" style="font-size:10px;font-weight:none;stroke:none; fill:#333399" text-anchor="left" /></g><g componentSequence="86"><text x="1044" y="118" style="font-size:10px;font-weight:none;stroke:none; fill:#333399" text-anchor="left" /></g><g componentSequence="88"><text x="1214" y="126" style="font-size:10px;font-weight:none;stroke:none; fill:#333399" text-anchor="left" /></g><g componentSequence="89"><text x="1289" y="222" style="font-size:10px;font-weight:none;stroke:none; fill:#333399" text-anchor="left" /></g><g componentSequence="92"><text x="422" y="90" style="font-size:10px;font-weight:none;stroke:none; fill:#333399" text-anchor="left" /></g><g componentSequence="101"><text x="227" y="654" style="font-size:10px;font-weight:none;stroke:none; fill:#333399" text-anchor="left" /></g><g componentSequence="102"><text x="353" y="595" style="font-size:10px;font-weight:none;stroke:none; fill:#333399" text-anchor="left" /></g><g componentSequence="103"><text x="503" y="593" style="font-size:10px;font-weight:none;stroke:none; fill:#333399" text-anchor="left" /></g><g componentSequence="104"><text x="597" y="629" style="font-size:10px;font-weight:none;stroke:none; fill:#333399" text-anchor="left" /></g><g componentSequence="107"><text x="191" y="461" style="font-size:10px;font-weight:none;stroke:none; fill:#333399" text-anchor="left" /></g><g componentSequence="108"><text x="106" y="642" style="font-size:10px;font-weight:none;stroke:none; fill:#333399" text-anchor="left" /></g><g componentSequence="110"><text x="353" y="461" style="font-size:10px;font-weight:none;stroke:none; fill:#333399" text-anchor="left" /></g><g componentSequence="111"><text x="271" y="535" style="font-size:10px;font-weight:none;stroke:none; fill:#333399" text-anchor="left" /></g><g componentSequence="113"><text x="503" y="461" style="font-size:10px;font-weight:none;stroke:none; fill:#333399" text-anchor="left" /></g><g componentSequence="114"><text x="579" y="526" style="font-size:10px;font-weight:none;stroke:none; fill:#333399" text-anchor="left" /></g><g componentSequence="116"><text x="652" y="456" style="font-size:10px;font-weight:none;stroke:none; fill:#333399" text-anchor="left" /></g><g componentSequence="117"><text x="718" y="610" style="font-size:10px;font-weight:none;stroke:none; fill:#333399" text-anchor="left" /></g><g componentSequence="118"><text x="306" y="312" style="font-size:10px;font-weight:none;stroke:none; fill:#333399" text-anchor="left" /></g><g componentSequence="119"><text x="387" y="308" style="font-size:10px;font-weight:none;stroke:none; fill:#333399" text-anchor="left" /></g><g componentSequence="120"><text x="460" y="308" style="font-size:10px;font-weight:none;stroke:none; fill:#333399" text-anchor="left" /></g><g componentSequence="121"><text x="536" y="312" style="font-size:10px;font-weight:none;stroke:none; fill:#333399" text-anchor="left" /></g><g componentSequence="122"><text x="752" y="564" style="font-size:10px;font-weight:none;stroke:none; fill:#333399" text-anchor="left" /></g><path style="fill:none; stroke:#000000;stroke-width:1" d="M88.0 110.0 L88.0 224.0 L120.0 225.0" /><polygon style="fill:#000000; stroke:#000000;" points=" 110 220 120 225 110 230 112 225" /><path style="fill:none; stroke:#000000;stroke-width:1" d="M997.0 370.0 L1034.0 370.0 L1034.0 328.0 L1034.0 258.0" /><polygon style="fill:#000000; stroke:#000000;" points=" 1029 268 1034 258 1039 268 1034 266" /><path style="fill:none; stroke:#000000;stroke-width:1" d="M844.0 258.0 L844.0 369.0 L890.0 369.0" /><polygon style="fill:#000000; stroke:#000000;" points=" 880 364 890 369 880 374 882 369" /><path style="fill:none; stroke:#000000;stroke-width:1" d="M174.0 183.0 L174.0 77.0 L230.0 77.0" /><polygon style="fill:#000000; stroke:#000000;" points=" 220 72 230 77 220 82 222 77" /><path style="fill:none; stroke:#000000;stroke-width:1" d="M181.0 526.0 L183.0 654.0 L380.0 654.0" /><polygon style="fill:#000000; stroke:#000000;" points=" 370 649 380 654 370 659 372 654" /><path style="fill:none; stroke:#000000;stroke-width:1" d="M181.0 452.0 L181.0 469.0" /><polygon style="fill:#000000; stroke:#000000;" points=" 186 459 181 469 176 459 181 461" /><path style="fill:none; stroke:#000000;stroke-width:1" d="M1257.0 222.0 L1301.0 222.0" /><polygon style="fill:#000000; stroke:#000000;" points=" 1291 217 1301 222 1291 227 1293 222" /><path style="fill:none; stroke:#000000;stroke-width:1" d="M337.0 77.0 L412.0 77.0 L411.0 178.0" /><polygon style="fill:#000000; stroke:#000000;" points=" 416 168 411 178 406 168 411 170" /><path style="fill:none; stroke:#000000;stroke-width:1" d="M1034.0 187.0 L1034.0 84.0 L1070.0 84.0" /><polygon style="fill:#000000; stroke:#000000;" points=" 1060 79 1070 84 1060 89 1062 84" /><path style="fill:none; stroke:#000000;stroke-width:1" d="M441.0 653.0 L742.0 653.0 L742.0 222.0 L790.0 222.0" /><polygon style="fill:#000000; stroke:#000000;" points=" 780 217 790 222 780 227 782 222" /><path style="fill:none; stroke:#000000;stroke-width:1" d="M1177.0 85.0 L1204.0 85.0 L1204.0 194.0" /><polygon style="fill:#000000; stroke:#000000;" points=" 1209 184 1204 194 1199 184 1204 186" /><path style="fill:none; stroke:#000000;stroke-width:1" d="M380.0 246.0 L211.0 377.0" /><polygon style="fill:#000000; stroke:#000000;" points=" 222 375 211 377 216 367 217 372" /><path style="fill:none; stroke:#000000;stroke-width:1" d="M393.0 267.0 L361.0 349.0" /><polygon style="fill:#000000; stroke:#000000;" points=" 369 342 361 349 360 338 364 342" /><path style="fill:none; stroke:#000000;stroke-width:1" d="M431.0 267.0 L467.0 349.0" /><polygon style="fill:#000000; stroke:#000000;" points=" 468 338 467 349 458 342 464 342" /><path style="fill:none; stroke:#000000;stroke-width:1" d="M441.0 246.0 L610.0 377.0" /><polygon style="fill:#000000; stroke:#000000;" points=" 605 367 610 377 599 375 604 372" /><path style="fill:none; stroke:#000000;stroke-width:1" d="M343.0 526.0 L343.0 624.0 L380.0 640.0" /><polygon style="fill:#000000; stroke:#000000;" points=" 373 631 380 640 369 641 373 637" /><path style="fill:none; stroke:#000000;stroke-width:1" d="M342.0 452.0 L343.0 469.0" /><polygon style="fill:#000000; stroke:#000000;" points=" 347 459 343 469 337 459 343 461" /><path style="fill:none; stroke:#000000;stroke-width:1" d="M493.0 526.0 L493.0 596.0 L441.0 632.0" /><polygon style="fill:#000000; stroke:#000000;" points=" 452 630 441 632 446 622 448 627" /><path style="fill:none; stroke:#000000;stroke-width:1" d="M492.0 452.0 L493.0 469.0" /><polygon style="fill:#000000; stroke:#000000;" points=" 497 459 493 469 487 459 493 461" /><path style="fill:none; stroke:#000000;stroke-width:1" d="M643.0 530.0 L643.0 621.0 L441.0 649.0" /><polygon style="fill:#000000; stroke:#000000;" points=" 452 653 441 649 450 643 449 648" /><path style="fill:none; stroke:#000000;stroke-width:1" d="M642.0 452.0 L643.0 459.0" /><polygon style="fill:#000000; stroke:#000000;" points=" 647 448 643 459 637 450 642 451" /><path style="fill:none; stroke:#000000;stroke-width:1" d="M150.0 400.0 L96.0 400.0 L96.0 653.0 L380.0 653.0" /><polygon style="fill:#000000; stroke:#000000;" points=" 370 648 380 653 370 658 372 653" /><path style="fill:none; stroke:#000000;stroke-width:1" d="M310.0 400.0 L261.0 400.0 L261.0 589.0 L380.0 640.0" /><polygon style="fill:#000000; stroke:#000000;" points=" 373 631 380 640 369 641 373 637" /><path style="fill:none; stroke:#000000;stroke-width:1" d="M521.0 401.0 L569.0 401.0 L569.0 542.0 L441.0 632.0" /><polygon style="fill:#000000; stroke:#000000;" points=" 452 630 441 632 446 622 448 627" /><path style="fill:none; stroke:#000000;stroke-width:1" d="M671.0 403.0 L724.0 407.0 L724.0 608.0 L441.0 649.0" /><polygon style="fill:#000000; stroke:#000000;" points=" 452 653 441 649 450 643 449 648" /><defs><linearGradient xmlns:xlink="http://www.w3.org/1999/xlink" xlink:href="#linearGradient66FF6696FF96B6FFB6" id="linearGradient66FF6696FF96B6FFB6_1024225067" x1="0" y1="75.0" x2="0" y2="110.0" gradientUnits="userSpaceOnUse" xlink:type="simple" xlink:actuate="onLoad" xlink:show="other" /><linearGradient id="linearGradient66FF6696FF96B6FFB6"><stop style="stop-color:#66FF66;stop-opacity:1;" offset="0.0" id="stop66FF66" /><stop style="stop-color:#96FF96;stop-opacity:1;" offset="0.5" id="stop96FF96" /><stop style="stop-color:#B6FFB6;stop-opacity:1;" offset="1.0" id="stopB6FFB6" /></linearGradient><linearGradient xmlns:xlink="http://www.w3.org/1999/xlink" xlink:href="#linearGradientF8FBFEEDF5FCDEEDFAD4E7F8E2E5E9" id="linearGradientF8FBFEEDF5FCDEEDFAD4E7F8E2E5E9_868976378" x1="0" y1="335.0" x2="0" y2="441.0" gradientUnits="userSpaceOnUse" xlink:type="simple" xlink:actuate="onLoad" xlink:show="other" /><linearGradient id="linearGradientF8FBFEEDF5FCDEEDFAD4E7F8E2E5E9"><stop style="stop-color:#F8FBFE;stop-opacity:1;" offset="0.0" id="stopF8FBFE" /><stop style="stop-color:#EDF5FC;stop-opacity:1;" offset="0.25" id="stopEDF5FC" /><stop style="stop-color:#DEEDFA;stop-opacity:1;" offset="0.5" id="stopDEEDFA" /><stop style="stop-color:#D4E7F8;stop-opacity:1;" offset="0.75" id="stopD4E7F8" /><stop style="stop-color:#E2E5E9;stop-opacity:1;" offset="1.0" id="stopE2E5E9" /></linearGradient><linearGradient xmlns:xlink="http://www.w3.org/1999/xlink" xlink:href="#linearGradientF8FBFEEDF5FCDEEDFAD4E7F8E2E5E9" id="linearGradientF8FBFEEDF5FCDEEDFAD4E7F8E2E5E9_938738779" x1="0" y1="184.0" x2="0" y2="290.0" gradientUnits="userSpaceOnUse" xlink:type="simple" xlink:actuate="onLoad" xlink:show="other" /><linearGradient xmlns:xlink="http://www.w3.org/1999/xlink" xlink:href="#linearGradientF8FBFEEDF5FCDEEDFAD4E7F8E2E5E9" id="linearGradientF8FBFEEDF5FCDEEDFAD4E7F8E2E5E9_1928760513" x1="0" y1="470.0" x2="0" y2="576.0" gradientUnits="userSpaceOnUse" xlink:type="simple" xlink:actuate="onLoad" xlink:show="other" /><linearGradient xmlns:xlink="http://www.w3.org/1999/xlink" xlink:href="#linearGradientFF6666FF9696FFB6B6" id="linearGradientFF6666FF9696FFB6B6_744341635" x1="0" y1="205.0" x2="0" y2="240.0" gradientUnits="userSpaceOnUse" xlink:type="simple" xlink:actuate="onLoad" xlink:show="other" /><linearGradient id="linearGradientFF6666FF9696FFB6B6"><stop style="stop-color:#FF6666;stop-opacity:1;" offset="0.0" id="stopFF6666" /><stop style="stop-color:#FF9696;stop-opacity:1;" offset="0.5" id="stopFF9696" /><stop style="stop-color:#FFB6B6;stop-opacity:1;" offset="1.0" id="stopFFB6B6" /></linearGradient><linearGradient xmlns:xlink="http://www.w3.org/1999/xlink" xlink:href="#linearGradientF8FBFEEDF5FCDEEDFAD4E7F8E2E5E9" id="linearGradientF8FBFEEDF5FCDEEDFAD4E7F8E2E5E9_1137606564" x1="0" y1="42.0" x2="0" y2="148.0" gradientUnits="userSpaceOnUse" xlink:type="simple" xlink:actuate="onLoad" xlink:show="other" /><linearGradient xmlns:xlink="http://www.w3.org/1999/xlink" xlink:href="#linearGradientF8FBFEEDF5FCDEEDFAD4E7F8E2E5E9" id="linearGradientF8FBFEEDF5FCDEEDFAD4E7F8E2E5E9_1418685786" x1="0" y1="188.0" x2="0" y2="294.0" gradientUnits="userSpaceOnUse" xlink:type="simple" xlink:actuate="onLoad" xlink:show="other" /><linearGradient xmlns:xlink="http://www.w3.org/1999/xlink" xlink:href="#linearGradientF8FBFEEDF5FCDEEDFAD4E7F8E2E5E9" id="linearGradientF8FBFEEDF5FCDEEDFAD4E7F8E2E5E9_316240782" x1="0" y1="188.0" x2="0" y2="294.0" gradientUnits="userSpaceOnUse" xlink:type="simple" xlink:actuate="onLoad" xlink:show="other" /><linearGradient xmlns:xlink="http://www.w3.org/1999/xlink" xlink:href="#linearGradientF8FBFEEDF5FCDEEDFAD4E7F8E2E5E9" id="linearGradientF8FBFEEDF5FCDEEDFAD4E7F8E2E5E9_1354948750" x1="0" y1="50.0" x2="0" y2="156.0" gradientUnits="userSpaceOnUse" xlink:type="simple" xlink:actuate="onLoad" xlink:show="other" /><linearGradient xmlns:xlink="http://www.w3.org/1999/xlink" xlink:href="#linearGradientF8FBFEEDF5FCDEEDFAD4E7F8E2E5E9" id="linearGradientF8FBFEEDF5FCDEEDFAD4E7F8E2E5E9_1614911085" x1="0" y1="195.0" x2="0" y2="301.0" gradientUnits="userSpaceOnUse" xlink:type="simple" xlink:actuate="onLoad" xlink:show="other" /><linearGradient xmlns:xlink="http://www.w3.org/1999/xlink" xlink:href="#linearGradientFAFBFCFFFFCC" id="linearGradientFAFBFCFFFFCC_1334559362" x1="0" y1="179.0" x2="0" y2="239.0" gradientUnits="userSpaceOnUse" xlink:type="simple" xlink:actuate="onLoad" xlink:show="other" /><linearGradient id="linearGradientFAFBFCFFFFCC"><stop style="stop-color:#FAFBFC;stop-opacity:1;" offset="0.0" id="stopFAFBFC" /><stop style="stop-color:#FFFFCC;stop-opacity:1;" offset="1.0" id="stopFFFFCC" /></linearGradient><linearGradient xmlns:xlink="http://www.w3.org/1999/xlink" xlink:href="#linearGradientF8FBFEEDF5FCDEEDFAD4E7F8E2E5E9" id="linearGradientF8FBFEEDF5FCDEEDFAD4E7F8E2E5E9_379031038" x1="0" y1="470.0" x2="0" y2="576.0" gradientUnits="userSpaceOnUse" xlink:type="simple" xlink:actuate="onLoad" xlink:show="other" /><linearGradient xmlns:xlink="http://www.w3.org/1999/xlink" xlink:href="#linearGradientF8FBFEEDF5FCDEEDFAD4E7F8E2E5E9" id="linearGradientF8FBFEEDF5FCDEEDFAD4E7F8E2E5E9_1368840498" x1="0" y1="470.0" x2="0" y2="576.0" gradientUnits="userSpaceOnUse" xlink:type="simple" xlink:actuate="onLoad" xlink:show="other" /><linearGradient xmlns:xlink="http://www.w3.org/1999/xlink" xlink:href="#linearGradientF8FBFEEDF5FCDEEDFAD4E7F8E2E5E9" id="linearGradientF8FBFEEDF5FCDEEDFAD4E7F8E2E5E9_1023987603" x1="0" y1="460.0" x2="0" y2="566.0" gradientUnits="userSpaceOnUse" xlink:type="simple" xlink:actuate="onLoad" xlink:show="other" /><linearGradient xmlns:xlink="http://www.w3.org/1999/xlink" xlink:href="#linearGradientFAFBFCFFFFCC" id="linearGradientFAFBFCFFFFCC_747017570" x1="0" y1="610.0" x2="0" y2="670.0" gradientUnits="userSpaceOnUse" xlink:type="simple" xlink:actuate="onLoad" xlink:show="other" /><linearGradient xmlns:xlink="http://www.w3.org/1999/xlink" xlink:href="#linearGradientFAFBFCFFFFCC" id="linearGradientFAFBFCFFFFCC_114558321" x1="0" y1="350.0" x2="0" y2="410.0" gradientUnits="userSpaceOnUse" xlink:type="simple" xlink:actuate="onLoad" xlink:show="other" /><linearGradient xmlns:xlink="http://www.w3.org/1999/xlink" xlink:href="#linearGradientFAFBFCFFFFCC" id="linearGradientFAFBFCFFFFCC_1642861520" x1="0" y1="350.0" x2="0" y2="410.0" gradientUnits="userSpaceOnUse" xlink:type="simple" xlink:actuate="onLoad" xlink:show="other" /><linearGradient xmlns:xlink="http://www.w3.org/1999/xlink" xlink:href="#linearGradientFAFBFCFFFFCC" id="linearGradientFAFBFCFFFFCC_442711081" x1="0" y1="350.0" x2="0" y2="410.0" gradientUnits="userSpaceOnUse" xlink:type="simple" xlink:actuate="onLoad" xlink:show="other" /><linearGradient xmlns:xlink="http://www.w3.org/1999/xlink" xlink:href="#linearGradientFAFBFCFFFFCC" id="linearGradientFAFBFCFFFFCC_47613826" x1="0" y1="350.0" x2="0" y2="410.0" gradientUnits="userSpaceOnUse" xlink:type="simple" xlink:actuate="onLoad" xlink:show="other" /></defs></svg>
