<?xml version="1.0" encoding="UTF-8"?>
<svg xmlns="http://www.w3.org/2000/svg" style="stroke-dasharray:none; shape-rendering:auto; font-family:'Arial'; text-rendering:auto; fill-opacity:1; color-interpolation:auto; color-rendering:auto; font-size:12; fill:black; stroke:black; image-rendering:auto; stroke-miterlimit:10; stroke-linecap:square; stroke-linejoin:miter; font-style:normal; stroke-width:1; stroke-dashoffset:0; font-weight:normal; stroke-opacity:1;" contentScriptType="text/ecmascript" preserveAspectRatio="xMidYMid meet" zoomAndPan="magnify" version="1.0" contentStyleType="text/css" xml:xlink="http://www.w3.org/1999/xlink" width="1001" height="498"><rect x="80" y="30" width="921" height="144" ry="0" rx="0" style="stroke:#000000; fill:#D0DAAE" /><g componentSequence="3"><text x="-102" y="86" transform="rotate(270)" text-anchor="middle" style="font-weight:bold;font-size:10px;stroke:none; fill:#434343"><tspan dy="14" x="-102">Solicitante</tspan></text></g><rect x="80" y="337" width="921" height="161" ry="0" rx="0" style="stroke:#000000; fill:#ADC9AC" /><g componentSequence="2"><text x="-417" y="86" transform="rotate(270)" text-anchor="middle" style="font-weight:bold;font-size:10px;stroke:none; fill:#434343"><tspan dy="14" x="-417">Gerente</tspan></text></g><rect x="80" y="173" width="921" height="165" ry="0" rx="0" style="stroke:#000000; fill:#82B0B7" /><g componentSequence="1"><text x="-255" y="86" transform="rotate(270)" text-anchor="middle" style="font-weight:bold;font-size:10px;stroke:none; fill:#434343"><tspan dy="14" x="-255">Manutenção</tspan></text></g><g sequence="4"><polygon points=" 340 217 370 187 400 217 370 247 340 217" style="fill:url(#linearGradientFAFBFCFFFFCC_1307353302);" stroke="000000" /></g><g componentSequence="4"><text x="370" y="257" text-anchor="middle" style="font-weight:bold;font-size:10px;stroke:none; fill:#333399"><tspan dy="14" x="370">Aprov.</tspan><tspan dy="14" x="370">gerente?</tspan></text></g><g sequence="5"><ellipse cx="159" cy="104" rx="17" ry="17" stroke-width="1" style="fill:url(#linearGradient66FF6696FF96B6FFB6_1126909723);" stroke="336633" /></g><g sequence="6"><polygon points=" 380 399 410 369 440 399 410 429 380 399" style="fill:url(#linearGradientFAFBFCFFFFCC_1192545190);" stroke="000000" /></g><g componentSequence="6"><text x="410" y="439" text-anchor="middle" style="font-weight:bold;font-size:10px;stroke:none; fill:#333399"><tspan dy="14" x="410">Gerente</tspan><tspan dy="14" x="410">aprova?</tspan></text></g><g sequence="7"><polygon points=" 630 217 660 187 690 217 660 247 630 217" style="fill:url(#linearGradientFAFBFCFFFFCC_35015968);" stroke="000000" /></g><g componentSequence="7"><text x="660" y="257" text-anchor="middle" style="font-weight:bold;font-size:10px;stroke:none; fill:#333399"><tspan dy="14" x="660">Passar</tspan><tspan dy="14" x="660">p/</tspan><tspan dy="14" x="660">gerente?</tspan></text></g><g sequence="8"><polygon points=" 130 217 160 187 190 217 160 247 130 217" style="fill:url(#linearGradientFAFBFCFFFFCC_710195108);" stroke="000000" /></g><g componentSequence="8"><text x="160" y="257" text-anchor="middle" style="font-weight:bold;font-size:10px;stroke:none; fill:#333399"><tspan dy="14" x="160">Req.</tspan><tspan dy="14" x="160">material?</tspan></text></g><g sequence="9"><polygon points=" 240 217 270 187 300 217 270 247 240 217" style="fill:url(#linearGradientFAFBFCFFFFCC_861810282);" stroke="000000" /></g><g componentSequence="9"><text x="270" y="257" text-anchor="middle" style="font-weight:bold;font-size:10px;stroke:none; fill:#333399"><tspan dy="14" x="270">Sou</tspan><tspan dy="14" x="270">gerente?</tspan></text></g><g sequence="10"><ellipse cx="917" cy="227" rx="17" ry="17" stroke-width="3" style="fill:url(#linearGradientFF6666FF9696FFB6B6_1391888988);" stroke="993333" /></g><g sequence="11"><ellipse cx="537" cy="419" rx="17" ry="17" stroke-width="3" style="fill:url(#linearGradientFF6666FF9696FFB6B6_1647948399);" stroke="993333" /></g><g sequence="12"><rect x="220" y="380" width="106" height="80" ry="5" rx="5" style="fill:url(#linearGradientF8FBFEEDF5FCDEEDFAD4E7F8E2E5E9_1843384347);" stroke="191970" /></g><g componentSequence="12"><text x="273" y="395" text-anchor="middle" style="font-weight:bold;font-size:10px;stroke:none; fill:#333399"><tspan dy="14" x="273">Aprovação</tspan><tspan dy="14" x="273">gerente</tspan><tspan dy="14" x="273">Logística</tspan></text></g><g sequence="13"><rect x="440" y="210" width="106" height="67" ry="5" rx="5" style="fill:url(#linearGradientF8FBFEEDF5FCDEEDFAD4E7F8E2E5E9_800104116);" stroke="191970" /></g><g componentSequence="13"><text x="493" y="225" text-anchor="middle" style="font-weight:bold;font-size:10px;stroke:none; fill:#333399"><tspan dy="14" x="493">Tratativa</tspan><tspan dy="14" x="493">Manutenção</tspan></text></g><g sequence="14"><rect x="750" y="70" width="106" height="67" ry="5" rx="5" style="fill:url(#linearGradientF8FBFEEDF5FCDEEDFAD4E7F8E2E5E9_1240614260);" stroke="191970" /></g><g componentSequence="14"><text x="803" y="85" text-anchor="middle" style="font-weight:bold;font-size:10px;stroke:none; fill:#333399"><tspan dy="14" x="803">Finalização do</tspan><tspan dy="14" x="803">solicitante</tspan></text></g><g sequence="15"><polygon points=" 773 210 803 180 833 210 803 240 773 210" style="fill:url(#linearGradientFAFBFCFFFFCC_1719086319);" stroke="000000" /></g><g componentSequence="15"><text x="803" y="250" text-anchor="middle" style="font-weight:bold;font-size:10px;stroke:none; fill:#333399"><tspan dy="14" x="803">Demand</tspan><tspan dy="14" x="803">a foi</tspan><tspan dy="14" x="803">atend...</tspan></text></g><g componentSequence="16"><text x="430" y="239" style="font-size:10px;font-weight:none;stroke:none; fill:#333399" text-anchor="left"><tspan dy="14" x="430">Não</tspan></text></g><g componentSequence="17"><text x="310" y="309" style="font-size:10px;font-weight:none;stroke:none; fill:#333399" text-anchor="left"><tspan dy="14" x="310">Sim</tspan></text></g><g componentSequence="18"><text x="169" y="154" style="font-size:10px;font-weight:none;stroke:none; fill:#333399" text-anchor="left" /></g><g componentSequence="19"><text x="490" y="419" style="font-size:10px;font-weight:none;stroke:none; fill:#333399" text-anchor="left"><tspan dy="14" x="490">Não</tspan></text></g><g componentSequence="20"><text x="464" y="327" style="font-size:10px;font-weight:none;stroke:none; fill:#333399" text-anchor="left"><tspan dy="14" x="464">Sim</tspan></text></g><g componentSequence="22"><text x="673" y="103" style="font-size:10px;font-weight:none;stroke:none; fill:#333399" text-anchor="left" /></g><g componentSequence="23"><text x="225" y="236" style="font-size:10px;font-weight:none;stroke:none; fill:#333399" text-anchor="left"><tspan dy="14" x="225">Não</tspan></text></g><g componentSequence="24"><text x="170" y="382" style="font-size:10px;font-weight:none;stroke:none; fill:#333399" text-anchor="left"><tspan dy="14" x="170">Sim</tspan></text></g><g componentSequence="25"><text x="330" y="236" style="font-size:10px;font-weight:none;stroke:none; fill:#333399" text-anchor="left"><tspan dy="14" x="330">Não</tspan></text></g><g componentSequence="26"><text x="402" y="151" style="font-size:10px;font-weight:none;stroke:none; fill:#333399" text-anchor="left"><tspan dy="14" x="402">Sim</tspan></text></g><g componentSequence="27"><text x="363" y="419" style="font-size:10px;font-weight:none;stroke:none; fill:#333399" text-anchor="left" /></g><g componentSequence="28"><text x="598" y="243" style="font-size:10px;font-weight:none;stroke:none; fill:#333399" text-anchor="left" /></g><g componentSequence="29"><text x="813" y="158" style="font-size:10px;font-weight:none;stroke:none; fill:#333399" text-anchor="left" /></g><g componentSequence="30"><text x="813" y="158" style="font-size:10px;font-weight:none;stroke:none; fill:#333399" text-anchor="left" /></g><g componentSequence="31"><text x="650" y="311" style="font-size:10px;font-weight:none;stroke:none; fill:#333399" text-anchor="left"><tspan dy="14" x="650">Não</tspan></text></g><g componentSequence="32"><text x="876" y="231" style="font-size:10px;font-weight:none;stroke:none; fill:#333399" text-anchor="left" /></g><g componentSequence="33"><text x="558" y="488" style="font-size:10px;font-weight:none;stroke:none; fill:#333399" text-anchor="left" /></g><path style="fill:none; stroke:#000000;stroke-width:1" d="M400.0 238.0 L439.0 240.0" /><polygon style="fill:#000000; stroke:#000000;" points=" 429 234 439 240 429 244 431 240" /><path style="fill:none; stroke:#000000;stroke-width:1" d="M371.0 286.0 L372.0 309.0 L324.0 309.0 L274.0 309.0 L273.0 379.0" /><polygon style="fill:#000000; stroke:#000000;" points=" 278 369 273 379 268 369 273 371" /><path style="fill:none; stroke:#000000;stroke-width:1" d="M300.0 236.0 L339.0 236.0" /><polygon style="fill:#000000; stroke:#000000;" points=" 329 231 339 236 329 241 331 236" /><path style="fill:none; stroke:#000000;stroke-width:1" d="M159.0 121.0 L159.0 186.0" /><polygon style="fill:#000000; stroke:#000000;" points=" 164 176 159 186 154 176 159 178" /><path style="fill:none; stroke:#000000;stroke-width:1" d="M440.0 418.0 L520.0 419.0" /><polygon style="fill:#000000; stroke:#000000;" points=" 510 414 520 419 510 424 512 419" /><path style="fill:none; stroke:#000000;stroke-width:1" d="M410.0 368.0 L410.0 327.0 L489.0 327.0 L491.0 277.0" /><polygon style="fill:#000000; stroke:#000000;" points=" 486 287 491 277 496 287 491 285" /><path style="fill:none; stroke:#000000;stroke-width:1" d="M326.0 419.0 L379.0 418.0" /><polygon style="fill:#000000; stroke:#000000;" points=" 369 413 379 418 369 423 371 418" /><path style="fill:none; stroke:#000000;stroke-width:1" d="M660.0 186.0 L660.0 103.0 L749.0 103.0" /><polygon style="fill:#000000; stroke:#000000;" points=" 739 98 749 103 739 108 741 103" /><path style="fill:none; stroke:#000000;stroke-width:1" d="M660.0 299.0 L661.0 488.0 L273.0 488.0 L273.0 460.0" /><polygon style="fill:#000000; stroke:#000000;" points=" 268 470 273 460 278 470 273 468" /><path style="fill:none; stroke:#000000;stroke-width:1" d="M546.0 243.0 L629.0 243.0" /><polygon style="fill:#000000; stroke:#000000;" points=" 619 238 629 243 619 248 621 243" /><path style="fill:none; stroke:#000000;stroke-width:1" d="M190.0 236.0 L239.0 236.0" /><polygon style="fill:#000000; stroke:#000000;" points=" 229 231 239 236 229 241 231 236" /><path style="fill:none; stroke:#000000;stroke-width:1" d="M160.0 286.0 L160.0 419.0 L219.0 419.0" /><polygon style="fill:#000000; stroke:#000000;" points=" 209 414 219 419 209 424 211 419" /><path style="fill:none; stroke:#000000;stroke-width:1" d="M269.0 186.0 L269.0 151.0 L347.0 151.0 L415.0 151.0 L492.0 151.0 L492.0 209.0" /><polygon style="fill:#000000; stroke:#000000;" points=" 497 199 492 209 487 199 492 201" /><path style="fill:none; stroke:#000000;stroke-width:1" d="M833.0 233.0 L900.0 228.0" /><polygon style="fill:#000000; stroke:#000000;" points=" 890 224 900 228 890 234 892 229" /><path style="fill:none; stroke:#000000;stroke-width:1" d="M802.0 292.0 L802.0 311.0 L494.0 311.0 L493.0 277.0" /><polygon style="fill:#000000; stroke:#000000;" points=" 488 287 493 277 498 287 493 285" /><path style="fill:none; stroke:#009600;stroke-width:1" d="M803.0 137.0 L803.0 179.0" /><polygon style="fill:#009600; stroke:#009600;" points=" 808 169 803 179 798 169 803 171" /><path style="fill:none; stroke:#000000;stroke-width:1" d="M803.0 137.0 L803.0 179.0" /><polygon style="fill:#000000; stroke:#000000;" points=" 808 169 803 179 798 169 803 171" /><defs><linearGradient xmlns:xlink="http://www.w3.org/1999/xlink" xlink:href="#linearGradientFAFBFCFFFFCC" id="linearGradientFAFBFCFFFFCC_1307353302" x1="0" y1="187.0" x2="0" y2="247.0" gradientUnits="userSpaceOnUse" xlink:type="simple" xlink:actuate="onLoad" xlink:show="other" /><linearGradient id="linearGradientFAFBFCFFFFCC"><stop style="stop-color:#FAFBFC;stop-opacity:1;" offset="0.0" id="stopFAFBFC" /><stop style="stop-color:#FFFFCC;stop-opacity:1;" offset="1.0" id="stopFFFFCC" /></linearGradient><linearGradient xmlns:xlink="http://www.w3.org/1999/xlink" xlink:href="#linearGradient66FF6696FF96B6FFB6" id="linearGradient66FF6696FF96B6FFB6_1126909723" x1="0" y1="87.0" x2="0" y2="122.0" gradientUnits="userSpaceOnUse" xlink:type="simple" xlink:actuate="onLoad" xlink:show="other" /><linearGradient id="linearGradient66FF6696FF96B6FFB6"><stop style="stop-color:#66FF66;stop-opacity:1;" offset="0.0" id="stop66FF66" /><stop style="stop-color:#96FF96;stop-opacity:1;" offset="0.5" id="stop96FF96" /><stop style="stop-color:#B6FFB6;stop-opacity:1;" offset="1.0" id="stopB6FFB6" /></linearGradient><linearGradient xmlns:xlink="http://www.w3.org/1999/xlink" xlink:href="#linearGradientFAFBFCFFFFCC" id="linearGradientFAFBFCFFFFCC_1192545190" x1="0" y1="369.0" x2="0" y2="429.0" gradientUnits="userSpaceOnUse" xlink:type="simple" xlink:actuate="onLoad" xlink:show="other" /><linearGradient xmlns:xlink="http://www.w3.org/1999/xlink" xlink:href="#linearGradientFAFBFCFFFFCC" id="linearGradientFAFBFCFFFFCC_35015968" x1="0" y1="187.0" x2="0" y2="247.0" gradientUnits="userSpaceOnUse" xlink:type="simple" xlink:actuate="onLoad" xlink:show="other" /><linearGradient xmlns:xlink="http://www.w3.org/1999/xlink" xlink:href="#linearGradientFAFBFCFFFFCC" id="linearGradientFAFBFCFFFFCC_710195108" x1="0" y1="187.0" x2="0" y2="247.0" gradientUnits="userSpaceOnUse" xlink:type="simple" xlink:actuate="onLoad" xlink:show="other" /><linearGradient xmlns:xlink="http://www.w3.org/1999/xlink" xlink:href="#linearGradientFAFBFCFFFFCC" id="linearGradientFAFBFCFFFFCC_861810282" x1="0" y1="187.0" x2="0" y2="247.0" gradientUnits="userSpaceOnUse" xlink:type="simple" xlink:actuate="onLoad" xlink:show="other" /><linearGradient xmlns:xlink="http://www.w3.org/1999/xlink" xlink:href="#linearGradientFF6666FF9696FFB6B6" id="linearGradientFF6666FF9696FFB6B6_1391888988" x1="0" y1="210.0" x2="0" y2="245.0" gradientUnits="userSpaceOnUse" xlink:type="simple" xlink:actuate="onLoad" xlink:show="other" /><linearGradient id="linearGradientFF6666FF9696FFB6B6"><stop style="stop-color:#FF6666;stop-opacity:1;" offset="0.0" id="stopFF6666" /><stop style="stop-color:#FF9696;stop-opacity:1;" offset="0.5" id="stopFF9696" /><stop style="stop-color:#FFB6B6;stop-opacity:1;" offset="1.0" id="stopFFB6B6" /></linearGradient><linearGradient xmlns:xlink="http://www.w3.org/1999/xlink" xlink:href="#linearGradientFF6666FF9696FFB6B6" id="linearGradientFF6666FF9696FFB6B6_1647948399" x1="0" y1="402.0" x2="0" y2="437.0" gradientUnits="userSpaceOnUse" xlink:type="simple" xlink:actuate="onLoad" xlink:show="other" /><linearGradient xmlns:xlink="http://www.w3.org/1999/xlink" xlink:href="#linearGradientF8FBFEEDF5FCDEEDFAD4E7F8E2E5E9" id="linearGradientF8FBFEEDF5FCDEEDFAD4E7F8E2E5E9_1843384347" x1="0" y1="380.0" x2="0" y2="486.0" gradientUnits="userSpaceOnUse" xlink:type="simple" xlink:actuate="onLoad" xlink:show="other" /><linearGradient id="linearGradientF8FBFEEDF5FCDEEDFAD4E7F8E2E5E9"><stop style="stop-color:#F8FBFE;stop-opacity:1;" offset="0.0" id="stopF8FBFE" /><stop style="stop-color:#EDF5FC;stop-opacity:1;" offset="0.25" id="stopEDF5FC" /><stop style="stop-color:#DEEDFA;stop-opacity:1;" offset="0.5" id="stopDEEDFA" /><stop style="stop-color:#D4E7F8;stop-opacity:1;" offset="0.75" id="stopD4E7F8" /><stop style="stop-color:#E2E5E9;stop-opacity:1;" offset="1.0" id="stopE2E5E9" /></linearGradient><linearGradient xmlns:xlink="http://www.w3.org/1999/xlink" xlink:href="#linearGradientF8FBFEEDF5FCDEEDFAD4E7F8E2E5E9" id="linearGradientF8FBFEEDF5FCDEEDFAD4E7F8E2E5E9_800104116" x1="0" y1="210.0" x2="0" y2="316.0" gradientUnits="userSpaceOnUse" xlink:type="simple" xlink:actuate="onLoad" xlink:show="other" /><linearGradient xmlns:xlink="http://www.w3.org/1999/xlink" xlink:href="#linearGradientF8FBFEEDF5FCDEEDFAD4E7F8E2E5E9" id="linearGradientF8FBFEEDF5FCDEEDFAD4E7F8E2E5E9_1240614260" x1="0" y1="70.0" x2="0" y2="176.0" gradientUnits="userSpaceOnUse" xlink:type="simple" xlink:actuate="onLoad" xlink:show="other" /><linearGradient xmlns:xlink="http://www.w3.org/1999/xlink" xlink:href="#linearGradientFAFBFCFFFFCC" id="linearGradientFAFBFCFFFFCC_1719086319" x1="0" y1="180.0" x2="0" y2="240.0" gradientUnits="userSpaceOnUse" xlink:type="simple" xlink:actuate="onLoad" xlink:show="other" /></defs></svg>
