<?xml version="1.0" encoding="UTF-8"?>
<svg xmlns="http://www.w3.org/2000/svg" style="stroke-dasharray:none; shape-rendering:auto; font-family:'Arial'; text-rendering:auto; fill-opacity:1; color-interpolation:auto; color-rendering:auto; font-size:12; fill:black; stroke:black; image-rendering:auto; stroke-miterlimit:10; stroke-linecap:square; stroke-linejoin:miter; font-style:normal; stroke-width:1; stroke-dashoffset:0; font-weight:normal; stroke-opacity:1;" contentScriptType="text/ecmascript" preserveAspectRatio="xMidYMid meet" zoomAndPan="magnify" version="1.0" contentStyleType="text/css" xml:xlink="http://www.w3.org/1999/xlink" width="1081" height="591"><rect x="0" y="340" width="1081" height="133" ry="0" rx="0" style="stroke:#000000; fill:#ADC9AC" /><g componentSequence="90"><text x="-406" y="6" transform="rotate(270)" text-anchor="middle" style="font-weight:bold;font-size:10px;stroke:none; fill:#434343"><tspan dy="14" x="-406">Comprador</tspan></text></g><rect x="0" y="470" width="1081" height="121" ry="0" rx="0" style="stroke:#000000; fill:#82B0B7" /><g componentSequence="2"><text x="-530" y="6" transform="rotate(270)" text-anchor="middle" style="font-weight:bold;font-size:10px;stroke:none; fill:#434343"><tspan dy="14" x="-530">Recebimento</tspan></text></g><rect x="0" y="209" width="1080" height="132" ry="0" rx="0" style="stroke:#000000; fill:#D0DAAE" /><g componentSequence="17"><text x="-275" y="6" transform="rotate(270)" text-anchor="middle" style="font-weight:bold;font-size:10px;stroke:none; fill:#434343"><tspan dy="14" x="-275">Compras</tspan></text></g><rect x="0" y="0" width="1081" height="210" ry="0" rx="0" style="stroke:#000000; fill:#9FC1C6" /><g componentSequence="1"><text x="-105" y="6" transform="rotate(270)" text-anchor="middle" style="font-weight:bold;font-size:10px;stroke:none; fill:#434343"><tspan dy="14" x="-105">Vendas</tspan></text></g><g sequence="3"><ellipse cx="78" cy="107" rx="17" ry="17" stroke-width="1" style="fill:url(#linearGradient66FF6696FF96B6FFB6_1402075218);" stroke="336633" /></g><g sequence="10"><rect x="621" y="490" width="106" height="67" ry="5" rx="5" style="fill:url(#linearGradientF8FBFEEDF5FCDEEDFAD4E7F8E2E5E9_1565920336);" stroke="191970" /></g><g componentSequence="10"><text x="674" y="505" text-anchor="middle" style="font-weight:bold;font-size:10px;stroke:none; fill:#333399"><tspan dy="14" x="674">Liberação no</tspan><tspan dy="14" x="674">recebimento</tspan></text></g><g sequence="20"><rect x="131" y="237" width="106" height="80" ry="5" rx="5" style="fill:url(#linearGradientF8FBFEEDF5FCDEEDFAD4E7F8E2E5E9_1500091170);" stroke="191970" /></g><g componentSequence="20"><text x="184" y="252" text-anchor="middle" style="font-weight:bold;font-size:10px;stroke:none; fill:#333399"><tspan dy="14" x="184">Cadastro e envio</tspan><tspan dy="14" x="184">do código</tspan></text></g><g sequence="37"><rect x="231" y="379" width="106" height="67" ry="5" rx="5" style="fill:url(#linearGradientF8FBFEEDF5FCDEEDFAD4E7F8E2E5E9_476776043);" stroke="191970" /></g><g componentSequence="37"><text x="284" y="394" text-anchor="middle" style="font-weight:bold;font-size:10px;stroke:none; fill:#333399"><tspan dy="14" x="284">Compra do</tspan><tspan dy="14" x="284">material</tspan></text></g><g sequence="52"><ellipse cx="1028" cy="282" rx="17" ry="17" stroke-width="3" style="fill:url(#linearGradientFF6666FF9696FFB6B6_1088696028);" stroke="993333" /></g><g sequence="73"><rect x="641" y="90" width="106" height="67" ry="5" rx="5" style="fill:url(#linearGradientF8FBFEEDF5FCDEEDFAD4E7F8E2E5E9_767401500);" stroke="191970" /></g><g componentSequence="73"><text x="694" y="105" text-anchor="middle" style="font-weight:bold;font-size:10px;stroke:none; fill:#333399"><tspan dy="14" x="694">Colocação do</tspan><tspan dy="14" x="694">pedido</tspan></text></g><g sequence="75"><rect x="691" y="248" width="106" height="67" ry="5" rx="5" style="fill:url(#linearGradientF8FBFEEDF5FCDEEDFAD4E7F8E2E5E9_953739274);" stroke="191970" /></g><g componentSequence="75"><text x="744" y="263" text-anchor="middle" style="font-weight:bold;font-size:10px;stroke:none; fill:#333399"><tspan dy="14" x="744">Remoção do</tspan><tspan dy="14" x="744">rastreio</tspan></text></g><g sequence="81"><rect x="541" y="248" width="106" height="67" ry="5" rx="5" style="fill:url(#linearGradientF8FBFEEDF5FCDEEDFAD4E7F8E2E5E9_2084895012);" stroke="191970" /></g><g componentSequence="81"><text x="594" y="263" text-anchor="middle" style="font-weight:bold;font-size:10px;stroke:none; fill:#333399"><tspan dy="14" x="594">Follow-up do</tspan><tspan dy="14" x="594">material</tspan></text></g><g sequence="85"><rect x="781" y="120" width="106" height="67" ry="5" rx="5" style="fill:url(#linearGradientF8FBFEEDF5FCDEEDFAD4E7F8E2E5E9_498576062);" stroke="191970" /></g><g componentSequence="85"><text x="834" y="135" text-anchor="middle" style="font-weight:bold;font-size:10px;stroke:none; fill:#333399"><tspan dy="14" x="834">Vendedor libera</tspan><tspan dy="14" x="834">o pedido</tspan></text></g><g sequence="87"><rect x="861" y="255" width="106" height="54" ry="5" rx="5" style="fill:url(#linearGradientF8FBFEEDF5FCDEEDFAD4E7F8E2E5E9_1547410026);" stroke="191970" /></g><g componentSequence="87"><text x="914" y="271" text-anchor="middle" style="font-weight:bold;font-size:10px;stroke:none; fill:#333399"><tspan dy="14" x="914">Número NF</tspan></text></g><g sequence="92"><polygon points=" 421 386 451 356 481 386 451 416 421 386" style="fill:url(#linearGradientFAFBFCFFFFCC_601661791);" stroke="000000" /></g><g componentSequence="92"><text x="451" y="426" text-anchor="middle" style="font-weight:bold;font-size:10px;stroke:none; fill:#333399"><tspan dy="14" x="451">Continua</tspan><tspan dy="14" x="451">r</tspan><tspan dy="14" x="451">compra?</tspan></text></g><g sequence="96"><ellipse cx="528" cy="413" rx="17" ry="17" stroke-width="3" style="fill:url(#linearGradientFF6666FF9696FFB6B6_2013979097);" stroke="993333" /></g><g sequence="98"><polygon points=" 301 100 331 70 361 100 331 130 301 100" style="fill:url(#linearGradientFAFBFCFFFFCC_1481131580);" stroke="000000" /></g><g componentSequence="98"><text x="331" y="140" text-anchor="middle" style="font-weight:bold;font-size:10px;stroke:none; fill:#333399"><tspan dy="14" x="331">Dados</tspan><tspan dy="14" x="331">corretos</tspan><tspan dy="14" x="331">?</tspan></text></g><g sequence="102"><rect x="131" y="90" width="106" height="67" ry="5" rx="5" style="fill:url(#linearGradientF8FBFEEDF5FCDEEDFAD4E7F8E2E5E9_1486909333);" stroke="191970" /></g><g componentSequence="102"><text x="184" y="105" text-anchor="middle" style="font-weight:bold;font-size:10px;stroke:none; fill:#333399"><tspan dy="14" x="184">Correção dos</tspan><tspan dy="14" x="184">dados</tspan></text></g><g sequence="105"><rect x="391" y="80" width="105" height="80" ry="5" rx="5" style="fill:url(#linearGradientF8FBFEEDF5FCDEEDFAD4E7F8E2E5E9_506522503);" stroke="191970" /></g><g componentSequence="105"><text x="443" y="95" text-anchor="middle" style="font-weight:bold;font-size:10px;stroke:none; fill:#333399"><tspan dy="14" x="443">Conferência</tspan><tspan dy="14" x="443">cadastro –</tspan><tspan dy="14" x="443">Comprador</tspan></text></g><g sequence="107"><polygon points=" 541 100 571 70 601 100 571 130 541 100" style="fill:url(#linearGradientFAFBFCFFFFCC_832292273);" stroke="000000" /></g><g componentSequence="107"><text x="571" y="140" text-anchor="middle" style="font-weight:bold;font-size:10px;stroke:none; fill:#333399"><tspan dy="14" x="571">Conferê</tspan><tspan dy="14" x="571">ncia</tspan><tspan dy="14" x="571">apro...</tspan></text></g><g componentSequence="71"><text x="88" y="227" style="font-size:10px;font-weight:none;stroke:none; fill:#333399" text-anchor="left" /></g><g componentSequence="83"><text x="603" y="432" style="font-size:10px;font-weight:none;stroke:none; fill:#333399" text-anchor="left" /></g><g componentSequence="84"><text x="755" y="430" style="font-size:10px;font-weight:none;stroke:none; fill:#333399" text-anchor="left" /></g><g componentSequence="86"><text x="754" y="182" style="font-size:10px;font-weight:none;stroke:none; fill:#333399" text-anchor="left" /></g><g componentSequence="88"><text x="924" y="190" style="font-size:10px;font-weight:none;stroke:none; fill:#333399" text-anchor="left" /></g><g componentSequence="89"><text x="999" y="282" style="font-size:10px;font-weight:none;stroke:none; fill:#333399" text-anchor="left" /></g><g componentSequence="93"><text x="389" y="412" style="font-size:10px;font-weight:none;stroke:none; fill:#333399" text-anchor="left" /></g><g componentSequence="94"><text x="471" y="283" style="font-size:10px;font-weight:none;stroke:none; fill:#333399" text-anchor="left" /></g><g componentSequence="95"><text x="493" y="264" style="font-size:10px;font-weight:none;stroke:none; fill:#333399" text-anchor="left" /></g><g componentSequence="97"><text x="506" y="413" style="font-size:10px;font-weight:none;stroke:none; fill:#333399" text-anchor="left" /></g><g componentSequence="99"><text x="341" y="277" style="font-size:10px;font-weight:none;stroke:none; fill:#333399" text-anchor="left" /></g><g componentSequence="103"><text x="279" y="125" style="font-size:10px;font-weight:none;stroke:none; fill:#333399" text-anchor="left" /></g><g componentSequence="104"><text x="194" y="197" style="font-size:10px;font-weight:none;stroke:none; fill:#333399" text-anchor="left" /></g><g componentSequence="106"><text x="386" y="123" style="font-size:10px;font-weight:none;stroke:none; fill:#333399" text-anchor="left" /></g><g componentSequence="108"><text x="528" y="119" style="font-size:10px;font-weight:none;stroke:none; fill:#333399" text-anchor="left" /></g><g componentSequence="109"><text x="631" y="121" style="font-size:10px;font-weight:none;stroke:none; fill:#333399" text-anchor="left" /></g><g componentSequence="110"><text x="95" y="42" style="font-size:10px;font-weight:none;stroke:none; fill:#333399" text-anchor="left" /></g><path style="fill:none; stroke:#000000;stroke-width:1" d="M78.0 125.0 L78.0 277.0 L130.0 277.0" /><polygon style="fill:#000000; stroke:#000000;" points=" 120 272 130 277 120 282 122 277" /><path style="fill:none; stroke:#000000;stroke-width:1" d="M727.0 524.0 L746.0 525.0 L744.0 315.0" /><polygon style="fill:#000000; stroke:#000000;" points=" 739 325 744 315 749 325 744 323" /><path style="fill:none; stroke:#000000;stroke-width:1" d="M593.0 315.0 L593.0 521.0 L620.0 522.0" /><polygon style="fill:#000000; stroke:#000000;" points=" 610 517 620 522 610 527 612 522" /><path style="fill:none; stroke:#000000;stroke-width:1" d="M237.0 277.0 L331.0 277.0 L331.0 182.0" /><polygon style="fill:#000000; stroke:#000000;" points=" 326 192 331 182 336 192 331 190" /><path style="fill:none; stroke:#000000;stroke-width:1" d="M184.0 157.0 L184.0 236.0" /><polygon style="fill:#000000; stroke:#000000;" points=" 189 226 184 236 179 226 184 228" /><path style="fill:none; stroke:#000000;stroke-width:1" d="M571.0 69.0 L571.0 42.0 L36.0 42.0 L36.0 338.0 L184.0 338.0 L184.0 317.0" /><polygon style="fill:#000000; stroke:#000000;" points=" 179 327 184 317 189 327 184 325" /><path style="fill:none; stroke:#000000;stroke-width:1" d="M337.0 412.0 L420.0 412.0" /><polygon style="fill:#000000; stroke:#000000;" points=" 410 407 420 412 410 417 412 412" /><path style="fill:none; stroke:#000000;stroke-width:1" d="M694.0 157.0 L694.0 168.0 L284.0 354.0 L284.0 378.0" /><polygon style="fill:#000000; stroke:#000000;" points=" 289 368 284 378 279 368 284 370" /><path style="fill:none; stroke:#000000;stroke-width:1" d="M967.0 282.0 L1010.0 282.0" /><polygon style="fill:#000000; stroke:#000000;" points=" 1000 277 1010 282 1000 287 1002 282" /><path style="fill:none; stroke:#000000;stroke-width:1" d="M601.0 120.0 L640.0 121.0" /><polygon style="fill:#000000; stroke:#000000;" points=" 630 116 640 121 630 126 632 121" /><path style="fill:none; stroke:#000000;stroke-width:1" d="M744.0 247.0 L744.0 152.0 L780.0 152.0" /><polygon style="fill:#000000; stroke:#000000;" points=" 770 147 780 152 770 157 772 152" /><path style="fill:none; stroke:#000000;stroke-width:1" d="M452.0 355.0 L455.0 283.0 L540.0 282.0" /><polygon style="fill:#000000; stroke:#000000;" points=" 530 277 540 282 530 287 532 282" /><path style="fill:none; stroke:#000000;stroke-width:1" d="M887.0 152.0 L914.0 152.0 L914.0 254.0" /><polygon style="fill:#000000; stroke:#000000;" points=" 919 244 914 254 909 244 914 246" /><path style="fill:none; stroke:#000000;stroke-width:1" d="M481.0 412.0 L511.0 413.0" /><polygon style="fill:#000000; stroke:#000000;" points=" 501 408 511 413 501 418 503 413" /><path style="fill:none; stroke:#000000;stroke-width:1" d="M300.0 125.0 L237.0 124.0" /><polygon style="fill:#000000; stroke:#000000;" points=" 247 129 237 124 247 119 245 124" /><path style="fill:none; stroke:#000000;stroke-width:1" d="M361.0 124.0 L390.0 123.0" /><polygon style="fill:#000000; stroke:#000000;" points=" 380 118 390 123 380 128 382 123" /><path style="fill:none; stroke:#000000;stroke-width:1" d="M496.0 119.0 L540.0 119.0" /><polygon style="fill:#000000; stroke:#000000;" points=" 530 114 540 119 530 124 532 119" /><defs><linearGradient xmlns:xlink="http://www.w3.org/1999/xlink" xlink:href="#linearGradient66FF6696FF96B6FFB6" id="linearGradient66FF6696FF96B6FFB6_1402075218" x1="0" y1="90.0" x2="0" y2="125.0" gradientUnits="userSpaceOnUse" xlink:type="simple" xlink:actuate="onLoad" xlink:show="other" /><linearGradient id="linearGradient66FF6696FF96B6FFB6"><stop style="stop-color:#66FF66;stop-opacity:1;" offset="0.0" id="stop66FF66" /><stop style="stop-color:#96FF96;stop-opacity:1;" offset="0.5" id="stop96FF96" /><stop style="stop-color:#B6FFB6;stop-opacity:1;" offset="1.0" id="stopB6FFB6" /></linearGradient><linearGradient xmlns:xlink="http://www.w3.org/1999/xlink" xlink:href="#linearGradientF8FBFEEDF5FCDEEDFAD4E7F8E2E5E9" id="linearGradientF8FBFEEDF5FCDEEDFAD4E7F8E2E5E9_1565920336" x1="0" y1="490.0" x2="0" y2="596.0" gradientUnits="userSpaceOnUse" xlink:type="simple" xlink:actuate="onLoad" xlink:show="other" /><linearGradient id="linearGradientF8FBFEEDF5FCDEEDFAD4E7F8E2E5E9"><stop style="stop-color:#F8FBFE;stop-opacity:1;" offset="0.0" id="stopF8FBFE" /><stop style="stop-color:#EDF5FC;stop-opacity:1;" offset="0.25" id="stopEDF5FC" /><stop style="stop-color:#DEEDFA;stop-opacity:1;" offset="0.5" id="stopDEEDFA" /><stop style="stop-color:#D4E7F8;stop-opacity:1;" offset="0.75" id="stopD4E7F8" /><stop style="stop-color:#E2E5E9;stop-opacity:1;" offset="1.0" id="stopE2E5E9" /></linearGradient><linearGradient xmlns:xlink="http://www.w3.org/1999/xlink" xlink:href="#linearGradientF8FBFEEDF5FCDEEDFAD4E7F8E2E5E9" id="linearGradientF8FBFEEDF5FCDEEDFAD4E7F8E2E5E9_1500091170" x1="0" y1="237.0" x2="0" y2="343.0" gradientUnits="userSpaceOnUse" xlink:type="simple" xlink:actuate="onLoad" xlink:show="other" /><linearGradient xmlns:xlink="http://www.w3.org/1999/xlink" xlink:href="#linearGradientF8FBFEEDF5FCDEEDFAD4E7F8E2E5E9" id="linearGradientF8FBFEEDF5FCDEEDFAD4E7F8E2E5E9_476776043" x1="0" y1="379.0" x2="0" y2="485.0" gradientUnits="userSpaceOnUse" xlink:type="simple" xlink:actuate="onLoad" xlink:show="other" /><linearGradient xmlns:xlink="http://www.w3.org/1999/xlink" xlink:href="#linearGradientFF6666FF9696FFB6B6" id="linearGradientFF6666FF9696FFB6B6_1088696028" x1="0" y1="265.0" x2="0" y2="300.0" gradientUnits="userSpaceOnUse" xlink:type="simple" xlink:actuate="onLoad" xlink:show="other" /><linearGradient id="linearGradientFF6666FF9696FFB6B6"><stop style="stop-color:#FF6666;stop-opacity:1;" offset="0.0" id="stopFF6666" /><stop style="stop-color:#FF9696;stop-opacity:1;" offset="0.5" id="stopFF9696" /><stop style="stop-color:#FFB6B6;stop-opacity:1;" offset="1.0" id="stopFFB6B6" /></linearGradient><linearGradient xmlns:xlink="http://www.w3.org/1999/xlink" xlink:href="#linearGradientF8FBFEEDF5FCDEEDFAD4E7F8E2E5E9" id="linearGradientF8FBFEEDF5FCDEEDFAD4E7F8E2E5E9_767401500" x1="0" y1="90.0" x2="0" y2="196.0" gradientUnits="userSpaceOnUse" xlink:type="simple" xlink:actuate="onLoad" xlink:show="other" /><linearGradient xmlns:xlink="http://www.w3.org/1999/xlink" xlink:href="#linearGradientF8FBFEEDF5FCDEEDFAD4E7F8E2E5E9" id="linearGradientF8FBFEEDF5FCDEEDFAD4E7F8E2E5E9_953739274" x1="0" y1="248.0" x2="0" y2="354.0" gradientUnits="userSpaceOnUse" xlink:type="simple" xlink:actuate="onLoad" xlink:show="other" /><linearGradient xmlns:xlink="http://www.w3.org/1999/xlink" xlink:href="#linearGradientF8FBFEEDF5FCDEEDFAD4E7F8E2E5E9" id="linearGradientF8FBFEEDF5FCDEEDFAD4E7F8E2E5E9_2084895012" x1="0" y1="248.0" x2="0" y2="354.0" gradientUnits="userSpaceOnUse" xlink:type="simple" xlink:actuate="onLoad" xlink:show="other" /><linearGradient xmlns:xlink="http://www.w3.org/1999/xlink" xlink:href="#linearGradientF8FBFEEDF5FCDEEDFAD4E7F8E2E5E9" id="linearGradientF8FBFEEDF5FCDEEDFAD4E7F8E2E5E9_498576062" x1="0" y1="120.0" x2="0" y2="226.0" gradientUnits="userSpaceOnUse" xlink:type="simple" xlink:actuate="onLoad" xlink:show="other" /><linearGradient xmlns:xlink="http://www.w3.org/1999/xlink" xlink:href="#linearGradientF8FBFEEDF5FCDEEDFAD4E7F8E2E5E9" id="linearGradientF8FBFEEDF5FCDEEDFAD4E7F8E2E5E9_1547410026" x1="0" y1="255.0" x2="0" y2="361.0" gradientUnits="userSpaceOnUse" xlink:type="simple" xlink:actuate="onLoad" xlink:show="other" /><linearGradient xmlns:xlink="http://www.w3.org/1999/xlink" xlink:href="#linearGradientFAFBFCFFFFCC" id="linearGradientFAFBFCFFFFCC_601661791" x1="0" y1="356.0" x2="0" y2="416.0" gradientUnits="userSpaceOnUse" xlink:type="simple" xlink:actuate="onLoad" xlink:show="other" /><linearGradient id="linearGradientFAFBFCFFFFCC"><stop style="stop-color:#FAFBFC;stop-opacity:1;" offset="0.0" id="stopFAFBFC" /><stop style="stop-color:#FFFFCC;stop-opacity:1;" offset="1.0" id="stopFFFFCC" /></linearGradient><linearGradient xmlns:xlink="http://www.w3.org/1999/xlink" xlink:href="#linearGradientFF6666FF9696FFB6B6" id="linearGradientFF6666FF9696FFB6B6_2013979097" x1="0" y1="396.0" x2="0" y2="431.0" gradientUnits="userSpaceOnUse" xlink:type="simple" xlink:actuate="onLoad" xlink:show="other" /><linearGradient xmlns:xlink="http://www.w3.org/1999/xlink" xlink:href="#linearGradientFAFBFCFFFFCC" id="linearGradientFAFBFCFFFFCC_1481131580" x1="0" y1="70.0" x2="0" y2="130.0" gradientUnits="userSpaceOnUse" xlink:type="simple" xlink:actuate="onLoad" xlink:show="other" /><linearGradient xmlns:xlink="http://www.w3.org/1999/xlink" xlink:href="#linearGradientF8FBFEEDF5FCDEEDFAD4E7F8E2E5E9" id="linearGradientF8FBFEEDF5FCDEEDFAD4E7F8E2E5E9_1486909333" x1="0" y1="90.0" x2="0" y2="196.0" gradientUnits="userSpaceOnUse" xlink:type="simple" xlink:actuate="onLoad" xlink:show="other" /><linearGradient xmlns:xlink="http://www.w3.org/1999/xlink" xlink:href="#linearGradientF8FBFEEDF5FCDEEDFAD4E7F8E2E5E9" id="linearGradientF8FBFEEDF5FCDEEDFAD4E7F8E2E5E9_506522503" x1="0" y1="80.0" x2="0" y2="185.0" gradientUnits="userSpaceOnUse" xlink:type="simple" xlink:actuate="onLoad" xlink:show="other" /><linearGradient xmlns:xlink="http://www.w3.org/1999/xlink" xlink:href="#linearGradientFAFBFCFFFFCC" id="linearGradientFAFBFCFFFFCC_832292273" x1="0" y1="70.0" x2="0" y2="130.0" gradientUnits="userSpaceOnUse" xlink:type="simple" xlink:actuate="onLoad" xlink:show="other" /></defs></svg>
