<?xml version="1.0" encoding="UTF-8"?>
<svg xmlns="http://www.w3.org/2000/svg" style="stroke-dasharray:none; shape-rendering:auto; font-family:'Arial'; text-rendering:auto; fill-opacity:1; color-interpolation:auto; color-rendering:auto; font-size:12; fill:black; stroke:black; image-rendering:auto; stroke-miterlimit:10; stroke-linecap:square; stroke-linejoin:miter; font-style:normal; stroke-width:1; stroke-dashoffset:0; font-weight:normal; stroke-opacity:1;" contentScriptType="text/ecmascript" preserveAspectRatio="xMidYMid meet" zoomAndPan="magnify" version="1.0" contentStyleType="text/css" xml:xlink="http://www.w3.org/1999/xlink" width="1521" height="1197"><rect x="0" y="1046" width="1060" height="150" ry="0" rx="0" style="stroke:#000000; fill:#ADC9AC" /><g componentSequence="36"><text x="-1121" y="7" transform="rotate(270)" text-anchor="middle" style="font-weight:bold;font-size:10px;stroke:none; fill:#434343"><tspan dy="14" x="-1121">Via...</tspan></text></g><rect x="0" y="897" width="1060" height="150" ry="0" rx="0" style="stroke:#000000; fill:#B3C4B9" /><g componentSequence="35"><text x="-972" y="7" transform="rotate(270)" text-anchor="middle" style="font-weight:bold;font-size:10px;stroke:none; fill:#434343"><tspan dy="14" x="-972">Noite</tspan></text></g><rect x="0" y="718" width="1060" height="180" ry="0" rx="0" style="stroke:#000000; fill:#BDC8AE" /><g componentSequence="34"><text x="-808" y="7" transform="rotate(270)" text-anchor="middle" style="font-weight:bold;font-size:10px;stroke:none; fill:#434343"><tspan dy="14" x="-808">Fio...</tspan></text></g><rect x="1059" y="0" width="462" height="1197" ry="0" rx="0" style="stroke:#000000; fill:#D0DAAE" /><g componentSequence="33"><text x="-598" y="1066" transform="rotate(270)" text-anchor="middle" style="font-weight:bold;font-size:10px;stroke:none; fill:#434343"><tspan dy="14" x="-598">Controladoria</tspan></text></g><rect x="0" y="527" width="1060" height="194" ry="0" rx="0" style="stroke:#000000; fill:#ADC9AC" /><g componentSequence="3"><text x="-624" y="7" transform="rotate(270)" text-anchor="middle" style="font-weight:bold;font-size:10px;stroke:none; fill:#434343"><tspan dy="14" x="-624">Saí...</tspan></text></g><rect x="0" y="220" width="1060" height="308" ry="0" rx="0" style="stroke:#000000; fill:#96B4C0" /><g componentSequence="2"><text x="-374" y="7" transform="rotate(270)" text-anchor="middle" style="font-weight:bold;font-size:10px;stroke:none; fill:#434343"><tspan dy="14" x="-374">Est...</tspan></text></g><rect x="0" y="0" width="1060" height="221" ry="0" rx="0" style="stroke:#000000; fill:#82B0B7" /><g componentSequence="1"><text x="-110" y="7" transform="rotate(270)" text-anchor="middle" style="font-weight:bold;font-size:10px;stroke:none; fill:#434343"><tspan dy="14" x="-110">Rec...</tspan></text></g><g sequence="4"><polygon points=" 1150 430 1180 400 1210 430 1180 460 1150 430" style="fill:url(#linearGradientFAFBFCFFFFCC_424124508);" stroke="000000" /></g><path style="fill:none; stroke-width:6; stroke:#000000;" d="M1170.0 430.0 L1190.0 430.0" /><path style="fill:none; stroke-width:6; stroke:#000000;" d="M1180.0 420.0 L1180.0 440.0" /><g componentSequence="4"><text x="1180" y="463" text-anchor="middle" style="font-weight:bold;font-size:10px;stroke:none; fill:#333399"><tspan dy="14" x="1180">Join</tspan></text></g><g sequence="13"><ellipse cx="77" cy="112" rx="17" ry="17" stroke-width="1" style="fill:url(#linearGradient66FF6696FF96B6FFB6_394284292);" stroke="336633" /></g><g sequence="13"><ellipse cx="77" cy="112" rx="12" ry="12" stroke-width="1" style="stroke:#000000; fill:none" /></g><g sequence="13"><path style="fill:none; stroke-width:1; stroke:#000000;" d="M66.0 112.0 L72.0 112.0" /></g><g sequence="13"><path style="fill:none; stroke-width:1; stroke:#000000;" d="M83.0 112.0 L89.0 112.0" /></g><g sequence="13"><path style="fill:none; stroke-width:1; stroke:#000000;" d="M77.0 101.0 L77.0 107.0" /></g><g sequence="13"><path style="fill:none; stroke-width:1; stroke:#000000;" d="M77.0 118.0 L77.0 124.0" /></g><g sequence="13"><ellipse cx="77" cy="112" rx="1" ry="1" stroke-width="1" style="stroke:#000000; fill:#000000" /></g><g sequence="13"><path style="fill:none; stroke-width:1; stroke:#000000;" d="M77.0 112.0 L85.0 107.0" /></g><g sequence="13"><path style="fill:none; stroke-width:1; stroke:#000000;" d="M77.0 112.0 L71.0 108.0" /></g><g sequence="13"><path style="fill:none; stroke-width:1; stroke:#000000;" d="M81.0 105.0 L83.0 102.0" /></g><g sequence="13"><path style="fill:none; stroke-width:1; stroke:#000000;" d="M84.0 108.0 L87.0 106.0" /></g><g sequence="13"><path style="fill:none; stroke-width:1; stroke:#000000;" d="M84.0 116.0 L87.0 118.0" /></g><g sequence="13"><path style="fill:none; stroke-width:1; stroke:#000000;" d="M81.0 119.0 L83.0 122.0" /></g><g sequence="13"><path style="fill:none; stroke-width:1; stroke:#000000;" d="M73.0 119.0 L71.0 122.0" /></g><g sequence="13"><path style="fill:none; stroke-width:1; stroke:#000000;" d="M70.0 116.0 L67.0 118.0" /></g><g sequence="13"><path style="fill:none; stroke-width:1; stroke:#000000;" d="M73.0 105.0 L71.0 102.0" /></g><g sequence="13"><path style="fill:none; stroke-width:1; stroke:#000000;" d="M70.0 108.0 L67.0 106.0" /></g><g sequence="15"><polygon points=" 160 99 190 69 220 99 190 129 160 99" style="fill:url(#linearGradientFAFBFCFFFFCC_331336492);" stroke="000000" /></g><path style="fill:none; stroke-width:6; stroke:#000000;" d="M180.0 99.0 L200.0 99.0" /><path style="fill:none; stroke-width:6; stroke:#000000;" d="M190.0 89.0 L190.0 109.0" /><g componentSequence="15"><text x="190" y="132" text-anchor="middle" style="font-weight:bold;font-size:10px;stroke:none; fill:#333399"><tspan dy="14" x="190">Fork</tspan></text></g><g sequence="17"><ellipse cx="1457" cy="447" rx="17" ry="17" stroke-width="3" style="fill:url(#linearGradientFF6666FF9696FFB6B6_1455245119);" stroke="993333" /></g><g sequence="37"><rect x="310" y="71" width="106" height="84" ry="5" rx="5" style="fill:url(#linearGradientF8FBFEEDF5FCDEEDFAD4E7F8E2E5E9_1918650612);" stroke="191970" /></g><g componentSequence="37"><text x="363" y="86" text-anchor="middle" style="font-weight:bold;font-size:10px;stroke:none; fill:#333399"><tspan dy="14" x="363">Revisar paletes</tspan><tspan dy="14" x="363">não</tspan><tspan dy="14" x="363">movimentados</tspan></text></g><g sequence="39"><rect x="500" y="71" width="106" height="84" ry="5" rx="5" style="fill:url(#linearGradientF8FBFEEDF5FCDEEDFAD4E7F8E2E5E9_1738658774);" stroke="191970" /></g><g componentSequence="39"><text x="553" y="86" text-anchor="middle" style="font-weight:bold;font-size:10px;stroke:none; fill:#333399"><tspan dy="14" x="553">Revisar</tspan><tspan dy="14" x="553">recebimentos</tspan><tspan dy="14" x="553">em aberto</tspan></text></g><g sequence="41"><rect x="690" y="64" width="106" height="98" ry="5" rx="5" style="fill:url(#linearGradientF8FBFEEDF5FCDEEDFAD4E7F8E2E5E9_178946725);" stroke="191970" /></g><g componentSequence="41"><text x="743" y="79" text-anchor="middle" style="font-weight:bold;font-size:10px;stroke:none; fill:#333399"><tspan dy="14" x="743">Revisar</tspan><tspan dy="14" x="743">devoluções de</tspan><tspan dy="14" x="743">clientes em</tspan><tspan dy="14" x="743">aberto</tspan></text></g><g sequence="44"><rect x="1280" y="410" width="106" height="70" ry="5" rx="5" style="fill:url(#linearGradientF8FBFEEDF5FCDEEDFAD4E7F8E2E5E9_915585136);" stroke="191970" /></g><g componentSequence="44"><text x="1333" y="425" text-anchor="middle" style="font-weight:bold;font-size:10px;stroke:none; fill:#333399"><tspan dy="14" x="1333">Confere do</tspan><tspan dy="14" x="1333">Adriano</tspan></text></g><g sequence="47"><rect x="310" y="260" width="106" height="70" ry="5" rx="5" style="fill:url(#linearGradientF8FBFEEDF5FCDEEDFAD4E7F8E2E5E9_647585214);" stroke="191970" /></g><g componentSequence="47"><text x="363" y="275" text-anchor="middle" style="font-weight:bold;font-size:10px;stroke:none; fill:#333399"><tspan dy="14" x="363">Revisar se foi</tspan><tspan dy="14" x="363">feito inventário</tspan></text></g><g sequence="49"><rect x="480" y="250" width="106" height="84" ry="5" rx="5" style="fill:url(#linearGradientF8FBFEEDF5FCDEEDFAD4E7F8E2E5E9_1330583000);" stroke="191970" /></g><g componentSequence="49"><text x="533" y="265" text-anchor="middle" style="font-weight:bold;font-size:10px;stroke:none; fill:#333399"><tspan dy="14" x="533">Revisar os itens</tspan><tspan dy="14" x="533">cortados no dia</tspan><tspan dy="14" x="533">anterior</tspan></text></g><g sequence="53"><rect x="650" y="260" width="106" height="70" ry="5" rx="5" style="fill:url(#linearGradientF8FBFEEDF5FCDEEDFAD4E7F8E2E5E9_296618302);" stroke="191970" /></g><g componentSequence="53"><text x="703" y="275" text-anchor="middle" style="font-weight:bold;font-size:10px;stroke:none; fill:#333399"><tspan dy="14" x="703">Revisar WMS x</tspan><tspan dy="14" x="703">WINTHOR</tspan></text></g><g sequence="55"><rect x="860" y="240" width="106" height="112" ry="5" rx="5" style="fill:url(#linearGradientF8FBFEEDF5FCDEEDFAD4E7F8E2E5E9_853303875);" stroke="191970" /></g><g componentSequence="55"><text x="913" y="255" text-anchor="middle" style="font-weight:bold;font-size:10px;stroke:none; fill:#333399"><tspan dy="14" x="913">Revisar erros</tspan><tspan dy="14" x="913">operação</tspan><tspan dy="14" x="913">ocorrências/con</tspan><tspan dy="14" x="913">ferências/carreg</tspan><tspan dy="14" x="913">amento</tspan></text></g><g sequence="58"><rect x="340" y="410" width="106" height="98" ry="5" rx="5" style="fill:url(#linearGradientF8FBFEEDF5FCDEEDFAD4E7F8E2E5E9_1589951755);" stroke="191970" /></g><g componentSequence="58"><text x="393" y="425" text-anchor="middle" style="font-weight:bold;font-size:10px;stroke:none; fill:#333399"><tspan dy="14" x="393">Limpeza</tspan><tspan dy="14" x="393">empilhadeiras,</tspan><tspan dy="14" x="393">paleteiras e</tspan><tspan dy="14" x="393">varredeiras</tspan></text></g><g sequence="62"><rect x="310" y="570" width="106" height="84" ry="5" rx="5" style="fill:url(#linearGradientF8FBFEEDF5FCDEEDFAD4E7F8E2E5E9_1762820830);" stroke="191970" /></g><g componentSequence="62"><text x="363" y="585" text-anchor="middle" style="font-weight:bold;font-size:10px;stroke:none; fill:#333399"><tspan dy="14" x="363">Revisar fotos</tspan><tspan dy="14" x="363">canhotos do dia</tspan></text></g><g sequence="66"><rect x="450" y="570" width="106" height="84" ry="5" rx="5" style="fill:url(#linearGradientF8FBFEEDF5FCDEEDFAD4E7F8E2E5E9_143954235);" stroke="191970" /></g><g componentSequence="66"><text x="503" y="585" text-anchor="middle" style="font-weight:bold;font-size:10px;stroke:none; fill:#333399"><tspan dy="14" x="503">Check list</tspan><tspan dy="14" x="503">máquina de</tspan><tspan dy="14" x="503">costura</tspan></text></g><g sequence="68"><rect x="600" y="570" width="106" height="84" ry="5" rx="5" style="fill:url(#linearGradientF8FBFEEDF5FCDEEDFAD4E7F8E2E5E9_1502290960);" stroke="191970" /></g><g componentSequence="68"><text x="653" y="585" text-anchor="middle" style="font-weight:bold;font-size:10px;stroke:none; fill:#333399"><tspan dy="14" x="653">Revisar</tspan><tspan dy="14" x="653">ocorrências</tspan><tspan dy="14" x="653">conferência</tspan></text></g><g sequence="72"><rect x="740" y="570" width="106" height="84" ry="5" rx="5" style="fill:url(#linearGradientF8FBFEEDF5FCDEEDFAD4E7F8E2E5E9_584906447);" stroke="191970" /></g><g componentSequence="72"><text x="793" y="585" text-anchor="middle" style="font-weight:bold;font-size:10px;stroke:none; fill:#333399"><tspan dy="14" x="793">Mercadoria</tspan><tspan dy="14" x="793">parada nas</tspan><tspan dy="14" x="793">consolidações</tspan></text></g><g sequence="74"><rect x="890" y="580" width="106" height="70" ry="5" rx="5" style="fill:url(#linearGradientF8FBFEEDF5FCDEEDFAD4E7F8E2E5E9_1596298296);" stroke="191970" /></g><g componentSequence="74"><text x="943" y="595" text-anchor="middle" style="font-weight:bold;font-size:10px;stroke:none; fill:#333399"><tspan dy="14" x="943">Sobras de</tspan><tspan dy="14" x="943">separação</tspan></text></g><g sequence="78"><rect x="270" y="761" width="106" height="98" ry="5" rx="5" style="fill:url(#linearGradientF8FBFEEDF5FCDEEDFAD4E7F8E2E5E9_1939131310);" stroke="191970" /></g><g componentSequence="78"><text x="323" y="776" text-anchor="middle" style="font-weight:bold;font-size:10px;stroke:none; fill:#333399"><tspan dy="14" x="323">Inventário</tspan><tspan dy="14" x="323">bobinas e</tspan><tspan dy="14" x="323">controle de lotes</tspan></text></g><g sequence="80"><rect x="470" y="768" width="106" height="84" ry="5" rx="5" style="fill:url(#linearGradientF8FBFEEDF5FCDEEDFAD4E7F8E2E5E9_1941953128);" stroke="191970" /></g><g componentSequence="80"><text x="523" y="783" text-anchor="middle" style="font-weight:bold;font-size:10px;stroke:none; fill:#333399"><tspan dy="14" x="523">Check list</tspan><tspan dy="14" x="523">máquina costura</tspan></text></g><g sequence="82"><rect x="650" y="768" width="106" height="84" ry="5" rx="5" style="fill:url(#linearGradientF8FBFEEDF5FCDEEDFAD4E7F8E2E5E9_915419230);" stroke="191970" /></g><g componentSequence="82"><text x="703" y="783" text-anchor="middle" style="font-weight:bold;font-size:10px;stroke:none; fill:#333399"><tspan dy="14" x="703">Check list</tspan><tspan dy="14" x="703">máquinas de</tspan><tspan dy="14" x="703">cabo</tspan></text></g><g sequence="85"><rect x="210" y="925" width="106" height="98" ry="5" rx="5" style="fill:url(#linearGradientF8FBFEEDF5FCDEEDFAD4E7F8E2E5E9_1164437216);" stroke="191970" /></g><g componentSequence="85"><text x="263" y="940" text-anchor="middle" style="font-weight:bold;font-size:10px;stroke:none; fill:#333399"><tspan dy="14" x="263">Reunião diária</tspan><tspan dy="14" x="263">sobre</tspan><tspan dy="14" x="263">Ocorrências de</tspan><tspan dy="14" x="263">carregamento</tspan></text></g><g sequence="87"><rect x="440" y="932" width="106" height="84" ry="5" rx="5" style="fill:url(#linearGradientF8FBFEEDF5FCDEEDFAD4E7F8E2E5E9_284925017);" stroke="191970" /></g><g componentSequence="87"><text x="493" y="947" text-anchor="middle" style="font-weight:bold;font-size:10px;stroke:none; fill:#333399"><tspan dy="14" x="493">Check list final</tspan><tspan dy="14" x="493">de fechamento</tspan><tspan dy="14" x="493">do dia</tspan></text></g><g sequence="90"><rect x="140" y="1088" width="106" height="70" ry="5" rx="5" style="fill:url(#linearGradientF8FBFEEDF5FCDEEDFAD4E7F8E2E5E9_488270004);" stroke="191970" /></g><g componentSequence="90"><text x="193" y="1103" text-anchor="middle" style="font-weight:bold;font-size:10px;stroke:none; fill:#333399"><tspan dy="14" x="193">Revisar fotos</tspan><tspan dy="14" x="193">canhoto do dia</tspan></text></g><g sequence="95"><rect x="870" y="71" width="106" height="84" ry="5" rx="5" style="fill:url(#linearGradientF8FBFEEDF5FCDEEDFAD4E7F8E2E5E9_717203849);" stroke="191970" /></g><g componentSequence="95"><text x="923" y="86" text-anchor="middle" style="font-weight:bold;font-size:10px;stroke:none; fill:#333399"><tspan dy="14" x="923">Limpeza do</tspan><tspan dy="14" x="923">pavilhão</tspan><tspan dy="14" x="923">19/20/21</tspan></text></g><g sequence="107"><rect x="830" y="768" width="106" height="84" ry="5" rx="5" style="fill:url(#linearGradientF8FBFEEDF5FCDEEDFAD4E7F8E2E5E9_1351949016);" stroke="191970" /></g><g componentSequence="107"><text x="883" y="783" text-anchor="middle" style="font-weight:bold;font-size:10px;stroke:none; fill:#333399"><tspan dy="14" x="883">Revisar limpeza</tspan><tspan dy="14" x="883">Pav 8/9/10/11</tspan></text></g><g componentSequence="38"><text x="275" y="113" style="font-size:10px;font-weight:none;stroke:none; fill:#333399" text-anchor="left" /></g><g componentSequence="40"><text x="468" y="113" style="font-size:10px;font-weight:none;stroke:none; fill:#333399" text-anchor="left" /></g><g componentSequence="42"><text x="658" y="113" style="font-size:10px;font-weight:none;stroke:none; fill:#333399" text-anchor="left" /></g><g componentSequence="45"><text x="1255" y="444" style="font-size:10px;font-weight:none;stroke:none; fill:#333399" text-anchor="left" /></g><g componentSequence="46"><text x="1423" y="447" style="font-size:10px;font-weight:none;stroke:none; fill:#333399" text-anchor="left" /></g><g componentSequence="48"><text x="285" y="202" style="font-size:10px;font-weight:none;stroke:none; fill:#333399" text-anchor="left" /></g><g componentSequence="50"><text x="458" y="294" style="font-size:10px;font-weight:none;stroke:none; fill:#333399" text-anchor="left" /></g><g componentSequence="59"><text x="671" y="389" style="font-size:10px;font-weight:none;stroke:none; fill:#333399" text-anchor="left" /></g><g componentSequence="61"><text x="808" y="451" style="font-size:10px;font-weight:none;stroke:none; fill:#333399" text-anchor="left" /></g><g componentSequence="63"><text x="287" y="363" style="font-size:10px;font-weight:none;stroke:none; fill:#333399" text-anchor="left" /></g><g componentSequence="69"><text x="588" y="612" style="font-size:10px;font-weight:none;stroke:none; fill:#333399" text-anchor="left" /></g><g componentSequence="79"><text x="266" y="459" style="font-size:10px;font-weight:none;stroke:none; fill:#333399" text-anchor="left" /></g><g componentSequence="81"><text x="433" y="810" style="font-size:10px;font-weight:none;stroke:none; fill:#333399" text-anchor="left" /></g><g componentSequence="83"><text x="623" y="810" style="font-size:10px;font-weight:none;stroke:none; fill:#333399" text-anchor="left" /></g><g componentSequence="86"><text x="236" y="541" style="font-size:10px;font-weight:none;stroke:none; fill:#333399" text-anchor="left" /></g><g componentSequence="88"><text x="388" y="974" style="font-size:10px;font-weight:none;stroke:none; fill:#333399" text-anchor="left" /></g><g componentSequence="89"><text x="1040" y="961" style="font-size:10px;font-weight:none;stroke:none; fill:#333399" text-anchor="left" /></g><g componentSequence="91"><text x="201" y="622" style="font-size:10px;font-weight:none;stroke:none; fill:#333399" text-anchor="left" /></g><g componentSequence="96"><text x="843" y="113" style="font-size:10px;font-weight:none;stroke:none; fill:#333399" text-anchor="left" /></g><g componentSequence="97"><text x="1189" y="155" style="font-size:10px;font-weight:none;stroke:none; fill:#333399" text-anchor="left" /></g><g componentSequence="98"><text x="628" y="294" style="font-size:10px;font-weight:none;stroke:none; fill:#333399" text-anchor="left" /></g><g componentSequence="99"><text x="818" y="295" style="font-size:10px;font-weight:none;stroke:none; fill:#333399" text-anchor="left" /></g><g componentSequence="100"><text x="443" y="612" style="font-size:10px;font-weight:none;stroke:none; fill:#333399" text-anchor="left" /></g><g componentSequence="101"><text x="733" y="612" style="font-size:10px;font-weight:none;stroke:none; fill:#333399" text-anchor="left" /></g><g componentSequence="103"><text x="995" y="1123" style="font-size:10px;font-weight:none;stroke:none; fill:#333399" text-anchor="left" /></g><g componentSequence="104"><text x="137" y="112" style="font-size:10px;font-weight:none;stroke:none; fill:#333399" text-anchor="left" /></g><g componentSequence="105"><text x="878" y="614" style="font-size:10px;font-weight:none;stroke:none; fill:#333399" text-anchor="left" /></g><g componentSequence="106"><text x="1094" y="571" style="font-size:10px;font-weight:none;stroke:none; fill:#333399" text-anchor="left" /></g><g componentSequence="108"><text x="803" y="810" style="font-size:10px;font-weight:none;stroke:none; fill:#333399" text-anchor="left" /></g><g componentSequence="109"><text x="1087" y="692" style="font-size:10px;font-weight:none;stroke:none; fill:#333399" text-anchor="left" /></g><path style="fill:none; stroke:#000000;stroke-width:1" d="M1210.0 444.0 L1279.0 444.0" /><polygon style="fill:#000000; stroke:#000000;" points=" 1269 439 1279 444 1269 449 1271 444" /><path style="fill:none; stroke:#000000;stroke-width:1" d="M546.0 974.0 L1026.0 974.0 L1167.0 488.0" /><polygon style="fill:#000000; stroke:#000000;" points=" 1159 496 1167 488 1169 499 1165 496" /><path style="fill:none; stroke:#000000;stroke-width:1" d="M976.0 113.0 L1179.0 114.0 L1179.0 399.0" /><polygon style="fill:#000000; stroke:#000000;" points=" 1184 389 1179 399 1174 389 1179 391" /><path style="fill:none; stroke:#000000;stroke-width:1" d="M446.0 458.0 L1149.0 444.0" /><polygon style="fill:#000000; stroke:#000000;" points=" 1139 439 1149 444 1139 449 1141 444" /><path style="fill:none; stroke:#000000;stroke-width:1" d="M246.0 1123.0 L1083.0 1123.0 L1173.0 488.0" /><polygon style="fill:#000000; stroke:#000000;" points=" 1167 497 1173 488 1177 499 1172 496" /><path style="fill:none; stroke:#000000;stroke-width:1" d="M996.0 614.0 L1053.0 613.0 L1149.0 484.0" /><polygon style="fill:#000000; stroke:#000000;" points=" 1139 489 1149 484 1147 495 1144 490" /><path style="fill:none; stroke:#000000;stroke-width:1" d="M936.0 810.0 L1028.0 810.0 L1161.0 488.0" /><polygon style="fill:#000000; stroke:#000000;" points=" 1153 495 1161 488 1162 499 1158 495" /><path style="fill:none; stroke:#000000;stroke-width:1" d="M94.0 112.0 L159.0 112.0" /><polygon style="fill:#000000; stroke:#000000;" points=" 149 107 159 112 149 117 151 112" /><path style="fill:none; stroke:#000000;stroke-width:1" d="M220.0 113.0 L309.0 113.0" /><polygon style="fill:#000000; stroke:#000000;" points=" 299 108 309 113 299 118 301 113" /><path style="fill:none; stroke:#000000;stroke-width:1" d="M220.0 145.0 L329.0 259.0" /><polygon style="fill:#000000; stroke:#000000;" points=" 326 248 329 259 318 255 323 253" /><path style="fill:none; stroke:#000000;stroke-width:1" d="M205.0 157.0 L348.0 569.0" /><polygon style="fill:#000000; stroke:#000000;" points=" 349 558 348 569 340 561 345 561" /><path style="fill:none; stroke:#000000;stroke-width:1" d="M198.0 157.0 L313.0 760.0" /><polygon style="fill:#000000; stroke:#000000;" points=" 316 749 313 760 306 751 312 752" /><path style="fill:none; stroke:#000000;stroke-width:1" d="M193.0 157.0 L258.0 924.0" /><polygon style="fill:#000000; stroke:#000000;" points=" 262 914 258 924 252 914 257 916" /><path style="fill:none; stroke:#000000;stroke-width:1" d="M190.0 157.0 L192.0 1087.0" /><polygon style="fill:#000000; stroke:#000000;" points=" 197 1077 192 1087 187 1077 192 1079" /><path style="fill:none; stroke:#000000;stroke-width:1" d="M1386.0 446.0 L1440.0 447.0" /><polygon style="fill:#000000; stroke:#000000;" points=" 1430 442 1440 447 1430 452 1432 447" /><path style="fill:none; stroke:#000000;stroke-width:1" d="M416.0 113.0 L499.0 113.0" /><polygon style="fill:#000000; stroke:#000000;" points=" 489 108 499 113 489 118 491 113" /><path style="fill:none; stroke:#000000;stroke-width:1" d="M606.0 113.0 L689.0 113.0" /><polygon style="fill:#000000; stroke:#000000;" points=" 679 108 689 113 679 118 681 113" /><path style="fill:none; stroke:#000000;stroke-width:1" d="M796.0 113.0 L869.0 113.0" /><polygon style="fill:#000000; stroke:#000000;" points=" 859 108 869 113 859 118 861 113" /><path style="fill:none; stroke:#000000;stroke-width:1" d="M416.0 294.0 L479.0 293.0" /><polygon style="fill:#000000; stroke:#000000;" points=" 469 288 479 293 469 298 471 293" /><path style="fill:none; stroke:#000000;stroke-width:1" d="M586.0 293.0 L649.0 294.0" /><polygon style="fill:#000000; stroke:#000000;" points=" 639 289 649 294 639 299 641 294" /><path style="fill:none; stroke:#000000;stroke-width:1" d="M756.0 295.0 L859.0 295.0" /><polygon style="fill:#000000; stroke:#000000;" points=" 849 290 859 295 849 300 851 295" /><path style="fill:none; stroke:#000000;stroke-width:1" d="M912.0 352.0 L912.0 389.0 L654.0 389.0 L392.0 389.0 L392.0 409.0" /><polygon style="fill:#000000; stroke:#000000;" points=" 397 399 392 409 387 399 392 401" /><path style="fill:none; stroke:#000000;stroke-width:1" d="M416.0 612.0 L449.0 612.0" /><polygon style="fill:#000000; stroke:#000000;" points=" 439 607 449 612 439 617 441 612" /><path style="fill:none; stroke:#000000;stroke-width:1" d="M556.0 612.0 L599.0 612.0" /><polygon style="fill:#000000; stroke:#000000;" points=" 589 607 599 612 589 617 591 612" /><path style="fill:none; stroke:#000000;stroke-width:1" d="M706.0 612.0 L739.0 612.0" /><polygon style="fill:#000000; stroke:#000000;" points=" 729 607 739 612 729 617 731 612" /><path style="fill:none; stroke:#000000;stroke-width:1" d="M846.0 613.0 L889.0 614.0" /><polygon style="fill:#000000; stroke:#000000;" points=" 879 609 889 614 879 619 881 614" /><path style="fill:none; stroke:#000000;stroke-width:1" d="M376.0 810.0 L469.0 810.0" /><polygon style="fill:#000000; stroke:#000000;" points=" 459 805 469 810 459 815 461 810" /><path style="fill:none; stroke:#000000;stroke-width:1" d="M576.0 810.0 L649.0 810.0" /><polygon style="fill:#000000; stroke:#000000;" points=" 639 805 649 810 639 815 641 810" /><path style="fill:none; stroke:#000000;stroke-width:1" d="M756.0 810.0 L829.0 810.0" /><polygon style="fill:#000000; stroke:#000000;" points=" 819 805 829 810 819 815 821 810" /><path style="fill:none; stroke:#000000;stroke-width:1" d="M316.0 974.0 L439.0 974.0" /><polygon style="fill:#000000; stroke:#000000;" points=" 429 969 439 974 429 979 431 974" /><defs><linearGradient xmlns:xlink="http://www.w3.org/1999/xlink" xlink:href="#linearGradientFAFBFCFFFFCC" id="linearGradientFAFBFCFFFFCC_424124508" x1="0" y1="400.0" x2="0" y2="460.0" gradientUnits="userSpaceOnUse" xlink:type="simple" xlink:actuate="onLoad" xlink:show="other" /><linearGradient id="linearGradientFAFBFCFFFFCC"><stop style="stop-color:#FAFBFC;stop-opacity:1;" offset="0.0" id="stopFAFBFC" /><stop style="stop-color:#FFFFCC;stop-opacity:1;" offset="1.0" id="stopFFFFCC" /></linearGradient><linearGradient xmlns:xlink="http://www.w3.org/1999/xlink" xlink:href="#linearGradient66FF6696FF96B6FFB6" id="linearGradient66FF6696FF96B6FFB6_394284292" x1="0" y1="95.0" x2="0" y2="130.0" gradientUnits="userSpaceOnUse" xlink:type="simple" xlink:actuate="onLoad" xlink:show="other" /><linearGradient id="linearGradient66FF6696FF96B6FFB6"><stop style="stop-color:#66FF66;stop-opacity:1;" offset="0.0" id="stop66FF66" /><stop style="stop-color:#96FF96;stop-opacity:1;" offset="0.5" id="stop96FF96" /><stop style="stop-color:#B6FFB6;stop-opacity:1;" offset="1.0" id="stopB6FFB6" /></linearGradient><linearGradient xmlns:xlink="http://www.w3.org/1999/xlink" xlink:href="#linearGradientFAFBFCFFFFCC" id="linearGradientFAFBFCFFFFCC_331336492" x1="0" y1="69.0" x2="0" y2="129.0" gradientUnits="userSpaceOnUse" xlink:type="simple" xlink:actuate="onLoad" xlink:show="other" /><linearGradient xmlns:xlink="http://www.w3.org/1999/xlink" xlink:href="#linearGradientFF6666FF9696FFB6B6" id="linearGradientFF6666FF9696FFB6B6_1455245119" x1="0" y1="430.0" x2="0" y2="465.0" gradientUnits="userSpaceOnUse" xlink:type="simple" xlink:actuate="onLoad" xlink:show="other" /><linearGradient id="linearGradientFF6666FF9696FFB6B6"><stop style="stop-color:#FF6666;stop-opacity:1;" offset="0.0" id="stopFF6666" /><stop style="stop-color:#FF9696;stop-opacity:1;" offset="0.5" id="stopFF9696" /><stop style="stop-color:#FFB6B6;stop-opacity:1;" offset="1.0" id="stopFFB6B6" /></linearGradient><linearGradient xmlns:xlink="http://www.w3.org/1999/xlink" xlink:href="#linearGradientF8FBFEEDF5FCDEEDFAD4E7F8E2E5E9" id="linearGradientF8FBFEEDF5FCDEEDFAD4E7F8E2E5E9_1918650612" x1="0" y1="71.0" x2="0" y2="177.0" gradientUnits="userSpaceOnUse" xlink:type="simple" xlink:actuate="onLoad" xlink:show="other" /><linearGradient id="linearGradientF8FBFEEDF5FCDEEDFAD4E7F8E2E5E9"><stop style="stop-color:#F8FBFE;stop-opacity:1;" offset="0.0" id="stopF8FBFE" /><stop style="stop-color:#EDF5FC;stop-opacity:1;" offset="0.25" id="stopEDF5FC" /><stop style="stop-color:#DEEDFA;stop-opacity:1;" offset="0.5" id="stopDEEDFA" /><stop style="stop-color:#D4E7F8;stop-opacity:1;" offset="0.75" id="stopD4E7F8" /><stop style="stop-color:#E2E5E9;stop-opacity:1;" offset="1.0" id="stopE2E5E9" /></linearGradient><linearGradient xmlns:xlink="http://www.w3.org/1999/xlink" xlink:href="#linearGradientF8FBFEEDF5FCDEEDFAD4E7F8E2E5E9" id="linearGradientF8FBFEEDF5FCDEEDFAD4E7F8E2E5E9_1738658774" x1="0" y1="71.0" x2="0" y2="177.0" gradientUnits="userSpaceOnUse" xlink:type="simple" xlink:actuate="onLoad" xlink:show="other" /><linearGradient xmlns:xlink="http://www.w3.org/1999/xlink" xlink:href="#linearGradientF8FBFEEDF5FCDEEDFAD4E7F8E2E5E9" id="linearGradientF8FBFEEDF5FCDEEDFAD4E7F8E2E5E9_178946725" x1="0" y1="64.0" x2="0" y2="170.0" gradientUnits="userSpaceOnUse" xlink:type="simple" xlink:actuate="onLoad" xlink:show="other" /><linearGradient xmlns:xlink="http://www.w3.org/1999/xlink" xlink:href="#linearGradientF8FBFEEDF5FCDEEDFAD4E7F8E2E5E9" id="linearGradientF8FBFEEDF5FCDEEDFAD4E7F8E2E5E9_915585136" x1="0" y1="410.0" x2="0" y2="516.0" gradientUnits="userSpaceOnUse" xlink:type="simple" xlink:actuate="onLoad" xlink:show="other" /><linearGradient xmlns:xlink="http://www.w3.org/1999/xlink" xlink:href="#linearGradientF8FBFEEDF5FCDEEDFAD4E7F8E2E5E9" id="linearGradientF8FBFEEDF5FCDEEDFAD4E7F8E2E5E9_647585214" x1="0" y1="260.0" x2="0" y2="366.0" gradientUnits="userSpaceOnUse" xlink:type="simple" xlink:actuate="onLoad" xlink:show="other" /><linearGradient xmlns:xlink="http://www.w3.org/1999/xlink" xlink:href="#linearGradientF8FBFEEDF5FCDEEDFAD4E7F8E2E5E9" id="linearGradientF8FBFEEDF5FCDEEDFAD4E7F8E2E5E9_1330583000" x1="0" y1="250.0" x2="0" y2="356.0" gradientUnits="userSpaceOnUse" xlink:type="simple" xlink:actuate="onLoad" xlink:show="other" /><linearGradient xmlns:xlink="http://www.w3.org/1999/xlink" xlink:href="#linearGradientF8FBFEEDF5FCDEEDFAD4E7F8E2E5E9" id="linearGradientF8FBFEEDF5FCDEEDFAD4E7F8E2E5E9_296618302" x1="0" y1="260.0" x2="0" y2="366.0" gradientUnits="userSpaceOnUse" xlink:type="simple" xlink:actuate="onLoad" xlink:show="other" /><linearGradient xmlns:xlink="http://www.w3.org/1999/xlink" xlink:href="#linearGradientF8FBFEEDF5FCDEEDFAD4E7F8E2E5E9" id="linearGradientF8FBFEEDF5FCDEEDFAD4E7F8E2E5E9_853303875" x1="0" y1="240.0" x2="0" y2="346.0" gradientUnits="userSpaceOnUse" xlink:type="simple" xlink:actuate="onLoad" xlink:show="other" /><linearGradient xmlns:xlink="http://www.w3.org/1999/xlink" xlink:href="#linearGradientF8FBFEEDF5FCDEEDFAD4E7F8E2E5E9" id="linearGradientF8FBFEEDF5FCDEEDFAD4E7F8E2E5E9_1589951755" x1="0" y1="410.0" x2="0" y2="516.0" gradientUnits="userSpaceOnUse" xlink:type="simple" xlink:actuate="onLoad" xlink:show="other" /><linearGradient xmlns:xlink="http://www.w3.org/1999/xlink" xlink:href="#linearGradientF8FBFEEDF5FCDEEDFAD4E7F8E2E5E9" id="linearGradientF8FBFEEDF5FCDEEDFAD4E7F8E2E5E9_1762820830" x1="0" y1="570.0" x2="0" y2="676.0" gradientUnits="userSpaceOnUse" xlink:type="simple" xlink:actuate="onLoad" xlink:show="other" /><linearGradient xmlns:xlink="http://www.w3.org/1999/xlink" xlink:href="#linearGradientF8FBFEEDF5FCDEEDFAD4E7F8E2E5E9" id="linearGradientF8FBFEEDF5FCDEEDFAD4E7F8E2E5E9_143954235" x1="0" y1="570.0" x2="0" y2="676.0" gradientUnits="userSpaceOnUse" xlink:type="simple" xlink:actuate="onLoad" xlink:show="other" /><linearGradient xmlns:xlink="http://www.w3.org/1999/xlink" xlink:href="#linearGradientF8FBFEEDF5FCDEEDFAD4E7F8E2E5E9" id="linearGradientF8FBFEEDF5FCDEEDFAD4E7F8E2E5E9_1502290960" x1="0" y1="570.0" x2="0" y2="676.0" gradientUnits="userSpaceOnUse" xlink:type="simple" xlink:actuate="onLoad" xlink:show="other" /><linearGradient xmlns:xlink="http://www.w3.org/1999/xlink" xlink:href="#linearGradientF8FBFEEDF5FCDEEDFAD4E7F8E2E5E9" id="linearGradientF8FBFEEDF5FCDEEDFAD4E7F8E2E5E9_584906447" x1="0" y1="570.0" x2="0" y2="676.0" gradientUnits="userSpaceOnUse" xlink:type="simple" xlink:actuate="onLoad" xlink:show="other" /><linearGradient xmlns:xlink="http://www.w3.org/1999/xlink" xlink:href="#linearGradientF8FBFEEDF5FCDEEDFAD4E7F8E2E5E9" id="linearGradientF8FBFEEDF5FCDEEDFAD4E7F8E2E5E9_1596298296" x1="0" y1="580.0" x2="0" y2="686.0" gradientUnits="userSpaceOnUse" xlink:type="simple" xlink:actuate="onLoad" xlink:show="other" /><linearGradient xmlns:xlink="http://www.w3.org/1999/xlink" xlink:href="#linearGradientF8FBFEEDF5FCDEEDFAD4E7F8E2E5E9" id="linearGradientF8FBFEEDF5FCDEEDFAD4E7F8E2E5E9_1939131310" x1="0" y1="761.0" x2="0" y2="867.0" gradientUnits="userSpaceOnUse" xlink:type="simple" xlink:actuate="onLoad" xlink:show="other" /><linearGradient xmlns:xlink="http://www.w3.org/1999/xlink" xlink:href="#linearGradientF8FBFEEDF5FCDEEDFAD4E7F8E2E5E9" id="linearGradientF8FBFEEDF5FCDEEDFAD4E7F8E2E5E9_1941953128" x1="0" y1="768.0" x2="0" y2="874.0" gradientUnits="userSpaceOnUse" xlink:type="simple" xlink:actuate="onLoad" xlink:show="other" /><linearGradient xmlns:xlink="http://www.w3.org/1999/xlink" xlink:href="#linearGradientF8FBFEEDF5FCDEEDFAD4E7F8E2E5E9" id="linearGradientF8FBFEEDF5FCDEEDFAD4E7F8E2E5E9_915419230" x1="0" y1="768.0" x2="0" y2="874.0" gradientUnits="userSpaceOnUse" xlink:type="simple" xlink:actuate="onLoad" xlink:show="other" /><linearGradient xmlns:xlink="http://www.w3.org/1999/xlink" xlink:href="#linearGradientF8FBFEEDF5FCDEEDFAD4E7F8E2E5E9" id="linearGradientF8FBFEEDF5FCDEEDFAD4E7F8E2E5E9_1164437216" x1="0" y1="925.0" x2="0" y2="1031.0" gradientUnits="userSpaceOnUse" xlink:type="simple" xlink:actuate="onLoad" xlink:show="other" /><linearGradient xmlns:xlink="http://www.w3.org/1999/xlink" xlink:href="#linearGradientF8FBFEEDF5FCDEEDFAD4E7F8E2E5E9" id="linearGradientF8FBFEEDF5FCDEEDFAD4E7F8E2E5E9_284925017" x1="0" y1="932.0" x2="0" y2="1038.0" gradientUnits="userSpaceOnUse" xlink:type="simple" xlink:actuate="onLoad" xlink:show="other" /><linearGradient xmlns:xlink="http://www.w3.org/1999/xlink" xlink:href="#linearGradientF8FBFEEDF5FCDEEDFAD4E7F8E2E5E9" id="linearGradientF8FBFEEDF5FCDEEDFAD4E7F8E2E5E9_488270004" x1="0" y1="1088.0" x2="0" y2="1194.0" gradientUnits="userSpaceOnUse" xlink:type="simple" xlink:actuate="onLoad" xlink:show="other" /><linearGradient xmlns:xlink="http://www.w3.org/1999/xlink" xlink:href="#linearGradientF8FBFEEDF5FCDEEDFAD4E7F8E2E5E9" id="linearGradientF8FBFEEDF5FCDEEDFAD4E7F8E2E5E9_717203849" x1="0" y1="71.0" x2="0" y2="177.0" gradientUnits="userSpaceOnUse" xlink:type="simple" xlink:actuate="onLoad" xlink:show="other" /><linearGradient xmlns:xlink="http://www.w3.org/1999/xlink" xlink:href="#linearGradientF8FBFEEDF5FCDEEDFAD4E7F8E2E5E9" id="linearGradientF8FBFEEDF5FCDEEDFAD4E7F8E2E5E9_1351949016" x1="0" y1="768.0" x2="0" y2="874.0" gradientUnits="userSpaceOnUse" xlink:type="simple" xlink:actuate="onLoad" xlink:show="other" /></defs></svg>
