<?xml version="1.0" encoding="UTF-8"?>
<svg xmlns="http://www.w3.org/2000/svg" style="stroke-dasharray:none; shape-rendering:auto; font-family:'Arial'; text-rendering:auto; fill-opacity:1; color-interpolation:auto; color-rendering:auto; font-size:12; fill:black; stroke:black; image-rendering:auto; stroke-miterlimit:10; stroke-linecap:square; stroke-linejoin:miter; font-style:normal; stroke-width:1; stroke-dashoffset:0; font-weight:normal; stroke-opacity:1;" contentScriptType="text/ecmascript" preserveAspectRatio="xMidYMid meet" zoomAndPan="magnify" version="1.0" contentStyleType="text/css" xml:xlink="http://www.w3.org/1999/xlink" width="971" height="451"><rect x="0" y="3" width="971" height="150" ry="0" rx="0" style="stroke:#000000; fill:#9FC1C6" /><g componentSequence="3"><text x="-78" y="7" transform="rotate(270)" text-anchor="middle" style="font-weight:bold;font-size:10px;stroke:none; fill:#434343"><tspan dy="14" x="-78">Solicitante</tspan></text></g><rect x="0" y="301" width="971" height="150" ry="0" rx="0" style="stroke:#000000; fill:#ADC9AC" /><g componentSequence="1"><text x="-376" y="7" transform="rotate(270)" text-anchor="middle" style="font-weight:bold;font-size:10px;stroke:none; fill:#434343"><tspan dy="14" x="-376">Recebimento</tspan></text></g><rect x="0" y="153" width="971" height="150" ry="0" rx="0" style="stroke:#000000; fill:#82B0B7" /><g componentSequence="2"><text x="-228" y="7" transform="rotate(270)" text-anchor="middle" style="font-weight:bold;font-size:10px;stroke:none; fill:#434343"><tspan dy="14" x="-228">Compras</tspan></text></g><g sequence="4"><ellipse cx="137" cy="79" rx="17" ry="17" stroke-width="1" style="fill:url(#linearGradient66FF6696FF96B6FFB6_1726385225);" stroke="336633" /></g><g sequence="24"><rect x="360" y="45" width="106" height="70" ry="5" rx="5" style="fill:url(#linearGradientF8FBFEEDF5FCDEEDFAD4E7F8E2E5E9_1747021541);" stroke="191970" /></g><g componentSequence="24"><text x="413" y="60" text-anchor="middle" style="font-weight:bold;font-size:10px;stroke:none; fill:#333399"><tspan dy="14" x="413">Resposta do</tspan><tspan dy="14" x="413">vendedor</tspan></text></g><g sequence="29"><ellipse cx="877" cy="79" rx="17" ry="17" stroke-width="3" style="fill:url(#linearGradientFF6666FF9696FFB6B6_1813964601);" stroke="993333" /></g><g sequence="30"><rect x="210" y="195" width="106" height="70" ry="5" rx="5" style="fill:url(#linearGradientF8FBFEEDF5FCDEEDFAD4E7F8E2E5E9_689726686);" stroke="191970" /></g><g componentSequence="30"><text x="263" y="210" text-anchor="middle" style="font-weight:bold;font-size:10px;stroke:none; fill:#333399"><tspan dy="14" x="263">Retorno de</tspan><tspan dy="14" x="263">follow-up</tspan></text></g><g sequence="31"><rect x="480" y="195" width="106" height="70" ry="5" rx="5" style="fill:url(#linearGradientF8FBFEEDF5FCDEEDFAD4E7F8E2E5E9_2068455792);" stroke="191970" /></g><g componentSequence="31"><text x="533" y="210" text-anchor="middle" style="font-weight:bold;font-size:10px;stroke:none; fill:#333399"><tspan dy="14" x="533">Tratativa do</tspan><tspan dy="14" x="533">comprador</tspan></text></g><g sequence="32"><rect x="720" y="350" width="106" height="56" ry="5" rx="5" style="fill:url(#linearGradientF8FBFEEDF5FCDEEDFAD4E7F8E2E5E9_410988218);" stroke="191970" /></g><g componentSequence="32"><text x="773" y="367" text-anchor="middle" style="font-weight:bold;font-size:10px;stroke:none; fill:#333399"><tspan dy="14" x="773">Recebimento</tspan></text></g><g sequence="33"><rect x="720" y="45" width="106" height="70" ry="5" rx="5" style="fill:url(#linearGradientF8FBFEEDF5FCDEEDFAD4E7F8E2E5E9_63124899);" stroke="191970" /></g><g componentSequence="33"><text x="773" y="60" text-anchor="middle" style="font-weight:bold;font-size:10px;stroke:none; fill:#333399"><tspan dy="14" x="773">Finalização do</tspan><tspan dy="14" x="773">vendedor</tspan></text></g><g sequence="42"><polygon points=" 620 209 650 179 680 209 650 239 620 209" style="fill:url(#linearGradientFAFBFCFFFFCC_1228118929);" stroke="000000" /></g><g componentSequence="42"><text x="650" y="249" text-anchor="middle" style="font-weight:bold;font-size:10px;stroke:none; fill:#333399"><tspan dy="14" x="650">Retornar</tspan><tspan dy="14" x="650">para</tspan><tspan dy="14" x="650">vend...</tspan></text></g><g componentSequence="34"><text x="853" y="79" style="font-size:10px;font-weight:none;stroke:none; fill:#333399" text-anchor="left" /></g><g componentSequence="36"><text x="272" y="89" style="font-size:10px;font-weight:none;stroke:none; fill:#333399" text-anchor="left" /></g><g componentSequence="37"><text x="422" y="207" style="font-size:10px;font-weight:none;stroke:none; fill:#333399" text-anchor="left" /></g><g componentSequence="38"><text x="613" y="234" style="font-size:10px;font-weight:none;stroke:none; fill:#333399" text-anchor="left" /></g><g componentSequence="39"><text x="783" y="232" style="font-size:10px;font-weight:none;stroke:none; fill:#333399" text-anchor="left" /></g><g componentSequence="40"><text x="853" y="79" style="font-size:10px;font-weight:none;stroke:none; fill:#333399" text-anchor="left" /></g><g componentSequence="41"><text x="147" y="200" style="font-size:10px;font-weight:none;stroke:none; fill:#333399" text-anchor="left" /></g><g componentSequence="43"><text x="617" y="80" style="font-size:10px;font-weight:none;stroke:none; fill:#333399" text-anchor="left" /></g><g componentSequence="44"><text x="660" y="372" style="font-size:10px;font-weight:none;stroke:none; fill:#333399" text-anchor="left" /></g><path style="fill:none; stroke:#F00000;stroke-width:1" d="M137.0 97.0 L137.0 230.0 L209.0 230.0" /><polygon style="fill:#F00000; stroke:#F00000;" points=" 199 225 209 230 199 235 201 230" /><polygon style="fill:#F00000; stroke:#F00000;" points=" 132 107 137 97 142 107 137 105" /><path style="fill:none; stroke:#000000;stroke-width:1" d="M412.0 115.0 L412.0 231.0 L479.0 230.0" /><polygon style="fill:#000000; stroke:#000000;" points=" 469 225 479 230 469 235 471 230" /><path style="fill:none; stroke:#F00000;stroke-width:1" d="M262.0 194.0 L262.0 80.0 L359.0 80.0" /><polygon style="fill:#F00000; stroke:#F00000;" points=" 349 75 359 80 349 85 351 80" /><polygon style="fill:#F00000; stroke:#F00000;" points=" 267 184 262 194 257 184 262 186" /><path style="fill:none; stroke:#000000;stroke-width:1" d="M649.0 178.0 L649.0 80.0 L466.0 80.0" /><polygon style="fill:#000000; stroke:#000000;" points=" 476 85 466 80 476 75 474 80" /><path style="fill:none; stroke:#009600;stroke-width:1" d="M826.0 79.0 L860.0 79.0" /><polygon style="fill:#009600; stroke:#009600;" points=" 850 74 860 79 850 84 852 79" /><path style="fill:none; stroke:#000000;stroke-width:1" d="M826.0 79.0 L860.0 79.0" /><polygon style="fill:#000000; stroke:#000000;" points=" 850 74 860 79 850 84 852 79" /><path style="fill:none; stroke:#000000;stroke-width:1" d="M586.0 233.0 L619.0 235.0" /><polygon style="fill:#000000; stroke:#000000;" points=" 609 229 619 235 609 239 611 235" /><path style="fill:none; stroke:#000000;stroke-width:1" d="M773.0 349.0 L773.0 115.0" /><polygon style="fill:#000000; stroke:#000000;" points=" 768 125 773 115 778 125 773 123" /><path style="fill:none; stroke:#000000;stroke-width:1" d="M650.0 295.0 L650.0 379.0 L719.0 378.0" /><polygon style="fill:#000000; stroke:#000000;" points=" 709 373 719 378 709 383 711 378" /><defs><linearGradient xmlns:xlink="http://www.w3.org/1999/xlink" xlink:href="#linearGradient66FF6696FF96B6FFB6" id="linearGradient66FF6696FF96B6FFB6_1726385225" x1="0" y1="62.0" x2="0" y2="97.0" gradientUnits="userSpaceOnUse" xlink:type="simple" xlink:actuate="onLoad" xlink:show="other" /><linearGradient id="linearGradient66FF6696FF96B6FFB6"><stop style="stop-color:#66FF66;stop-opacity:1;" offset="0.0" id="stop66FF66" /><stop style="stop-color:#96FF96;stop-opacity:1;" offset="0.5" id="stop96FF96" /><stop style="stop-color:#B6FFB6;stop-opacity:1;" offset="1.0" id="stopB6FFB6" /></linearGradient><linearGradient xmlns:xlink="http://www.w3.org/1999/xlink" xlink:href="#linearGradientF8FBFEEDF5FCDEEDFAD4E7F8E2E5E9" id="linearGradientF8FBFEEDF5FCDEEDFAD4E7F8E2E5E9_1747021541" x1="0" y1="45.0" x2="0" y2="151.0" gradientUnits="userSpaceOnUse" xlink:type="simple" xlink:actuate="onLoad" xlink:show="other" /><linearGradient id="linearGradientF8FBFEEDF5FCDEEDFAD4E7F8E2E5E9"><stop style="stop-color:#F8FBFE;stop-opacity:1;" offset="0.0" id="stopF8FBFE" /><stop style="stop-color:#EDF5FC;stop-opacity:1;" offset="0.25" id="stopEDF5FC" /><stop style="stop-color:#DEEDFA;stop-opacity:1;" offset="0.5" id="stopDEEDFA" /><stop style="stop-color:#D4E7F8;stop-opacity:1;" offset="0.75" id="stopD4E7F8" /><stop style="stop-color:#E2E5E9;stop-opacity:1;" offset="1.0" id="stopE2E5E9" /></linearGradient><linearGradient xmlns:xlink="http://www.w3.org/1999/xlink" xlink:href="#linearGradientFF6666FF9696FFB6B6" id="linearGradientFF6666FF9696FFB6B6_1813964601" x1="0" y1="62.0" x2="0" y2="97.0" gradientUnits="userSpaceOnUse" xlink:type="simple" xlink:actuate="onLoad" xlink:show="other" /><linearGradient id="linearGradientFF6666FF9696FFB6B6"><stop style="stop-color:#FF6666;stop-opacity:1;" offset="0.0" id="stopFF6666" /><stop style="stop-color:#FF9696;stop-opacity:1;" offset="0.5" id="stopFF9696" /><stop style="stop-color:#FFB6B6;stop-opacity:1;" offset="1.0" id="stopFFB6B6" /></linearGradient><linearGradient xmlns:xlink="http://www.w3.org/1999/xlink" xlink:href="#linearGradientF8FBFEEDF5FCDEEDFAD4E7F8E2E5E9" id="linearGradientF8FBFEEDF5FCDEEDFAD4E7F8E2E5E9_689726686" x1="0" y1="195.0" x2="0" y2="301.0" gradientUnits="userSpaceOnUse" xlink:type="simple" xlink:actuate="onLoad" xlink:show="other" /><linearGradient xmlns:xlink="http://www.w3.org/1999/xlink" xlink:href="#linearGradientF8FBFEEDF5FCDEEDFAD4E7F8E2E5E9" id="linearGradientF8FBFEEDF5FCDEEDFAD4E7F8E2E5E9_2068455792" x1="0" y1="195.0" x2="0" y2="301.0" gradientUnits="userSpaceOnUse" xlink:type="simple" xlink:actuate="onLoad" xlink:show="other" /><linearGradient xmlns:xlink="http://www.w3.org/1999/xlink" xlink:href="#linearGradientF8FBFEEDF5FCDEEDFAD4E7F8E2E5E9" id="linearGradientF8FBFEEDF5FCDEEDFAD4E7F8E2E5E9_410988218" x1="0" y1="350.0" x2="0" y2="456.0" gradientUnits="userSpaceOnUse" xlink:type="simple" xlink:actuate="onLoad" xlink:show="other" /><linearGradient xmlns:xlink="http://www.w3.org/1999/xlink" xlink:href="#linearGradientF8FBFEEDF5FCDEEDFAD4E7F8E2E5E9" id="linearGradientF8FBFEEDF5FCDEEDFAD4E7F8E2E5E9_63124899" x1="0" y1="45.0" x2="0" y2="151.0" gradientUnits="userSpaceOnUse" xlink:type="simple" xlink:actuate="onLoad" xlink:show="other" /><linearGradient xmlns:xlink="http://www.w3.org/1999/xlink" xlink:href="#linearGradientFAFBFCFFFFCC" id="linearGradientFAFBFCFFFFCC_1228118929" x1="0" y1="179.0" x2="0" y2="239.0" gradientUnits="userSpaceOnUse" xlink:type="simple" xlink:actuate="onLoad" xlink:show="other" /><linearGradient id="linearGradientFAFBFCFFFFCC"><stop style="stop-color:#FAFBFC;stop-opacity:1;" offset="0.0" id="stopFAFBFC" /><stop style="stop-color:#FFFFCC;stop-opacity:1;" offset="1.0" id="stopFFFFCC" /></linearGradient></defs></svg>
